<svg width="1929" height="3593" viewBox="0 0 1929 3593" fill="none" xmlns="http://www.w3.org/2000/svg">
<g clip-path="url(#clip0_306_1578)">
<path d="M-22.1074 0H2069.24V3688.33H-22.1074V0Z" fill="url(#paint0_linear_306_1578)"/>
<path d="M1656.05 755.6C1659.94 755.6 1663.09 752.089 1663.09 747.758C1663.09 743.427 1659.94 739.916 1656.05 739.916C1652.16 739.916 1649 743.427 1649 747.758C1649 752.089 1652.16 755.6 1656.05 755.6Z" fill="#FCEF94"/>
<path d="M1649.5 390.025C1653.1 390.025 1656.01 386.784 1656.01 382.786C1656.01 378.788 1653.1 375.547 1649.5 375.547C1645.91 375.547 1643 378.788 1643 382.786C1643 386.784 1645.91 390.025 1649.5 390.025Z" fill="#FCEF94"/>
<path d="M201.094 832.817C208.878 832.817 215.188 825.794 215.188 817.132C215.188 808.47 208.878 801.447 201.094 801.447C193.31 801.447 187 808.47 187 817.132C187 825.794 193.31 832.817 201.094 832.817Z" fill="#FCEF94"/>
<path d="M1455.67 1237C1460.46 1237 1464.35 1232.68 1464.35 1227.35C1464.35 1222.02 1460.46 1217.7 1455.67 1217.7C1450.88 1217.7 1447 1222.02 1447 1227.35C1447 1232.68 1450.88 1237 1455.67 1237Z" fill="#FCEF94"/>
<path d="M915.673 1086.18C920.463 1086.18 924.347 1081.86 924.347 1076.53C924.347 1071.2 920.463 1066.88 915.673 1066.88C910.883 1066.88 907 1071.2 907 1076.53C907 1081.86 910.883 1086.18 915.673 1086.18Z" fill="#FCEF94"/>
<path d="M682.805 340.558C692.085 340.558 699.609 332.185 699.609 321.857C699.609 311.528 692.085 303.156 682.805 303.156C673.524 303.156 666 311.528 666 321.857C666 332.185 673.524 340.558 682.805 340.558Z" fill="#FCEF94"/>
<path d="M682.805 340.558C692.085 340.558 699.609 332.185 699.609 321.857C699.609 311.528 692.085 303.156 682.805 303.156C673.524 303.156 666 311.528 666 321.857C666 332.185 673.524 340.558 682.805 340.558Z" fill="#FCEF94"/>
<path d="M208.047 2589.14C204.155 2589.14 201 2585.74 201 2581.55C201 2577.36 204.155 2573.96 208.047 2573.96C211.939 2573.96 215.094 2577.36 215.094 2581.55C215.094 2585.74 211.939 2589.14 208.047 2589.14Z" fill="#FCEF94"/>
<path d="M214.589 2235.12C210.996 2235.12 208.084 2231.98 208.084 2228.11C208.084 2224.24 210.996 2221.1 214.589 2221.1C218.181 2221.1 221.094 2224.24 221.094 2228.11C221.094 2231.98 218.181 2235.12 214.589 2235.12Z" fill="#FCEF94"/>
<path d="M1663 2663.92C1655.22 2663.92 1648.91 2657.12 1648.91 2648.73C1648.91 2640.34 1655.22 2633.54 1663 2633.54C1670.78 2633.54 1677.09 2640.34 1677.09 2648.73C1677.09 2657.12 1670.78 2663.92 1663 2663.92Z" fill="#FCEF94"/>
<path d="M408.42 3055.33C403.63 3055.33 399.747 3051.14 399.747 3045.98C399.747 3040.82 403.63 3036.63 408.42 3036.63C413.211 3036.63 417.094 3040.82 417.094 3045.98C417.094 3051.14 413.211 3055.33 408.42 3055.33Z" fill="#FCEF94"/>
<path d="M948.42 2909.28C943.63 2909.28 939.747 2905.1 939.747 2899.93C939.747 2894.77 943.63 2890.59 948.42 2890.59C953.211 2890.59 957.094 2894.77 957.094 2899.93C957.094 2905.1 953.211 2909.28 948.42 2909.28Z" fill="#FCEF94"/>
<path d="M1181.29 2187.22C1172.01 2187.22 1164.48 2179.11 1164.48 2169.11C1164.48 2159.11 1172.01 2151 1181.29 2151C1190.57 2151 1198.09 2159.11 1198.09 2169.11C1198.09 2179.11 1190.57 2187.22 1181.29 2187.22Z" fill="#FCEF94"/>
<path d="M1181.29 2187.22C1172.01 2187.22 1164.48 2179.11 1164.48 2169.11C1164.48 2159.11 1172.01 2151 1181.29 2151C1190.57 2151 1198.09 2159.11 1198.09 2169.11C1198.09 2179.11 1190.57 2187.22 1181.29 2187.22Z" fill="#FCEF94"/>
<path d="M1934.9 629.003C1943.12 610.78 1965.72 605.465 1976 605.085V914.871C1949.06 936.283 1909.59 915.061 1893.22 901.774C1816.96 930.019 1754.5 883.551 1732.81 856.786C1697.23 859.634 1629.14 845.625 1641.47 766.812C1653.8 687.999 1719.3 672.471 1750.51 674.559C1802.57 574.334 1895.13 602.428 1934.9 629.003Z" fill="url(#paint1_linear_306_1578)"/>
<path d="M206.956 328.196C167.275 194.574 52.4517 217.414 0 245.537V711.275H286.774C385.291 744.566 434.626 692.463 446.979 662.25C499.431 681.86 542.57 651.798 557.584 634.317C579.02 642.982 596.162 630.706 602.053 623.486C664.083 633.063 684.912 599.353 687.572 581.301C693.046 529.768 644.623 521.065 619.727 523.155C608.325 504.458 587.61 505.864 578.678 508.904C556.785 427.728 485.938 435.176 453.25 449.048C416.762 325.459 327.062 350.048 286.774 377.791C272.178 315.312 227.48 318.695 206.956 328.196Z" fill="url(#paint2_linear_306_1578)"/>
<path d="M41.1022 498.003C32.8818 479.78 10.2756 474.465 0 474.085V783.871C26.9447 805.283 66.4106 784.061 82.7755 770.774C159.043 799.019 221.495 752.551 243.188 725.786C278.772 728.634 346.857 714.625 334.526 635.812C322.196 556.999 256.699 541.471 225.491 543.559C173.429 443.334 80.8724 471.428 41.1022 498.003Z" fill="url(#paint3_linear_306_1578)"/>
<path d="M-22.8978 2402C-31.1182 2383.78 -53.7245 2378.46 -64 2378.09V2687.87C-37.0553 2709.28 2.41058 2688.06 18.7755 2674.77C95.0429 2703.02 157.495 2656.55 179.188 2629.79C214.772 2632.63 282.857 2618.62 270.526 2539.81C258.196 2461 192.699 2445.47 161.491 2447.56C109.429 2347.33 16.8724 2375.43 -22.8978 2402Z" fill="url(#paint4_linear_306_1578)"/>
<path d="M1705.04 2101.2C1744.72 1967.57 1859.55 1990.41 1912 2018.54V2484.27H1625.23C1526.71 2517.57 1477.37 2465.46 1465.02 2435.25C1412.57 2454.86 1369.43 2424.8 1354.42 2407.32C1332.98 2415.98 1315.84 2403.71 1309.95 2396.49C1247.92 2406.06 1227.09 2372.35 1224.43 2354.3C1218.95 2302.77 1267.38 2294.07 1292.27 2296.16C1303.68 2277.46 1324.39 2278.86 1333.32 2281.9C1355.21 2200.73 1426.06 2208.18 1458.75 2222.05C1495.24 2098.46 1584.94 2123.05 1625.23 2150.79C1639.82 2088.31 1684.52 2091.69 1705.04 2101.2Z" fill="url(#paint5_linear_306_1578)"/>
<path d="M1870.9 2271C1879.12 2252.78 1901.72 2247.46 1912 2247.09V2556.87C1885.06 2578.28 1845.59 2557.06 1829.22 2543.77C1752.96 2572.02 1690.5 2525.55 1668.81 2498.79C1633.23 2501.63 1565.14 2487.62 1577.47 2408.81C1589.8 2330 1655.3 2314.47 1686.51 2316.56C1738.57 2216.33 1831.13 2244.43 1870.9 2271Z" fill="url(#paint6_linear_306_1578)"/>
</g>
<defs>
<linearGradient id="paint0_linear_306_1578" x1="959.5" y1="-6.56375e-07" x2="1203.19" y2="3531.6" gradientUnits="userSpaceOnUse">
<stop stop-color="#A32BE2"/>
<stop offset="1" stop-color="#9A2CE3"/>
</linearGradient>
<linearGradient id="paint1_linear_306_1578" x1="1762.13" y1="532" x2="1957.98" y2="895.389" gradientUnits="userSpaceOnUse">
<stop stop-color="#CEB3F9"/>
<stop offset="0.442123" stop-color="#AA45ED"/>
<stop offset="1" stop-color="#B52DE4"/>
</linearGradient>
<linearGradient id="paint2_linear_306_1578" x1="419" y1="184.5" x2="229.023" y2="757.188" gradientUnits="userSpaceOnUse">
<stop stop-color="#CEB3F9"/>
<stop offset="0.442123" stop-color="#AD45ED"/>
<stop offset="1" stop-color="#B12CE3"/>
</linearGradient>
<linearGradient id="paint3_linear_306_1578" x1="213.875" y1="401" x2="18.0239" y2="764.389" gradientUnits="userSpaceOnUse">
<stop stop-color="#CEB3F9"/>
<stop offset="0.442123" stop-color="#AF45ED"/>
<stop offset="1" stop-color="#B22DE3"/>
</linearGradient>
<linearGradient id="paint4_linear_306_1578" x1="149.875" y1="2305" x2="-45.9761" y2="2668.39" gradientUnits="userSpaceOnUse">
<stop stop-color="#CEB3F9"/>
<stop offset="0.442123" stop-color="#AA45ED"/>
<stop offset="1" stop-color="#B52DE4"/>
</linearGradient>
<linearGradient id="paint5_linear_306_1578" x1="1493" y1="1957.5" x2="1682.98" y2="2530.19" gradientUnits="userSpaceOnUse">
<stop stop-color="#CEB3F9"/>
<stop offset="0.442123" stop-color="#AD45ED"/>
<stop offset="1" stop-color="#B12CE3"/>
</linearGradient>
<linearGradient id="paint6_linear_306_1578" x1="1698.13" y1="2174" x2="1893.98" y2="2537.39" gradientUnits="userSpaceOnUse">
<stop stop-color="#CEB3F9"/>
<stop offset="0.442123" stop-color="#AF45ED"/>
<stop offset="1" stop-color="#B22DE3"/>
</linearGradient>
<clipPath id="clip0_306_1578">
<rect width="1929" height="3593" fill="white"/>
</clipPath>
</defs>
</svg>
