<svg width="1440" height="5173" viewBox="0 0 1440 5173" fill="none" xmlns="http://www.w3.org/2000/svg">
<g clip-path="url(#clip0_192_868)">
<rect width="1440" height="5173" fill="url(#paint0_linear_192_868)"/>
<path d="M617.133 -4.09011L183.416 -19.7739L328.005 258.535L515.731 173.951L617.133 -4.09011Z" fill="url(#paint1_linear_192_868)"/>
<ellipse cx="1229.02" cy="13.3032" rx="48.5" ry="27" fill="#4055CE"/>
<ellipse cx="861.523" cy="2.80316" rx="43" ry="12.5" fill="#275083"/>
<path d="M631.435 358.228C640.544 408.774 723.204 424.903 741.424 414.27C812.781 301.81 926.961 47.8883 920.584 22.8607C914.207 -2.16684 882.956 -30.8854 876.63 -41.1092C837.884 -65.16 730.037 -19.0911 672.746 0.951157C658.189 16.2896 627.203 2.35206 619.371 0.951172C543.228 -12.6682 495.076 55.1806 500.293 99.2005C499.534 98.587 431.789 60.7189 401.804 200.579C387.254 187.492 353.828 169.172 336.52 200.579C334.322 271.262 369.731 406.043 528.956 379.698C584.827 437.604 620.555 389.512 631.435 358.228Z" fill="url(#paint2_linear_192_868)"/>
<path d="M285.281 426.318C386.463 547.503 469.792 480.658 484.628 379.698C496.142 301.351 437.225 143.067 323.384 189.846L323.42 189.039C324.697 160.031 327.012 107.471 276.171 82.1887C263.202 -19.1351 190.38 -4.17016 180.056 -15.4571H-47.9708V348.413C-51.0073 586.42 183.936 570.471 211.646 456.989C262.963 518.821 282.118 462.305 285.281 426.318Z" fill="url(#paint3_linear_192_868)"/>
<path d="M861.911 175.598C853.159 64.2967 912.173 20.0953 939.994 9.83352C991.53 -34.687 1142.01 -12.8643 1213.59 5.68594L1203.46 341.366L861.911 430.762C666.464 446.865 688.909 388.136 724.562 356.758C726.507 176.308 816.938 160.797 861.911 175.598Z" fill="url(#paint4_linear_192_868)"/>
<path d="M1098.53 222.257C1092.05 40.5528 1158.75 4.73383 1202.76 -7.33886L1516.48 -18.5897C1516.48 -18.5897 1526.98 98.5108 1516.48 170.898C1483.3 399.664 1275.5 346.258 1275.5 346.258C1286.52 415.993 1230.96 443.658 1201.8 448.773C1161.95 530.786 1051.82 535.328 1001.74 527.348C845.9 567.618 813.42 519.573 816.66 490.516C826.38 421.763 882.537 401.301 909.401 399.664C920.093 335.822 967.044 337.459 989.183 346.258C1004.73 275.541 1054.79 264.409 1077.87 267.683C1074.63 247.057 1090.29 228.805 1098.53 222.257Z" fill="url(#paint5_linear_192_868)"/>
<g filter="url(#filter0_f_192_868)">
<path d="M710.778 -2.09181C720.826 10.7309 645.368 -0.162258 598.837 36.3032C552.305 72.7687 512.658 100.077 502.609 87.2548C492.56 74.432 495.305 58.7687 541.837 22.3032C588.368 -14.1623 700.729 -14.9146 710.778 -2.09181Z" fill="#4B6DDD"/>
</g>
<g filter="url(#filter1_f_192_868)">
<ellipse cx="800.025" cy="530.551" rx="400.124" ry="217.91" fill="#3355DC"/>
</g>
<g filter="url(#filter2_f_192_868)">
<ellipse cx="95.178" cy="493.259" rx="304.946" ry="277.717" fill="#3457DC"/>
</g>
<g filter="url(#filter3_f_192_868)">
<ellipse cx="365.41" cy="222.69" rx="365.41" ry="222.69" transform="matrix(0.940179 -0.340679 0.166853 0.985982 951 357.16)" fill="#3455DB"/>
</g>
<path d="M1231.01 4575.35C1233.92 4575.35 1236.28 4573.08 1236.28 4570.28C1236.28 4567.48 1233.92 4565.21 1231.01 4565.21C1228.11 4565.21 1225.75 4567.48 1225.75 4570.28C1225.75 4573.08 1228.11 4575.35 1231.01 4575.35Z" fill="#FCEF94"/>
<path d="M1226.13 4339.13C1228.82 4339.13 1230.99 4337.04 1230.99 4334.45C1230.99 4331.87 1228.82 4329.78 1226.13 4329.78C1223.45 4329.78 1221.28 4331.87 1221.28 4334.45C1221.28 4337.04 1223.45 4339.13 1226.13 4339.13Z" fill="#FCEF94"/>
<path d="M144.892 4625.24C150.703 4625.24 155.414 4620.7 155.414 4615.1C155.414 4609.51 150.703 4604.97 144.892 4604.97C139.082 4604.97 134.371 4609.51 134.371 4615.1C134.371 4620.7 139.082 4625.24 144.892 4625.24Z" fill="#FCEF94"/>
<path d="M1081.44 4886.4C1085.01 4886.4 1087.91 4883.61 1087.91 4880.16C1087.91 4876.72 1085.01 4873.93 1081.44 4873.93C1077.86 4873.93 1074.96 4876.72 1074.96 4880.16C1074.96 4883.61 1077.86 4886.4 1081.44 4886.4Z" fill="#FCEF94"/>
<path d="M678.326 4788.95C681.902 4788.95 684.801 4786.16 684.801 4782.72C684.801 4779.27 681.902 4776.48 678.326 4776.48C674.75 4776.48 671.852 4779.27 671.852 4782.72C671.852 4786.16 674.75 4788.95 678.326 4788.95Z" fill="#FCEF94"/>
<path d="M504.49 4307.17C511.418 4307.17 517.035 4301.76 517.035 4295.08C517.035 4288.41 511.418 4283 504.49 4283C497.562 4283 491.945 4288.41 491.945 4295.08C491.945 4301.76 497.562 4307.17 504.49 4307.17Z" fill="#FCEF94"/>
<path d="M504.49 4307.17C511.418 4307.17 517.035 4301.76 517.035 4295.08C517.035 4288.41 511.418 4283 504.49 4283C497.562 4283 491.945 4288.41 491.945 4295.08C491.945 4301.76 497.562 4307.17 504.49 4307.17Z" fill="#FCEF94"/>
<path d="M1295.33 1391.75C1324.34 1294.07 1408.28 1310.77 1446.62 1331.33V1671.79H1236.98C1164.96 1696.13 1128.9 1658.04 1119.87 1635.96C1081.52 1650.29 1049.99 1628.32 1039.01 1615.54C1023.34 1621.87 1010.81 1612.9 1006.5 1607.62C961.158 1614.62 945.931 1589.98 943.986 1576.78C939.985 1539.11 975.384 1532.75 993.583 1534.27C1001.92 1520.61 1017.06 1521.63 1023.59 1523.86C1039.6 1464.51 1091.39 1469.96 1115.28 1480.1C1141.96 1389.75 1207.53 1407.73 1236.98 1428.01C1247.65 1382.34 1280.33 1384.81 1295.33 1391.75Z" fill="url(#paint6_linear_192_868)"/>
<path d="M1415.11 1517.35C1421.12 1504.03 1437.65 1500.14 1445.16 1499.87V1726.33C1425.46 1741.98 1396.61 1726.47 1384.65 1716.75C1328.89 1737.4 1283.24 1703.43 1267.38 1683.86C1241.37 1685.95 1191.6 1675.71 1200.61 1618.09C1209.62 1560.48 1257.5 1549.13 1280.32 1550.65C1318.38 1477.39 1386.04 1497.92 1415.11 1517.35Z" fill="url(#paint7_linear_192_868)"/>
<path d="M36.2738 1202.28C30.2645 1188.96 13.7388 1185.07 6.22707 1184.79V1411.25C25.9243 1426.91 54.7749 1411.39 66.738 1401.68C122.491 1422.33 168.146 1388.36 184.004 1368.79C210.016 1370.87 259.788 1360.63 250.774 1303.02C241.76 1245.41 193.88 1234.05 171.067 1235.58C133.008 1162.31 65.3469 1182.85 36.2738 1202.28Z" fill="url(#paint8_radial_192_868)"/>
<path d="M177.192 3118.8C174.156 3118.8 171.695 3116.2 171.695 3112.98C171.695 3109.77 174.156 3107.17 177.192 3107.17C180.228 3107.17 182.689 3109.77 182.689 3112.98C182.689 3116.2 180.228 3118.8 177.192 3118.8Z" fill="#FCEF94"/>
<path d="M182.295 2847.55C179.493 2847.55 177.221 2845.14 177.221 2842.18C177.221 2839.21 179.493 2836.81 182.295 2836.81C185.097 2836.81 187.369 2839.21 187.369 2842.18C187.369 2845.14 185.097 2847.55 182.295 2847.55Z" fill="#FCEF94"/>
<path d="M1309.01 3152.82C1302.93 3152.82 1298.01 3147.61 1298.01 3141.18C1298.01 3134.76 1302.93 3129.55 1309.01 3129.55C1315.08 3129.55 1320 3134.76 1320 3141.18C1320 3147.61 1315.08 3152.82 1309.01 3152.82Z" fill="#FCEF94"/>
<path d="M333.492 3476C329.756 3476 326.727 3472.79 326.727 3468.84C326.727 3464.88 329.756 3461.68 333.492 3461.68C337.229 3461.68 340.258 3464.88 340.258 3468.84C340.258 3472.79 337.229 3476 333.492 3476Z" fill="#FCEF94"/>
<path d="M754.719 3364.1C750.982 3364.1 747.953 3360.89 747.953 3356.93C747.953 3352.98 750.982 3349.77 754.719 3349.77C758.455 3349.77 761.484 3352.98 761.484 3356.93C761.484 3360.89 758.455 3364.1 754.719 3364.1Z" fill="#FCEF94"/>
<path d="M936.368 2810.85C929.129 2810.85 923.26 2804.63 923.26 2796.97C923.26 2789.31 929.129 2783.09 936.368 2783.09C943.608 2783.09 949.477 2789.31 949.477 2796.97C949.477 2804.63 943.608 2810.85 936.368 2810.85Z" fill="#FCEF94"/>
<path d="M936.368 2810.85C929.129 2810.85 923.26 2804.63 923.26 2796.97C923.26 2789.31 929.129 2783.09 936.368 2783.09C943.608 2783.09 949.477 2789.31 949.477 2796.97C949.477 2804.63 943.608 2810.85 936.368 2810.85Z" fill="#FCEF94"/>
<path d="M1266.6 1922.83C1269.58 1922.83 1272 1920.63 1272 1917.91C1272 1915.2 1269.58 1913 1266.6 1913C1263.62 1913 1261.2 1915.2 1261.2 1917.91C1261.2 1920.63 1263.62 1922.83 1266.6 1922.83Z" fill="#FCEF94"/>
<path d="M342.432 2374.22C345.184 2374.22 347.414 2372.19 347.414 2369.68C347.414 2367.18 345.184 2365.15 342.432 2365.15C339.68 2365.15 337.449 2367.18 337.449 2369.68C337.449 2372.19 339.68 2374.22 342.432 2374.22Z" fill="#FCEF94"/>
<path d="M1105.33 1959.12C1108.09 1959.12 1110.32 1957.09 1110.32 1954.59C1110.32 1952.08 1108.09 1950.05 1105.33 1950.05C1102.58 1950.05 1100.35 1952.08 1100.35 1954.59C1100.35 1957.09 1102.58 1959.12 1105.33 1959.12Z" fill="#FCEF94"/>
<path d="M182.796 2256.27C188.758 2256.27 193.591 2251.87 193.591 2246.44C193.591 2241.01 188.758 2236.61 182.796 2236.61C176.833 2236.61 172 2241.01 172 2246.44C172 2251.87 176.833 2256.27 182.796 2256.27Z" fill="#FCEF94"/>
<path d="M1147.59 2502C1151.26 2502 1154.24 2499.29 1154.24 2495.95C1154.24 2492.61 1151.26 2489.9 1147.59 2489.9C1143.92 2489.9 1140.95 2492.61 1140.95 2495.95C1140.95 2499.29 1143.92 2502 1147.59 2502Z" fill="#FCEF94"/>
<path d="M809.135 2397.66C816.244 2397.66 822.007 2392.41 822.007 2385.94C822.007 2379.47 816.244 2374.22 809.135 2374.22C802.027 2374.22 796.264 2379.47 796.264 2385.94C796.264 2392.41 802.027 2397.66 809.135 2397.66Z" fill="#FCEF94"/>
<path d="M37.6998 2427.38C8.61349 2329.43 -75.5529 2346.17 -114 2366.79V2708.18H96.2068C168.421 2732.58 204.584 2694.39 213.639 2672.24C252.086 2686.61 283.708 2664.58 294.712 2651.77C310.426 2658.12 322.991 2649.12 327.309 2643.83C372.777 2650.85 388.045 2626.14 389.995 2612.9C394.007 2575.13 358.513 2568.75 340.264 2570.28C331.906 2556.58 316.722 2557.61 310.175 2559.84C294.127 2500.33 242.195 2505.79 218.236 2515.96C191.489 2425.37 125.739 2443.39 96.2068 2463.73C85.5083 2417.93 52.7444 2420.41 37.6998 2427.38Z" fill="url(#paint9_linear_192_868)"/>
<path d="M-82.4063 2553.31C-88.4319 2539.95 -105.002 2536.06 -112.535 2535.78V2762.86C-92.7839 2778.55 -63.8551 2762.99 -51.8595 2753.26C4.04506 2773.96 49.8231 2739.9 65.7241 2720.28C91.8074 2722.37 141.714 2712.1 132.676 2654.33C123.637 2596.56 75.6274 2585.17 52.7523 2586.71C14.5898 2513.24 -53.2545 2533.83 -82.4063 2553.31Z" fill="url(#paint10_radial_192_868)"/>
<path d="M1121.69 2663.51C1086.51 2669.96 1076.25 2699.92 1075.51 2714.09V2750.74H1437.62V2371.41C1379.86 2361.73 1351.49 2406.47 1344.53 2430.05C1231.35 2419.49 1228.71 2504.33 1241.54 2548.06C1208.7 2551.29 1197.07 2578.24 1195.36 2591.31C1125.58 2586.91 1117.17 2637.61 1121.69 2663.51Z" fill="url(#paint11_linear_192_868)"/>
<path d="M1297.25 2699.43C1324.81 2602.67 1404.02 2603.16 1440.19 2615.5V2951.22C1378.61 2976.43 1342.21 2925.32 1331.7 2896.61C1212.66 2966.98 1143.81 2894.41 1124.26 2849.33C1086.73 2870.15 1052.42 2853.36 1039.96 2842.36C1010.06 2858.2 988.897 2848.96 982.056 2842.36C948.045 2854.68 929.823 2837.77 927.814 2826.97C921.757 2794.44 946.139 2788.85 957.867 2790.32C959.919 2778.3 972.893 2778.23 979.124 2779.69C1001.11 2686.6 1098.97 2699.43 1128.66 2738.28C1142.44 2729.77 1162.74 2734.73 1171.17 2738.28C1204.6 2690.49 1263.78 2695.64 1289.19 2704.19C1291.82 2698.91 1295.66 2698.82 1297.25 2699.43Z" fill="url(#paint12_linear_192_868)"/>
<path d="M1248.38 748.123C1251.28 748.123 1253.64 745.857 1253.64 743.061C1253.64 740.266 1251.28 738 1248.38 738C1245.47 738 1243.12 740.266 1243.12 743.061C1243.12 745.857 1245.47 748.123 1248.38 748.123Z" fill="#FCEF94"/>
<path d="M314.1 927.22C316.782 927.22 318.956 925.128 318.956 922.548C318.956 919.968 316.782 917.876 314.1 917.876C311.418 917.876 309.244 919.968 309.244 922.548C309.244 925.128 311.418 927.22 314.1 927.22Z" fill="#FCEF94"/>
<path d="M158.521 805.745C164.332 805.745 169.043 801.213 169.043 795.623C169.043 790.032 164.332 785.5 158.521 785.5C152.711 785.5 148 790.032 148 795.623C148 801.213 152.711 805.745 158.521 805.745Z" fill="#FCEF94"/>
<path d="M1098.8 1058.82C1102.37 1058.82 1105.27 1056.03 1105.27 1052.59C1105.27 1049.15 1102.37 1046.36 1098.8 1046.36C1095.22 1046.36 1092.32 1049.15 1092.32 1052.59C1092.32 1056.03 1095.22 1058.82 1098.8 1058.82Z" fill="#FCEF94"/>
<path d="M768.943 951.359C775.871 951.359 781.488 945.955 781.488 939.29C781.488 932.624 775.871 927.22 768.943 927.22C762.015 927.22 756.398 932.624 756.398 939.29C756.398 945.955 762.015 951.359 768.943 951.359Z" fill="#FCEF94"/>
<path d="M-23.567 3469.12C-29.8539 3455.19 -47.1427 3451.12 -55.0012 3450.83V3687.75C-34.3944 3704.12 -4.21172 3687.89 8.3038 3677.73C66.6316 3699.33 114.394 3663.79 130.984 3643.33C158.198 3645.5 210.268 3634.79 200.838 3574.52C191.408 3514.24 141.317 3502.37 117.45 3503.96C77.6335 3427.31 6.84842 3448.8 -23.567 3469.12Z" fill="url(#paint13_linear_192_868)"/>
<path d="M1307.11 3701C1337.45 3598.81 1425.27 3616.27 1465.38 3637.78V3993.97H1246.06C1170.72 4019.43 1132.99 3979.58 1123.54 3956.47C1083.43 3971.47 1050.43 3948.48 1038.95 3935.11C1022.56 3941.74 1009.45 3932.35 1004.94 3926.83C957.504 3934.15 941.575 3908.37 939.54 3894.57C935.354 3855.16 972.387 3848.5 991.426 3850.1C1000.15 3835.8 1015.99 3836.87 1022.82 3839.2C1039.56 3777.12 1093.75 3782.81 1118.74 3793.42C1146.65 3698.9 1215.25 3717.71 1246.06 3738.93C1257.22 3691.14 1291.41 3693.73 1307.11 3701Z" fill="url(#paint14_linear_192_868)"/>
<path d="M1432.42 3832.39C1438.71 3818.46 1455.99 3814.39 1463.85 3814.1V4051.02C1443.25 4067.39 1413.06 4051.16 1400.55 4041C1342.22 4062.6 1294.46 4027.07 1277.87 4006.6C1250.65 4008.77 1198.58 3998.06 1208.01 3937.79C1217.44 3877.51 1267.53 3865.64 1291.4 3867.23C1331.22 3790.58 1402 3812.07 1432.42 3832.39Z" fill="url(#paint15_linear_192_868)"/>
</g>
<defs>
<filter id="filter0_f_192_868" x="437.85" y="-69.6307" width="333.838" height="220.098" filterUnits="userSpaceOnUse" color-interpolation-filters="sRGB">
<feFlood flood-opacity="0" result="BackgroundImageFix"/>
<feBlend mode="normal" in="SourceGraphic" in2="BackgroundImageFix" result="shape"/>
<feGaussianBlur stdDeviation="30" result="effect1_foregroundBlur_192_868"/>
</filter>
<filter id="filter1_f_192_868" x="149.9" y="62.6407" width="1300.25" height="935.821" filterUnits="userSpaceOnUse" color-interpolation-filters="sRGB">
<feFlood flood-opacity="0" result="BackgroundImageFix"/>
<feBlend mode="normal" in="SourceGraphic" in2="BackgroundImageFix" result="shape"/>
<feGaussianBlur stdDeviation="125" result="effect1_foregroundBlur_192_868"/>
</filter>
<filter id="filter2_f_192_868" x="-359.768" y="65.5417" width="909.891" height="855.434" filterUnits="userSpaceOnUse" color-interpolation-filters="sRGB">
<feFlood flood-opacity="0" result="BackgroundImageFix"/>
<feBlend mode="normal" in="SourceGraphic" in2="BackgroundImageFix" result="shape"/>
<feGaussianBlur stdDeviation="75" result="effect1_foregroundBlur_192_868"/>
</filter>
<filter id="filter3_f_192_868" x="736.123" y="-50.2069" width="1191.17" height="1004.89" filterUnits="userSpaceOnUse" color-interpolation-filters="sRGB">
<feFlood flood-opacity="0" result="BackgroundImageFix"/>
<feBlend mode="normal" in="SourceGraphic" in2="BackgroundImageFix" result="shape"/>
<feGaussianBlur stdDeviation="125" result="effect1_foregroundBlur_192_868"/>
</filter>
<linearGradient id="paint0_linear_192_868" x1="720" y1="0" x2="720" y2="5173" gradientUnits="userSpaceOnUse">
<stop offset="0.209349" stop-color="#3355DC"/>
<stop offset="1" stop-color="#A42AE2"/>
</linearGradient>
<linearGradient id="paint1_linear_192_868" x1="377.133" y1="51.8759" x2="408.523" y2="324.541" gradientUnits="userSpaceOnUse">
<stop stop-color="#2342CD"/>
<stop offset="1" stop-color="#2443CD"/>
</linearGradient>
<linearGradient id="paint2_linear_192_868" x1="831.377" y1="8.64922" x2="640.138" y2="173.469" gradientUnits="userSpaceOnUse">
<stop stop-color="#1D4EDE"/>
<stop offset="1" stop-color="#2958E1"/>
</linearGradient>
<linearGradient id="paint3_linear_192_868" x1="85.717" y1="197.18" x2="349.031" y2="359.048" gradientUnits="userSpaceOnUse">
<stop stop-color="#2B42DA"/>
<stop offset="1" stop-color="#3457DC"/>
</linearGradient>
<linearGradient id="paint4_linear_192_868" x1="997.474" y1="302.354" x2="1066.87" y2="20.1049" gradientUnits="userSpaceOnUse">
<stop stop-color="#3355DC"/>
<stop offset="1" stop-color="#2C45D1"/>
</linearGradient>
<linearGradient id="paint5_linear_192_868" x1="1281.52" y1="129.447" x2="1098.18" y2="389.668" gradientUnits="userSpaceOnUse">
<stop stop-color="#2B42DA"/>
<stop offset="1" stop-color="#344EFC"/>
</linearGradient>
<linearGradient id="paint6_linear_192_868" x1="1194.87" y1="1343.36" x2="1257.01" y2="1708.51" gradientUnits="userSpaceOnUse">
<stop stop-color="#B3B4F9"/>
<stop offset="0.461744" stop-color="#6145ED"/>
<stop offset="1" stop-color="#544ADE"/>
</linearGradient>
<linearGradient id="paint7_linear_192_868" x1="1288.81" y1="1446.44" x2="1431.98" y2="1712.08" gradientUnits="userSpaceOnUse">
<stop stop-color="#B3B4F9"/>
<stop offset="0.442123" stop-color="#6745ED"/>
<stop offset="1" stop-color="#5548DD"/>
</linearGradient>
<radialGradient id="paint8_radial_192_868" cx="0" cy="0" r="1" gradientTransform="matrix(-144.012 388.54 405.225 253.723 181.308 1095.91)" gradientUnits="userSpaceOnUse">
<stop stop-color="#C0C1FF"/>
<stop offset="0.442123" stop-color="#6654EF"/>
<stop offset="1" stop-color="#484EDD"/>
</radialGradient>
<linearGradient id="paint9_linear_192_868" x1="204.491" y1="2329.74" x2="20.268" y2="2727" gradientUnits="userSpaceOnUse">
<stop stop-color="#CEB3F9"/>
<stop offset="0.442123" stop-color="#8345ED"/>
<stop offset="1" stop-color="#743CDF"/>
</linearGradient>
<radialGradient id="paint10_radial_192_868" cx="0" cy="0" r="1" gradientTransform="matrix(-166.393 318.858 321.257 262.684 64.1202 2472.68)" gradientUnits="userSpaceOnUse">
<stop stop-color="#CEB3F9"/>
<stop offset="0.442123" stop-color="#8345ED"/>
<stop offset="1" stop-color="#6D32E3"/>
</radialGradient>
<linearGradient id="paint11_linear_192_868" x1="1306.01" y1="2284.41" x2="1060.87" y2="2696.44" gradientUnits="userSpaceOnUse">
<stop stop-color="#B3B4F9"/>
<stop offset="0.442123" stop-color="#7545ED"/>
<stop offset="1" stop-color="#723EDF"/>
</linearGradient>
<linearGradient id="paint12_linear_192_868" x1="1253.61" y1="2531.42" x2="1082.87" y2="2976.18" gradientUnits="userSpaceOnUse">
<stop stop-color="#CEB3F9"/>
<stop offset="0.442123" stop-color="#8345ED"/>
<stop offset="1" stop-color="#793BDF"/>
</linearGradient>
<linearGradient id="paint13_linear_192_868" x1="108.566" y1="3394.94" x2="-41.2169" y2="3672.85" gradientUnits="userSpaceOnUse">
<stop stop-color="#CEB3F9"/>
<stop offset="0.442123" stop-color="#8E45ED"/>
<stop offset="1" stop-color="#9430E1"/>
</linearGradient>
<linearGradient id="paint14_linear_192_868" x1="1144.94" y1="3591.1" x2="1290.23" y2="4029.08" gradientUnits="userSpaceOnUse">
<stop stop-color="#CEB3F9"/>
<stop offset="0.442123" stop-color="#9645ED"/>
<stop offset="1" stop-color="#9D24DD"/>
</linearGradient>
<linearGradient id="paint15_linear_192_868" x1="1300.29" y1="3758.21" x2="1450.07" y2="4036.12" gradientUnits="userSpaceOnUse">
<stop stop-color="#CEB3F9"/>
<stop offset="0.442123" stop-color="#9645ED"/>
<stop offset="1" stop-color="#991FDA"/>
</linearGradient>
<clipPath id="clip0_192_868">
<rect width="1440" height="5173" fill="white"/>
</clipPath>
</defs>
</svg>
