<svg width="278" height="343" viewBox="0 0 278 343" fill="none" xmlns="http://www.w3.org/2000/svg">
<g clip-path="url(#clip0_307_1640)">
<rect width="278" height="343" fill="white"/>
<rect width="278" height="343" fill="url(#paint0_linear_307_1640)"/>
<circle cx="245" cy="216" r="27" fill="url(#paint1_radial_307_1640)"/>
<path d="M237.077 263.172C224.261 260.976 223.134 270.034 224.172 274.837H281.688L280.13 194.065C260.728 192.732 256.62 212.2 256.991 222.1C242.395 229.785 247.794 241.313 252.318 246.116C240.392 247.214 237.188 257.944 237.077 263.172Z" fill="url(#paint2_linear_307_1640)"/>
<path d="M144.896 312.958C138.294 311.591 135.203 312.958 133.846 317.515C133.846 317.515 116.912 315.337 118.055 334.199C118.403 339.936 129.65 343.262 129.65 343.262H283.648L278.333 232.867C258.639 239.338 261.549 258.045 265.465 266.589C258.863 259.116 247.888 263.475 243.226 266.589C235.84 263.126 229.891 269.02 227.84 272.4C208.258 263.65 200.845 276.045 199.586 283.337C192.089 283.975 185.552 290.59 183.221 293.818C161.065 290.81 148.44 305.325 144.896 312.958Z" fill="url(#paint3_linear_307_1640)"/>
<path d="M258.617 297.886C262.335 278.756 287.381 282.199 294.927 282.065L298.64 335.294L158.5 345.5C159.882 343.385 169.2 341.912 173.19 341.69C169.74 327.585 196.027 320.362 202 322.5C208.13 294.488 238.982 286.432 258.617 297.886Z" fill="url(#paint4_linear_307_1640)"/>
<path d="M292.441 303.16C301.976 291.616 316.573 289.513 322.68 289.904V343.262H209.671C210.907 341.249 217.691 340.857 220.928 340.913C223.224 335.41 232.921 327.098 237.482 323.631C244.015 296.113 276.844 298.518 292.441 303.16Z" fill="url(#paint5_linear_307_1640)"/>
<path d="M33.3472 262.855C47.7717 260.384 49.0406 270.579 47.8719 275.985H-16.8637L-15.1107 185.073C6.72644 183.573 11.351 205.484 10.9336 216.628C27.3616 225.277 21.2846 238.252 16.1926 243.658C29.6154 244.894 33.2218 256.971 33.3472 262.855Z" fill="url(#paint6_linear_307_1640)"/>
<path d="M137.1 318.891C144.531 317.352 148.011 318.891 149.537 324.02C149.537 324.02 168.597 321.569 167.311 342.799C166.919 349.256 154.26 353 154.26 353H-19.0701L-13.0877 228.746C9.07841 236.03 5.80388 257.085 1.39583 266.702C8.82652 258.29 21.1795 263.197 26.4272 266.702C34.7395 262.804 41.4355 269.437 43.7445 273.242C65.7847 263.394 74.1285 277.345 75.5454 285.551C83.9836 286.27 91.3409 293.715 93.9647 297.349C118.902 293.963 133.112 310.3 137.1 318.891Z" fill="url(#paint7_linear_307_1640)"/>
<path d="M20.0526 300.267C16.2925 282.071 -8.62067 285.265 -16.1307 285.115L-11 348.5L132.364 343.287C127.208 322.554 105.092 334.505 107.326 339.948C107.326 339.948 91.9926 322.359 86.0557 324.372C79.8683 297.725 39.5557 289.44 20.0526 300.267Z" fill="url(#paint8_linear_307_1640)"/>
<path d="M-28.9655 307.863C-39.6975 294.87 -56.1268 292.503 -63 292.944V353H64.1947C62.8036 350.734 55.1686 350.293 51.525 350.356C48.9413 344.162 38.0271 334.807 32.8929 330.904C25.5395 299.931 -11.4099 302.638 -28.9655 307.863Z" fill="url(#paint9_linear_307_1640)"/>
<ellipse cx="219.299" cy="76.2198" rx="1.14893" ry="1.11645" fill="#FCEF94"/>
<ellipse cx="84.5205" cy="95.8864" rx="1.06055" ry="1.03057" fill="#FCEF94"/>
<ellipse cx="19.2979" cy="86.6113" rx="2.29787" ry="2.23289" fill="#FCEF94"/>
<ellipse cx="255.978" cy="145.182" rx="1.41407" ry="1.37409" fill="#FCEF94"/>
<ellipse cx="233.971" cy="68.6623" rx="2.73977" ry="2.6623" fill="#FCEF94"/>
<ellipse cx="49.7398" cy="209.662" rx="2.73977" ry="2.6623" fill="#FCEF94"/>
<path d="M129.452 342.935C137.289 334.683 156.969 323.131 173 342.935H129.452Z" fill="url(#paint10_linear_307_1640)"/>
<path d="M111 342.935C114.97 338.737 124.941 332.859 133.062 342.935H111Z" fill="url(#paint11_linear_307_1640)"/>
</g>
<defs>
<linearGradient id="paint0_linear_307_1640" x1="40.929" y1="182.64" x2="269.992" y2="158.563" gradientUnits="userSpaceOnUse">
<stop stop-color="#307AE2"/>
<stop offset="0.5" stop-color="#3261E4"/>
<stop offset="1" stop-color="#2E43DF"/>
</linearGradient>
<radialGradient id="paint1_radial_307_1640" cx="0" cy="0" r="1" gradientUnits="userSpaceOnUse" gradientTransform="translate(219.813 210.237) rotate(29.6199) scale(66.2882)">
<stop stop-color="#FFF1AB"/>
<stop offset="1" stop-color="#C3B881"/>
</radialGradient>
<linearGradient id="paint2_linear_307_1640" x1="245.433" y1="198.001" x2="281.688" y2="222.742" gradientUnits="userSpaceOnUse">
<stop stop-color="#67BAE1"/>
<stop offset="1" stop-color="#513FDB"/>
</linearGradient>
<linearGradient id="paint3_linear_307_1640" x1="187.706" y1="274.265" x2="206.731" y2="314.112" gradientUnits="userSpaceOnUse">
<stop offset="0.0722625" stop-color="#95C2EF"/>
<stop offset="0.506706" stop-color="#5D63DD"/>
<stop offset="0.949572" stop-color="#4055CE"/>
</linearGradient>
<linearGradient id="paint4_linear_307_1640" x1="220.937" y1="298.435" x2="220.774" y2="337.792" gradientUnits="userSpaceOnUse">
<stop stop-color="#4365D3"/>
<stop offset="1" stop-color="#2B43D1"/>
</linearGradient>
<linearGradient id="paint5_linear_307_1640" x1="252.703" y1="343.262" x2="255.806" y2="282.022" gradientUnits="userSpaceOnUse">
<stop offset="0.151103" stop-color="#2B42DA"/>
<stop offset="1" stop-color="#779BEE"/>
</linearGradient>
<linearGradient id="paint6_linear_307_1640" x1="23.9415" y1="189.503" x2="-16.8637" y2="217.35" gradientUnits="userSpaceOnUse">
<stop stop-color="#67BAE1"/>
<stop offset="1" stop-color="#513FDB"/>
</linearGradient>
<linearGradient id="paint7_linear_307_1640" x1="88.9167" y1="275.341" x2="67.5032" y2="320.19" gradientUnits="userSpaceOnUse">
<stop offset="0.0722625" stop-color="#95C2EF"/>
<stop offset="0.506706" stop-color="#5D63DD"/>
<stop offset="0.949572" stop-color="#4055CE"/>
</linearGradient>
<linearGradient id="paint8_linear_307_1640" x1="41.645" y1="300.207" x2="42.3661" y2="335.027" gradientUnits="userSpaceOnUse">
<stop stop-color="#376FE7"/>
<stop offset="1" stop-color="#2343CD"/>
</linearGradient>
<linearGradient id="paint9_linear_307_1640" x1="12.0853" y1="359.249" x2="12.0853" y2="305.21" gradientUnits="userSpaceOnUse">
<stop offset="0.499202" stop-color="#2A41DA"/>
<stop offset="1" stop-color="#628EF5"/>
</linearGradient>
<linearGradient id="paint10_linear_307_1640" x1="151.322" y1="328.547" x2="152.058" y2="337.566" gradientUnits="userSpaceOnUse">
<stop stop-color="#4773F7"/>
<stop offset="1" stop-color="#1D4EDE"/>
</linearGradient>
<linearGradient id="paint11_linear_307_1640" x1="121.647" y1="334.398" x2="122.113" y2="340.25" gradientUnits="userSpaceOnUse">
<stop stop-color="#4773F7"/>
<stop offset="1" stop-color="#1D4EDE"/>
</linearGradient>
<clipPath id="clip0_307_1640">
<rect width="278" height="343" fill="white"/>
</clipPath>
</defs>
</svg>
