<svg width="1440" height="611" viewBox="0 0 1440 611" fill="none" xmlns="http://www.w3.org/2000/svg">
<rect x="733" y="536" width="525" height="75" rx="10" fill="#5221E6"/>
<path d="M907.71 580V566.909H910.478V577.718H916.09V580H907.71ZM917.923 580V566.909H926.744V569.191H920.691V572.31H926.29V574.592H920.691V577.718H926.77V580H917.923ZM928.446 569.191V566.909H939.197V569.191H935.189V580H932.454V569.191H928.446ZM943.199 566.909V568.29C943.199 568.682 943.122 569.082 942.969 569.491C942.819 569.896 942.619 570.28 942.368 570.642C942.116 571 941.841 571.305 941.543 571.556L940.341 570.847C940.555 570.51 940.742 570.137 940.904 569.728C941.07 569.319 941.153 568.844 941.153 568.303V566.909H943.199ZM952.165 570.674C952.114 570.158 951.895 569.758 951.507 569.472C951.119 569.187 950.593 569.044 949.928 569.044C949.476 569.044 949.095 569.108 948.784 569.236C948.473 569.359 948.234 569.532 948.068 569.754C947.906 569.975 947.825 570.227 947.825 570.508C947.816 570.742 947.865 570.947 947.972 571.121C948.083 571.296 948.234 571.447 948.426 571.575C948.618 571.699 948.839 571.808 949.091 571.901C949.342 571.991 949.61 572.067 949.896 572.131L951.072 572.413C951.643 572.54 952.167 572.711 952.645 572.924C953.122 573.137 953.535 573.399 953.885 573.71C954.234 574.021 954.505 574.388 954.696 574.81C954.892 575.232 954.993 575.715 954.997 576.261C954.993 577.062 954.788 577.756 954.383 578.344C953.983 578.928 953.403 579.382 952.645 579.706C951.89 580.026 950.98 580.185 949.915 580.185C948.858 580.185 947.938 580.023 947.154 579.7C946.374 579.376 945.765 578.896 945.326 578.261C944.891 577.622 944.663 576.832 944.642 575.89H947.32C947.35 576.329 947.475 576.695 947.697 576.989C947.923 577.279 948.223 577.499 948.598 577.648C948.978 577.793 949.406 577.865 949.883 577.865C950.352 577.865 950.759 577.797 951.104 577.661C951.453 577.524 951.724 577.335 951.916 577.092C952.108 576.849 952.203 576.57 952.203 576.254C952.203 575.96 952.116 575.713 951.941 575.513C951.771 575.312 951.52 575.142 951.187 575.001C950.859 574.861 950.456 574.733 949.979 574.618L948.554 574.26C947.45 573.991 946.578 573.572 945.939 573.001C945.3 572.43 944.983 571.661 944.987 570.693C944.983 569.901 945.194 569.208 945.62 568.616C946.05 568.023 946.64 567.561 947.39 567.229C948.14 566.896 948.993 566.73 949.947 566.73C950.919 566.73 951.767 566.896 952.491 567.229C953.22 567.561 953.787 568.023 954.191 568.616C954.596 569.208 954.805 569.894 954.818 570.674H952.165ZM969.705 571.141C969.615 570.83 969.49 570.555 969.328 570.316C969.166 570.073 968.968 569.869 968.733 569.702C968.503 569.532 968.239 569.402 967.941 569.312C967.647 569.223 967.321 569.178 966.963 569.178C966.294 569.178 965.706 569.344 965.199 569.677C964.696 570.009 964.304 570.493 964.022 571.128C963.741 571.759 963.6 572.53 963.6 573.442C963.6 574.354 963.739 575.129 964.016 575.768C964.293 576.408 964.685 576.896 965.192 577.232C965.699 577.565 966.298 577.731 966.988 577.731C967.615 577.731 968.15 577.62 968.593 577.398C969.04 577.173 969.381 576.855 969.615 576.446C969.854 576.037 969.973 575.553 969.973 574.995L970.536 575.078H967.161V572.994H972.639V574.643C972.639 575.794 972.396 576.783 971.91 577.609C971.424 578.432 970.755 579.067 969.903 579.514C969.051 579.957 968.075 580.179 966.975 580.179C965.748 580.179 964.67 579.908 963.741 579.367C962.812 578.822 962.088 578.048 961.568 577.047C961.052 576.041 960.794 574.848 960.794 573.467C960.794 572.406 960.948 571.46 961.255 570.629C961.566 569.794 962 569.087 962.559 568.507C963.117 567.928 963.767 567.487 964.508 567.184C965.25 566.881 966.053 566.73 966.918 566.73C967.659 566.73 968.35 566.839 968.989 567.056C969.628 567.269 970.195 567.572 970.689 567.964C971.188 568.356 971.595 568.822 971.91 569.364C972.225 569.901 972.428 570.493 972.517 571.141H969.705ZM974.718 580V566.909H983.539V569.191H977.486V572.31H983.085V574.592H977.486V577.718H983.564V580H974.718ZM985.241 569.191V566.909H995.992V569.191H991.984V580H989.249V569.191H985.241ZM1009.03 570.674C1008.98 570.158 1008.76 569.758 1008.37 569.472C1007.98 569.187 1007.46 569.044 1006.79 569.044C1006.34 569.044 1005.96 569.108 1005.65 569.236C1005.34 569.359 1005.1 569.532 1004.93 569.754C1004.77 569.975 1004.69 570.227 1004.69 570.508C1004.68 570.742 1004.73 570.947 1004.84 571.121C1004.95 571.296 1005.1 571.447 1005.29 571.575C1005.48 571.699 1005.7 571.808 1005.96 571.901C1006.21 571.991 1006.48 572.067 1006.76 572.131L1007.94 572.413C1008.51 572.54 1009.03 572.711 1009.51 572.924C1009.99 573.137 1010.4 573.399 1010.75 573.71C1011.1 574.021 1011.37 574.388 1011.56 574.81C1011.76 575.232 1011.86 575.715 1011.86 576.261C1011.86 577.062 1011.65 577.756 1011.25 578.344C1010.85 578.928 1010.27 579.382 1009.51 579.706C1008.76 580.026 1007.85 580.185 1006.78 580.185C1005.72 580.185 1004.8 580.023 1004.02 579.7C1003.24 579.376 1002.63 578.896 1002.19 578.261C1001.76 577.622 1001.53 576.832 1001.51 575.89H1004.19C1004.22 576.329 1004.34 576.695 1004.56 576.989C1004.79 577.279 1005.09 577.499 1005.46 577.648C1005.84 577.793 1006.27 577.865 1006.75 577.865C1007.22 577.865 1007.62 577.797 1007.97 577.661C1008.32 577.524 1008.59 577.335 1008.78 577.092C1008.97 576.849 1009.07 576.57 1009.07 576.254C1009.07 575.96 1008.98 575.713 1008.81 575.513C1008.64 575.312 1008.38 575.142 1008.05 575.001C1007.72 574.861 1007.32 574.733 1006.84 574.618L1005.42 574.26C1004.32 573.991 1003.44 573.572 1002.8 573.001C1002.17 572.43 1001.85 571.661 1001.85 570.693C1001.85 569.901 1002.06 569.208 1002.48 568.616C1002.92 568.023 1003.51 567.561 1004.26 567.229C1005.01 566.896 1005.86 566.73 1006.81 566.73C1007.78 566.73 1008.63 566.896 1009.36 567.229C1010.09 567.561 1010.65 568.023 1011.06 568.616C1011.46 569.208 1011.67 569.894 1011.68 570.674H1009.03ZM1013.23 569.191V566.909H1023.98V569.191H1019.97V580H1017.23V569.191H1013.23ZM1026.4 580H1023.44L1027.96 566.909H1031.52L1036.04 580H1033.07L1029.79 569.901H1029.69L1026.4 580ZM1026.22 574.854H1033.22V577.015H1026.22V574.854ZM1037.61 580V566.909H1042.78C1043.77 566.909 1044.61 567.086 1045.31 567.44C1046.01 567.789 1046.55 568.286 1046.91 568.929C1047.28 569.568 1047.47 570.32 1047.47 571.185C1047.47 572.055 1047.28 572.803 1046.91 573.429C1046.53 574.051 1045.99 574.528 1045.28 574.861C1044.57 575.193 1043.71 575.359 1042.71 575.359H1039.25V573.135H1042.26C1042.79 573.135 1043.23 573.062 1043.58 572.918C1043.93 572.773 1044.19 572.555 1044.36 572.266C1044.53 571.976 1044.62 571.616 1044.62 571.185C1044.62 570.751 1044.53 570.384 1044.36 570.086C1044.19 569.788 1043.92 569.562 1043.57 569.408C1043.22 569.251 1042.78 569.172 1042.25 569.172H1040.38V580H1037.61ZM1044.68 574.043L1047.94 580H1044.88L1041.7 574.043H1044.68ZM1048.93 569.191V566.909H1059.68V569.191H1055.67V580H1052.93V569.191H1048.93ZM1061.45 580V566.909H1070.27V569.191H1064.22V572.31H1069.82V574.592H1064.22V577.718H1070.29V580H1061.45ZM1077.11 580H1072.47V566.909H1077.15C1078.47 566.909 1079.6 567.171 1080.55 567.695C1081.5 568.215 1082.23 568.963 1082.74 569.939C1083.26 570.915 1083.52 572.082 1083.52 573.442C1083.52 574.805 1083.26 575.977 1082.74 576.957C1082.23 577.937 1081.5 578.69 1080.54 579.214C1079.58 579.738 1078.44 580 1077.11 580ZM1075.24 577.629H1077C1077.81 577.629 1078.5 577.484 1079.06 577.194C1079.62 576.9 1080.04 576.446 1080.33 575.832C1080.61 575.214 1080.75 574.418 1080.75 573.442C1080.75 572.474 1080.61 571.684 1080.33 571.07C1080.04 570.457 1079.62 570.005 1079.07 569.715C1078.51 569.425 1077.82 569.281 1077 569.281H1075.24V577.629Z" fill="white"/>
<path d="M742.636 126.364V138H741.273L734.932 128.864H734.818V138H733.409V126.364H734.773L741.136 135.523H741.25V126.364H742.636ZM747.842 138.205C747.289 138.205 746.787 138.1 746.337 137.892C745.886 137.68 745.528 137.375 745.263 136.977C744.998 136.576 744.865 136.091 744.865 135.523C744.865 135.023 744.964 134.617 745.161 134.307C745.357 133.992 745.621 133.746 745.95 133.568C746.28 133.39 746.643 133.258 747.041 133.17C747.443 133.08 747.846 133.008 748.251 132.955C748.782 132.886 749.212 132.835 749.541 132.801C749.875 132.763 750.117 132.701 750.268 132.614C750.424 132.527 750.501 132.375 750.501 132.159V132.114C750.501 131.553 750.348 131.117 750.041 130.807C749.738 130.496 749.278 130.341 748.661 130.341C748.02 130.341 747.518 130.481 747.155 130.761C746.791 131.042 746.536 131.341 746.388 131.659L745.115 131.205C745.342 130.674 745.645 130.261 746.024 129.966C746.407 129.667 746.823 129.458 747.274 129.341C747.729 129.22 748.176 129.159 748.615 129.159C748.895 129.159 749.217 129.193 749.581 129.261C749.948 129.326 750.303 129.46 750.643 129.665C750.988 129.869 751.274 130.178 751.501 130.591C751.729 131.004 751.842 131.557 751.842 132.25V138H750.501V136.818H750.433C750.342 137.008 750.191 137.21 749.979 137.426C749.767 137.642 749.484 137.826 749.132 137.977C748.78 138.129 748.35 138.205 747.842 138.205ZM748.047 137C748.577 137 749.024 136.896 749.388 136.688C749.755 136.479 750.032 136.21 750.217 135.881C750.407 135.551 750.501 135.205 750.501 134.841V133.614C750.445 133.682 750.32 133.744 750.126 133.801C749.937 133.854 749.717 133.902 749.467 133.943C749.221 133.981 748.981 134.015 748.746 134.045C748.515 134.072 748.327 134.095 748.183 134.114C747.835 134.159 747.509 134.233 747.206 134.335C746.907 134.434 746.664 134.583 746.479 134.784C746.297 134.981 746.206 135.25 746.206 135.591C746.206 136.057 746.378 136.409 746.723 136.648C747.071 136.883 747.513 137 748.047 137ZM754.29 138V129.273H755.585V130.636H755.699C755.881 130.17 756.174 129.809 756.58 129.551C756.985 129.29 757.472 129.159 758.04 129.159C758.616 129.159 759.095 129.29 759.477 129.551C759.864 129.809 760.165 130.17 760.381 130.636H760.472C760.695 130.186 761.03 129.828 761.477 129.562C761.924 129.294 762.46 129.159 763.085 129.159C763.866 129.159 764.504 129.403 765 129.892C765.496 130.377 765.744 131.133 765.744 132.159V138H764.403V132.159C764.403 131.515 764.227 131.055 763.875 130.778C763.523 130.502 763.108 130.364 762.631 130.364C762.017 130.364 761.542 130.549 761.205 130.92C760.867 131.288 760.699 131.754 760.699 132.318V138H759.335V132.023C759.335 131.527 759.174 131.127 758.852 130.824C758.53 130.517 758.116 130.364 757.608 130.364C757.259 130.364 756.934 130.456 756.631 130.642C756.331 130.828 756.089 131.085 755.903 131.415C755.722 131.741 755.631 132.117 755.631 132.545V138H754.29ZM771.855 138.182C771.014 138.182 770.289 137.996 769.679 137.625C769.073 137.25 768.605 136.727 768.276 136.057C767.95 135.383 767.787 134.598 767.787 133.705C767.787 132.811 767.95 132.023 768.276 131.341C768.605 130.655 769.063 130.121 769.651 129.739C770.241 129.352 770.931 129.159 771.719 129.159C772.173 129.159 772.622 129.235 773.065 129.386C773.509 129.538 773.912 129.784 774.276 130.125C774.639 130.462 774.929 130.909 775.145 131.466C775.361 132.023 775.469 132.708 775.469 133.523V134.091H768.741V132.932H774.105C774.105 132.439 774.007 132 773.81 131.614C773.616 131.227 773.34 130.922 772.98 130.699C772.624 130.475 772.204 130.364 771.719 130.364C771.185 130.364 770.723 130.496 770.332 130.761C769.946 131.023 769.649 131.364 769.44 131.784C769.232 132.205 769.128 132.655 769.128 133.136V133.909C769.128 134.568 769.241 135.127 769.469 135.585C769.7 136.04 770.02 136.386 770.429 136.625C770.838 136.86 771.313 136.977 771.855 136.977C772.207 136.977 772.526 136.928 772.81 136.83C773.098 136.727 773.346 136.576 773.554 136.375C773.762 136.17 773.923 135.917 774.037 135.614L775.332 135.977C775.196 136.417 774.967 136.803 774.645 137.136C774.323 137.466 773.925 137.723 773.452 137.909C772.978 138.091 772.446 138.182 771.855 138.182Z" fill="white"/>
<rect x="732" y="152" width="526" height="50" rx="5" fill="white"/>
<path d="M733.409 260V248.364H740.432V249.614H734.818V253.545H740.068V254.795H734.818V258.75H740.523V260H733.409ZM742.79 260V251.273H744.085V252.636H744.199C744.381 252.17 744.674 251.809 745.08 251.551C745.485 251.29 745.972 251.159 746.54 251.159C747.116 251.159 747.595 251.29 747.977 251.551C748.364 251.809 748.665 252.17 748.881 252.636H748.972C749.195 252.186 749.53 251.828 749.977 251.562C750.424 251.294 750.96 251.159 751.585 251.159C752.366 251.159 753.004 251.403 753.5 251.892C753.996 252.377 754.244 253.133 754.244 254.159V260H752.903V254.159C752.903 253.515 752.727 253.055 752.375 252.778C752.023 252.502 751.608 252.364 751.131 252.364C750.517 252.364 750.042 252.549 749.705 252.92C749.367 253.288 749.199 253.754 749.199 254.318V260H747.835V254.023C747.835 253.527 747.674 253.127 747.352 252.824C747.03 252.517 746.616 252.364 746.108 252.364C745.759 252.364 745.434 252.456 745.131 252.642C744.831 252.828 744.589 253.085 744.403 253.415C744.222 253.741 744.131 254.117 744.131 254.545V260H742.79ZM759.264 260.205C758.711 260.205 758.209 260.1 757.759 259.892C757.308 259.68 756.95 259.375 756.685 258.977C756.42 258.576 756.287 258.091 756.287 257.523C756.287 257.023 756.385 256.617 756.582 256.307C756.779 255.992 757.043 255.746 757.372 255.568C757.702 255.39 758.065 255.258 758.463 255.17C758.865 255.08 759.268 255.008 759.673 254.955C760.204 254.886 760.634 254.835 760.963 254.801C761.296 254.763 761.539 254.701 761.69 254.614C761.846 254.527 761.923 254.375 761.923 254.159V254.114C761.923 253.553 761.77 253.117 761.463 252.807C761.16 252.496 760.7 252.341 760.082 252.341C759.442 252.341 758.94 252.481 758.577 252.761C758.213 253.042 757.957 253.341 757.81 253.659L756.537 253.205C756.764 252.674 757.067 252.261 757.446 251.966C757.829 251.667 758.245 251.458 758.696 251.341C759.151 251.22 759.598 251.159 760.037 251.159C760.317 251.159 760.639 251.193 761.003 251.261C761.37 251.326 761.724 251.46 762.065 251.665C762.41 251.869 762.696 252.178 762.923 252.591C763.151 253.004 763.264 253.557 763.264 254.25V260H761.923V258.818H761.855C761.764 259.008 761.613 259.21 761.401 259.426C761.188 259.642 760.906 259.826 760.554 259.977C760.202 260.129 759.772 260.205 759.264 260.205ZM759.469 259C759.999 259 760.446 258.896 760.81 258.688C761.177 258.479 761.454 258.21 761.639 257.881C761.829 257.551 761.923 257.205 761.923 256.841V255.614C761.866 255.682 761.741 255.744 761.548 255.801C761.359 255.854 761.139 255.902 760.889 255.943C760.643 255.981 760.402 256.015 760.168 256.045C759.937 256.072 759.749 256.095 759.605 256.114C759.257 256.159 758.931 256.233 758.628 256.335C758.329 256.434 758.086 256.583 757.901 256.784C757.719 256.981 757.628 257.25 757.628 257.591C757.628 258.057 757.8 258.409 758.145 258.648C758.493 258.883 758.935 259 759.469 259ZM765.712 260V251.273H767.053V260H765.712ZM766.393 249.818C766.132 249.818 765.907 249.729 765.717 249.551C765.532 249.373 765.439 249.159 765.439 248.909C765.439 248.659 765.532 248.445 765.717 248.267C765.907 248.089 766.132 248 766.393 248C766.655 248 766.878 248.089 767.064 248.267C767.253 248.445 767.348 248.659 767.348 248.909C767.348 249.159 767.253 249.373 767.064 249.551C766.878 249.729 766.655 249.818 766.393 249.818ZM770.849 248.364V260H769.509V248.364H770.849Z" fill="white"/>
<rect x="732" y="274" width="526" height="50" rx="5" fill="white"/>
<path d="M733.409 370.364H735.091L739.045 380.023H739.182L743.136 370.364H744.818V382H743.5V373.159H743.386L739.75 382H738.477L734.841 373.159H734.727V382H733.409V370.364ZM751.121 382.182C750.28 382.182 749.554 381.996 748.945 381.625C748.339 381.25 747.871 380.727 747.541 380.057C747.215 379.383 747.053 378.598 747.053 377.705C747.053 376.811 747.215 376.023 747.541 375.341C747.871 374.655 748.329 374.121 748.916 373.739C749.507 373.352 750.196 373.159 750.984 373.159C751.439 373.159 751.888 373.235 752.331 373.386C752.774 373.538 753.178 373.784 753.541 374.125C753.905 374.462 754.195 374.909 754.411 375.466C754.626 376.023 754.734 376.708 754.734 377.523V378.091H748.007V376.932H753.371C753.371 376.439 753.272 376 753.075 375.614C752.882 375.227 752.606 374.922 752.246 374.699C751.89 374.475 751.469 374.364 750.984 374.364C750.45 374.364 749.988 374.496 749.598 374.761C749.212 375.023 748.914 375.364 748.706 375.784C748.498 376.205 748.393 376.655 748.393 377.136V377.909C748.393 378.568 748.507 379.127 748.734 379.585C748.965 380.04 749.286 380.386 749.695 380.625C750.104 380.86 750.579 380.977 751.121 380.977C751.473 380.977 751.791 380.928 752.075 380.83C752.363 380.727 752.611 380.576 752.82 380.375C753.028 380.17 753.189 379.917 753.303 379.614L754.598 379.977C754.462 380.417 754.232 380.803 753.911 381.136C753.589 381.466 753.191 381.723 752.717 381.909C752.244 382.091 751.712 382.182 751.121 382.182ZM762.956 375.227L761.751 375.568C761.676 375.367 761.564 375.172 761.416 374.983C761.272 374.79 761.075 374.631 760.825 374.506C760.575 374.381 760.255 374.318 759.865 374.318C759.331 374.318 758.886 374.441 758.53 374.688C758.178 374.93 758.001 375.239 758.001 375.614C758.001 375.947 758.123 376.21 758.365 376.403C758.607 376.597 758.986 376.758 759.501 376.886L760.797 377.205C761.577 377.394 762.159 377.684 762.541 378.074C762.924 378.46 763.115 378.958 763.115 379.568C763.115 380.068 762.971 380.515 762.683 380.909C762.399 381.303 762.001 381.614 761.49 381.841C760.979 382.068 760.384 382.182 759.706 382.182C758.816 382.182 758.079 381.989 757.496 381.602C756.912 381.216 756.543 380.652 756.388 379.909L757.661 379.591C757.782 380.061 758.011 380.413 758.348 380.648C758.689 380.883 759.134 381 759.683 381C760.308 381 760.804 380.867 761.172 380.602C761.543 380.333 761.729 380.011 761.729 379.636C761.729 379.333 761.623 379.08 761.411 378.875C761.198 378.667 760.873 378.511 760.433 378.409L758.979 378.068C758.179 377.879 757.592 377.585 757.217 377.188C756.846 376.786 756.661 376.284 756.661 375.682C756.661 375.189 756.799 374.754 757.075 374.375C757.356 373.996 757.736 373.699 758.217 373.483C758.702 373.267 759.251 373.159 759.865 373.159C760.729 373.159 761.407 373.348 761.899 373.727C762.395 374.106 762.748 374.606 762.956 375.227ZM771.315 375.227L770.111 375.568C770.035 375.367 769.923 375.172 769.776 374.983C769.632 374.79 769.435 374.631 769.185 374.506C768.935 374.381 768.615 374.318 768.224 374.318C767.69 374.318 767.245 374.441 766.889 374.688C766.537 374.93 766.361 375.239 766.361 375.614C766.361 375.947 766.482 376.21 766.724 376.403C766.967 376.597 767.346 376.758 767.861 376.886L769.156 377.205C769.937 377.394 770.518 377.684 770.901 378.074C771.283 378.46 771.474 378.958 771.474 379.568C771.474 380.068 771.33 380.515 771.043 380.909C770.759 381.303 770.361 381.614 769.849 381.841C769.338 382.068 768.743 382.182 768.065 382.182C767.175 382.182 766.438 381.989 765.855 381.602C765.272 381.216 764.902 380.652 764.747 379.909L766.02 379.591C766.141 380.061 766.37 380.413 766.707 380.648C767.048 380.883 767.493 381 768.043 381C768.668 381 769.164 380.867 769.531 380.602C769.902 380.333 770.088 380.011 770.088 379.636C770.088 379.333 769.982 379.08 769.77 378.875C769.558 378.667 769.232 378.511 768.793 378.409L767.338 378.068C766.539 377.879 765.952 377.585 765.577 377.188C765.205 376.786 765.02 376.284 765.02 375.682C765.02 375.189 765.158 374.754 765.435 374.375C765.715 373.996 766.096 373.699 766.577 373.483C767.062 373.267 767.611 373.159 768.224 373.159C769.088 373.159 769.766 373.348 770.259 373.727C770.755 374.106 771.107 374.606 771.315 375.227ZM776.061 382.205C775.508 382.205 775.006 382.1 774.555 381.892C774.105 381.68 773.747 381.375 773.482 380.977C773.216 380.576 773.084 380.091 773.084 379.523C773.084 379.023 773.182 378.617 773.379 378.307C773.576 377.992 773.839 377.746 774.169 377.568C774.499 377.39 774.862 377.258 775.26 377.17C775.661 377.08 776.065 377.008 776.47 376.955C777 376.886 777.43 376.835 777.76 376.801C778.093 376.763 778.336 376.701 778.487 376.614C778.643 376.527 778.72 376.375 778.72 376.159V376.114C778.72 375.553 778.567 375.117 778.26 374.807C777.957 374.496 777.497 374.341 776.879 374.341C776.239 374.341 775.737 374.481 775.374 374.761C775.01 375.042 774.754 375.341 774.607 375.659L773.334 375.205C773.561 374.674 773.864 374.261 774.243 373.966C774.625 373.667 775.042 373.458 775.493 373.341C775.947 373.22 776.394 373.159 776.834 373.159C777.114 373.159 777.436 373.193 777.8 373.261C778.167 373.326 778.521 373.46 778.862 373.665C779.207 373.869 779.493 374.178 779.72 374.591C779.947 375.004 780.061 375.557 780.061 376.25V382H778.72V380.818H778.652C778.561 381.008 778.41 381.21 778.197 381.426C777.985 381.642 777.703 381.826 777.351 381.977C776.999 382.129 776.569 382.205 776.061 382.205ZM776.266 381C776.796 381 777.243 380.896 777.607 380.688C777.974 380.479 778.25 380.21 778.436 379.881C778.625 379.551 778.72 379.205 778.72 378.841V377.614C778.663 377.682 778.538 377.744 778.345 377.801C778.156 377.854 777.936 377.902 777.686 377.943C777.44 377.981 777.199 378.015 776.964 378.045C776.733 378.072 776.546 378.095 776.402 378.114C776.054 378.159 775.728 378.233 775.425 378.335C775.125 378.434 774.883 378.583 774.697 378.784C774.516 378.981 774.425 379.25 774.425 379.591C774.425 380.057 774.597 380.409 774.942 380.648C775.29 380.883 775.732 381 776.266 381ZM786.031 385.455C785.384 385.455 784.827 385.371 784.361 385.205C783.895 385.042 783.507 384.826 783.196 384.557C782.889 384.292 782.645 384.008 782.463 383.705L783.531 382.955C783.652 383.114 783.806 383.295 783.991 383.5C784.177 383.708 784.431 383.888 784.753 384.04C785.079 384.195 785.505 384.273 786.031 384.273C786.736 384.273 787.317 384.102 787.776 383.761C788.234 383.42 788.463 382.886 788.463 382.159V380.386H788.349C788.251 380.545 788.111 380.742 787.929 380.977C787.751 381.208 787.493 381.415 787.156 381.597C786.823 381.775 786.372 381.864 785.804 381.864C785.099 381.864 784.467 381.697 783.906 381.364C783.349 381.03 782.908 380.545 782.582 379.909C782.26 379.273 782.099 378.5 782.099 377.591C782.099 376.697 782.257 375.919 782.571 375.256C782.885 374.589 783.323 374.074 783.884 373.71C784.444 373.343 785.092 373.159 785.827 373.159C786.395 373.159 786.846 373.254 787.179 373.443C787.516 373.629 787.774 373.841 787.952 374.08C788.134 374.314 788.274 374.508 788.372 374.659H788.509V373.273H789.804V382.25C789.804 383 789.634 383.61 789.293 384.08C788.955 384.553 788.501 384.9 787.929 385.119C787.361 385.343 786.728 385.455 786.031 385.455ZM785.986 380.659C786.524 380.659 786.978 380.536 787.349 380.29C787.721 380.044 788.003 379.689 788.196 379.227C788.389 378.765 788.486 378.212 788.486 377.568C788.486 376.939 788.391 376.384 788.202 375.903C788.012 375.422 787.732 375.045 787.361 374.773C786.99 374.5 786.531 374.364 785.986 374.364C785.418 374.364 784.944 374.508 784.565 374.795C784.19 375.083 783.908 375.47 783.719 375.955C783.533 376.439 783.44 376.977 783.44 377.568C783.44 378.174 783.535 378.71 783.724 379.176C783.918 379.638 784.202 380.002 784.577 380.267C784.955 380.528 785.425 380.659 785.986 380.659ZM795.918 382.182C795.077 382.182 794.351 381.996 793.741 381.625C793.135 381.25 792.668 380.727 792.338 380.057C792.012 379.383 791.849 378.598 791.849 377.705C791.849 376.811 792.012 376.023 792.338 375.341C792.668 374.655 793.126 374.121 793.713 373.739C794.304 373.352 794.993 373.159 795.781 373.159C796.236 373.159 796.685 373.235 797.128 373.386C797.571 373.538 797.974 373.784 798.338 374.125C798.702 374.462 798.991 374.909 799.207 375.466C799.423 376.023 799.531 376.708 799.531 377.523V378.091H792.804V376.932H798.168C798.168 376.439 798.069 376 797.872 375.614C797.679 375.227 797.402 374.922 797.043 374.699C796.687 374.475 796.266 374.364 795.781 374.364C795.247 374.364 794.785 374.496 794.395 374.761C794.009 375.023 793.711 375.364 793.503 375.784C793.295 376.205 793.19 376.655 793.19 377.136V377.909C793.19 378.568 793.304 379.127 793.531 379.585C793.762 380.04 794.082 380.386 794.491 380.625C794.901 380.86 795.376 380.977 795.918 380.977C796.27 380.977 796.588 380.928 796.872 380.83C797.16 380.727 797.408 380.576 797.616 380.375C797.825 380.17 797.986 379.917 798.099 379.614L799.395 379.977C799.259 380.417 799.029 380.803 798.707 381.136C798.385 381.466 797.988 381.723 797.514 381.909C797.041 382.091 796.509 382.182 795.918 382.182Z" fill="white"/>
<rect x="732" y="396" width="526" height="100" rx="5" fill="white"/>
<path d="M211.45 169H184V135.5H191.5V162.25H211.45V169ZM227.769 169.5C219.419 169.5 213.719 165.4 213.719 156.5C213.719 148.5 219.369 143.45 227.619 143.45C235.819 143.45 241.269 147.75 241.269 155.6C241.269 156.5 241.169 157.15 241.069 158H220.669C220.869 161.85 222.669 163.5 227.519 163.5C231.969 163.5 233.519 162.35 233.519 160.2V159.7H241.019V160.25C241.019 165.7 235.719 169.5 227.769 169.5ZM227.469 149.3C223.019 149.3 221.119 150.8 220.769 154.05H234.069C233.869 150.75 231.869 149.3 227.469 149.3ZM262.099 169H255.899C250.049 169 246.499 166.25 246.499 159.95V150.15H242.549V143.95H246.499V139.1H253.999V143.95H262.099V150.15H253.999V159.1C253.999 161.6 254.949 162.25 257.599 162.25H262.099V169ZM267.358 151.3H264.708V146.65H267.158C268.158 146.65 268.658 146.35 268.658 145.1V144.25H264.408V135.5H274.058V145.05C274.058 149.25 271.608 151.3 267.358 151.3ZM290.205 169.5C281.755 169.5 277.105 166.2 277.105 160.4V160.25H284.605V160.7C284.605 162.95 286.005 163.55 290.255 163.55C294.255 163.55 295.205 162.9 295.205 161.4C295.205 160 294.455 159.6 291.505 159.2L284.455 158.35C279.455 157.8 276.655 155.55 276.655 151.35C276.655 146.95 280.405 143.45 289.005 143.45C297.205 143.45 301.855 146.55 301.855 152.65V152.8H294.355V152.5C294.355 150.45 293.355 149.4 288.755 149.4C285.005 149.4 284.055 150.05 284.055 151.65C284.055 152.95 284.755 153.5 288.055 153.9L293.405 154.55C300.105 155.3 302.605 157.55 302.605 161.7C302.605 166.4 297.955 169.5 290.205 169.5ZM330.996 169H324.796C318.946 169 315.396 166.25 315.396 159.95V150.15H311.446V143.95H315.396V139.1H322.896V143.95H330.996V150.15H322.896V159.1C322.896 161.6 323.846 162.25 326.496 162.25H330.996V169ZM341.505 169.5C336.105 169.5 332.855 167 332.855 162.8C332.855 159.1 335.605 156.8 340.955 156.25L351.705 155.15V154.2C351.705 150.95 350.255 150.05 346.255 150.05C342.455 150.05 340.905 151.05 340.905 153.9V154.1H333.355V153.95C333.355 147.75 338.555 143.45 346.805 143.45C355.155 143.45 359.105 147.75 359.105 154.3V169H352.105V163.25H351.705C350.555 167.15 347.055 169.5 341.505 169.5ZM340.405 162.3C340.405 163.65 341.455 164.2 343.655 164.2C348.755 164.2 351.505 163 351.705 159.45L343.005 160.45C341.205 160.6 340.405 161.1 340.405 162.3ZM370.406 169H362.906V135.5H370.406V169ZM381.832 169H374.332V135.5H381.832V153.25H387.532L393.932 143.95H402.832L393.682 156.05L402.682 169H393.832L387.582 159.95H381.832V169ZM419.319 169H412.369V135.5H419.869V150.6H420.269C421.119 146.4 424.169 143.45 430.119 143.45C437.619 143.45 441.819 148.5 441.819 156.5C441.819 164.4 437.569 169.5 429.769 169.5C423.969 169.5 420.669 167 419.769 162.05H419.319V169ZM419.869 156.65C419.869 161 422.419 162.65 427.169 162.65C432.019 162.65 434.219 161.05 434.219 156.5C434.219 151.9 432.019 150.3 427.219 150.3C422.369 150.3 419.869 151.9 419.869 156.25V156.65ZM455.288 169.5C448.238 169.5 444.888 165.15 444.888 159.55V143.95H452.388V157.05C452.388 161.1 454.088 162.8 458.838 162.8C463.738 162.8 465.488 160.9 465.488 156.65V143.95H472.988V169H465.988V161.35H465.588C464.938 165.55 461.888 169.5 455.288 169.5ZM489.472 169.5C481.022 169.5 476.372 166.2 476.372 160.4V160.25H483.872V160.7C483.872 162.95 485.272 163.55 489.522 163.55C493.522 163.55 494.472 162.9 494.472 161.4C494.472 160 493.722 159.6 490.772 159.2L483.722 158.35C478.722 157.8 475.922 155.55 475.922 151.35C475.922 146.95 479.672 143.45 488.272 143.45C496.472 143.45 501.122 146.55 501.122 152.65V152.8H493.622V152.5C493.622 150.45 492.622 149.4 488.022 149.4C484.272 149.4 483.322 150.05 483.322 151.65C483.322 152.95 484.022 153.5 487.322 153.9L492.672 154.55C499.372 155.3 501.872 157.55 501.872 161.7C501.872 166.4 497.222 169.5 489.472 169.5ZM512.398 141.4H504.898V135.5H512.398V141.4ZM512.398 169H504.898V143.95H512.398V169ZM523.824 169H516.324V143.95H523.274V151.65H523.724C524.374 147.45 527.374 143.45 533.924 143.45C540.774 143.45 544.024 147.85 544.024 153.4V169H536.524V155.9C536.524 151.9 534.874 150.2 530.274 150.2C525.524 150.2 523.824 152.1 523.824 156.35V169ZM561.118 169.5C552.768 169.5 547.068 165.4 547.068 156.5C547.068 148.5 552.718 143.45 560.968 143.45C569.168 143.45 574.618 147.75 574.618 155.6C574.618 156.5 574.518 157.15 574.418 158H554.018C554.218 161.85 556.018 163.5 560.868 163.5C565.318 163.5 566.868 162.35 566.868 160.2V159.7H574.368V160.25C574.368 165.7 569.068 169.5 561.118 169.5ZM560.818 149.3C556.368 149.3 554.468 150.8 554.118 154.05H567.418C567.218 150.75 565.218 149.3 560.818 149.3ZM590.449 169.5C581.999 169.5 577.349 166.2 577.349 160.4V160.25H584.849V160.7C584.849 162.95 586.249 163.55 590.499 163.55C594.499 163.55 595.449 162.9 595.449 161.4C595.449 160 594.699 159.6 591.749 159.2L584.699 158.35C579.699 157.8 576.899 155.55 576.899 151.35C576.899 146.95 580.649 143.45 589.249 143.45C597.449 143.45 602.099 146.55 602.099 152.65V152.8H594.599V152.5C594.599 150.45 593.599 149.4 588.999 149.4C585.249 149.4 584.299 150.05 584.299 151.65C584.299 152.95 584.999 153.5 588.299 153.9L593.649 154.55C600.349 155.3 602.849 157.55 602.849 161.7C602.849 166.4 598.199 169.5 590.449 169.5ZM618.525 169.5C610.075 169.5 605.425 166.2 605.425 160.4V160.25H612.925V160.7C612.925 162.95 614.325 163.55 618.575 163.55C622.575 163.55 623.525 162.9 623.525 161.4C623.525 160 622.775 159.6 619.825 159.2L612.775 158.35C607.775 157.8 604.975 155.55 604.975 151.35C604.975 146.95 608.725 143.45 617.325 143.45C625.525 143.45 630.175 146.55 630.175 152.65V152.8H622.675V152.5C622.675 150.45 621.675 149.4 617.075 149.4C613.325 149.4 612.375 150.05 612.375 151.65C612.375 152.95 613.075 153.5 616.375 153.9L621.725 154.55C628.425 155.3 630.925 157.55 630.925 161.7C630.925 166.4 626.275 169.5 618.525 169.5Z" fill="white"/>
<path d="M193.966 216.909V230H192.432L185.298 219.722H185.17V230H183.585V216.909H185.119L192.278 227.213H192.406V216.909H193.966ZM200.922 230.205C200.036 230.205 199.258 229.994 198.589 229.572C197.924 229.15 197.404 228.56 197.029 227.801C196.659 227.043 196.473 226.156 196.473 225.142C196.473 224.119 196.659 223.227 197.029 222.464C197.404 221.701 197.924 221.109 198.589 220.687C199.258 220.265 200.036 220.054 200.922 220.054C201.808 220.054 202.584 220.265 203.249 220.687C203.918 221.109 204.438 221.701 204.808 222.464C205.183 223.227 205.371 224.119 205.371 225.142C205.371 226.156 205.183 227.043 204.808 227.801C204.438 228.56 203.918 229.15 203.249 229.572C202.584 229.994 201.808 230.205 200.922 230.205ZM200.922 228.849C201.595 228.849 202.149 228.677 202.584 228.332C203.019 227.987 203.34 227.533 203.549 226.97C203.758 226.408 203.862 225.798 203.862 225.142C203.862 224.486 203.758 223.874 203.549 223.308C203.34 222.741 203.019 222.283 202.584 221.933C202.149 221.584 201.595 221.409 200.922 221.409C200.249 221.409 199.695 221.584 199.26 221.933C198.825 222.283 198.504 222.741 198.295 223.308C198.086 223.874 197.982 224.486 197.982 225.142C197.982 225.798 198.086 226.408 198.295 226.97C198.504 227.533 198.825 227.987 199.26 228.332C199.695 228.677 200.249 228.849 200.922 228.849ZM209.564 230L206.573 220.182H208.158L210.28 227.699H210.382L212.479 220.182H214.09L216.161 227.673H216.263L218.385 220.182H219.97L216.979 230H215.496L213.348 222.457H213.195L211.047 230H209.564ZM231.297 220.182V221.46H226.209V220.182H231.297ZM227.692 217.83H229.2V227.188C229.2 227.614 229.262 227.933 229.386 228.146C229.514 228.355 229.676 228.496 229.872 228.568C230.072 228.636 230.283 228.67 230.504 228.67C230.671 228.67 230.807 228.662 230.914 228.645C231.02 228.624 231.105 228.607 231.169 228.594L231.476 229.949C231.374 229.987 231.231 230.026 231.048 230.064C230.865 230.107 230.632 230.128 230.351 230.128C229.925 230.128 229.507 230.036 229.098 229.853C228.693 229.67 228.357 229.391 228.088 229.016C227.824 228.641 227.692 228.168 227.692 227.597V217.83ZM235.286 224.094V230H233.777V216.909H235.286V221.716H235.414C235.644 221.209 235.989 220.806 236.449 220.508C236.914 220.205 237.531 220.054 238.303 220.054C238.972 220.054 239.558 220.188 240.061 220.457C240.563 220.721 240.953 221.128 241.23 221.678C241.512 222.223 241.652 222.918 241.652 223.761V230H240.144V223.864C240.144 223.084 239.941 222.481 239.536 222.055C239.136 221.624 238.58 221.409 237.868 221.409C237.374 221.409 236.931 221.513 236.539 221.722C236.151 221.931 235.844 222.236 235.618 222.636C235.396 223.037 235.286 223.523 235.286 224.094ZM247.301 230.23C246.679 230.23 246.114 230.113 245.607 229.879C245.1 229.64 244.697 229.297 244.399 228.849C244.101 228.398 243.952 227.852 243.952 227.213C243.952 226.651 244.063 226.195 244.284 225.845C244.506 225.491 244.802 225.214 245.173 225.014C245.543 224.814 245.952 224.665 246.4 224.567C246.852 224.464 247.305 224.384 247.761 224.324C248.358 224.247 248.842 224.19 249.212 224.151C249.587 224.109 249.86 224.038 250.031 223.94C250.205 223.842 250.293 223.672 250.293 223.429V223.378C250.293 222.747 250.12 222.257 249.775 221.908C249.434 221.558 248.916 221.384 248.222 221.384C247.501 221.384 246.937 221.541 246.528 221.857C246.119 222.172 245.831 222.509 245.665 222.866L244.233 222.355C244.489 221.759 244.83 221.294 245.256 220.962C245.686 220.625 246.155 220.391 246.662 220.259C247.173 220.122 247.676 220.054 248.17 220.054C248.486 220.054 248.848 220.092 249.257 220.169C249.67 220.241 250.069 220.393 250.452 220.623C250.84 220.853 251.162 221.2 251.418 221.665C251.673 222.129 251.801 222.751 251.801 223.531V230H250.293V228.67H250.216C250.114 228.884 249.943 229.112 249.705 229.354C249.466 229.597 249.148 229.804 248.752 229.974C248.356 230.145 247.872 230.23 247.301 230.23ZM247.531 228.875C248.128 228.875 248.631 228.758 249.04 228.523C249.453 228.289 249.764 227.987 249.973 227.616C250.186 227.245 250.293 226.855 250.293 226.446V225.065C250.229 225.142 250.088 225.212 249.871 225.276C249.658 225.336 249.411 225.389 249.129 225.436C248.852 225.479 248.582 225.517 248.317 225.551C248.058 225.581 247.847 225.607 247.685 225.628C247.293 225.679 246.926 225.762 246.585 225.877C246.249 225.988 245.976 226.156 245.767 226.382C245.563 226.604 245.46 226.906 245.46 227.29C245.46 227.814 245.654 228.21 246.042 228.479C246.434 228.743 246.93 228.875 247.531 228.875ZM258.824 220.182V221.46H253.736V220.182H258.824ZM255.219 217.83H256.728V227.188C256.728 227.614 256.79 227.933 256.913 228.146C257.041 228.355 257.203 228.496 257.399 228.568C257.599 228.636 257.81 228.67 258.032 228.67C258.198 228.67 258.334 228.662 258.441 228.645C258.547 228.624 258.633 228.607 258.697 228.594L259.003 229.949C258.901 229.987 258.758 230.026 258.575 230.064C258.392 230.107 258.16 230.128 257.878 230.128C257.452 230.128 257.035 230.036 256.626 229.853C256.221 229.67 255.884 229.391 255.616 229.016C255.351 228.641 255.219 228.168 255.219 227.597V217.83ZM267.128 233.682C266.872 233.682 266.644 233.661 266.444 233.618C266.243 233.58 266.105 233.541 266.028 233.503L266.412 232.173C266.778 232.267 267.102 232.301 267.383 232.276C267.665 232.25 267.914 232.124 268.131 231.898C268.353 231.677 268.555 231.317 268.738 230.818L269.02 230.051L265.389 220.182H267.025L269.736 228.006H269.838L272.548 220.182H274.184L270.017 231.432C269.829 231.939 269.597 232.359 269.32 232.691C269.043 233.028 268.721 233.277 268.355 233.439C267.993 233.601 267.584 233.682 267.128 233.682ZM279.813 230.205C278.926 230.205 278.149 229.994 277.48 229.572C276.815 229.15 276.295 228.56 275.92 227.801C275.549 227.043 275.364 226.156 275.364 225.142C275.364 224.119 275.549 223.227 275.92 222.464C276.295 221.701 276.815 221.109 277.48 220.687C278.149 220.265 278.926 220.054 279.813 220.054C280.699 220.054 281.475 220.265 282.139 220.687C282.808 221.109 283.328 221.701 283.699 222.464C284.074 223.227 284.262 224.119 284.262 225.142C284.262 226.156 284.074 227.043 283.699 227.801C283.328 228.56 282.808 229.15 282.139 229.572C281.475 229.994 280.699 230.205 279.813 230.205ZM279.813 228.849C280.486 228.849 281.04 228.677 281.475 228.332C281.909 227.987 282.231 227.533 282.44 226.97C282.649 226.408 282.753 225.798 282.753 225.142C282.753 224.486 282.649 223.874 282.44 223.308C282.231 222.741 281.909 222.283 281.475 221.933C281.04 221.584 280.486 221.409 279.813 221.409C279.139 221.409 278.585 221.584 278.151 221.933C277.716 222.283 277.394 222.741 277.186 223.308C276.977 223.874 276.872 224.486 276.872 225.142C276.872 225.798 276.977 226.408 277.186 226.97C277.394 227.533 277.716 227.987 278.151 228.332C278.585 228.677 279.139 228.849 279.813 228.849ZM292.752 225.986V220.182H294.26V230H292.752V228.338H292.65C292.419 228.837 292.061 229.261 291.576 229.61C291.09 229.955 290.476 230.128 289.735 230.128C289.121 230.128 288.576 229.994 288.098 229.725C287.621 229.452 287.246 229.043 286.973 228.498C286.701 227.948 286.564 227.256 286.564 226.42V220.182H288.073V226.318C288.073 227.034 288.273 227.605 288.674 228.031C289.078 228.457 289.594 228.67 290.221 228.67C290.596 228.67 290.977 228.575 291.365 228.383C291.757 228.191 292.085 227.897 292.349 227.501C292.618 227.104 292.752 226.599 292.752 225.986ZM303.492 226.42L303.466 224.554H303.773L308.069 220.182H309.935L305.358 224.81H305.231L303.492 226.42ZM302.086 230V216.909H303.594V230H302.086ZM308.324 230L304.489 225.142L305.563 224.094L310.242 230H308.324ZM313.385 224.094V230H311.877V220.182H313.334V221.716H313.462C313.692 221.217 314.042 220.817 314.51 220.514C314.979 220.207 315.584 220.054 316.326 220.054C316.99 220.054 317.572 220.19 318.071 220.463C318.569 220.732 318.957 221.141 319.234 221.69C319.511 222.236 319.65 222.926 319.65 223.761V230H318.141V223.864C318.141 223.092 317.941 222.491 317.54 222.061C317.14 221.626 316.59 221.409 315.891 221.409C315.409 221.409 314.979 221.513 314.6 221.722C314.225 221.931 313.929 222.236 313.711 222.636C313.494 223.037 313.385 223.523 313.385 224.094ZM326.395 230.205C325.508 230.205 324.731 229.994 324.062 229.572C323.397 229.15 322.877 228.56 322.502 227.801C322.131 227.043 321.946 226.156 321.946 225.142C321.946 224.119 322.131 223.227 322.502 222.464C322.877 221.701 323.397 221.109 324.062 220.687C324.731 220.265 325.508 220.054 326.395 220.054C327.281 220.054 328.057 220.265 328.721 220.687C329.39 221.109 329.91 221.701 330.281 222.464C330.656 223.227 330.844 224.119 330.844 225.142C330.844 226.156 330.656 227.043 330.281 227.801C329.91 228.56 329.39 229.15 328.721 229.572C328.057 229.994 327.281 230.205 326.395 230.205ZM326.395 228.849C327.068 228.849 327.622 228.677 328.057 228.332C328.491 227.987 328.813 227.533 329.022 226.97C329.231 226.408 329.335 225.798 329.335 225.142C329.335 224.486 329.231 223.874 329.022 223.308C328.813 222.741 328.491 222.283 328.057 221.933C327.622 221.584 327.068 221.409 326.395 221.409C325.721 221.409 325.167 221.584 324.733 221.933C324.298 222.283 323.976 222.741 323.768 223.308C323.559 223.874 323.454 224.486 323.454 225.142C323.454 225.798 323.559 226.408 323.768 226.97C323.976 227.533 324.298 227.987 324.733 228.332C325.167 228.677 325.721 228.849 326.395 228.849ZM335.037 230L332.045 220.182H333.631L335.753 227.699H335.855L337.952 220.182H339.562L341.633 227.673H341.736L343.858 220.182H345.443L342.452 230H340.969L338.821 222.457H338.667L336.52 230H335.037ZM355.389 230.23C354.767 230.23 354.202 230.113 353.695 229.879C353.188 229.64 352.785 229.297 352.487 228.849C352.189 228.398 352.04 227.852 352.04 227.213C352.04 226.651 352.15 226.195 352.372 225.845C352.594 225.491 352.89 225.214 353.26 225.014C353.631 224.814 354.04 224.665 354.488 224.567C354.939 224.464 355.393 224.384 355.849 224.324C356.446 224.247 356.93 224.19 357.3 224.151C357.675 224.109 357.948 224.038 358.118 223.94C358.293 223.842 358.381 223.672 358.381 223.429V223.378C358.381 222.747 358.208 222.257 357.863 221.908C357.522 221.558 357.004 221.384 356.309 221.384C355.589 221.384 355.025 221.541 354.616 221.857C354.206 222.172 353.919 222.509 353.753 222.866L352.321 222.355C352.577 221.759 352.917 221.294 353.344 220.962C353.774 220.625 354.243 220.391 354.75 220.259C355.261 220.122 355.764 220.054 356.258 220.054C356.574 220.054 356.936 220.092 357.345 220.169C357.758 220.241 358.157 220.393 358.54 220.623C358.928 220.853 359.25 221.2 359.506 221.665C359.761 222.129 359.889 222.751 359.889 223.531V230H358.381V228.67H358.304C358.202 228.884 358.031 229.112 357.792 229.354C357.554 229.597 357.236 229.804 356.84 229.974C356.444 230.145 355.96 230.23 355.389 230.23ZM355.619 228.875C356.216 228.875 356.719 228.758 357.128 228.523C357.541 228.289 357.852 227.987 358.061 227.616C358.274 227.245 358.381 226.855 358.381 226.446V225.065C358.317 225.142 358.176 225.212 357.959 225.276C357.746 225.336 357.498 225.389 357.217 225.436C356.94 225.479 356.67 225.517 356.405 225.551C356.145 225.581 355.934 225.607 355.773 225.628C355.381 225.679 355.014 225.762 354.673 225.877C354.336 225.988 354.064 226.156 353.855 226.382C353.65 226.604 353.548 226.906 353.548 227.29C353.548 227.814 353.742 228.21 354.13 228.479C354.522 228.743 355.018 228.875 355.619 228.875ZM367.909 230V216.909H369.418V221.741H369.546C369.657 221.571 369.81 221.354 370.006 221.089C370.206 220.821 370.492 220.582 370.863 220.374C371.238 220.161 371.745 220.054 372.384 220.054C373.211 220.054 373.939 220.261 374.57 220.674C375.201 221.087 375.693 221.673 376.047 222.432C376.4 223.19 376.577 224.085 376.577 225.116C376.577 226.156 376.4 227.058 376.047 227.82C375.693 228.579 375.203 229.167 374.576 229.585C373.95 229.998 373.228 230.205 372.409 230.205C371.779 230.205 371.274 230.1 370.895 229.891C370.515 229.678 370.223 229.437 370.019 229.169C369.814 228.896 369.657 228.67 369.546 228.491H369.367V230H367.909ZM369.392 225.091C369.392 225.832 369.501 226.487 369.718 227.053C369.936 227.616 370.253 228.057 370.671 228.376C371.088 228.692 371.6 228.849 372.205 228.849C372.836 228.849 373.362 228.683 373.784 228.351C374.21 228.014 374.529 227.562 374.743 226.996C374.96 226.425 375.069 225.79 375.069 225.091C375.069 224.401 374.962 223.778 374.749 223.224C374.54 222.666 374.223 222.225 373.797 221.901C373.375 221.573 372.844 221.409 372.205 221.409C371.591 221.409 371.076 221.565 370.658 221.876C370.24 222.183 369.925 222.613 369.712 223.167C369.499 223.717 369.392 224.358 369.392 225.091ZM378.885 230V220.182H380.393V230H378.885ZM379.652 218.545C379.358 218.545 379.104 218.445 378.891 218.245C378.682 218.045 378.578 217.804 378.578 217.523C378.578 217.241 378.682 217.001 378.891 216.8C379.104 216.6 379.358 216.5 379.652 216.5C379.946 216.5 380.197 216.6 380.406 216.8C380.619 217.001 380.725 217.241 380.725 217.523C380.725 217.804 380.619 218.045 380.406 218.245C380.197 218.445 379.946 218.545 379.652 218.545ZM387.426 220.182V221.46H382.338V220.182H387.426ZM383.821 217.83H385.329V227.188C385.329 227.614 385.391 227.933 385.515 228.146C385.643 228.355 385.805 228.496 386.001 228.568C386.201 228.636 386.412 228.67 386.633 228.67C386.8 228.67 386.936 228.662 387.042 228.645C387.149 228.624 387.234 228.607 387.298 228.594L387.605 229.949C387.503 229.987 387.36 230.026 387.177 230.064C386.993 230.107 386.761 230.128 386.48 230.128C386.054 230.128 385.636 230.036 385.227 229.853C384.822 229.67 384.486 229.391 384.217 229.016C383.953 228.641 383.821 228.168 383.821 227.597V217.83ZM397.647 230.23C397.025 230.23 396.46 230.113 395.953 229.879C395.446 229.64 395.043 229.297 394.745 228.849C394.447 228.398 394.297 227.852 394.297 227.213C394.297 226.651 394.408 226.195 394.63 225.845C394.851 225.491 395.148 225.214 395.518 225.014C395.889 224.814 396.298 224.665 396.746 224.567C397.197 224.464 397.651 224.384 398.107 224.324C398.704 224.247 399.187 224.19 399.558 224.151C399.933 224.109 400.206 224.038 400.376 223.94C400.551 223.842 400.638 223.672 400.638 223.429V223.378C400.638 222.747 400.466 222.257 400.121 221.908C399.78 221.558 399.262 221.384 398.567 221.384C397.847 221.384 397.282 221.541 396.873 221.857C396.464 222.172 396.177 222.509 396.01 222.866L394.579 222.355C394.834 221.759 395.175 221.294 395.601 220.962C396.032 220.625 396.501 220.391 397.008 220.259C397.519 220.122 398.022 220.054 398.516 220.054C398.831 220.054 399.194 220.092 399.603 220.169C400.016 220.241 400.415 220.393 400.798 220.623C401.186 220.853 401.508 221.2 401.763 221.665C402.019 222.129 402.147 222.751 402.147 223.531V230H400.638V228.67H400.562C400.459 228.884 400.289 229.112 400.05 229.354C399.812 229.597 399.494 229.804 399.098 229.974C398.702 230.145 398.218 230.23 397.647 230.23ZM397.877 228.875C398.474 228.875 398.976 228.758 399.385 228.523C399.799 228.289 400.11 227.987 400.319 227.616C400.532 227.245 400.638 226.855 400.638 226.446V225.065C400.574 225.142 400.434 225.212 400.216 225.276C400.003 225.336 399.756 225.389 399.475 225.436C399.198 225.479 398.927 225.517 398.663 225.551C398.403 225.581 398.192 225.607 398.03 225.628C397.638 225.679 397.272 225.762 396.931 225.877C396.594 225.988 396.322 226.156 396.113 226.382C395.908 226.604 395.806 226.906 395.806 227.29C395.806 227.814 396 228.21 396.388 228.479C396.78 228.743 397.276 228.875 397.877 228.875ZM405.105 230V216.909H406.613V221.741H406.741C406.852 221.571 407.005 221.354 407.201 221.089C407.402 220.821 407.687 220.582 408.058 220.374C408.433 220.161 408.94 220.054 409.579 220.054C410.406 220.054 411.135 220.261 411.765 220.674C412.396 221.087 412.888 221.673 413.242 222.432C413.596 223.19 413.772 224.085 413.772 225.116C413.772 226.156 413.596 227.058 413.242 227.82C412.888 228.579 412.398 229.167 411.772 229.585C411.145 229.998 410.423 230.205 409.605 230.205C408.974 230.205 408.469 230.1 408.09 229.891C407.711 229.678 407.419 229.437 407.214 229.169C407.01 228.896 406.852 228.67 406.741 228.491H406.562V230H405.105ZM406.588 225.091C406.588 225.832 406.696 226.487 406.914 227.053C407.131 227.616 407.449 228.057 407.866 228.376C408.284 228.692 408.795 228.849 409.4 228.849C410.031 228.849 410.557 228.683 410.979 228.351C411.405 228.014 411.725 227.562 411.938 226.996C412.155 226.425 412.264 225.79 412.264 225.091C412.264 224.401 412.157 223.778 411.944 223.224C411.735 222.666 411.418 222.225 410.992 221.901C410.57 221.573 410.039 221.409 409.4 221.409C408.787 221.409 408.271 221.565 407.853 221.876C407.436 222.183 407.12 222.613 406.907 223.167C406.694 223.717 406.588 224.358 406.588 225.091ZM420.069 230.205C419.182 230.205 418.404 229.994 417.735 229.572C417.071 229.15 416.551 228.56 416.176 227.801C415.805 227.043 415.62 226.156 415.62 225.142C415.62 224.119 415.805 223.227 416.176 222.464C416.551 221.701 417.071 221.109 417.735 220.687C418.404 220.265 419.182 220.054 420.069 220.054C420.955 220.054 421.73 220.265 422.395 220.687C423.064 221.109 423.584 221.701 423.955 222.464C424.33 223.227 424.517 224.119 424.517 225.142C424.517 226.156 424.33 227.043 423.955 227.801C423.584 228.56 423.064 229.15 422.395 229.572C421.73 229.994 420.955 230.205 420.069 230.205ZM420.069 228.849C420.742 228.849 421.296 228.677 421.73 228.332C422.165 227.987 422.487 227.533 422.696 226.97C422.904 226.408 423.009 225.798 423.009 225.142C423.009 224.486 422.904 223.874 422.696 223.308C422.487 222.741 422.165 222.283 421.73 221.933C421.296 221.584 420.742 221.409 420.069 221.409C419.395 221.409 418.841 221.584 418.407 221.933C417.972 222.283 417.65 222.741 417.441 223.308C417.233 223.874 417.128 224.486 417.128 225.142C417.128 225.798 417.233 226.408 417.441 226.97C417.65 227.533 417.972 227.987 418.407 228.332C418.841 228.677 419.395 228.849 420.069 228.849ZM433.008 225.986V220.182H434.516V230H433.008V228.338H432.905C432.675 228.837 432.317 229.261 431.831 229.61C431.346 229.955 430.732 230.128 429.991 230.128C429.377 230.128 428.831 229.994 428.354 229.725C427.877 229.452 427.502 229.043 427.229 228.498C426.956 227.948 426.82 227.256 426.82 226.42V220.182H428.329V226.318C428.329 227.034 428.529 227.605 428.93 228.031C429.334 228.457 429.85 228.67 430.476 228.67C430.851 228.67 431.233 228.575 431.621 228.383C432.013 228.191 432.341 227.897 432.605 227.501C432.873 227.104 433.008 226.599 433.008 225.986ZM441.549 220.182V221.46H436.461V220.182H441.549ZM437.944 217.83H439.452V227.188C439.452 227.614 439.514 227.933 439.638 228.146C439.766 228.355 439.928 228.496 440.124 228.568C440.324 228.636 440.535 228.67 440.756 228.67C440.923 228.67 441.059 228.662 441.165 228.645C441.272 228.624 441.357 228.607 441.421 228.594L441.728 229.949C441.626 229.987 441.483 230.026 441.3 230.064C441.116 230.107 440.884 230.128 440.603 230.128C440.177 230.128 439.759 230.036 439.35 229.853C438.945 229.67 438.609 229.391 438.34 229.016C438.076 228.641 437.944 228.168 437.944 227.597V217.83ZM448.881 230V220.182H450.338V221.716H450.466C450.67 221.192 451.001 220.785 451.457 220.495C451.913 220.201 452.46 220.054 453.099 220.054C453.747 220.054 454.286 220.201 454.717 220.495C455.151 220.785 455.49 221.192 455.733 221.716H455.835C456.087 221.209 456.464 220.806 456.967 220.508C457.469 220.205 458.072 220.054 458.776 220.054C459.653 220.054 460.371 220.329 460.93 220.879C461.488 221.424 461.767 222.274 461.767 223.429V230H460.259V223.429C460.259 222.705 460.06 222.187 459.664 221.876C459.268 221.565 458.801 221.409 458.264 221.409C457.574 221.409 457.039 221.618 456.66 222.036C456.281 222.449 456.091 222.973 456.091 223.608V230H454.557V223.276C454.557 222.717 454.376 222.268 454.013 221.927C453.651 221.582 453.185 221.409 452.614 221.409C452.222 221.409 451.855 221.513 451.514 221.722C451.178 221.931 450.905 222.221 450.696 222.592C450.491 222.958 450.389 223.382 450.389 223.864V230H448.881ZM468.642 230.205C467.696 230.205 466.88 229.996 466.194 229.578C465.512 229.156 464.985 228.568 464.615 227.814C464.248 227.055 464.065 226.173 464.065 225.168C464.065 224.162 464.248 223.276 464.615 222.509C464.985 221.737 465.501 221.136 466.162 220.706C466.826 220.271 467.602 220.054 468.488 220.054C469 220.054 469.505 220.139 470.003 220.31C470.502 220.48 470.956 220.757 471.365 221.141C471.774 221.52 472.1 222.023 472.343 222.649C472.586 223.276 472.707 224.047 472.707 224.963V225.602H465.139V224.298H471.173C471.173 223.744 471.062 223.25 470.841 222.815C470.623 222.381 470.312 222.038 469.907 221.786C469.507 221.535 469.034 221.409 468.488 221.409C467.887 221.409 467.368 221.558 466.929 221.857C466.494 222.151 466.159 222.534 465.925 223.007C465.691 223.48 465.574 223.987 465.574 224.528V225.398C465.574 226.139 465.701 226.768 465.957 227.283C466.217 227.795 466.577 228.185 467.037 228.453C467.498 228.717 468.032 228.849 468.642 228.849C469.038 228.849 469.396 228.794 469.716 228.683C470.039 228.568 470.319 228.398 470.553 228.172C470.787 227.942 470.968 227.656 471.096 227.315L472.554 227.724C472.4 228.219 472.142 228.653 471.78 229.028C471.418 229.399 470.971 229.689 470.438 229.898C469.905 230.102 469.306 230.205 468.642 230.205ZM477.252 228.21L477.15 228.901C477.077 229.386 476.966 229.906 476.817 230.46C476.672 231.014 476.521 231.536 476.363 232.026C476.206 232.516 476.076 232.906 475.973 233.196H474.823C474.878 232.923 474.951 232.563 475.04 232.116C475.13 231.668 475.219 231.168 475.309 230.614C475.402 230.064 475.479 229.501 475.539 228.926L475.615 228.21H477.252ZM486.618 216.909V230H485.109V216.909H486.618ZM493.497 230.205C492.551 230.205 491.735 229.996 491.049 229.578C490.367 229.156 489.841 228.568 489.47 227.814C489.104 227.055 488.92 226.173 488.92 225.168C488.92 224.162 489.104 223.276 489.47 222.509C489.841 221.737 490.357 221.136 491.017 220.706C491.682 220.271 492.457 220.054 493.344 220.054C493.855 220.054 494.36 220.139 494.859 220.31C495.357 220.48 495.811 220.757 496.22 221.141C496.629 221.52 496.955 222.023 497.198 222.649C497.441 223.276 497.562 224.047 497.562 224.963V225.602H489.994V224.298H496.028C496.028 223.744 495.918 223.25 495.696 222.815C495.479 222.381 495.168 222.038 494.763 221.786C494.362 221.535 493.889 221.409 493.344 221.409C492.743 221.409 492.223 221.558 491.784 221.857C491.349 222.151 491.015 222.534 490.781 223.007C490.546 223.48 490.429 223.987 490.429 224.528V225.398C490.429 226.139 490.557 226.768 490.812 227.283C491.072 227.795 491.433 228.185 491.893 228.453C492.353 228.717 492.888 228.849 493.497 228.849C493.893 228.849 494.251 228.794 494.571 228.683C494.895 228.568 495.174 228.398 495.408 228.172C495.643 227.942 495.824 227.656 495.952 227.315L497.409 227.724C497.256 228.219 496.998 228.653 496.636 229.028C496.273 229.399 495.826 229.689 495.293 229.898C494.761 230.102 494.162 230.205 493.497 230.205ZM504.127 220.182V221.46H499.039V220.182H504.127ZM500.522 217.83H502.031V227.188C502.031 227.614 502.092 227.933 502.216 228.146C502.344 228.355 502.506 228.496 502.702 228.568C502.902 228.636 503.113 228.67 503.335 228.67C503.501 228.67 503.637 228.662 503.744 228.645C503.85 228.624 503.935 228.607 503.999 228.594L504.306 229.949C504.204 229.987 504.061 230.026 503.878 230.064C503.695 230.107 503.462 230.128 503.181 230.128C502.755 230.128 502.337 230.036 501.928 229.853C501.523 229.67 501.187 229.391 500.918 229.016C500.654 228.641 500.522 228.168 500.522 227.597V217.83ZM508.236 216.909V218.06C508.236 218.409 508.172 218.782 508.044 219.178C507.92 219.57 507.737 219.952 507.494 220.322C507.256 220.689 506.966 221.009 506.625 221.281L505.807 220.616C506.075 220.233 506.307 219.835 506.503 219.421C506.704 219.004 506.804 218.558 506.804 218.085V216.909H508.236ZM515.794 222.381L514.439 222.764C514.354 222.538 514.228 222.319 514.062 222.106C513.9 221.888 513.678 221.71 513.397 221.569C513.116 221.428 512.756 221.358 512.317 221.358C511.716 221.358 511.215 221.496 510.815 221.773C510.419 222.046 510.22 222.393 510.22 222.815C510.22 223.19 510.357 223.487 510.629 223.704C510.902 223.921 511.328 224.102 511.908 224.247L513.365 224.605C514.243 224.818 514.897 225.144 515.328 225.583C515.758 226.018 515.973 226.578 515.973 227.264C515.973 227.827 515.811 228.33 515.487 228.773C515.168 229.216 514.72 229.565 514.145 229.821C513.57 230.077 512.901 230.205 512.138 230.205C511.137 230.205 510.308 229.987 509.651 229.553C508.995 229.118 508.58 228.483 508.405 227.648L509.837 227.29C509.973 227.818 510.231 228.214 510.61 228.479C510.994 228.743 511.494 228.875 512.112 228.875C512.816 228.875 513.374 228.726 513.787 228.428C514.205 228.125 514.414 227.763 514.414 227.341C514.414 227 514.294 226.714 514.056 226.484C513.817 226.25 513.45 226.075 512.956 225.96L511.32 225.577C510.421 225.364 509.76 225.033 509.338 224.586C508.921 224.134 508.712 223.57 508.712 222.892C508.712 222.338 508.867 221.848 509.178 221.422C509.494 220.996 509.922 220.661 510.463 220.418C511.009 220.175 511.627 220.054 512.317 220.054C513.289 220.054 514.051 220.267 514.605 220.693C515.164 221.119 515.56 221.682 515.794 222.381ZM527.295 230.205C526.375 230.205 525.582 229.987 524.917 229.553C524.252 229.118 523.741 228.519 523.383 227.756C523.025 226.994 522.846 226.122 522.846 225.142C522.846 224.145 523.029 223.265 523.396 222.502C523.767 221.735 524.282 221.136 524.943 220.706C525.608 220.271 526.383 220.054 527.27 220.054C527.96 220.054 528.582 220.182 529.136 220.438C529.69 220.693 530.144 221.051 530.498 221.511C530.851 221.972 531.071 222.509 531.156 223.122H529.647C529.532 222.675 529.277 222.278 528.88 221.933C528.488 221.584 527.96 221.409 527.295 221.409C526.707 221.409 526.191 221.562 525.748 221.869C525.309 222.172 524.966 222.6 524.719 223.154C524.476 223.704 524.355 224.349 524.355 225.091C524.355 225.849 524.474 226.51 524.713 227.072C524.956 227.635 525.297 228.072 525.735 228.383C526.179 228.694 526.699 228.849 527.295 228.849C527.687 228.849 528.043 228.781 528.363 228.645C528.682 228.509 528.953 228.312 529.174 228.057C529.396 227.801 529.554 227.494 529.647 227.136H531.156C531.071 227.716 530.86 228.238 530.523 228.702C530.191 229.163 529.75 229.529 529.2 229.802C528.654 230.07 528.02 230.205 527.295 230.205ZM537.35 230.205C536.463 230.205 535.686 229.994 535.017 229.572C534.352 229.15 533.832 228.56 533.457 227.801C533.086 227.043 532.901 226.156 532.901 225.142C532.901 224.119 533.086 223.227 533.457 222.464C533.832 221.701 534.352 221.109 535.017 220.687C535.686 220.265 536.463 220.054 537.35 220.054C538.236 220.054 539.012 220.265 539.676 220.687C540.346 221.109 540.865 221.701 541.236 222.464C541.611 223.227 541.799 224.119 541.799 225.142C541.799 226.156 541.611 227.043 541.236 227.801C540.865 228.56 540.346 229.15 539.676 229.572C539.012 229.994 538.236 230.205 537.35 230.205ZM537.35 228.849C538.023 228.849 538.577 228.677 539.012 228.332C539.446 227.987 539.768 227.533 539.977 226.97C540.186 226.408 540.29 225.798 540.29 225.142C540.29 224.486 540.186 223.874 539.977 223.308C539.768 222.741 539.446 222.283 539.012 221.933C538.577 221.584 538.023 221.409 537.35 221.409C536.676 221.409 536.123 221.584 535.688 221.933C535.253 222.283 534.931 222.741 534.723 223.308C534.514 223.874 534.409 224.486 534.409 225.142C534.409 225.798 534.514 226.408 534.723 226.97C534.931 227.533 535.253 227.987 535.688 228.332C536.123 228.677 536.676 228.849 537.35 228.849ZM545.61 224.094V230H544.101V220.182H545.559V221.716H545.687C545.917 221.217 546.266 220.817 546.735 220.514C547.204 220.207 547.809 220.054 548.55 220.054C549.215 220.054 549.797 220.19 550.295 220.463C550.794 220.732 551.182 221.141 551.459 221.69C551.736 222.236 551.874 222.926 551.874 223.761V230H550.366V223.864C550.366 223.092 550.165 222.491 549.765 222.061C549.364 221.626 548.814 221.409 548.116 221.409C547.634 221.409 547.204 221.513 546.824 221.722C546.449 221.931 546.153 222.236 545.936 222.636C545.719 223.037 545.61 223.523 545.61 224.094ZM556.139 224.094V230H554.631V220.182H556.088V221.716H556.216C556.446 221.217 556.795 220.817 557.264 220.514C557.733 220.207 558.338 220.054 559.08 220.054C559.744 220.054 560.326 220.19 560.825 220.463C561.323 220.732 561.711 221.141 561.988 221.69C562.265 222.236 562.403 222.926 562.403 223.761V230H560.895V223.864C560.895 223.092 560.695 222.491 560.294 222.061C559.893 221.626 559.344 221.409 558.645 221.409C558.163 221.409 557.733 221.513 557.354 221.722C556.979 221.931 556.683 222.236 556.465 222.636C556.248 223.037 556.139 223.523 556.139 224.094ZM569.276 230.205C568.33 230.205 567.514 229.996 566.828 229.578C566.146 229.156 565.62 228.568 565.249 227.814C564.883 227.055 564.7 226.173 564.7 225.168C564.7 224.162 564.883 223.276 565.249 222.509C565.62 221.737 566.136 221.136 566.796 220.706C567.461 220.271 568.237 220.054 569.123 220.054C569.634 220.054 570.139 220.139 570.638 220.31C571.137 220.48 571.59 220.757 571.999 221.141C572.409 221.52 572.735 222.023 572.977 222.649C573.22 223.276 573.342 224.047 573.342 224.963V225.602H565.774V224.298H571.808C571.808 223.744 571.697 223.25 571.475 222.815C571.258 222.381 570.947 222.038 570.542 221.786C570.142 221.535 569.669 221.409 569.123 221.409C568.522 221.409 568.002 221.558 567.563 221.857C567.129 222.151 566.794 222.534 566.56 223.007C566.325 223.48 566.208 223.987 566.208 224.528V225.398C566.208 226.139 566.336 226.768 566.592 227.283C566.852 227.795 567.212 228.185 567.672 228.453C568.132 228.717 568.667 228.849 569.276 228.849C569.673 228.849 570.031 228.794 570.35 228.683C570.674 228.568 570.953 228.398 571.188 228.172C571.422 227.942 571.603 227.656 571.731 227.315L573.188 227.724C573.035 228.219 572.777 228.653 572.415 229.028C572.053 229.399 571.605 229.689 571.073 229.898C570.54 230.102 569.941 230.205 569.276 230.205ZM579.625 230.205C578.705 230.205 577.912 229.987 577.247 229.553C576.583 229.118 576.071 228.519 575.713 227.756C575.355 226.994 575.176 226.122 575.176 225.142C575.176 224.145 575.36 223.265 575.726 222.502C576.097 221.735 576.612 221.136 577.273 220.706C577.938 220.271 578.713 220.054 579.6 220.054C580.29 220.054 580.912 220.182 581.466 220.438C582.02 220.693 582.474 221.051 582.828 221.511C583.181 221.972 583.401 222.509 583.486 223.122H581.977C581.862 222.675 581.607 222.278 581.21 221.933C580.818 221.584 580.29 221.409 579.625 221.409C579.037 221.409 578.521 221.562 578.078 221.869C577.639 222.172 577.296 222.6 577.049 223.154C576.806 223.704 576.685 224.349 576.685 225.091C576.685 225.849 576.804 226.51 577.043 227.072C577.286 227.635 577.627 228.072 578.066 228.383C578.509 228.694 579.029 228.849 579.625 228.849C580.017 228.849 580.373 228.781 580.693 228.645C581.012 228.509 581.283 228.312 581.504 228.057C581.726 227.801 581.884 227.494 581.977 227.136H583.486C583.401 227.716 583.19 228.238 582.853 228.702C582.521 229.163 582.08 229.529 581.53 229.802C580.985 230.07 580.35 230.205 579.625 230.205ZM589.961 220.182V221.46H584.873V220.182H589.961ZM586.356 217.83H587.865V227.188C587.865 227.614 587.926 227.933 588.05 228.146C588.178 228.355 588.34 228.496 588.536 228.568C588.736 228.636 588.947 228.67 589.169 228.67C589.335 228.67 589.471 228.662 589.578 228.645C589.684 228.624 589.769 228.607 589.833 228.594L590.14 229.949C590.038 229.987 589.895 230.026 589.712 230.064C589.529 230.107 589.296 230.128 589.015 230.128C588.589 230.128 588.171 230.036 587.762 229.853C587.357 229.67 587.021 229.391 586.752 229.016C586.488 228.641 586.356 228.168 586.356 227.597V217.83ZM600.182 230.23C599.56 230.23 598.995 230.113 598.488 229.879C597.981 229.64 597.578 229.297 597.28 228.849C596.982 228.398 596.833 227.852 596.833 227.213C596.833 226.651 596.943 226.195 597.165 225.845C597.387 225.491 597.683 225.214 598.053 225.014C598.424 224.814 598.833 224.665 599.281 224.567C599.732 224.464 600.186 224.384 600.642 224.324C601.239 224.247 601.722 224.19 602.093 224.151C602.468 224.109 602.741 224.038 602.911 223.94C603.086 223.842 603.173 223.672 603.173 223.429V223.378C603.173 222.747 603.001 222.257 602.656 221.908C602.315 221.558 601.797 221.384 601.102 221.384C600.382 221.384 599.818 221.541 599.409 221.857C598.999 222.172 598.712 222.509 598.546 222.866L597.114 222.355C597.369 221.759 597.71 221.294 598.137 220.962C598.567 220.625 599.036 220.391 599.543 220.259C600.054 220.122 600.557 220.054 601.051 220.054C601.367 220.054 601.729 220.092 602.138 220.169C602.551 220.241 602.95 220.393 603.333 220.623C603.721 220.853 604.043 221.2 604.298 221.665C604.554 222.129 604.682 222.751 604.682 223.531V230H603.173V228.67H603.097C602.994 228.884 602.824 229.112 602.585 229.354C602.347 229.597 602.029 229.804 601.633 229.974C601.237 230.145 600.753 230.23 600.182 230.23ZM600.412 228.875C601.009 228.875 601.512 228.758 601.921 228.523C602.334 228.289 602.645 227.987 602.854 227.616C603.067 227.245 603.173 226.855 603.173 226.446V225.065C603.11 225.142 602.969 225.212 602.752 225.276C602.539 225.336 602.291 225.389 602.01 225.436C601.733 225.479 601.463 225.517 601.198 225.551C600.938 225.581 600.727 225.607 600.566 225.628C600.173 225.679 599.807 225.762 599.466 225.877C599.129 225.988 598.857 226.156 598.648 226.382C598.443 226.604 598.341 226.906 598.341 227.29C598.341 227.814 598.535 228.21 598.923 228.479C599.315 228.743 599.811 228.875 600.412 228.875ZM608.944 224.094V230H607.435V220.182H608.893V221.716H609.021C609.251 221.217 609.6 220.817 610.069 220.514C610.538 220.207 611.143 220.054 611.884 220.054C612.549 220.054 613.131 220.19 613.629 220.463C614.128 220.732 614.516 221.141 614.793 221.69C615.07 222.236 615.208 222.926 615.208 223.761V230H613.7V223.864C613.7 223.092 613.499 222.491 613.099 222.061C612.698 221.626 612.148 221.409 611.45 221.409C610.968 221.409 610.538 221.513 610.158 221.722C609.783 221.931 609.487 222.236 609.27 222.636C609.053 223.037 608.944 223.523 608.944 224.094ZM621.672 230.205C620.854 230.205 620.132 229.998 619.505 229.585C618.879 229.167 618.389 228.579 618.035 227.82C617.681 227.058 617.504 226.156 617.504 225.116C617.504 224.085 617.681 223.19 618.035 222.432C618.389 221.673 618.881 221.087 619.512 220.674C620.142 220.261 620.871 220.054 621.698 220.054C622.337 220.054 622.842 220.161 623.213 220.374C623.588 220.582 623.873 220.821 624.069 221.089C624.269 221.354 624.425 221.571 624.536 221.741H624.664V216.909H626.172V230H624.715V228.491H624.536C624.425 228.67 624.267 228.896 624.063 229.169C623.858 229.437 623.566 229.678 623.187 229.891C622.808 230.1 622.303 230.205 621.672 230.205ZM621.877 228.849C622.482 228.849 622.993 228.692 623.411 228.376C623.828 228.057 624.146 227.616 624.363 227.053C624.58 226.487 624.689 225.832 624.689 225.091C624.689 224.358 624.583 223.717 624.369 223.167C624.156 222.613 623.841 222.183 623.423 221.876C623.006 221.565 622.49 221.409 621.877 221.409C621.237 221.409 620.705 221.573 620.279 221.901C619.857 222.225 619.539 222.666 619.326 223.224C619.117 223.778 619.013 224.401 619.013 225.091C619.013 225.79 619.119 226.425 619.333 226.996C619.55 227.562 619.869 228.014 620.291 228.351C620.718 228.683 621.246 228.849 621.877 228.849ZM638.323 230.205C637.377 230.205 636.561 229.996 635.875 229.578C635.193 229.156 634.667 228.568 634.296 227.814C633.93 227.055 633.747 226.173 633.747 225.168C633.747 224.162 633.93 223.276 634.296 222.509C634.667 221.737 635.183 221.136 635.843 220.706C636.508 220.271 637.284 220.054 638.17 220.054C638.681 220.054 639.186 220.139 639.685 220.31C640.183 220.48 640.637 220.757 641.046 221.141C641.455 221.52 641.781 222.023 642.024 222.649C642.267 223.276 642.389 224.047 642.389 224.963V225.602H634.82V224.298H640.855C640.855 223.744 640.744 223.25 640.522 222.815C640.305 222.381 639.994 222.038 639.589 221.786C639.188 221.535 638.715 221.409 638.17 221.409C637.569 221.409 637.049 221.558 636.61 221.857C636.176 222.151 635.841 222.534 635.607 223.007C635.372 223.48 635.255 223.987 635.255 224.528V225.398C635.255 226.139 635.383 226.768 635.639 227.283C635.899 227.795 636.259 228.185 636.719 228.453C637.179 228.717 637.714 228.849 638.323 228.849C638.72 228.849 639.078 228.794 639.397 228.683C639.721 228.568 640 228.398 640.235 228.172C640.469 227.942 640.65 227.656 640.778 227.315L642.235 227.724C642.082 228.219 641.824 228.653 641.462 229.028C641.1 229.399 640.652 229.689 640.119 229.898C639.587 230.102 638.988 230.205 638.323 230.205ZM645.545 220.182L647.897 224.196L650.249 220.182H651.988L648.817 225.091L651.988 230H650.249L647.897 226.19L645.545 230H643.806L646.925 225.091L643.806 220.182H645.545ZM654.14 233.682V220.182H655.598V221.741H655.777C655.888 221.571 656.041 221.354 656.237 221.089C656.437 220.821 656.723 220.582 657.094 220.374C657.469 220.161 657.976 220.054 658.615 220.054C659.442 220.054 660.17 220.261 660.801 220.674C661.432 221.087 661.924 221.673 662.278 222.432C662.631 223.19 662.808 224.085 662.808 225.116C662.808 226.156 662.631 227.058 662.278 227.82C661.924 228.579 661.434 229.167 660.807 229.585C660.181 229.998 659.459 230.205 658.64 230.205C658.01 230.205 657.505 230.1 657.126 229.891C656.746 229.678 656.454 229.437 656.25 229.169C656.045 228.896 655.888 228.67 655.777 228.491H655.649V233.682H654.14ZM655.623 225.091C655.623 225.832 655.732 226.487 655.949 227.053C656.167 227.616 656.484 228.057 656.902 228.376C657.319 228.692 657.831 228.849 658.436 228.849C659.067 228.849 659.593 228.683 660.015 228.351C660.441 228.014 660.76 227.562 660.974 226.996C661.191 226.425 661.3 225.79 661.3 225.091C661.3 224.401 661.193 223.778 660.98 223.224C660.771 222.666 660.454 222.225 660.028 221.901C659.606 221.573 659.075 221.409 658.436 221.409C657.822 221.409 657.307 221.565 656.889 221.876C656.471 222.183 656.156 222.613 655.943 223.167C655.73 223.717 655.623 224.358 655.623 225.091ZM666.618 216.909V230H665.109V216.909H666.618ZM673.369 230.205C672.483 230.205 671.705 229.994 671.036 229.572C670.371 229.15 669.852 228.56 669.477 227.801C669.106 227.043 668.92 226.156 668.92 225.142C668.92 224.119 669.106 223.227 669.477 222.464C669.852 221.701 670.371 221.109 671.036 220.687C671.705 220.265 672.483 220.054 673.369 220.054C674.256 220.054 675.031 220.265 675.696 220.687C676.365 221.109 676.885 221.701 677.256 222.464C677.631 223.227 677.818 224.119 677.818 225.142C677.818 226.156 677.631 227.043 677.256 227.801C676.885 228.56 676.365 229.15 675.696 229.572C675.031 229.994 674.256 230.205 673.369 230.205ZM673.369 228.849C674.043 228.849 674.597 228.677 675.031 228.332C675.466 227.987 675.788 227.533 675.996 226.97C676.205 226.408 676.31 225.798 676.31 225.142C676.31 224.486 676.205 223.874 675.996 223.308C675.788 222.741 675.466 222.283 675.031 221.933C674.597 221.584 674.043 221.409 673.369 221.409C672.696 221.409 672.142 221.584 671.707 221.933C671.273 222.283 670.951 222.741 670.742 223.308C670.533 223.874 670.429 224.486 670.429 225.142C670.429 225.798 670.533 226.408 670.742 226.97C670.951 227.533 671.273 227.987 671.707 228.332C672.142 228.677 672.696 228.849 673.369 228.849ZM680.121 230V220.182H681.578V221.665H681.681C681.86 221.179 682.183 220.785 682.652 220.482C683.121 220.18 683.649 220.028 684.237 220.028C684.348 220.028 684.487 220.031 684.653 220.035C684.819 220.039 684.945 220.045 685.03 220.054V221.588C684.979 221.575 684.862 221.556 684.678 221.531C684.499 221.501 684.31 221.486 684.11 221.486C683.632 221.486 683.206 221.586 682.831 221.786C682.46 221.982 682.166 222.255 681.949 222.604C681.736 222.95 681.629 223.344 681.629 223.787V230H680.121ZM690.636 230.205C689.69 230.205 688.874 229.996 688.188 229.578C687.506 229.156 686.98 228.568 686.609 227.814C686.242 227.055 686.059 226.173 686.059 225.168C686.059 224.162 686.242 223.276 686.609 222.509C686.98 221.737 687.495 221.136 688.156 220.706C688.82 220.271 689.596 220.054 690.482 220.054C690.994 220.054 691.499 220.139 691.997 220.31C692.496 220.48 692.95 220.757 693.359 221.141C693.768 221.52 694.094 222.023 694.337 222.649C694.58 223.276 694.701 224.047 694.701 224.963V225.602H687.133V224.298H693.167C693.167 223.744 693.056 223.25 692.835 222.815C692.617 222.381 692.306 222.038 691.901 221.786C691.501 221.535 691.028 221.409 690.482 221.409C689.882 221.409 689.362 221.558 688.923 221.857C688.488 222.151 688.154 222.534 687.919 223.007C687.685 223.48 687.568 223.987 687.568 224.528V225.398C687.568 226.139 687.695 226.768 687.951 227.283C688.211 227.795 688.571 228.185 689.031 228.453C689.492 228.717 690.026 228.849 690.636 228.849C691.032 228.849 691.39 228.794 691.71 228.683C692.034 228.568 692.313 228.398 692.547 228.172C692.781 227.942 692.963 227.656 693.09 227.315L694.548 227.724C694.394 228.219 694.137 228.653 693.774 229.028C693.412 229.399 692.965 229.689 692.432 229.898C691.899 230.102 691.301 230.205 690.636 230.205ZM185.605 257L182.614 247.182H184.199L186.321 254.699H186.423L188.52 247.182H190.131L192.202 254.673H192.304L194.426 247.182H196.011L193.02 257H191.537L189.389 249.457H189.236L187.088 257H185.605ZM201.66 257.205C200.774 257.205 199.996 256.994 199.327 256.572C198.662 256.15 198.143 255.56 197.768 254.801C197.397 254.043 197.211 253.156 197.211 252.142C197.211 251.119 197.397 250.227 197.768 249.464C198.143 248.701 198.662 248.109 199.327 247.687C199.996 247.265 200.774 247.054 201.66 247.054C202.547 247.054 203.322 247.265 203.987 247.687C204.656 248.109 205.176 248.701 205.547 249.464C205.922 250.227 206.109 251.119 206.109 252.142C206.109 253.156 205.922 254.043 205.547 254.801C205.176 255.56 204.656 256.15 203.987 256.572C203.322 256.994 202.547 257.205 201.66 257.205ZM201.66 255.849C202.334 255.849 202.888 255.677 203.322 255.332C203.757 254.987 204.079 254.533 204.287 253.97C204.496 253.408 204.601 252.798 204.601 252.142C204.601 251.486 204.496 250.874 204.287 250.308C204.079 249.741 203.757 249.283 203.322 248.933C202.888 248.584 202.334 248.409 201.66 248.409C200.987 248.409 200.433 248.584 199.998 248.933C199.564 249.283 199.242 249.741 199.033 250.308C198.824 250.874 198.72 251.486 198.72 252.142C198.72 252.798 198.824 253.408 199.033 253.97C199.242 254.533 199.564 254.987 199.998 255.332C200.433 255.677 200.987 255.849 201.66 255.849ZM208.412 257V247.182H209.869V248.665H209.972C210.151 248.179 210.474 247.785 210.943 247.482C211.412 247.18 211.94 247.028 212.528 247.028C212.639 247.028 212.778 247.031 212.944 247.035C213.11 247.039 213.236 247.045 213.321 247.054V248.588C213.27 248.575 213.153 248.556 212.969 248.531C212.79 248.501 212.601 248.486 212.401 248.486C211.923 248.486 211.497 248.586 211.122 248.786C210.751 248.982 210.457 249.255 210.24 249.604C210.027 249.95 209.92 250.344 209.92 250.787V257H208.412ZM216.515 253.42L216.49 251.554H216.797L221.092 247.182H222.959L218.382 251.81H218.254L216.515 253.42ZM215.109 257V243.909H216.618V257H215.109ZM221.348 257L217.513 252.142L218.586 251.094L223.265 257H221.348ZM224.9 257V247.182H226.409V257H224.9ZM225.667 245.545C225.373 245.545 225.12 245.445 224.907 245.245C224.698 245.045 224.593 244.804 224.593 244.523C224.593 244.241 224.698 244.001 224.907 243.8C225.12 243.6 225.373 243.5 225.667 243.5C225.961 243.5 226.213 243.6 226.422 243.8C226.635 244.001 226.741 244.241 226.741 244.523C226.741 244.804 226.635 245.045 226.422 245.245C226.213 245.445 225.961 245.545 225.667 245.545ZM230.68 251.094V257H229.172V247.182H230.629V248.716H230.757C230.987 248.217 231.336 247.817 231.805 247.514C232.274 247.207 232.879 247.054 233.621 247.054C234.285 247.054 234.867 247.19 235.366 247.463C235.864 247.732 236.252 248.141 236.529 248.69C236.806 249.236 236.944 249.926 236.944 250.761V257H235.436V250.864C235.436 250.092 235.236 249.491 234.835 249.061C234.434 248.626 233.885 248.409 233.186 248.409C232.704 248.409 232.274 248.513 231.895 248.722C231.52 248.931 231.224 249.236 231.006 249.636C230.789 250.037 230.68 250.523 230.68 251.094ZM243.664 260.886C242.935 260.886 242.309 260.793 241.785 260.605C241.261 260.422 240.824 260.179 240.474 259.876C240.129 259.578 239.854 259.259 239.65 258.918L240.852 258.074C240.988 258.253 241.161 258.457 241.369 258.688C241.578 258.922 241.864 259.124 242.226 259.295C242.592 259.469 243.072 259.557 243.664 259.557C244.457 259.557 245.111 259.365 245.626 258.982C246.142 258.598 246.4 257.997 246.4 257.179V255.185H246.272C246.161 255.364 246.004 255.585 245.799 255.849C245.599 256.109 245.309 256.342 244.93 256.546C244.555 256.746 244.048 256.847 243.408 256.847C242.616 256.847 241.904 256.659 241.273 256.284C240.647 255.909 240.151 255.364 239.784 254.648C239.422 253.932 239.241 253.062 239.241 252.04C239.241 251.034 239.418 250.158 239.771 249.413C240.125 248.663 240.617 248.083 241.248 247.674C241.879 247.261 242.607 247.054 243.434 247.054C244.073 247.054 244.58 247.161 244.955 247.374C245.335 247.582 245.624 247.821 245.825 248.089C246.029 248.354 246.187 248.571 246.298 248.741H246.451V247.182H247.908V257.281C247.908 258.125 247.717 258.811 247.333 259.339C246.954 259.872 246.442 260.262 245.799 260.509C245.16 260.761 244.448 260.886 243.664 260.886ZM243.613 255.491C244.218 255.491 244.729 255.353 245.147 255.076C245.565 254.799 245.882 254.401 246.099 253.881C246.317 253.361 246.425 252.739 246.425 252.014C246.425 251.307 246.319 250.683 246.106 250.141C245.893 249.6 245.577 249.176 245.16 248.869C244.742 248.562 244.227 248.409 243.613 248.409C242.974 248.409 242.441 248.571 242.015 248.895C241.593 249.219 241.276 249.653 241.062 250.199C240.854 250.744 240.749 251.349 240.749 252.014C240.749 252.696 240.856 253.299 241.069 253.823C241.286 254.343 241.606 254.752 242.028 255.05C242.454 255.344 242.982 255.491 243.613 255.491ZM260.002 247.182V248.46H254.914V247.182H260.002ZM256.397 244.83H257.906V254.188C257.906 254.614 257.967 254.933 258.091 255.146C258.219 255.355 258.381 255.496 258.577 255.568C258.777 255.636 258.988 255.67 259.21 255.67C259.376 255.67 259.512 255.662 259.619 255.645C259.725 255.624 259.81 255.607 259.874 255.594L260.181 256.949C260.079 256.987 259.936 257.026 259.753 257.064C259.57 257.107 259.337 257.128 259.056 257.128C258.63 257.128 258.212 257.036 257.803 256.853C257.398 256.67 257.062 256.391 256.793 256.016C256.529 255.641 256.397 255.168 256.397 254.597V244.83ZM266.154 257.205C265.268 257.205 264.49 256.994 263.821 256.572C263.157 256.15 262.637 255.56 262.262 254.801C261.891 254.043 261.706 253.156 261.706 252.142C261.706 251.119 261.891 250.227 262.262 249.464C262.637 248.701 263.157 248.109 263.821 247.687C264.49 247.265 265.268 247.054 266.154 247.054C267.041 247.054 267.816 247.265 268.481 247.687C269.15 248.109 269.67 248.701 270.041 249.464C270.416 250.227 270.603 251.119 270.603 252.142C270.603 253.156 270.416 254.043 270.041 254.801C269.67 255.56 269.15 256.15 268.481 256.572C267.816 256.994 267.041 257.205 266.154 257.205ZM266.154 255.849C266.828 255.849 267.382 255.677 267.816 255.332C268.251 254.987 268.573 254.533 268.782 253.97C268.99 253.408 269.095 252.798 269.095 252.142C269.095 251.486 268.99 250.874 268.782 250.308C268.573 249.741 268.251 249.283 267.816 248.933C267.382 248.584 266.828 248.409 266.154 248.409C265.481 248.409 264.927 248.584 264.493 248.933C264.058 249.283 263.736 249.741 263.527 250.308C263.319 250.874 263.214 251.486 263.214 252.142C263.214 252.798 263.319 253.408 263.527 253.97C263.736 254.533 264.058 254.987 264.493 255.332C264.927 255.677 265.481 255.849 266.154 255.849ZM276.869 260.886C276.14 260.886 275.514 260.793 274.99 260.605C274.466 260.422 274.029 260.179 273.68 259.876C273.334 259.578 273.059 259.259 272.855 258.918L274.057 258.074C274.193 258.253 274.366 258.457 274.574 258.688C274.783 258.922 275.069 259.124 275.431 259.295C275.797 259.469 276.277 259.557 276.869 259.557C277.662 259.557 278.316 259.365 278.831 258.982C279.347 258.598 279.605 257.997 279.605 257.179V255.185H279.477C279.366 255.364 279.209 255.585 279.004 255.849C278.804 256.109 278.514 256.342 278.135 256.546C277.76 256.746 277.253 256.847 276.613 256.847C275.821 256.847 275.109 256.659 274.479 256.284C273.852 255.909 273.356 255.364 272.989 254.648C272.627 253.932 272.446 253.062 272.446 252.04C272.446 251.034 272.623 250.158 272.976 249.413C273.33 248.663 273.822 248.083 274.453 247.674C275.084 247.261 275.812 247.054 276.639 247.054C277.278 247.054 277.785 247.161 278.16 247.374C278.54 247.582 278.829 247.821 279.03 248.089C279.234 248.354 279.392 248.571 279.503 248.741H279.656V247.182H281.113V257.281C281.113 258.125 280.922 258.811 280.538 259.339C280.159 259.872 279.648 260.262 279.004 260.509C278.365 260.761 277.653 260.886 276.869 260.886ZM276.818 255.491C277.423 255.491 277.934 255.353 278.352 255.076C278.77 254.799 279.087 254.401 279.305 253.881C279.522 253.361 279.631 252.739 279.631 252.014C279.631 251.307 279.524 250.683 279.311 250.141C279.098 249.6 278.782 249.176 278.365 248.869C277.947 248.562 277.432 248.409 276.818 248.409C276.179 248.409 275.646 248.571 275.22 248.895C274.798 249.219 274.481 249.653 274.268 250.199C274.059 250.744 273.954 251.349 273.954 252.014C273.954 252.696 274.061 253.299 274.274 253.823C274.491 254.343 274.811 254.752 275.233 255.05C275.659 255.344 276.187 255.491 276.818 255.491ZM287.991 257.205C287.045 257.205 286.229 256.996 285.543 256.578C284.861 256.156 284.335 255.568 283.964 254.814C283.598 254.055 283.415 253.173 283.415 252.168C283.415 251.162 283.598 250.276 283.964 249.509C284.335 248.737 284.851 248.136 285.511 247.706C286.176 247.271 286.952 247.054 287.838 247.054C288.349 247.054 288.854 247.139 289.353 247.31C289.851 247.48 290.305 247.757 290.714 248.141C291.123 248.52 291.449 249.023 291.692 249.649C291.935 250.276 292.057 251.047 292.057 251.963V252.602H284.488V251.298H290.523C290.523 250.744 290.412 250.25 290.19 249.815C289.973 249.381 289.662 249.038 289.257 248.786C288.856 248.535 288.383 248.409 287.838 248.409C287.237 248.409 286.717 248.558 286.278 248.857C285.844 249.151 285.509 249.534 285.275 250.007C285.04 250.48 284.923 250.987 284.923 251.528V252.398C284.923 253.139 285.051 253.768 285.307 254.283C285.567 254.795 285.927 255.185 286.387 255.453C286.847 255.717 287.382 255.849 287.991 255.849C288.388 255.849 288.746 255.794 289.065 255.683C289.389 255.568 289.668 255.398 289.903 255.172C290.137 254.942 290.318 254.656 290.446 254.315L291.903 254.724C291.75 255.219 291.492 255.653 291.13 256.028C290.768 256.399 290.32 256.689 289.787 256.898C289.255 257.102 288.656 257.205 287.991 257.205ZM298.621 247.182V248.46H293.533V247.182H298.621ZM295.016 244.83H296.525V254.188C296.525 254.614 296.586 254.933 296.71 255.146C296.838 255.355 297 255.496 297.196 255.568C297.396 255.636 297.607 255.67 297.829 255.67C297.995 255.67 298.131 255.662 298.238 255.645C298.344 255.624 298.43 255.607 298.493 255.594L298.8 256.949C298.698 256.987 298.555 257.026 298.372 257.064C298.189 257.107 297.956 257.128 297.675 257.128C297.249 257.128 296.831 257.036 296.422 256.853C296.018 256.67 295.681 256.391 295.412 256.016C295.148 255.641 295.016 255.168 295.016 254.597V244.83ZM302.61 251.094V257H301.101V243.909H302.61V248.716H302.738C302.968 248.209 303.313 247.806 303.773 247.508C304.238 247.205 304.856 247.054 305.627 247.054C306.296 247.054 306.882 247.188 307.385 247.457C307.888 247.721 308.278 248.128 308.555 248.678C308.836 249.223 308.976 249.918 308.976 250.761V257H307.468V250.864C307.468 250.084 307.265 249.481 306.861 249.055C306.46 248.624 305.904 248.409 305.192 248.409C304.698 248.409 304.255 248.513 303.863 248.722C303.475 248.931 303.168 249.236 302.942 249.636C302.721 250.037 302.61 250.523 302.61 251.094ZM315.853 257.205C314.907 257.205 314.091 256.996 313.404 256.578C312.723 256.156 312.196 255.568 311.826 254.814C311.459 254.055 311.276 253.173 311.276 252.168C311.276 251.162 311.459 250.276 311.826 249.509C312.196 248.737 312.712 248.136 313.373 247.706C314.037 247.271 314.813 247.054 315.699 247.054C316.211 247.054 316.716 247.139 317.214 247.31C317.713 247.48 318.167 247.757 318.576 248.141C318.985 248.52 319.311 249.023 319.554 249.649C319.797 250.276 319.918 251.047 319.918 251.963V252.602H312.35V251.298H318.384C318.384 250.744 318.273 250.25 318.051 249.815C317.834 249.381 317.523 249.038 317.118 248.786C316.718 248.535 316.245 248.409 315.699 248.409C315.098 248.409 314.578 248.558 314.14 248.857C313.705 249.151 313.37 249.534 313.136 250.007C312.902 250.48 312.784 250.987 312.784 251.528V252.398C312.784 253.139 312.912 253.768 313.168 254.283C313.428 254.795 313.788 255.185 314.248 255.453C314.708 255.717 315.243 255.849 315.853 255.849C316.249 255.849 316.607 255.794 316.926 255.683C317.25 255.568 317.529 255.398 317.764 255.172C317.998 254.942 318.179 254.656 318.307 254.315L319.765 254.724C319.611 255.219 319.353 255.653 318.991 256.028C318.629 256.399 318.181 256.689 317.649 256.898C317.116 257.102 316.517 257.205 315.853 257.205ZM322.213 257V247.182H323.67V248.665H323.772C323.951 248.179 324.275 247.785 324.744 247.482C325.213 247.18 325.741 247.028 326.329 247.028C326.44 247.028 326.578 247.031 326.745 247.035C326.911 247.039 327.037 247.045 327.122 247.054V248.588C327.071 248.575 326.953 248.556 326.77 248.531C326.591 248.501 326.402 248.486 326.201 248.486C325.724 248.486 325.298 248.586 324.923 248.786C324.552 248.982 324.258 249.255 324.041 249.604C323.828 249.95 323.721 250.344 323.721 250.787V257H322.213ZM328.884 257.102C328.569 257.102 328.298 256.989 328.073 256.763C327.847 256.538 327.734 256.267 327.734 255.952C327.734 255.636 327.847 255.366 328.073 255.14C328.298 254.914 328.569 254.801 328.884 254.801C329.2 254.801 329.47 254.914 329.696 255.14C329.922 255.366 330.035 255.636 330.035 255.952C330.035 256.161 329.982 256.352 329.875 256.527C329.773 256.702 329.634 256.842 329.46 256.949C329.289 257.051 329.097 257.102 328.884 257.102Z" fill="white"/>
</svg>
