<svg width="610" height="704" viewBox="0 0 610 704" fill="none" xmlns="http://www.w3.org/2000/svg">
<g filter="url(#filter0_d_186_765)">
<rect x="4" width="601.021" height="696" rx="25" fill="white" shape-rendering="crispEdges"/>
<rect x="34.5107" y="21" width="540" height="453" rx="20" fill="#C4C4C4"/>
<path d="M46.9284 525V507.545H53.1499C54.5079 507.545 55.6329 507.793 56.5249 508.287C57.417 508.781 58.0846 509.457 58.5278 510.315C58.971 511.168 59.1926 512.128 59.1926 513.196C59.1926 514.27 58.9681 515.236 58.5193 516.094C58.0761 516.946 57.4056 517.622 56.5079 518.122C55.6159 518.616 54.4937 518.864 53.1414 518.864H48.863V516.631H52.9028C53.7607 516.631 54.4568 516.483 54.9909 516.188C55.5249 515.886 55.917 515.477 56.167 514.96C56.417 514.443 56.542 513.855 56.542 513.196C56.542 512.537 56.417 511.952 56.167 511.44C55.917 510.929 55.5221 510.528 54.9823 510.239C54.4482 509.949 53.7437 509.804 52.8687 509.804H49.5619V525H46.9284ZM61.6754 525V511.909H64.1384V513.989H64.2748C64.5134 513.284 64.9339 512.73 65.5362 512.327C66.1441 511.918 66.8316 511.713 67.5987 511.713C67.7578 511.713 67.9453 511.719 68.1612 511.73C68.3828 511.741 68.5561 511.756 68.6811 511.773V514.21C68.5788 514.182 68.397 514.151 68.1356 514.116C67.8742 514.077 67.6129 514.057 67.3515 514.057C66.7492 514.057 66.2123 514.185 65.7407 514.44C65.2748 514.69 64.9055 515.04 64.6328 515.489C64.36 515.932 64.2237 516.437 64.2237 517.006V525H61.6754ZM75.5318 525.264C74.3045 525.264 73.2335 524.983 72.3187 524.42C71.4039 523.858 70.6937 523.071 70.188 522.06C69.6823 521.048 69.4295 519.866 69.4295 518.514C69.4295 517.156 69.6823 515.969 70.188 514.952C70.6937 513.935 71.4039 513.145 72.3187 512.582C73.2335 512.02 74.3045 511.739 75.5318 511.739C76.759 511.739 77.8301 512.02 78.7448 512.582C79.6596 513.145 80.3698 513.935 80.8755 514.952C81.3812 515.969 81.634 517.156 81.634 518.514C81.634 519.866 81.3812 521.048 80.8755 522.06C80.3698 523.071 79.6596 523.858 78.7448 524.42C77.8301 524.983 76.759 525.264 75.5318 525.264ZM75.5403 523.125C76.3357 523.125 76.9948 522.915 77.5176 522.494C78.0403 522.074 78.4267 521.514 78.6767 520.815C78.9323 520.116 79.0602 519.347 79.0602 518.506C79.0602 517.67 78.9323 516.903 78.6767 516.205C78.4267 515.5 78.0403 514.935 77.5176 514.509C76.9948 514.082 76.3357 513.869 75.5403 513.869C74.7392 513.869 74.0744 514.082 73.546 514.509C73.0232 514.935 72.634 515.5 72.3784 516.205C72.1284 516.903 72.0034 517.67 72.0034 518.506C72.0034 519.347 72.1284 520.116 72.3784 520.815C72.634 521.514 73.0232 522.074 73.546 522.494C74.0744 522.915 74.7392 523.125 75.5403 523.125ZM85.5742 511.909L88.4634 517.006L91.3782 511.909H94.1651L90.0828 518.455L94.1992 525H91.4123L88.4634 520.108L85.5231 525H82.7276L86.8015 518.455L82.7788 511.909H85.5742ZM96.3816 525V511.909H98.9299V525H96.3816ZM97.6686 509.889C97.2254 509.889 96.8447 509.741 96.5265 509.446C96.214 509.145 96.0578 508.787 96.0578 508.372C96.0578 507.952 96.214 507.594 96.5265 507.298C96.8447 506.997 97.2254 506.847 97.6686 506.847C98.1117 506.847 98.4896 506.997 98.8021 507.298C99.1203 507.594 99.2794 507.952 99.2794 508.372C99.2794 508.787 99.1203 509.145 98.8021 509.446C98.4896 509.741 98.1117 509.889 97.6686 509.889ZM101.958 525V511.909H104.404V514.04H104.566C104.839 513.318 105.285 512.756 105.904 512.352C106.524 511.943 107.265 511.739 108.129 511.739C109.004 511.739 109.737 511.943 110.328 512.352C110.924 512.761 111.364 513.324 111.649 514.04H111.785C112.097 513.341 112.595 512.784 113.276 512.369C113.958 511.949 114.771 511.739 115.714 511.739C116.901 511.739 117.87 512.111 118.62 512.855C119.376 513.599 119.754 514.722 119.754 516.222V525H117.205V516.46C117.205 515.574 116.964 514.932 116.481 514.534C115.998 514.136 115.421 513.938 114.751 513.938C113.921 513.938 113.276 514.193 112.816 514.705C112.356 515.21 112.126 515.861 112.126 516.656V525H109.586V516.298C109.586 515.588 109.364 515.017 108.921 514.585C108.478 514.153 107.901 513.938 107.191 513.938C106.708 513.938 106.262 514.065 105.853 514.321C105.45 514.571 105.123 514.92 104.873 515.369C104.629 515.818 104.506 516.338 104.506 516.929V525H101.958ZM126.579 525.29C125.749 525.29 124.999 525.136 124.329 524.83C123.658 524.517 123.127 524.065 122.735 523.474C122.349 522.884 122.155 522.159 122.155 521.301C122.155 520.562 122.298 519.955 122.582 519.477C122.866 519 123.249 518.622 123.732 518.344C124.215 518.065 124.755 517.855 125.352 517.713C125.948 517.571 126.556 517.463 127.175 517.389C127.959 517.298 128.596 517.224 129.084 517.168C129.573 517.105 129.928 517.006 130.15 516.869C130.371 516.733 130.482 516.511 130.482 516.205V516.145C130.482 515.401 130.272 514.824 129.852 514.415C129.437 514.006 128.817 513.801 127.994 513.801C127.136 513.801 126.459 513.991 125.965 514.372C125.477 514.747 125.138 515.165 124.951 515.625L122.556 515.08C122.84 514.284 123.255 513.642 123.8 513.153C124.352 512.659 124.985 512.301 125.701 512.08C126.417 511.852 127.17 511.739 127.959 511.739C128.482 511.739 129.036 511.801 129.621 511.926C130.212 512.045 130.763 512.267 131.275 512.591C131.792 512.915 132.215 513.378 132.545 513.98C132.874 514.577 133.039 515.352 133.039 516.307V525H130.55V523.21H130.448C130.283 523.54 130.036 523.864 129.707 524.182C129.377 524.5 128.954 524.764 128.437 524.974C127.92 525.185 127.3 525.29 126.579 525.29ZM127.133 523.244C127.837 523.244 128.44 523.105 128.94 522.827C129.445 522.548 129.829 522.185 130.09 521.736C130.357 521.281 130.491 520.795 130.491 520.278V518.591C130.4 518.682 130.224 518.767 129.962 518.847C129.707 518.92 129.414 518.986 129.084 519.043C128.755 519.094 128.434 519.142 128.121 519.188C127.809 519.227 127.548 519.261 127.337 519.29C126.843 519.352 126.391 519.457 125.982 519.605C125.579 519.753 125.255 519.966 125.011 520.244C124.772 520.517 124.653 520.881 124.653 521.335C124.653 521.966 124.886 522.443 125.352 522.767C125.817 523.085 126.411 523.244 127.133 523.244ZM136.238 525V507.545H138.786V514.031H138.939C139.087 513.759 139.3 513.443 139.579 513.085C139.857 512.727 140.243 512.415 140.738 512.148C141.232 511.875 141.885 511.739 142.698 511.739C143.755 511.739 144.698 512.006 145.528 512.54C146.357 513.074 147.008 513.844 147.479 514.849C147.956 515.855 148.195 517.065 148.195 518.48C148.195 519.895 147.959 521.108 147.488 522.119C147.016 523.125 146.368 523.901 145.545 524.446C144.721 524.986 143.78 525.256 142.724 525.256C141.928 525.256 141.278 525.122 140.772 524.855C140.272 524.588 139.88 524.276 139.596 523.918C139.312 523.56 139.093 523.241 138.939 522.963H138.726V525H136.238ZM138.735 518.455C138.735 519.375 138.868 520.182 139.135 520.875C139.403 521.568 139.789 522.111 140.295 522.503C140.8 522.889 141.42 523.082 142.153 523.082C142.914 523.082 143.55 522.881 144.062 522.477C144.573 522.068 144.959 521.514 145.221 520.815C145.488 520.116 145.621 519.33 145.621 518.455C145.621 517.591 145.491 516.815 145.229 516.128C144.974 515.44 144.587 514.898 144.07 514.5C143.559 514.102 142.92 513.903 142.153 513.903C141.414 513.903 140.789 514.094 140.278 514.474C139.772 514.855 139.388 515.386 139.127 516.068C138.866 516.75 138.735 517.545 138.735 518.455Z" fill="black"/>
<path d="M45.7835 554.614V553.364H54.5107V554.614H50.8517V565H49.4426V554.614H45.7835ZM58.8971 565.182C58.0562 565.182 57.3308 564.996 56.721 564.625C56.1149 564.25 55.6471 563.727 55.3176 563.057C54.9918 562.383 54.8289 561.598 54.8289 560.705C54.8289 559.811 54.9918 559.023 55.3176 558.341C55.6471 557.655 56.1054 557.121 56.6926 556.739C57.2835 556.352 57.9729 556.159 58.7607 556.159C59.2153 556.159 59.6642 556.235 60.1073 556.386C60.5505 556.538 60.9539 556.784 61.3176 557.125C61.6812 557.462 61.971 557.909 62.1869 558.466C62.4028 559.023 62.5107 559.708 62.5107 560.523V561.091H55.7835V559.932H61.1471C61.1471 559.439 61.0486 559 60.8517 558.614C60.6585 558.227 60.382 557.922 60.0221 557.699C59.666 557.475 59.2456 557.364 58.7607 557.364C58.2267 557.364 57.7645 557.496 57.3744 557.761C56.988 558.023 56.6907 558.364 56.4823 558.784C56.274 559.205 56.1698 559.655 56.1698 560.136V560.909C56.1698 561.568 56.2835 562.127 56.5107 562.585C56.7418 563.04 57.0619 563.386 57.471 563.625C57.8801 563.86 58.3554 563.977 58.8971 563.977C59.2494 563.977 59.5676 563.928 59.8517 563.83C60.1395 563.727 60.3876 563.576 60.596 563.375C60.8043 563.17 60.9653 562.917 61.0789 562.614L62.3744 562.977C62.238 563.417 62.0088 563.803 61.6869 564.136C61.3649 564.466 60.9672 564.723 60.4937 564.909C60.0202 565.091 59.488 565.182 58.8971 565.182ZM64.5505 565V556.273H65.846V557.636H65.9596C66.1414 557.17 66.435 556.809 66.8403 556.551C67.2456 556.29 67.7323 556.159 68.3005 556.159C68.8763 556.159 69.3554 556.29 69.738 556.551C70.1244 556.809 70.4255 557.17 70.6414 557.636H70.7323C70.9558 557.186 71.291 556.828 71.738 556.562C72.185 556.294 72.721 556.159 73.346 556.159C74.1263 556.159 74.7645 556.403 75.2607 556.892C75.757 557.377 76.0051 558.133 76.0051 559.159V565H74.6642V559.159C74.6642 558.515 74.488 558.055 74.1357 557.778C73.7835 557.502 73.3687 557.364 72.8914 557.364C72.2778 557.364 71.8024 557.549 71.4653 557.92C71.1282 558.288 70.9596 558.754 70.9596 559.318V565H69.596V559.023C69.596 558.527 69.435 558.127 69.113 557.824C68.791 557.517 68.3763 557.364 67.8687 557.364C67.5202 557.364 67.1945 557.456 66.8914 557.642C66.5922 557.828 66.3498 558.085 66.1642 558.415C65.9823 558.741 65.8914 559.117 65.8914 559.545V565H64.5505ZM78.4568 568.273V556.273H79.7522V557.659H79.9113C80.0098 557.508 80.1462 557.314 80.3204 557.08C80.4984 556.841 80.7522 556.629 81.0818 556.443C81.4151 556.254 81.8659 556.159 82.434 556.159C83.1689 556.159 83.8166 556.343 84.3772 556.71C84.9378 557.078 85.3753 557.598 85.6897 558.273C86.0041 558.947 86.1613 559.742 86.1613 560.659C86.1613 561.583 86.0041 562.384 85.6897 563.062C85.3753 563.737 84.9397 564.259 84.3829 564.631C83.8261 564.998 83.184 565.182 82.4568 565.182C81.8962 565.182 81.4473 565.089 81.1102 564.903C80.7731 564.714 80.5136 564.5 80.3318 564.261C80.1499 564.019 80.0098 563.818 79.9113 563.659H79.7977V568.273H78.4568ZM79.7749 560.636C79.7749 561.295 79.8715 561.877 80.0647 562.381C80.2579 562.881 80.5401 563.273 80.9113 563.557C81.2825 563.837 81.7371 563.977 82.2749 563.977C82.8356 563.977 83.3034 563.83 83.6784 563.534C84.0571 563.235 84.3412 562.833 84.5306 562.33C84.7238 561.822 84.8204 561.258 84.8204 560.636C84.8204 560.023 84.7257 559.47 84.5363 558.977C84.3507 558.481 84.0685 558.089 83.6897 557.801C83.3147 557.509 82.8431 557.364 82.2749 557.364C81.7295 557.364 81.2712 557.502 80.8999 557.778C80.5287 558.051 80.2484 558.434 80.059 558.926C79.8696 559.415 79.7749 559.985 79.7749 560.636ZM89.5477 553.364V565H88.2068V553.364H89.5477ZM94.5718 565.205C94.0188 565.205 93.5169 565.1 93.0661 564.892C92.6154 564.68 92.2574 564.375 91.9923 563.977C91.7271 563.576 91.5945 563.091 91.5945 562.523C91.5945 562.023 91.693 561.617 91.89 561.307C92.087 560.992 92.3502 560.746 92.6798 560.568C93.0093 560.39 93.373 560.258 93.7707 560.17C94.1722 560.08 94.5756 560.008 94.9809 559.955C95.5112 559.886 95.9411 559.835 96.2707 559.801C96.604 559.763 96.8464 559.701 96.998 559.614C97.1533 559.527 97.2309 559.375 97.2309 559.159V559.114C97.2309 558.553 97.0775 558.117 96.7707 557.807C96.4677 557.496 96.0074 557.341 95.39 557.341C94.7499 557.341 94.248 557.481 93.8843 557.761C93.5207 558.042 93.265 558.341 93.1173 558.659L91.8445 558.205C92.0718 557.674 92.3749 557.261 92.7536 556.966C93.1362 556.667 93.5529 556.458 94.0036 556.341C94.4582 556.22 94.9052 556.159 95.3445 556.159C95.6249 556.159 95.9468 556.193 96.3105 556.261C96.6779 556.326 97.032 556.46 97.373 556.665C97.7177 556.869 98.0036 557.178 98.2309 557.591C98.4582 558.004 98.5718 558.557 98.5718 559.25V565H97.2309V563.818H97.1627C97.0718 564.008 96.9203 564.21 96.7082 564.426C96.4961 564.642 96.2139 564.826 95.8616 564.977C95.5093 565.129 95.0794 565.205 94.5718 565.205ZM94.7764 564C95.3067 564 95.7536 563.896 96.1173 563.688C96.4847 563.479 96.7612 563.21 96.9468 562.881C97.1362 562.551 97.2309 562.205 97.2309 561.841V560.614C97.1741 560.682 97.0491 560.744 96.8559 560.801C96.6665 560.854 96.4468 560.902 96.1968 560.943C95.9506 560.981 95.7101 561.015 95.4752 561.045C95.2442 561.072 95.0567 561.095 94.9127 561.114C94.5642 561.159 94.2385 561.233 93.9355 561.335C93.6362 561.434 93.3938 561.583 93.2082 561.784C93.0264 561.981 92.9355 562.25 92.9355 562.591C92.9355 563.057 93.1078 563.409 93.4525 563.648C93.801 563.883 94.2423 564 94.7764 564ZM104.815 556.273V557.409H100.292V556.273H104.815ZM101.61 554.182H102.951V562.5C102.951 562.879 103.006 563.163 103.116 563.352C103.229 563.538 103.373 563.663 103.548 563.727C103.726 563.788 103.913 563.818 104.11 563.818C104.258 563.818 104.379 563.811 104.474 563.795C104.569 563.777 104.644 563.761 104.701 563.75L104.974 564.955C104.883 564.989 104.756 565.023 104.593 565.057C104.43 565.095 104.224 565.114 103.974 565.114C103.595 565.114 103.224 565.032 102.86 564.869C102.5 564.706 102.201 564.458 101.962 564.125C101.728 563.792 101.61 563.371 101.61 562.864V554.182ZM110.397 565.182C109.556 565.182 108.831 564.996 108.221 564.625C107.615 564.25 107.147 563.727 106.818 563.057C106.492 562.383 106.329 561.598 106.329 560.705C106.329 559.811 106.492 559.023 106.818 558.341C107.147 557.655 107.605 557.121 108.193 556.739C108.783 556.352 109.473 556.159 110.261 556.159C110.715 556.159 111.164 556.235 111.607 556.386C112.051 556.538 112.454 556.784 112.818 557.125C113.181 557.462 113.471 557.909 113.687 558.466C113.903 559.023 114.011 559.708 114.011 560.523V561.091H107.283V559.932H112.647C112.647 559.439 112.549 559 112.352 558.614C112.158 558.227 111.882 557.922 111.522 557.699C111.166 557.475 110.746 557.364 110.261 557.364C109.727 557.364 109.265 557.496 108.874 557.761C108.488 558.023 108.191 558.364 107.982 558.784C107.774 559.205 107.67 559.655 107.67 560.136V560.909C107.67 561.568 107.783 562.127 108.011 562.585C108.242 563.04 108.562 563.386 108.971 563.625C109.38 563.86 109.855 563.977 110.397 563.977C110.749 563.977 111.068 563.928 111.352 563.83C111.64 563.727 111.888 563.576 112.096 563.375C112.304 563.17 112.465 562.917 112.579 562.614L113.874 562.977C113.738 563.417 113.509 563.803 113.187 564.136C112.865 564.466 112.467 564.723 111.994 564.909C111.52 565.091 110.988 565.182 110.397 565.182ZM124.437 556.273V557.409H119.732V556.273H124.437ZM121.141 565V555.068C121.141 554.568 121.259 554.152 121.494 553.818C121.729 553.485 122.033 553.235 122.408 553.068C122.783 552.902 123.179 552.818 123.596 552.818C123.926 552.818 124.194 552.845 124.403 552.898C124.611 552.951 124.766 553 124.869 553.045L124.482 554.205C124.414 554.182 124.319 554.153 124.198 554.119C124.081 554.085 123.926 554.068 123.732 554.068C123.289 554.068 122.969 554.18 122.772 554.403C122.579 554.627 122.482 554.955 122.482 555.386V565H121.141ZM129.502 565.182C128.714 565.182 128.023 564.994 127.428 564.619C126.837 564.244 126.375 563.72 126.042 563.045C125.712 562.371 125.548 561.583 125.548 560.682C125.548 559.773 125.712 558.979 126.042 558.301C126.375 557.623 126.837 557.097 127.428 556.722C128.023 556.347 128.714 556.159 129.502 556.159C130.29 556.159 130.979 556.347 131.57 556.722C132.165 557.097 132.627 557.623 132.957 558.301C133.29 558.979 133.457 559.773 133.457 560.682C133.457 561.583 133.29 562.371 132.957 563.045C132.627 563.72 132.165 564.244 131.57 564.619C130.979 564.994 130.29 565.182 129.502 565.182ZM129.502 563.977C130.101 563.977 130.593 563.824 130.979 563.517C131.366 563.21 131.652 562.807 131.837 562.307C132.023 561.807 132.116 561.265 132.116 560.682C132.116 560.098 132.023 559.555 131.837 559.051C131.652 558.547 131.366 558.14 130.979 557.83C130.593 557.519 130.101 557.364 129.502 557.364C128.904 557.364 128.411 557.519 128.025 557.83C127.639 558.14 127.353 558.547 127.167 559.051C126.981 559.555 126.889 560.098 126.889 560.682C126.889 561.265 126.981 561.807 127.167 562.307C127.353 562.807 127.639 563.21 128.025 563.517C128.411 563.824 128.904 563.977 129.502 563.977ZM135.504 565V556.273H136.799V557.591H136.89C137.049 557.159 137.337 556.809 137.754 556.54C138.17 556.271 138.64 556.136 139.163 556.136C139.261 556.136 139.384 556.138 139.532 556.142C139.68 556.146 139.792 556.152 139.867 556.159V557.523C139.822 557.511 139.718 557.494 139.555 557.472C139.396 557.445 139.227 557.432 139.049 557.432C138.625 557.432 138.246 557.521 137.913 557.699C137.583 557.873 137.322 558.116 137.129 558.426C136.939 558.733 136.845 559.083 136.845 559.477V565H135.504ZM146.616 565H145.139L149.411 553.364H150.866L155.139 565H153.661L150.184 555.205H150.093L146.616 565ZM147.161 560.455H153.116V561.705H147.161V560.455ZM158.36 553.364V565H156.951V553.364H158.36ZM168.072 565.205C167.519 565.205 167.017 565.1 166.566 564.892C166.115 564.68 165.757 564.375 165.492 563.977C165.227 563.576 165.095 563.091 165.095 562.523C165.095 562.023 165.193 561.617 165.39 561.307C165.587 560.992 165.85 560.746 166.18 560.568C166.509 560.39 166.873 560.258 167.271 560.17C167.672 560.08 168.076 560.008 168.481 559.955C169.011 559.886 169.441 559.835 169.771 559.801C170.104 559.763 170.346 559.701 170.498 559.614C170.653 559.527 170.731 559.375 170.731 559.159V559.114C170.731 558.553 170.578 558.117 170.271 557.807C169.968 557.496 169.507 557.341 168.89 557.341C168.25 557.341 167.748 557.481 167.384 557.761C167.021 558.042 166.765 558.341 166.617 558.659L165.345 558.205C165.572 557.674 165.875 557.261 166.254 556.966C166.636 556.667 167.053 556.458 167.504 556.341C167.958 556.22 168.405 556.159 168.845 556.159C169.125 556.159 169.447 556.193 169.81 556.261C170.178 556.326 170.532 556.46 170.873 556.665C171.218 556.869 171.504 557.178 171.731 557.591C171.958 558.004 172.072 558.557 172.072 559.25V565H170.731V563.818H170.663C170.572 564.008 170.42 564.21 170.208 564.426C169.996 564.642 169.714 564.826 169.362 564.977C169.009 565.129 168.579 565.205 168.072 565.205ZM168.276 564C168.807 564 169.254 563.896 169.617 563.688C169.985 563.479 170.261 563.21 170.447 562.881C170.636 562.551 170.731 562.205 170.731 561.841V560.614C170.674 560.682 170.549 560.744 170.356 560.801C170.167 560.854 169.947 560.902 169.697 560.943C169.451 560.981 169.21 561.015 168.975 561.045C168.744 561.072 168.557 561.095 168.413 561.114C168.064 561.159 167.738 561.233 167.435 561.335C167.136 561.434 166.894 561.583 166.708 561.784C166.526 561.981 166.435 562.25 166.435 562.591C166.435 563.057 166.608 563.409 166.953 563.648C167.301 563.883 167.742 564 168.276 564ZM175.86 559.75V565H174.519V556.273H175.815V557.636H175.928C176.133 557.193 176.444 556.837 176.86 556.568C177.277 556.295 177.815 556.159 178.474 556.159C179.065 556.159 179.582 556.28 180.025 556.523C180.468 556.761 180.813 557.125 181.059 557.614C181.305 558.098 181.428 558.712 181.428 559.455V565H180.087V559.545C180.087 558.86 179.909 558.326 179.553 557.943C179.197 557.557 178.709 557.364 178.087 557.364C177.659 557.364 177.277 557.456 176.94 557.642C176.606 557.828 176.343 558.098 176.15 558.455C175.957 558.811 175.86 559.242 175.86 559.75ZM187.174 565.182C186.447 565.182 185.805 564.998 185.248 564.631C184.691 564.259 184.256 563.737 183.941 563.062C183.627 562.384 183.47 561.583 183.47 560.659C183.47 559.742 183.627 558.947 183.941 558.273C184.256 557.598 184.693 557.078 185.254 556.71C185.814 556.343 186.462 556.159 187.197 556.159C187.765 556.159 188.214 556.254 188.543 556.443C188.877 556.629 189.131 556.841 189.305 557.08C189.483 557.314 189.621 557.508 189.72 557.659H189.833V553.364H191.174V565H189.879V563.659H189.72C189.621 563.818 189.481 564.019 189.299 564.261C189.117 564.5 188.858 564.714 188.521 564.903C188.184 565.089 187.735 565.182 187.174 565.182ZM187.356 563.977C187.894 563.977 188.348 563.837 188.72 563.557C189.091 563.273 189.373 562.881 189.566 562.381C189.759 561.877 189.856 561.295 189.856 560.636C189.856 559.985 189.761 559.415 189.572 558.926C189.382 558.434 189.102 558.051 188.731 557.778C188.36 557.502 187.901 557.364 187.356 557.364C186.788 557.364 186.314 557.509 185.935 557.801C185.56 558.089 185.278 558.481 185.089 558.977C184.903 559.47 184.81 560.023 184.81 560.636C184.81 561.258 184.905 561.822 185.095 562.33C185.288 562.833 185.572 563.235 185.947 563.534C186.326 563.83 186.795 563.977 187.356 563.977ZM204.862 556.273C204.793 555.697 204.517 555.25 204.032 554.932C203.547 554.614 202.953 554.455 202.248 554.455C201.733 554.455 201.282 554.538 200.896 554.705C200.513 554.871 200.214 555.1 199.998 555.392C199.786 555.684 199.68 556.015 199.68 556.386C199.68 556.697 199.754 556.964 199.901 557.188C200.053 557.407 200.246 557.591 200.481 557.739C200.716 557.883 200.962 558.002 201.22 558.097C201.477 558.187 201.714 558.261 201.93 558.318L203.112 558.636C203.415 558.716 203.752 558.826 204.123 558.966C204.498 559.106 204.856 559.297 205.197 559.54C205.542 559.778 205.826 560.085 206.049 560.46C206.273 560.835 206.384 561.295 206.384 561.841C206.384 562.47 206.22 563.038 205.89 563.545C205.564 564.053 205.087 564.456 204.458 564.756C203.833 565.055 203.074 565.205 202.18 565.205C201.346 565.205 200.625 565.07 200.015 564.801C199.409 564.532 198.932 564.157 198.583 563.676C198.238 563.195 198.043 562.636 197.998 562H199.453C199.49 562.439 199.638 562.803 199.896 563.091C200.157 563.375 200.487 563.587 200.884 563.727C201.286 563.864 201.718 563.932 202.18 563.932C202.718 563.932 203.201 563.845 203.629 563.67C204.057 563.492 204.396 563.246 204.646 562.932C204.896 562.614 205.021 562.242 205.021 561.818C205.021 561.432 204.913 561.117 204.697 560.875C204.481 560.633 204.197 560.436 203.845 560.284C203.492 560.133 203.112 560 202.703 559.886L201.271 559.477C200.362 559.216 199.642 558.843 199.112 558.358C198.581 557.873 198.316 557.239 198.316 556.455C198.316 555.803 198.492 555.235 198.845 554.75C199.201 554.261 199.678 553.883 200.276 553.614C200.879 553.341 201.551 553.205 202.293 553.205C203.043 553.205 203.71 553.339 204.293 553.608C204.877 553.873 205.339 554.237 205.68 554.699C206.024 555.161 206.206 555.686 206.225 556.273H204.862ZM211.087 565.205C210.534 565.205 210.033 565.1 209.582 564.892C209.131 564.68 208.773 564.375 208.508 563.977C208.243 563.576 208.11 563.091 208.11 562.523C208.11 562.023 208.209 561.617 208.406 561.307C208.603 560.992 208.866 560.746 209.195 560.568C209.525 560.39 209.889 560.258 210.286 560.17C210.688 560.08 211.091 560.008 211.497 559.955C212.027 559.886 212.457 559.835 212.786 559.801C213.12 559.763 213.362 559.701 213.514 559.614C213.669 559.527 213.747 559.375 213.747 559.159V559.114C213.747 558.553 213.593 558.117 213.286 557.807C212.983 557.496 212.523 557.341 211.906 557.341C211.265 557.341 210.764 557.481 210.4 557.761C210.036 558.042 209.781 558.341 209.633 558.659L208.36 558.205C208.587 557.674 208.89 557.261 209.269 556.966C209.652 556.667 210.069 556.458 210.519 556.341C210.974 556.22 211.421 556.159 211.86 556.159C212.14 556.159 212.462 556.193 212.826 556.261C213.194 556.326 213.548 556.46 213.889 556.665C214.233 556.869 214.519 557.178 214.747 557.591C214.974 558.004 215.087 558.557 215.087 559.25V565H213.747V563.818H213.678C213.587 564.008 213.436 564.21 213.224 564.426C213.012 564.642 212.729 564.826 212.377 564.977C212.025 565.129 211.595 565.205 211.087 565.205ZM211.292 564C211.822 564 212.269 563.896 212.633 563.688C213 563.479 213.277 563.21 213.462 562.881C213.652 562.551 213.747 562.205 213.747 561.841V560.614C213.69 560.682 213.565 560.744 213.372 560.801C213.182 560.854 212.962 560.902 212.712 560.943C212.466 560.981 212.226 561.015 211.991 561.045C211.76 561.072 211.572 561.095 211.428 561.114C211.08 561.159 210.754 561.233 210.451 561.335C210.152 561.434 209.909 561.583 209.724 561.784C209.542 561.981 209.451 562.25 209.451 562.591C209.451 563.057 209.623 563.409 209.968 563.648C210.317 563.883 210.758 564 211.292 564ZM220.103 565.205C219.55 565.205 219.048 565.1 218.597 564.892C218.147 564.68 217.789 564.375 217.524 563.977C217.258 563.576 217.126 563.091 217.126 562.523C217.126 562.023 217.224 561.617 217.421 561.307C217.618 560.992 217.881 560.746 218.211 560.568C218.541 560.39 218.904 560.258 219.302 560.17C219.703 560.08 220.107 560.008 220.512 559.955C221.042 559.886 221.472 559.835 221.802 559.801C222.135 559.763 222.378 559.701 222.529 559.614C222.685 559.527 222.762 559.375 222.762 559.159V559.114C222.762 558.553 222.609 558.117 222.302 557.807C221.999 557.496 221.539 557.341 220.921 557.341C220.281 557.341 219.779 557.481 219.416 557.761C219.052 558.042 218.796 558.341 218.649 558.659L217.376 558.205C217.603 557.674 217.906 557.261 218.285 556.966C218.667 556.667 219.084 556.458 219.535 556.341C219.989 556.22 220.436 556.159 220.876 556.159C221.156 556.159 221.478 556.193 221.842 556.261C222.209 556.326 222.563 556.46 222.904 556.665C223.249 556.869 223.535 557.178 223.762 557.591C223.989 558.004 224.103 558.557 224.103 559.25V565H222.762V563.818H222.694C222.603 564.008 222.452 564.21 222.239 564.426C222.027 564.642 221.745 564.826 221.393 564.977C221.041 565.129 220.611 565.205 220.103 565.205ZM220.308 564C220.838 564 221.285 563.896 221.649 563.688C222.016 563.479 222.292 563.21 222.478 562.881C222.667 562.551 222.762 562.205 222.762 561.841V560.614C222.705 560.682 222.58 560.744 222.387 560.801C222.198 560.854 221.978 560.902 221.728 560.943C221.482 560.981 221.241 561.015 221.006 561.045C220.775 561.072 220.588 561.095 220.444 561.114C220.095 561.159 219.77 561.233 219.467 561.335C219.167 561.434 218.925 561.583 218.739 561.784C218.558 561.981 218.467 562.25 218.467 562.591C218.467 563.057 218.639 563.409 218.984 563.648C219.332 563.883 219.774 564 220.308 564ZM233.096 556.273C233.028 555.697 232.751 555.25 232.266 554.932C231.782 554.614 231.187 554.455 230.482 554.455C229.967 554.455 229.516 554.538 229.13 554.705C228.747 554.871 228.448 555.1 228.232 555.392C228.02 555.684 227.914 556.015 227.914 556.386C227.914 556.697 227.988 556.964 228.136 557.188C228.287 557.407 228.48 557.591 228.715 557.739C228.95 557.883 229.196 558.002 229.454 558.097C229.711 558.187 229.948 558.261 230.164 558.318L231.346 558.636C231.649 558.716 231.986 558.826 232.357 558.966C232.732 559.106 233.09 559.297 233.431 559.54C233.776 559.778 234.06 560.085 234.283 560.46C234.507 560.835 234.619 561.295 234.619 561.841C234.619 562.47 234.454 563.038 234.124 563.545C233.799 564.053 233.321 564.456 232.693 564.756C232.068 565.055 231.308 565.205 230.414 565.205C229.581 565.205 228.859 565.07 228.249 564.801C227.643 564.532 227.166 564.157 226.818 563.676C226.473 563.195 226.278 562.636 226.232 562H227.687C227.725 562.439 227.872 562.803 228.13 563.091C228.391 563.375 228.721 563.587 229.119 563.727C229.52 563.864 229.952 563.932 230.414 563.932C230.952 563.932 231.435 563.845 231.863 563.67C232.291 563.492 232.63 563.246 232.88 562.932C233.13 562.614 233.255 562.242 233.255 561.818C233.255 561.432 233.147 561.117 232.931 560.875C232.715 560.633 232.431 560.436 232.079 560.284C231.727 560.133 231.346 560 230.937 559.886L229.505 559.477C228.596 559.216 227.876 558.843 227.346 558.358C226.816 557.873 226.551 557.239 226.551 556.455C226.551 555.803 226.727 555.235 227.079 554.75C227.435 554.261 227.912 553.883 228.511 553.614C229.113 553.341 229.785 553.205 230.528 553.205C231.278 553.205 231.944 553.339 232.528 553.608C233.111 553.873 233.573 554.237 233.914 554.699C234.259 555.161 234.441 555.686 234.46 556.273H233.096ZM247.435 558.227L246.231 558.568C246.155 558.367 246.043 558.172 245.896 557.983C245.752 557.79 245.555 557.631 245.305 557.506C245.055 557.381 244.735 557.318 244.345 557.318C243.81 557.318 243.365 557.441 243.009 557.688C242.657 557.93 242.481 558.239 242.481 558.614C242.481 558.947 242.602 559.21 242.845 559.403C243.087 559.597 243.466 559.758 243.981 559.886L245.276 560.205C246.057 560.394 246.638 560.684 247.021 561.074C247.403 561.46 247.595 561.958 247.595 562.568C247.595 563.068 247.451 563.515 247.163 563.909C246.879 564.303 246.481 564.614 245.97 564.841C245.458 565.068 244.863 565.182 244.185 565.182C243.295 565.182 242.559 564.989 241.975 564.602C241.392 564.216 241.023 563.652 240.867 562.909L242.14 562.591C242.261 563.061 242.49 563.413 242.828 563.648C243.168 563.883 243.613 564 244.163 564C244.788 564 245.284 563.867 245.651 563.602C246.023 563.333 246.208 563.011 246.208 562.636C246.208 562.333 246.102 562.08 245.89 561.875C245.678 561.667 245.352 561.511 244.913 561.409L243.458 561.068C242.659 560.879 242.072 560.585 241.697 560.188C241.326 559.786 241.14 559.284 241.14 558.682C241.14 558.189 241.278 557.754 241.555 557.375C241.835 556.996 242.216 556.699 242.697 556.483C243.182 556.267 243.731 556.159 244.345 556.159C245.208 556.159 245.886 556.348 246.379 556.727C246.875 557.106 247.227 557.606 247.435 558.227ZM253.408 556.273V557.409H248.886V556.273H253.408ZM250.204 554.182H251.545V562.5C251.545 562.879 251.6 563.163 251.71 563.352C251.823 563.538 251.967 563.663 252.141 563.727C252.319 563.788 252.507 563.818 252.704 563.818C252.852 563.818 252.973 563.811 253.068 563.795C253.162 563.777 253.238 563.761 253.295 563.75L253.568 564.955C253.477 564.989 253.35 565.023 253.187 565.057C253.024 565.095 252.818 565.114 252.568 565.114C252.189 565.114 251.818 565.032 251.454 564.869C251.094 564.706 250.795 564.458 250.556 564.125C250.321 563.792 250.204 563.371 250.204 562.864V554.182ZM257.994 565.205C257.441 565.205 256.939 565.1 256.488 564.892C256.037 564.68 255.679 564.375 255.414 563.977C255.149 563.576 255.016 563.091 255.016 562.523C255.016 562.023 255.115 561.617 255.312 561.307C255.509 560.992 255.772 560.746 256.102 560.568C256.431 560.39 256.795 560.258 257.193 560.17C257.594 560.08 257.997 560.008 258.403 559.955C258.933 559.886 259.363 559.835 259.693 559.801C260.026 559.763 260.268 559.701 260.42 559.614C260.575 559.527 260.653 559.375 260.653 559.159V559.114C260.653 558.553 260.499 558.117 260.193 557.807C259.89 557.496 259.429 557.341 258.812 557.341C258.172 557.341 257.67 557.481 257.306 557.761C256.943 558.042 256.687 558.341 256.539 558.659L255.266 558.205C255.494 557.674 255.797 557.261 256.176 556.966C256.558 556.667 256.975 556.458 257.426 556.341C257.88 556.22 258.327 556.159 258.766 556.159C259.047 556.159 259.369 556.193 259.732 556.261C260.1 556.326 260.454 556.46 260.795 556.665C261.14 556.869 261.426 557.178 261.653 557.591C261.88 558.004 261.994 558.557 261.994 559.25V565H260.653V563.818H260.585C260.494 564.008 260.342 564.21 260.13 564.426C259.918 564.642 259.636 564.826 259.283 564.977C258.931 565.129 258.501 565.205 257.994 565.205ZM258.198 564C258.729 564 259.176 563.896 259.539 563.688C259.907 563.479 260.183 563.21 260.369 562.881C260.558 562.551 260.653 562.205 260.653 561.841V560.614C260.596 560.682 260.471 560.744 260.278 560.801C260.088 560.854 259.869 560.902 259.619 560.943C259.372 560.981 259.132 561.015 258.897 561.045C258.666 561.072 258.479 561.095 258.335 561.114C257.986 561.159 257.66 561.233 257.357 561.335C257.058 561.434 256.816 561.583 256.63 561.784C256.448 561.981 256.357 562.25 256.357 562.591C256.357 563.057 256.53 563.409 256.874 563.648C257.223 563.883 257.664 564 258.198 564ZM264.441 565V556.273H265.737V557.591H265.828C265.987 557.159 266.274 556.809 266.691 556.54C267.108 556.271 267.578 556.136 268.1 556.136C268.199 556.136 268.322 556.138 268.47 556.142C268.617 556.146 268.729 556.152 268.805 556.159V557.523C268.759 557.511 268.655 557.494 268.492 557.472C268.333 557.445 268.165 557.432 267.987 557.432C267.562 557.432 267.184 557.521 266.85 557.699C266.521 557.873 266.259 558.116 266.066 558.426C265.877 558.733 265.782 559.083 265.782 559.477V565H264.441ZM274.737 556.273V557.409H270.214V556.273H274.737ZM271.532 554.182H272.873V562.5C272.873 562.879 272.928 563.163 273.038 563.352C273.151 563.538 273.295 563.663 273.47 563.727C273.648 563.788 273.835 563.818 274.032 563.818C274.18 563.818 274.301 563.811 274.396 563.795C274.49 563.777 274.566 563.761 274.623 563.75L274.896 564.955C274.805 564.989 274.678 565.023 274.515 565.057C274.352 565.095 274.146 565.114 273.896 565.114C273.517 565.114 273.146 565.032 272.782 564.869C272.422 564.706 272.123 564.458 271.884 564.125C271.649 563.792 271.532 563.371 271.532 562.864V554.182ZM282.254 561.432V556.273H283.595V565H282.254V563.523H282.163C281.958 563.966 281.64 564.343 281.208 564.653C280.776 564.96 280.231 565.114 279.572 565.114C279.026 565.114 278.542 564.994 278.117 564.756C277.693 564.513 277.36 564.15 277.117 563.665C276.875 563.176 276.754 562.561 276.754 561.818V556.273H278.095V561.727C278.095 562.364 278.273 562.871 278.629 563.25C278.988 563.629 279.447 563.818 280.004 563.818C280.337 563.818 280.676 563.733 281.021 563.562C281.369 563.392 281.661 563.131 281.896 562.778C282.134 562.426 282.254 561.977 282.254 561.432ZM286.051 568.273V556.273H287.346V557.659H287.505C287.604 557.508 287.74 557.314 287.914 557.08C288.092 556.841 288.346 556.629 288.676 556.443C289.009 556.254 289.46 556.159 290.028 556.159C290.763 556.159 291.41 556.343 291.971 556.71C292.532 557.078 292.969 557.598 293.283 558.273C293.598 558.947 293.755 559.742 293.755 560.659C293.755 561.583 293.598 562.384 293.283 563.062C292.969 563.737 292.533 564.259 291.977 564.631C291.42 564.998 290.778 565.182 290.051 565.182C289.49 565.182 289.041 565.089 288.704 564.903C288.367 564.714 288.107 564.5 287.926 564.261C287.744 564.019 287.604 563.818 287.505 563.659H287.391V568.273H286.051ZM287.369 560.636C287.369 561.295 287.465 561.877 287.658 562.381C287.852 562.881 288.134 563.273 288.505 563.557C288.876 563.837 289.331 563.977 289.869 563.977C290.429 563.977 290.897 563.83 291.272 563.534C291.651 563.235 291.935 562.833 292.124 562.33C292.318 561.822 292.414 561.258 292.414 560.636C292.414 560.023 292.319 559.47 292.13 558.977C291.944 558.481 291.662 558.089 291.283 557.801C290.908 557.509 290.437 557.364 289.869 557.364C289.323 557.364 288.865 557.502 288.494 557.778C288.122 558.051 287.842 558.434 287.653 558.926C287.463 559.415 287.369 559.985 287.369 560.636ZM301.982 558.227L300.778 558.568C300.702 558.367 300.59 558.172 300.443 557.983C300.299 557.79 300.102 557.631 299.852 557.506C299.602 557.381 299.282 557.318 298.891 557.318C298.357 557.318 297.912 557.441 297.556 557.688C297.204 557.93 297.028 558.239 297.028 558.614C297.028 558.947 297.149 559.21 297.391 559.403C297.634 559.597 298.013 559.758 298.528 559.886L299.823 560.205C300.604 560.394 301.185 560.684 301.568 561.074C301.95 561.46 302.141 561.958 302.141 562.568C302.141 563.068 301.997 563.515 301.71 563.909C301.426 564.303 301.028 564.614 300.516 564.841C300.005 565.068 299.41 565.182 298.732 565.182C297.842 565.182 297.105 564.989 296.522 564.602C295.939 564.216 295.569 563.652 295.414 562.909L296.687 562.591C296.808 563.061 297.037 563.413 297.374 563.648C297.715 563.883 298.16 564 298.71 564C299.335 564 299.831 563.867 300.198 563.602C300.569 563.333 300.755 563.011 300.755 562.636C300.755 562.333 300.649 562.08 300.437 561.875C300.225 561.667 299.899 561.511 299.46 561.409L298.005 561.068C297.206 560.879 296.619 560.585 296.244 560.188C295.872 559.786 295.687 559.284 295.687 558.682C295.687 558.189 295.825 557.754 296.102 557.375C296.382 556.996 296.763 556.699 297.244 556.483C297.729 556.267 298.278 556.159 298.891 556.159C299.755 556.159 300.433 556.348 300.926 556.727C301.422 557.106 301.774 557.606 301.982 558.227ZM305.137 565.091C304.857 565.091 304.616 564.991 304.416 564.79C304.215 564.589 304.114 564.348 304.114 564.068C304.114 563.788 304.215 563.547 304.416 563.347C304.616 563.146 304.857 563.045 305.137 563.045C305.417 563.045 305.658 563.146 305.859 563.347C306.06 563.547 306.16 563.788 306.16 564.068C306.16 564.254 306.113 564.424 306.018 564.58C305.927 564.735 305.804 564.86 305.649 564.955C305.497 565.045 305.327 565.091 305.137 565.091ZM314.657 553.364V565H313.248V553.364H314.657ZM321.096 556.273V557.409H316.573V556.273H321.096ZM317.891 554.182H319.232V562.5C319.232 562.879 319.287 563.163 319.397 563.352C319.511 563.538 319.655 563.663 319.829 563.727C320.007 563.788 320.194 563.818 320.391 563.818C320.539 563.818 320.66 563.811 320.755 563.795C320.85 563.777 320.926 563.761 320.982 563.75L321.255 564.955C321.164 564.989 321.037 565.023 320.874 565.057C320.712 565.095 320.505 565.114 320.255 565.114C319.876 565.114 319.505 565.032 319.141 564.869C318.782 564.706 318.482 564.458 318.244 564.125C318.009 563.792 317.891 563.371 317.891 562.864V554.182ZM329.139 558.227L327.934 558.568C327.858 558.367 327.747 558.172 327.599 557.983C327.455 557.79 327.258 557.631 327.008 557.506C326.758 557.381 326.438 557.318 326.048 557.318C325.514 557.318 325.069 557.441 324.712 557.688C324.36 557.93 324.184 558.239 324.184 558.614C324.184 558.947 324.305 559.21 324.548 559.403C324.79 559.597 325.169 559.758 325.684 559.886L326.979 560.205C327.76 560.394 328.341 560.684 328.724 561.074C329.106 561.46 329.298 561.958 329.298 562.568C329.298 563.068 329.154 563.515 328.866 563.909C328.582 564.303 328.184 564.614 327.673 564.841C327.161 565.068 326.567 565.182 325.889 565.182C324.998 565.182 324.262 564.989 323.678 564.602C323.095 564.216 322.726 563.652 322.57 562.909L323.843 562.591C323.964 563.061 324.194 563.413 324.531 563.648C324.872 563.883 325.317 564 325.866 564C326.491 564 326.987 563.867 327.354 563.602C327.726 563.333 327.911 563.011 327.911 562.636C327.911 562.333 327.805 562.08 327.593 561.875C327.381 561.667 327.055 561.511 326.616 561.409L325.161 561.068C324.362 560.879 323.775 560.585 323.4 560.188C323.029 559.786 322.843 559.284 322.843 558.682C322.843 558.189 322.981 557.754 323.258 557.375C323.538 556.996 323.919 556.699 324.4 556.483C324.885 556.267 325.434 556.159 326.048 556.159C326.911 556.159 327.589 556.348 328.082 556.727C328.578 557.106 328.93 557.606 329.139 558.227ZM341.998 558.227L340.793 558.568C340.718 558.367 340.606 558.172 340.458 557.983C340.314 557.79 340.117 557.631 339.867 557.506C339.617 557.381 339.297 557.318 338.907 557.318C338.373 557.318 337.928 557.441 337.572 557.688C337.22 557.93 337.043 558.239 337.043 558.614C337.043 558.947 337.165 559.21 337.407 559.403C337.649 559.597 338.028 559.758 338.543 559.886L339.839 560.205C340.619 560.394 341.201 560.684 341.583 561.074C341.966 561.46 342.157 561.958 342.157 562.568C342.157 563.068 342.013 563.515 341.725 563.909C341.441 564.303 341.043 564.614 340.532 564.841C340.021 565.068 339.426 565.182 338.748 565.182C337.858 565.182 337.121 564.989 336.538 564.602C335.954 564.216 335.585 563.652 335.43 562.909L336.703 562.591C336.824 563.061 337.053 563.413 337.39 563.648C337.731 563.883 338.176 564 338.725 564C339.35 564 339.846 563.867 340.214 563.602C340.585 563.333 340.771 563.011 340.771 562.636C340.771 562.333 340.665 562.08 340.453 561.875C340.24 561.667 339.915 561.511 339.475 561.409L338.021 561.068C337.221 560.879 336.634 560.585 336.259 560.188C335.888 559.786 335.703 559.284 335.703 558.682C335.703 558.189 335.841 557.754 336.117 557.375C336.398 556.996 336.778 556.699 337.259 556.483C337.744 556.267 338.293 556.159 338.907 556.159C339.771 556.159 340.449 556.348 340.941 556.727C341.437 557.106 341.79 557.606 341.998 558.227ZM345.516 553.364V565H344.176V553.364H345.516ZM351.631 565.182C350.791 565.182 350.065 564.996 349.455 564.625C348.849 564.25 348.381 563.727 348.052 563.057C347.726 562.383 347.563 561.598 347.563 560.705C347.563 559.811 347.726 559.023 348.052 558.341C348.381 557.655 348.84 557.121 349.427 556.739C350.018 556.352 350.707 556.159 351.495 556.159C351.95 556.159 352.399 556.235 352.842 556.386C353.285 556.538 353.688 556.784 354.052 557.125C354.416 557.462 354.705 557.909 354.921 558.466C355.137 559.023 355.245 559.708 355.245 560.523V561.091H348.518V559.932H353.881C353.881 559.439 353.783 559 353.586 558.614C353.393 558.227 353.116 557.922 352.756 557.699C352.4 557.475 351.98 557.364 351.495 557.364C350.961 557.364 350.499 557.496 350.109 557.761C349.722 558.023 349.425 558.364 349.217 558.784C349.008 559.205 348.904 559.655 348.904 560.136V560.909C348.904 561.568 349.018 562.127 349.245 562.585C349.476 563.04 349.796 563.386 350.205 563.625C350.614 563.86 351.09 563.977 351.631 563.977C351.984 563.977 352.302 563.928 352.586 563.83C352.874 563.727 353.122 563.576 353.33 563.375C353.539 563.17 353.7 562.917 353.813 562.614L355.109 562.977C354.972 563.417 354.743 563.803 354.421 564.136C354.099 564.466 353.702 564.723 353.228 564.909C352.755 565.091 352.222 565.182 351.631 565.182ZM360.944 565.182C360.103 565.182 359.378 564.996 358.768 564.625C358.162 564.25 357.694 563.727 357.364 563.057C357.039 562.383 356.876 561.598 356.876 560.705C356.876 559.811 357.039 559.023 357.364 558.341C357.694 557.655 358.152 557.121 358.739 556.739C359.33 556.352 360.02 556.159 360.808 556.159C361.262 556.159 361.711 556.235 362.154 556.386C362.597 556.538 363.001 556.784 363.364 557.125C363.728 557.462 364.018 557.909 364.234 558.466C364.45 559.023 364.558 559.708 364.558 560.523V561.091H357.83V559.932H363.194C363.194 559.439 363.095 559 362.899 558.614C362.705 558.227 362.429 557.922 362.069 557.699C361.713 557.475 361.292 557.364 360.808 557.364C360.274 557.364 359.811 557.496 359.421 557.761C359.035 558.023 358.738 558.364 358.529 558.784C358.321 559.205 358.217 559.655 358.217 560.136V560.909C358.217 561.568 358.33 562.127 358.558 562.585C358.789 563.04 359.109 563.386 359.518 563.625C359.927 563.86 360.402 563.977 360.944 563.977C361.296 563.977 361.614 563.928 361.899 563.83C362.186 563.727 362.435 563.576 362.643 563.375C362.851 563.17 363.012 562.917 363.126 562.614L364.421 562.977C364.285 563.417 364.056 563.803 363.734 564.136C363.412 564.466 363.014 564.723 362.541 564.909C362.067 565.091 361.535 565.182 360.944 565.182ZM367.847 561.818L367.825 560.159H368.097L371.916 556.273H373.575L369.506 560.386H369.393L367.847 561.818ZM366.597 565V553.364H367.938V565H366.597ZM372.143 565L368.734 560.682L369.688 559.75L373.847 565H372.143ZM383.096 565.182C382.369 565.182 381.727 564.998 381.17 564.631C380.613 564.259 380.177 563.737 379.863 563.062C379.549 562.384 379.391 561.583 379.391 560.659C379.391 559.742 379.549 558.947 379.863 558.273C380.177 557.598 380.615 557.078 381.176 556.71C381.736 556.343 382.384 556.159 383.119 556.159C383.687 556.159 384.136 556.254 384.465 556.443C384.799 556.629 385.052 556.841 385.227 557.08C385.405 557.314 385.543 557.508 385.641 557.659H385.755V553.364H387.096V565H385.801V563.659H385.641C385.543 563.818 385.403 564.019 385.221 564.261C385.039 564.5 384.78 564.714 384.443 564.903C384.105 565.089 383.657 565.182 383.096 565.182ZM383.278 563.977C383.816 563.977 384.27 563.837 384.641 563.557C385.013 563.273 385.295 562.881 385.488 562.381C385.681 561.877 385.778 561.295 385.778 560.636C385.778 559.985 385.683 559.415 385.494 558.926C385.304 558.434 385.024 558.051 384.653 557.778C384.282 557.502 383.823 557.364 383.278 557.364C382.71 557.364 382.236 557.509 381.857 557.801C381.482 558.089 381.2 558.481 381.011 558.977C380.825 559.47 380.732 560.023 380.732 560.636C380.732 561.258 380.827 561.822 381.016 562.33C381.21 562.833 381.494 563.235 381.869 563.534C382.247 563.83 382.717 563.977 383.278 563.977ZM393.397 565.182C392.556 565.182 391.831 564.996 391.221 564.625C390.615 564.25 390.147 563.727 389.818 563.057C389.492 562.383 389.329 561.598 389.329 560.705C389.329 559.811 389.492 559.023 389.818 558.341C390.147 557.655 390.605 557.121 391.193 556.739C391.783 556.352 392.473 556.159 393.261 556.159C393.715 556.159 394.164 556.235 394.607 556.386C395.051 556.538 395.454 556.784 395.818 557.125C396.181 557.462 396.471 557.909 396.687 558.466C396.903 559.023 397.011 559.708 397.011 560.523V561.091H390.283V559.932H395.647C395.647 559.439 395.549 559 395.352 558.614C395.158 558.227 394.882 557.922 394.522 557.699C394.166 557.475 393.746 557.364 393.261 557.364C392.727 557.364 392.265 557.496 391.874 557.761C391.488 558.023 391.191 558.364 390.982 558.784C390.774 559.205 390.67 559.655 390.67 560.136V560.909C390.67 561.568 390.783 562.127 391.011 562.585C391.242 563.04 391.562 563.386 391.971 563.625C392.38 563.86 392.855 563.977 393.397 563.977C393.749 563.977 394.068 563.928 394.352 563.83C394.64 563.727 394.888 563.576 395.096 563.375C395.304 563.17 395.465 562.917 395.579 562.614L396.874 562.977C396.738 563.417 396.509 563.803 396.187 564.136C395.865 564.466 395.467 564.723 394.994 564.909C394.52 565.091 393.988 565.182 393.397 565.182ZM405.232 558.227L404.028 558.568C403.952 558.367 403.84 558.172 403.693 557.983C403.549 557.79 403.352 557.631 403.102 557.506C402.852 557.381 402.532 557.318 402.141 557.318C401.607 557.318 401.162 557.441 400.806 557.688C400.454 557.93 400.278 558.239 400.278 558.614C400.278 558.947 400.399 559.21 400.641 559.403C400.884 559.597 401.263 559.758 401.778 559.886L403.073 560.205C403.854 560.394 404.435 560.684 404.818 561.074C405.2 561.46 405.391 561.958 405.391 562.568C405.391 563.068 405.247 563.515 404.96 563.909C404.676 564.303 404.278 564.614 403.766 564.841C403.255 565.068 402.66 565.182 401.982 565.182C401.092 565.182 400.355 564.989 399.772 564.602C399.189 564.216 398.819 563.652 398.664 562.909L399.937 562.591C400.058 563.061 400.287 563.413 400.624 563.648C400.965 563.883 401.41 564 401.96 564C402.585 564 403.081 563.867 403.448 563.602C403.819 563.333 404.005 563.011 404.005 562.636C404.005 562.333 403.899 562.08 403.687 561.875C403.475 561.667 403.149 561.511 402.71 561.409L401.255 561.068C400.456 560.879 399.869 560.585 399.494 560.188C399.122 559.786 398.937 559.284 398.937 558.682C398.937 558.189 399.075 557.754 399.352 557.375C399.632 556.996 400.013 556.699 400.494 556.483C400.979 556.267 401.528 556.159 402.141 556.159C403.005 556.159 403.683 556.348 404.176 556.727C404.672 557.106 405.024 557.606 405.232 558.227ZM407.41 565V556.273H408.751V565H407.41ZM408.092 554.818C407.83 554.818 407.605 554.729 407.416 554.551C407.23 554.373 407.137 554.159 407.137 553.909C407.137 553.659 407.23 553.445 407.416 553.267C407.605 553.089 407.83 553 408.092 553C408.353 553 408.577 553.089 408.762 553.267C408.952 553.445 409.046 553.659 409.046 553.909C409.046 554.159 408.952 554.373 408.762 554.551C408.577 554.729 408.353 554.818 408.092 554.818ZM414.729 568.455C414.082 568.455 413.525 568.371 413.059 568.205C412.593 568.042 412.205 567.826 411.894 567.557C411.587 567.292 411.343 567.008 411.161 566.705L412.229 565.955C412.351 566.114 412.504 566.295 412.69 566.5C412.875 566.708 413.129 566.888 413.451 567.04C413.777 567.195 414.203 567.273 414.729 567.273C415.434 567.273 416.015 567.102 416.474 566.761C416.932 566.42 417.161 565.886 417.161 565.159V563.386H417.048C416.949 563.545 416.809 563.742 416.627 563.977C416.449 564.208 416.192 564.415 415.854 564.597C415.521 564.775 415.07 564.864 414.502 564.864C413.798 564.864 413.165 564.697 412.604 564.364C412.048 564.03 411.606 563.545 411.281 562.909C410.959 562.273 410.798 561.5 410.798 560.591C410.798 559.697 410.955 558.919 411.269 558.256C411.584 557.589 412.021 557.074 412.582 556.71C413.142 556.343 413.79 556.159 414.525 556.159C415.093 556.159 415.544 556.254 415.877 556.443C416.214 556.629 416.472 556.841 416.65 557.08C416.832 557.314 416.972 557.508 417.07 557.659H417.207V556.273H418.502V565.25C418.502 566 418.332 566.61 417.991 567.08C417.654 567.553 417.199 567.9 416.627 568.119C416.059 568.343 415.426 568.455 414.729 568.455ZM414.684 563.659C415.222 563.659 415.676 563.536 416.048 563.29C416.419 563.044 416.701 562.689 416.894 562.227C417.087 561.765 417.184 561.212 417.184 560.568C417.184 559.939 417.089 559.384 416.9 558.903C416.711 558.422 416.43 558.045 416.059 557.773C415.688 557.5 415.229 557.364 414.684 557.364C414.116 557.364 413.642 557.508 413.264 557.795C412.889 558.083 412.606 558.47 412.417 558.955C412.231 559.439 412.139 559.977 412.139 560.568C412.139 561.174 412.233 561.71 412.423 562.176C412.616 562.638 412.9 563.002 413.275 563.267C413.654 563.528 414.123 563.659 414.684 563.659ZM422.298 559.75V565H420.957V556.273H422.252V557.636H422.366C422.57 557.193 422.881 556.837 423.298 556.568C423.714 556.295 424.252 556.159 424.911 556.159C425.502 556.159 426.019 556.28 426.462 556.523C426.906 556.761 427.25 557.125 427.497 557.614C427.743 558.098 427.866 558.712 427.866 559.455V565H426.525V559.545C426.525 558.86 426.347 558.326 425.991 557.943C425.635 557.557 425.146 557.364 424.525 557.364C424.097 557.364 423.714 557.456 423.377 557.642C423.044 557.828 422.781 558.098 422.587 558.455C422.394 558.811 422.298 559.242 422.298 559.75ZM437.384 565.205C436.831 565.205 436.329 565.1 435.879 564.892C435.428 564.68 435.07 564.375 434.805 563.977C434.54 563.576 434.407 563.091 434.407 562.523C434.407 562.023 434.506 561.617 434.703 561.307C434.899 560.992 435.163 560.746 435.492 560.568C435.822 560.39 436.185 560.258 436.583 560.17C436.985 560.08 437.388 560.008 437.793 559.955C438.324 559.886 438.754 559.835 439.083 559.801C439.417 559.763 439.659 559.701 439.81 559.614C439.966 559.527 440.043 559.375 440.043 559.159V559.114C440.043 558.553 439.89 558.117 439.583 557.807C439.28 557.496 438.82 557.341 438.203 557.341C437.562 557.341 437.06 557.481 436.697 557.761C436.333 558.042 436.078 558.341 435.93 558.659L434.657 558.205C434.884 557.674 435.187 557.261 435.566 556.966C435.949 556.667 436.365 556.458 436.816 556.341C437.271 556.22 437.718 556.159 438.157 556.159C438.437 556.159 438.759 556.193 439.123 556.261C439.49 556.326 439.845 556.46 440.185 556.665C440.53 556.869 440.816 557.178 441.043 557.591C441.271 558.004 441.384 558.557 441.384 559.25V565H440.043V563.818H439.975C439.884 564.008 439.733 564.21 439.521 564.426C439.309 564.642 439.026 564.826 438.674 564.977C438.322 565.129 437.892 565.205 437.384 565.205ZM437.589 564C438.119 564 438.566 563.896 438.93 563.688C439.297 563.479 439.574 563.21 439.759 562.881C439.949 562.551 440.043 562.205 440.043 561.841V560.614C439.987 560.682 439.862 560.744 439.668 560.801C439.479 560.854 439.259 560.902 439.009 560.943C438.763 560.981 438.523 561.015 438.288 561.045C438.057 561.072 437.869 561.095 437.725 561.114C437.377 561.159 437.051 561.233 436.748 561.335C436.449 561.434 436.206 561.583 436.021 561.784C435.839 561.981 435.748 562.25 435.748 562.591C435.748 563.057 435.92 563.409 436.265 563.648C436.613 563.883 437.055 564 437.589 564ZM445.173 559.75V565H443.832V556.273H445.127V557.636H445.241C445.445 557.193 445.756 556.837 446.173 556.568C446.589 556.295 447.127 556.159 447.786 556.159C448.377 556.159 448.894 556.28 449.337 556.523C449.781 556.761 450.125 557.125 450.372 557.614C450.618 558.098 450.741 558.712 450.741 559.455V565H449.4V559.545C449.4 558.86 449.222 558.326 448.866 557.943C448.51 557.557 448.021 557.364 447.4 557.364C446.972 557.364 446.589 557.456 446.252 557.642C445.919 557.828 445.656 558.098 445.462 558.455C445.269 558.811 445.173 559.242 445.173 559.75ZM456.487 565.182C455.759 565.182 455.117 564.998 454.56 564.631C454.004 564.259 453.568 563.737 453.254 563.062C452.939 562.384 452.782 561.583 452.782 560.659C452.782 559.742 452.939 558.947 453.254 558.273C453.568 557.598 454.006 557.078 454.566 556.71C455.127 556.343 455.774 556.159 456.509 556.159C457.078 556.159 457.526 556.254 457.856 556.443C458.189 556.629 458.443 556.841 458.617 557.08C458.795 557.314 458.934 557.508 459.032 557.659H459.146V553.364H460.487V565H459.191V563.659H459.032C458.934 563.818 458.793 564.019 458.612 564.261C458.43 564.5 458.17 564.714 457.833 564.903C457.496 565.089 457.047 565.182 456.487 565.182ZM456.668 563.977C457.206 563.977 457.661 563.837 458.032 563.557C458.403 563.273 458.685 562.881 458.879 562.381C459.072 561.877 459.168 561.295 459.168 560.636C459.168 559.985 459.074 559.415 458.884 558.926C458.695 558.434 458.415 558.051 458.043 557.778C457.672 557.502 457.214 557.364 456.668 557.364C456.1 557.364 455.627 557.509 455.248 557.801C454.873 558.089 454.591 558.481 454.401 558.977C454.216 559.47 454.123 560.023 454.123 560.636C454.123 561.258 454.218 561.822 454.407 562.33C454.6 562.833 454.884 563.235 455.259 563.534C455.638 563.83 456.108 563.977 456.668 563.977ZM471.288 565.182C470.447 565.182 469.721 564.996 469.112 564.625C468.506 564.25 468.038 563.727 467.708 563.057C467.382 562.383 467.22 561.598 467.22 560.705C467.22 559.811 467.382 559.023 467.708 558.341C468.038 557.655 468.496 557.121 469.083 556.739C469.674 556.352 470.363 556.159 471.151 556.159C471.606 556.159 472.055 556.235 472.498 556.386C472.941 556.538 473.345 556.784 473.708 557.125C474.072 557.462 474.362 557.909 474.578 558.466C474.793 559.023 474.901 559.708 474.901 560.523V561.091H468.174V559.932H473.538C473.538 559.439 473.439 559 473.242 558.614C473.049 558.227 472.773 557.922 472.413 557.699C472.057 557.475 471.636 557.364 471.151 557.364C470.617 557.364 470.155 557.496 469.765 557.761C469.379 558.023 469.081 558.364 468.873 558.784C468.665 559.205 468.56 559.655 468.56 560.136V560.909C468.56 561.568 468.674 562.127 468.901 562.585C469.132 563.04 469.453 563.386 469.862 563.625C470.271 563.86 470.746 563.977 471.288 563.977C471.64 563.977 471.958 563.928 472.242 563.83C472.53 563.727 472.778 563.576 472.987 563.375C473.195 563.17 473.356 562.917 473.47 562.614L474.765 562.977C474.629 563.417 474.399 563.803 474.078 564.136C473.756 564.466 473.358 564.723 472.884 564.909C472.411 565.091 471.879 565.182 471.288 565.182ZM479.509 565.205C478.956 565.205 478.454 565.1 478.004 564.892C477.553 564.68 477.195 564.375 476.93 563.977C476.665 563.576 476.532 563.091 476.532 562.523C476.532 562.023 476.631 561.617 476.828 561.307C477.024 560.992 477.288 560.746 477.617 560.568C477.947 560.39 478.31 560.258 478.708 560.17C479.11 560.08 479.513 560.008 479.918 559.955C480.449 559.886 480.879 559.835 481.208 559.801C481.542 559.763 481.784 559.701 481.935 559.614C482.091 559.527 482.168 559.375 482.168 559.159V559.114C482.168 558.553 482.015 558.117 481.708 557.807C481.405 557.496 480.945 557.341 480.328 557.341C479.687 557.341 479.185 557.481 478.822 557.761C478.458 558.042 478.203 558.341 478.055 558.659L476.782 558.205C477.009 557.674 477.312 557.261 477.691 556.966C478.074 556.667 478.49 556.458 478.941 556.341C479.396 556.22 479.843 556.159 480.282 556.159C480.562 556.159 480.884 556.193 481.248 556.261C481.615 556.326 481.97 556.46 482.31 556.665C482.655 556.869 482.941 557.178 483.168 557.591C483.396 558.004 483.509 558.557 483.509 559.25V565H482.168V563.818H482.1C482.009 564.008 481.858 564.21 481.646 564.426C481.434 564.642 481.151 564.826 480.799 564.977C480.447 565.129 480.017 565.205 479.509 565.205ZM479.714 564C480.244 564 480.691 563.896 481.055 563.688C481.422 563.479 481.699 563.21 481.884 562.881C482.074 562.551 482.168 562.205 482.168 561.841V560.614C482.112 560.682 481.987 560.744 481.793 560.801C481.604 560.854 481.384 560.902 481.134 560.943C480.888 560.981 480.648 561.015 480.413 561.045C480.182 561.072 479.994 561.095 479.85 561.114C479.502 561.159 479.176 561.233 478.873 561.335C478.574 561.434 478.331 561.583 478.146 561.784C477.964 561.981 477.873 562.25 477.873 562.591C477.873 563.057 478.045 563.409 478.39 563.648C478.738 563.883 479.18 564 479.714 564ZM492.139 558.227L490.934 558.568C490.858 558.367 490.747 558.172 490.599 557.983C490.455 557.79 490.258 557.631 490.008 557.506C489.758 557.381 489.438 557.318 489.048 557.318C488.514 557.318 488.069 557.441 487.712 557.688C487.36 557.93 487.184 558.239 487.184 558.614C487.184 558.947 487.305 559.21 487.548 559.403C487.79 559.597 488.169 559.758 488.684 559.886L489.979 560.205C490.76 560.394 491.341 560.684 491.724 561.074C492.106 561.46 492.298 561.958 492.298 562.568C492.298 563.068 492.154 563.515 491.866 563.909C491.582 564.303 491.184 564.614 490.673 564.841C490.161 565.068 489.567 565.182 488.889 565.182C487.998 565.182 487.262 564.989 486.678 564.602C486.095 564.216 485.726 563.652 485.57 562.909L486.843 562.591C486.964 563.061 487.194 563.413 487.531 563.648C487.872 563.883 488.317 564 488.866 564C489.491 564 489.987 563.867 490.354 563.602C490.726 563.333 490.911 563.011 490.911 562.636C490.911 562.333 490.805 562.08 490.593 561.875C490.381 561.667 490.055 561.511 489.616 561.409L488.161 561.068C487.362 560.879 486.775 560.585 486.4 560.188C486.029 559.786 485.843 559.284 485.843 558.682C485.843 558.189 485.981 557.754 486.258 557.375C486.538 556.996 486.919 556.699 487.4 556.483C487.885 556.267 488.434 556.159 489.048 556.159C489.911 556.159 490.589 556.348 491.082 556.727C491.578 557.106 491.93 557.606 492.139 558.227ZM495.18 568.273C494.953 568.273 494.75 568.254 494.572 568.216C494.394 568.182 494.271 568.148 494.203 568.114L494.543 566.932C494.869 567.015 495.157 567.045 495.407 567.023C495.657 567 495.879 566.888 496.072 566.688C496.269 566.491 496.449 566.17 496.612 565.727L496.862 565.045L493.634 556.273H495.089L497.498 563.227H497.589L499.998 556.273H501.453L497.748 566.273C497.581 566.723 497.375 567.097 497.129 567.392C496.882 567.691 496.596 567.913 496.271 568.057C495.949 568.201 495.585 568.273 495.18 568.273ZM49.7835 589.182C48.9653 589.182 48.2607 588.989 47.6698 588.602C47.0789 588.216 46.6244 587.684 46.3062 587.006C45.988 586.328 45.8289 585.553 45.8289 584.682C45.8289 583.795 45.9918 583.013 46.3176 582.335C46.6471 581.653 47.1054 581.121 47.6926 580.739C48.2835 580.352 48.9729 580.159 49.7607 580.159C50.3744 580.159 50.9274 580.273 51.4198 580.5C51.9123 580.727 52.3157 581.045 52.6301 581.455C52.9445 581.864 53.1395 582.341 53.2153 582.886H51.8744C51.7721 582.489 51.5448 582.136 51.1926 581.83C50.8441 581.519 50.3744 581.364 49.7835 581.364C49.2607 581.364 48.8024 581.5 48.4085 581.773C48.0183 582.042 47.7134 582.422 47.4937 582.915C47.2778 583.403 47.1698 583.977 47.1698 584.636C47.1698 585.311 47.2759 585.898 47.488 586.398C47.7039 586.898 48.007 587.286 48.3971 587.562C48.791 587.839 49.2532 587.977 49.7835 587.977C50.132 587.977 50.4482 587.917 50.7323 587.795C51.0164 587.674 51.257 587.5 51.4539 587.273C51.6509 587.045 51.791 586.773 51.8744 586.455H53.2153C53.1395 586.97 52.952 587.434 52.6528 587.847C52.3573 588.256 51.9653 588.581 51.4767 588.824C50.9918 589.062 50.4274 589.182 49.7835 589.182ZM60.6755 585.432V580.273H62.0164V589H60.6755V587.523H60.5846C60.3801 587.966 60.0619 588.343 59.6301 588.653C59.1982 588.96 58.6528 589.114 57.9937 589.114C57.4482 589.114 56.9634 588.994 56.5392 588.756C56.1149 588.513 55.7816 588.15 55.5392 587.665C55.2967 587.176 55.1755 586.561 55.1755 585.818V580.273H56.5164V585.727C56.5164 586.364 56.6945 586.871 57.0505 587.25C57.4104 587.629 57.8687 587.818 58.4255 587.818C58.7588 587.818 59.0979 587.733 59.4426 587.562C59.791 587.392 60.0827 587.131 60.3176 586.778C60.5562 586.426 60.6755 585.977 60.6755 585.432ZM70.6542 582.227L69.4497 582.568C69.3739 582.367 69.2622 582.172 69.1144 581.983C68.9705 581.79 68.7735 581.631 68.5235 581.506C68.2735 581.381 67.9535 581.318 67.5633 581.318C67.0292 581.318 66.5841 581.441 66.2281 581.688C65.8758 581.93 65.6997 582.239 65.6997 582.614C65.6997 582.947 65.8209 583.21 66.0633 583.403C66.3057 583.597 66.6845 583.758 67.1997 583.886L68.4951 584.205C69.2754 584.394 69.8569 584.684 70.2394 585.074C70.622 585.46 70.8133 585.958 70.8133 586.568C70.8133 587.068 70.6694 587.515 70.3815 587.909C70.0974 588.303 69.6997 588.614 69.1883 588.841C68.6769 589.068 68.0822 589.182 67.4042 589.182C66.5141 589.182 65.7773 588.989 65.194 588.602C64.6106 588.216 64.2413 587.652 64.086 586.909L65.3588 586.591C65.48 587.061 65.7091 587.413 66.0463 587.648C66.3872 587.883 66.8322 588 67.3815 588C68.0065 588 68.5027 587.867 68.8701 587.602C69.2413 587.333 69.4269 587.011 69.4269 586.636C69.4269 586.333 69.3209 586.08 69.1088 585.875C68.8966 585.667 68.5709 585.511 68.1315 585.409L66.6769 585.068C65.8777 584.879 65.2906 584.585 64.9156 584.188C64.5444 583.786 64.3588 583.284 64.3588 582.682C64.3588 582.189 64.497 581.754 64.7735 581.375C65.0538 580.996 65.4345 580.699 65.9156 580.483C66.4004 580.267 66.9497 580.159 67.5633 580.159C68.4269 580.159 69.105 580.348 69.5974 580.727C70.0936 581.106 70.4459 581.606 70.6542 582.227ZM76.6272 580.273V581.409H72.1045V580.273H76.6272ZM73.4227 578.182H74.7636V586.5C74.7636 586.879 74.8185 587.163 74.9284 587.352C75.042 587.538 75.1859 587.663 75.3602 587.727C75.5382 587.788 75.7257 587.818 75.9227 587.818C76.0704 587.818 76.1916 587.811 76.2863 587.795C76.381 587.777 76.4568 587.761 76.5136 587.75L76.7863 588.955C76.6954 588.989 76.5685 589.023 76.4056 589.057C76.2428 589.095 76.0363 589.114 75.7863 589.114C75.4075 589.114 75.0363 589.032 74.6727 588.869C74.3128 588.706 74.0136 588.458 73.7749 588.125C73.5401 587.792 73.4227 587.371 73.4227 586.864V578.182ZM82.096 589.182C81.3081 589.182 80.6168 588.994 80.0221 588.619C79.4312 588.244 78.9691 587.72 78.6357 587.045C78.3062 586.371 78.1414 585.583 78.1414 584.682C78.1414 583.773 78.3062 582.979 78.6357 582.301C78.9691 581.623 79.4312 581.097 80.0221 580.722C80.6168 580.347 81.3081 580.159 82.096 580.159C82.8838 580.159 83.5732 580.347 84.1642 580.722C84.7588 581.097 85.221 581.623 85.5505 582.301C85.8838 582.979 86.0505 583.773 86.0505 584.682C86.0505 585.583 85.8838 586.371 85.5505 587.045C85.221 587.72 84.7588 588.244 84.1642 588.619C83.5732 588.994 82.8838 589.182 82.096 589.182ZM82.096 587.977C82.6945 587.977 83.1869 587.824 83.5732 587.517C83.9596 587.21 84.2456 586.807 84.4312 586.307C84.6168 585.807 84.7096 585.265 84.7096 584.682C84.7096 584.098 84.6168 583.555 84.4312 583.051C84.2456 582.547 83.9596 582.14 83.5732 581.83C83.1869 581.519 82.6945 581.364 82.096 581.364C81.4975 581.364 81.0051 581.519 80.6187 581.83C80.2323 582.14 79.9463 582.547 79.7607 583.051C79.5751 583.555 79.4823 584.098 79.4823 584.682C79.4823 585.265 79.5751 585.807 79.7607 586.307C79.9463 586.807 80.2323 587.21 80.6187 587.517C81.0051 587.824 81.4975 587.977 82.096 587.977ZM88.0974 589V580.273H89.3928V581.636H89.5065C89.6883 581.17 89.9819 580.809 90.3872 580.551C90.7925 580.29 91.2792 580.159 91.8474 580.159C92.4231 580.159 92.9023 580.29 93.2849 580.551C93.6713 580.809 93.9724 581.17 94.1883 581.636H94.2792C94.5027 581.186 94.8379 580.828 95.2849 580.562C95.7319 580.294 96.2678 580.159 96.8928 580.159C97.6731 580.159 98.3114 580.403 98.8076 580.892C99.3038 581.377 99.5519 582.133 99.5519 583.159V589H98.211V583.159C98.211 582.515 98.0349 582.055 97.6826 581.778C97.3303 581.502 96.9156 581.364 96.4383 581.364C95.8247 581.364 95.3493 581.549 95.0122 581.92C94.675 582.288 94.5065 582.754 94.5065 583.318V589H93.1428V583.023C93.1428 582.527 92.9819 582.127 92.6599 581.824C92.3379 581.517 91.9231 581.364 91.4156 581.364C91.0671 581.364 90.7413 581.456 90.4383 581.642C90.1391 581.828 89.8966 582.085 89.711 582.415C89.5292 582.741 89.4383 583.117 89.4383 583.545V589H88.0974ZM102.004 589V580.273H103.345V589H102.004ZM102.685 578.818C102.424 578.818 102.199 578.729 102.009 578.551C101.824 578.373 101.731 578.159 101.731 577.909C101.731 577.659 101.824 577.445 102.009 577.267C102.199 577.089 102.424 577 102.685 577C102.947 577 103.17 577.089 103.356 577.267C103.545 577.445 103.64 577.659 103.64 577.909C103.64 578.159 103.545 578.373 103.356 578.551C103.17 578.729 102.947 578.818 102.685 578.818ZM105.551 589V587.977L110.505 581.614V581.523H105.71V580.273H112.232V581.341L107.414 587.659V587.75H112.391V589H105.551ZM117.025 589.205C116.472 589.205 115.97 589.1 115.519 588.892C115.069 588.68 114.711 588.375 114.445 587.977C114.18 587.576 114.048 587.091 114.048 586.523C114.048 586.023 114.146 585.617 114.343 585.307C114.54 584.992 114.803 584.746 115.133 584.568C115.462 584.39 115.826 584.258 116.224 584.17C116.625 584.08 117.029 584.008 117.434 583.955C117.964 583.886 118.394 583.835 118.724 583.801C119.057 583.763 119.3 583.701 119.451 583.614C119.606 583.527 119.684 583.375 119.684 583.159V583.114C119.684 582.553 119.531 582.117 119.224 581.807C118.921 581.496 118.461 581.341 117.843 581.341C117.203 581.341 116.701 581.481 116.337 581.761C115.974 582.042 115.718 582.341 115.57 582.659L114.298 582.205C114.525 581.674 114.828 581.261 115.207 580.966C115.589 580.667 116.006 580.458 116.457 580.341C116.911 580.22 117.358 580.159 117.798 580.159C118.078 580.159 118.4 580.193 118.764 580.261C119.131 580.326 119.485 580.46 119.826 580.665C120.171 580.869 120.457 581.178 120.684 581.591C120.911 582.004 121.025 582.557 121.025 583.25V589H119.684V587.818H119.616C119.525 588.008 119.373 588.21 119.161 588.426C118.949 588.642 118.667 588.826 118.315 588.977C117.962 589.129 117.533 589.205 117.025 589.205ZM117.229 588C117.76 588 118.207 587.896 118.57 587.688C118.938 587.479 119.214 587.21 119.4 586.881C119.589 586.551 119.684 586.205 119.684 585.841V584.614C119.627 584.682 119.502 584.744 119.309 584.801C119.12 584.854 118.9 584.902 118.65 584.943C118.404 584.981 118.163 585.015 117.928 585.045C117.697 585.072 117.51 585.095 117.366 585.114C117.017 585.159 116.692 585.233 116.389 585.335C116.089 585.434 115.847 585.583 115.661 585.784C115.479 585.981 115.389 586.25 115.389 586.591C115.389 587.057 115.561 587.409 115.906 587.648C116.254 587.883 116.695 588 117.229 588ZM127.268 580.273V581.409H122.745V580.273H127.268ZM124.063 578.182H125.404V586.5C125.404 586.879 125.459 587.163 125.569 587.352C125.683 587.538 125.827 587.663 126.001 587.727C126.179 587.788 126.366 587.818 126.563 587.818C126.711 587.818 126.832 587.811 126.927 587.795C127.022 587.777 127.097 587.761 127.154 587.75L127.427 588.955C127.336 588.989 127.209 589.023 127.046 589.057C126.883 589.095 126.677 589.114 126.427 589.114C126.048 589.114 125.677 589.032 125.313 588.869C124.953 588.706 124.654 588.458 124.416 588.125C124.181 587.792 124.063 587.371 124.063 586.864V578.182ZM129.285 589V580.273H130.626V589H129.285ZM129.967 578.818C129.705 578.818 129.48 578.729 129.291 578.551C129.105 578.373 129.012 578.159 129.012 577.909C129.012 577.659 129.105 577.445 129.291 577.267C129.48 577.089 129.705 577 129.967 577C130.228 577 130.452 577.089 130.637 577.267C130.827 577.445 130.921 577.659 130.921 577.909C130.921 578.159 130.827 578.373 130.637 578.551C130.452 578.729 130.228 578.818 129.967 578.818ZM136.627 589.182C135.839 589.182 135.148 588.994 134.553 588.619C133.962 588.244 133.5 587.72 133.167 587.045C132.837 586.371 132.673 585.583 132.673 584.682C132.673 583.773 132.837 582.979 133.167 582.301C133.5 581.623 133.962 581.097 134.553 580.722C135.148 580.347 135.839 580.159 136.627 580.159C137.415 580.159 138.104 580.347 138.695 580.722C139.29 581.097 139.752 581.623 140.082 582.301C140.415 582.979 140.582 583.773 140.582 584.682C140.582 585.583 140.415 586.371 140.082 587.045C139.752 587.72 139.29 588.244 138.695 588.619C138.104 588.994 137.415 589.182 136.627 589.182ZM136.627 587.977C137.226 587.977 137.718 587.824 138.104 587.517C138.491 587.21 138.777 586.807 138.962 586.307C139.148 585.807 139.241 585.265 139.241 584.682C139.241 584.098 139.148 583.555 138.962 583.051C138.777 582.547 138.491 582.14 138.104 581.83C137.718 581.519 137.226 581.364 136.627 581.364C136.029 581.364 135.536 581.519 135.15 581.83C134.764 582.14 134.478 582.547 134.292 583.051C134.106 583.555 134.014 584.098 134.014 584.682C134.014 585.265 134.106 585.807 134.292 586.307C134.478 586.807 134.764 587.21 135.15 587.517C135.536 587.824 136.029 587.977 136.627 587.977ZM143.97 583.75V589H142.629V580.273H143.924V581.636H144.038C144.242 581.193 144.553 580.837 144.97 580.568C145.386 580.295 145.924 580.159 146.583 580.159C147.174 580.159 147.691 580.28 148.134 580.523C148.578 580.761 148.922 581.125 149.168 581.614C149.415 582.098 149.538 582.712 149.538 583.455V589H148.197V583.545C148.197 582.86 148.019 582.326 147.663 581.943C147.307 581.557 146.818 581.364 146.197 581.364C145.769 581.364 145.386 581.456 145.049 581.642C144.716 581.828 144.453 582.098 144.259 582.455C144.066 582.811 143.97 583.242 143.97 583.75ZM159.056 589.205C158.503 589.205 158.001 589.1 157.551 588.892C157.1 588.68 156.742 588.375 156.477 587.977C156.211 587.576 156.079 587.091 156.079 586.523C156.079 586.023 156.177 585.617 156.374 585.307C156.571 584.992 156.835 584.746 157.164 584.568C157.494 584.39 157.857 584.258 158.255 584.17C158.657 584.08 159.06 584.008 159.465 583.955C159.996 583.886 160.426 583.835 160.755 583.801C161.088 583.763 161.331 583.701 161.482 583.614C161.638 583.527 161.715 583.375 161.715 583.159V583.114C161.715 582.553 161.562 582.117 161.255 581.807C160.952 581.496 160.492 581.341 159.874 581.341C159.234 581.341 158.732 581.481 158.369 581.761C158.005 582.042 157.749 582.341 157.602 582.659L156.329 582.205C156.556 581.674 156.859 581.261 157.238 580.966C157.621 580.667 158.037 580.458 158.488 580.341C158.943 580.22 159.39 580.159 159.829 580.159C160.109 580.159 160.431 580.193 160.795 580.261C161.162 580.326 161.516 580.46 161.857 580.665C162.202 580.869 162.488 581.178 162.715 581.591C162.943 582.004 163.056 582.557 163.056 583.25V589H161.715V587.818H161.647C161.556 588.008 161.405 588.21 161.193 588.426C160.98 588.642 160.698 588.826 160.346 588.977C159.994 589.129 159.564 589.205 159.056 589.205ZM159.261 588C159.791 588 160.238 587.896 160.602 587.688C160.969 587.479 161.246 587.21 161.431 586.881C161.621 586.551 161.715 586.205 161.715 585.841V584.614C161.658 584.682 161.533 584.744 161.34 584.801C161.151 584.854 160.931 584.902 160.681 584.943C160.435 584.981 160.194 585.015 159.96 585.045C159.729 585.072 159.541 585.095 159.397 585.114C159.049 585.159 158.723 585.233 158.42 585.335C158.121 585.434 157.878 585.583 157.693 585.784C157.511 585.981 157.42 586.25 157.42 586.591C157.42 587.057 157.592 587.409 157.937 587.648C158.285 587.883 158.727 588 159.261 588ZM166.845 577.364V589H165.504V577.364H166.845ZM170.641 577.364V589H169.301V577.364H170.641ZM176.643 589.182C175.855 589.182 175.164 588.994 174.569 588.619C173.978 588.244 173.516 587.72 173.183 587.045C172.853 586.371 172.688 585.583 172.688 584.682C172.688 583.773 172.853 582.979 173.183 582.301C173.516 581.623 173.978 581.097 174.569 580.722C175.164 580.347 175.855 580.159 176.643 580.159C177.431 580.159 178.12 580.347 178.711 580.722C179.306 581.097 179.768 581.623 180.097 582.301C180.431 582.979 180.597 583.773 180.597 584.682C180.597 585.583 180.431 586.371 180.097 587.045C179.768 587.72 179.306 588.244 178.711 588.619C178.12 588.994 177.431 589.182 176.643 589.182ZM176.643 587.977C177.241 587.977 177.734 587.824 178.12 587.517C178.506 587.21 178.792 586.807 178.978 586.307C179.164 585.807 179.256 585.265 179.256 584.682C179.256 584.098 179.164 583.555 178.978 583.051C178.792 582.547 178.506 582.14 178.12 581.83C177.734 581.519 177.241 581.364 176.643 581.364C176.044 581.364 175.552 581.519 175.166 581.83C174.779 582.14 174.493 582.547 174.308 583.051C174.122 583.555 174.029 584.098 174.029 584.682C174.029 585.265 174.122 585.807 174.308 586.307C174.493 586.807 174.779 587.21 175.166 587.517C175.552 587.824 176.044 587.977 176.643 587.977ZM184.325 589L181.666 580.273H183.075L184.961 586.955H185.052L186.916 580.273H188.347L190.188 586.932H190.279L192.166 580.273H193.575L190.916 589H189.597L187.688 582.295H187.552L185.643 589H184.325ZM200.711 592.273C200.484 592.273 200.281 592.254 200.103 592.216C199.925 592.182 199.802 592.148 199.734 592.114L200.075 590.932C200.4 591.015 200.688 591.045 200.938 591.023C201.188 591 201.41 590.888 201.603 590.688C201.8 590.491 201.98 590.17 202.143 589.727L202.393 589.045L199.166 580.273H200.62L203.029 587.227H203.12L205.529 580.273H206.984L203.279 590.273C203.113 590.723 202.906 591.097 202.66 591.392C202.414 591.691 202.128 591.913 201.802 592.057C201.48 592.201 201.116 592.273 200.711 592.273ZM211.987 589.182C211.199 589.182 210.507 588.994 209.913 588.619C209.322 588.244 208.86 587.72 208.526 587.045C208.197 586.371 208.032 585.583 208.032 584.682C208.032 583.773 208.197 582.979 208.526 582.301C208.86 581.623 209.322 581.097 209.913 580.722C210.507 580.347 211.199 580.159 211.987 580.159C212.774 580.159 213.464 580.347 214.055 580.722C214.649 581.097 215.112 581.623 215.441 582.301C215.774 582.979 215.941 583.773 215.941 584.682C215.941 585.583 215.774 586.371 215.441 587.045C215.112 587.72 214.649 588.244 214.055 588.619C213.464 588.994 212.774 589.182 211.987 589.182ZM211.987 587.977C212.585 587.977 213.078 587.824 213.464 587.517C213.85 587.21 214.136 586.807 214.322 586.307C214.507 585.807 214.6 585.265 214.6 584.682C214.6 584.098 214.507 583.555 214.322 583.051C214.136 582.547 213.85 582.14 213.464 581.83C213.078 581.519 212.585 581.364 211.987 581.364C211.388 581.364 210.896 581.519 210.509 581.83C210.123 582.14 209.837 582.547 209.651 583.051C209.466 583.555 209.373 584.098 209.373 584.682C209.373 585.265 209.466 585.807 209.651 586.307C209.837 586.807 210.123 587.21 210.509 587.517C210.896 587.824 211.388 587.977 211.987 587.977ZM223.488 585.432V580.273H224.829V589H223.488V587.523H223.397C223.193 587.966 222.874 588.343 222.443 588.653C222.011 588.96 221.465 589.114 220.806 589.114C220.261 589.114 219.776 588.994 219.352 588.756C218.927 588.513 218.594 588.15 218.352 587.665C218.109 587.176 217.988 586.561 217.988 585.818V580.273H219.329V585.727C219.329 586.364 219.507 586.871 219.863 587.25C220.223 587.629 220.681 587.818 221.238 587.818C221.571 587.818 221.91 587.733 222.255 587.562C222.604 587.392 222.895 587.131 223.13 586.778C223.369 586.426 223.488 585.977 223.488 585.432ZM235.58 580.273V581.409H231.058V580.273H235.58ZM232.376 578.182H233.717V586.5C233.717 586.879 233.772 587.163 233.881 587.352C233.995 587.538 234.139 587.663 234.313 587.727C234.491 587.788 234.679 587.818 234.876 587.818C235.024 587.818 235.145 587.811 235.239 587.795C235.334 587.777 235.41 587.761 235.467 587.75L235.739 588.955C235.649 588.989 235.522 589.023 235.359 589.057C235.196 589.095 234.989 589.114 234.739 589.114C234.361 589.114 233.989 589.032 233.626 588.869C233.266 588.706 232.967 588.458 232.728 588.125C232.493 587.792 232.376 587.371 232.376 586.864V578.182ZM241.049 589.182C240.261 589.182 239.57 588.994 238.975 588.619C238.384 588.244 237.922 587.72 237.589 587.045C237.259 586.371 237.095 585.583 237.095 584.682C237.095 583.773 237.259 582.979 237.589 582.301C237.922 581.623 238.384 581.097 238.975 580.722C239.57 580.347 240.261 580.159 241.049 580.159C241.837 580.159 242.526 580.347 243.117 580.722C243.712 581.097 244.174 581.623 244.504 582.301C244.837 582.979 245.004 583.773 245.004 584.682C245.004 585.583 244.837 586.371 244.504 587.045C244.174 587.72 243.712 588.244 243.117 588.619C242.526 588.994 241.837 589.182 241.049 589.182ZM241.049 587.977C241.648 587.977 242.14 587.824 242.526 587.517C242.913 587.21 243.199 586.807 243.384 586.307C243.57 585.807 243.663 585.265 243.663 584.682C243.663 584.098 243.57 583.555 243.384 583.051C243.199 582.547 242.913 582.14 242.526 581.83C242.14 581.519 241.648 581.364 241.049 581.364C240.451 581.364 239.958 581.519 239.572 581.83C239.185 582.14 238.899 582.547 238.714 583.051C238.528 583.555 238.435 584.098 238.435 584.682C238.435 585.265 238.528 585.807 238.714 586.307C238.899 586.807 239.185 587.21 239.572 587.517C239.958 587.824 240.451 587.977 241.049 587.977ZM257.505 592.273V587.659H257.391C257.293 587.818 257.153 588.019 256.971 588.261C256.789 588.5 256.53 588.714 256.193 588.903C255.855 589.089 255.407 589.182 254.846 589.182C254.119 589.182 253.477 588.998 252.92 588.631C252.363 588.259 251.927 587.737 251.613 587.062C251.299 586.384 251.141 585.583 251.141 584.659C251.141 583.742 251.299 582.947 251.613 582.273C251.927 581.598 252.365 581.078 252.926 580.71C253.486 580.343 254.134 580.159 254.869 580.159C255.437 580.159 255.886 580.254 256.215 580.443C256.549 580.629 256.802 580.841 256.977 581.08C257.155 581.314 257.293 581.508 257.391 581.659H257.551V580.273H258.846V592.273H257.505ZM255.028 587.977C255.566 587.977 256.02 587.837 256.391 587.557C256.763 587.273 257.045 586.881 257.238 586.381C257.431 585.877 257.528 585.295 257.528 584.636C257.528 583.985 257.433 583.415 257.244 582.926C257.054 582.434 256.774 582.051 256.403 581.778C256.032 581.502 255.573 581.364 255.028 581.364C254.46 581.364 253.986 581.509 253.607 581.801C253.232 582.089 252.95 582.481 252.761 582.977C252.575 583.47 252.482 584.023 252.482 584.636C252.482 585.258 252.577 585.822 252.766 586.33C252.96 586.833 253.244 587.235 253.619 587.534C253.997 587.83 254.467 587.977 255.028 587.977ZM266.801 585.432V580.273H268.141V589H266.801V587.523H266.71C266.505 587.966 266.187 588.343 265.755 588.653C265.323 588.96 264.778 589.114 264.119 589.114C263.573 589.114 263.088 588.994 262.664 588.756C262.24 588.513 261.907 588.15 261.664 587.665C261.422 587.176 261.301 586.561 261.301 585.818V580.273H262.641V585.727C262.641 586.364 262.819 586.871 263.176 587.25C263.535 587.629 263.994 587.818 264.551 587.818C264.884 587.818 265.223 587.733 265.568 587.562C265.916 587.392 266.208 587.131 266.443 586.778C266.681 586.426 266.801 585.977 266.801 585.432ZM270.597 589V580.273H271.938V589H270.597ZM271.279 578.818C271.018 578.818 270.792 578.729 270.603 578.551C270.417 578.373 270.325 578.159 270.325 577.909C270.325 577.659 270.417 577.445 270.603 577.267C270.792 577.089 271.018 577 271.279 577C271.541 577 271.764 577.089 271.95 577.267C272.139 577.445 272.234 577.659 272.234 577.909C272.234 578.159 272.139 578.373 271.95 578.551C271.764 578.729 271.541 578.818 271.279 578.818ZM277.94 589.182C277.122 589.182 276.417 588.989 275.826 588.602C275.235 588.216 274.781 587.684 274.462 587.006C274.144 586.328 273.985 585.553 273.985 584.682C273.985 583.795 274.148 583.013 274.474 582.335C274.803 581.653 275.262 581.121 275.849 580.739C276.44 580.352 277.129 580.159 277.917 580.159C278.531 580.159 279.084 580.273 279.576 580.5C280.069 580.727 280.472 581.045 280.786 581.455C281.101 581.864 281.296 582.341 281.372 582.886H280.031C279.928 582.489 279.701 582.136 279.349 581.83C279 581.519 278.531 581.364 277.94 581.364C277.417 581.364 276.959 581.5 276.565 581.773C276.175 582.042 275.87 582.422 275.65 582.915C275.434 583.403 275.326 583.977 275.326 584.636C275.326 585.311 275.432 585.898 275.644 586.398C275.86 586.898 276.163 587.286 276.553 587.562C276.947 587.839 277.409 587.977 277.94 587.977C278.288 587.977 278.604 587.917 278.889 587.795C279.173 587.674 279.413 587.5 279.61 587.273C279.807 587.045 279.947 586.773 280.031 586.455H281.372C281.296 586.97 281.108 587.434 280.809 587.847C280.514 588.256 280.122 588.581 279.633 588.824C279.148 589.062 278.584 589.182 277.94 589.182ZM284.582 585.818L284.559 584.159H284.832L288.65 580.273H290.309L286.241 584.386H286.127L284.582 585.818ZM283.332 589V577.364H284.673V589H283.332ZM288.877 589L285.468 584.682L286.423 583.75L290.582 589H288.877ZM293.376 577.364V589H292.035V577.364H293.376ZM296.695 592.273C296.468 592.273 296.265 592.254 296.087 592.216C295.909 592.182 295.786 592.148 295.718 592.114L296.059 590.932C296.385 591.015 296.673 591.045 296.923 591.023C297.173 591 297.394 590.888 297.587 590.688C297.784 590.491 297.964 590.17 298.127 589.727L298.377 589.045L295.15 580.273H296.604L299.014 587.227H299.104L301.514 580.273H302.968L299.264 590.273C299.097 590.723 298.89 591.097 298.644 591.392C298.398 591.691 298.112 591.913 297.786 592.057C297.464 592.201 297.101 592.273 296.695 592.273ZM309.42 589V577.364H310.761V581.659H310.874C310.973 581.508 311.109 581.314 311.283 581.08C311.461 580.841 311.715 580.629 312.045 580.443C312.378 580.254 312.829 580.159 313.397 580.159C314.132 580.159 314.78 580.343 315.34 580.71C315.901 581.078 316.338 581.598 316.653 582.273C316.967 582.947 317.124 583.742 317.124 584.659C317.124 585.583 316.967 586.384 316.653 587.062C316.338 587.737 315.903 588.259 315.346 588.631C314.789 588.998 314.147 589.182 313.42 589.182C312.859 589.182 312.41 589.089 312.073 588.903C311.736 588.714 311.477 588.5 311.295 588.261C311.113 588.019 310.973 587.818 310.874 587.659H310.715V589H309.42ZM310.738 584.636C310.738 585.295 310.835 585.877 311.028 586.381C311.221 586.881 311.503 587.273 311.874 587.557C312.246 587.837 312.7 587.977 313.238 587.977C313.799 587.977 314.266 587.83 314.641 587.534C315.02 587.235 315.304 586.833 315.494 586.33C315.687 585.822 315.783 585.258 315.783 584.636C315.783 584.023 315.689 583.47 315.499 582.977C315.314 582.481 315.032 582.089 314.653 581.801C314.278 581.509 313.806 581.364 313.238 581.364C312.693 581.364 312.234 581.502 311.863 581.778C311.492 582.051 311.211 582.434 311.022 582.926C310.833 583.415 310.738 583.985 310.738 584.636ZM324.676 585.432V580.273H326.016V589H324.676V587.523H324.585C324.38 587.966 324.062 588.343 323.63 588.653C323.198 588.96 322.653 589.114 321.994 589.114C321.448 589.114 320.963 588.994 320.539 588.756C320.115 588.513 319.782 588.15 319.539 587.665C319.297 587.176 319.176 586.561 319.176 585.818V580.273H320.516V585.727C320.516 586.364 320.694 586.871 321.051 587.25C321.41 587.629 321.869 587.818 322.426 587.818C322.759 587.818 323.098 587.733 323.443 587.562C323.791 587.392 324.083 587.131 324.318 586.778C324.556 586.426 324.676 585.977 324.676 585.432ZM328.472 589V580.273H329.813V589H328.472ZM329.154 578.818C328.893 578.818 328.667 578.729 328.478 578.551C328.292 578.373 328.2 578.159 328.2 577.909C328.2 577.659 328.292 577.445 328.478 577.267C328.667 577.089 328.893 577 329.154 577C329.416 577 329.639 577.089 329.825 577.267C330.014 577.445 330.109 577.659 330.109 577.909C330.109 578.159 330.014 578.373 329.825 578.551C329.639 578.729 329.416 578.818 329.154 578.818ZM333.61 577.364V589H332.269V577.364H333.61ZM339.362 589.182C338.634 589.182 337.992 588.998 337.435 588.631C336.879 588.259 336.443 587.737 336.129 587.062C335.814 586.384 335.657 585.583 335.657 584.659C335.657 583.742 335.814 582.947 336.129 582.273C336.443 581.598 336.881 581.078 337.441 580.71C338.002 580.343 338.649 580.159 339.384 580.159C339.953 580.159 340.401 580.254 340.731 580.443C341.064 580.629 341.318 580.841 341.492 581.08C341.67 581.314 341.809 581.508 341.907 581.659H342.021V577.364H343.362V589H342.066V587.659H341.907C341.809 587.818 341.668 588.019 341.487 588.261C341.305 588.5 341.045 588.714 340.708 588.903C340.371 589.089 339.922 589.182 339.362 589.182ZM339.543 587.977C340.081 587.977 340.536 587.837 340.907 587.557C341.278 587.273 341.56 586.881 341.754 586.381C341.947 585.877 342.043 585.295 342.043 584.636C342.043 583.985 341.949 583.415 341.759 582.926C341.57 582.434 341.29 582.051 340.918 581.778C340.547 581.502 340.089 581.364 339.543 581.364C338.975 581.364 338.502 581.509 338.123 581.801C337.748 582.089 337.466 582.481 337.276 582.977C337.091 583.47 336.998 584.023 336.998 584.636C336.998 585.258 337.093 585.822 337.282 586.33C337.475 586.833 337.759 587.235 338.134 587.534C338.513 587.83 338.983 587.977 339.543 587.977ZM352.481 589L349.822 580.273H351.231L353.117 586.955H353.208L355.072 580.273H356.504L358.345 586.932H358.435L360.322 580.273H361.731L359.072 589H357.754L355.845 582.295H355.708L353.799 589H352.481ZM366.866 589.182C366.025 589.182 365.3 588.996 364.69 588.625C364.084 588.25 363.616 587.727 363.286 587.057C362.961 586.383 362.798 585.598 362.798 584.705C362.798 583.811 362.961 583.023 363.286 582.341C363.616 581.655 364.074 581.121 364.661 580.739C365.252 580.352 365.942 580.159 366.729 580.159C367.184 580.159 367.633 580.235 368.076 580.386C368.519 580.538 368.923 580.784 369.286 581.125C369.65 581.462 369.94 581.909 370.156 582.466C370.372 583.023 370.479 583.708 370.479 584.523V585.091H363.752V583.932H369.116C369.116 583.439 369.017 583 368.82 582.614C368.627 582.227 368.351 581.922 367.991 581.699C367.635 581.475 367.214 581.364 366.729 581.364C366.195 581.364 365.733 581.496 365.343 581.761C364.957 582.023 364.659 582.364 364.451 582.784C364.243 583.205 364.139 583.655 364.139 584.136V584.909C364.139 585.568 364.252 586.127 364.479 586.585C364.711 587.04 365.031 587.386 365.44 587.625C365.849 587.86 366.324 587.977 366.866 587.977C367.218 587.977 367.536 587.928 367.82 587.83C368.108 587.727 368.356 587.576 368.565 587.375C368.773 587.17 368.934 586.917 369.048 586.614L370.343 586.977C370.207 587.417 369.978 587.803 369.656 588.136C369.334 588.466 368.936 588.723 368.462 588.909C367.989 589.091 367.457 589.182 366.866 589.182ZM372.701 589V577.364H374.042V581.659H374.156C374.254 581.508 374.39 581.314 374.565 581.08C374.743 580.841 374.997 580.629 375.326 580.443C375.659 580.254 376.11 580.159 376.678 580.159C377.413 580.159 378.061 580.343 378.622 580.71C379.182 581.078 379.62 581.598 379.934 582.273C380.248 582.947 380.406 583.742 380.406 584.659C380.406 585.583 380.248 586.384 379.934 587.062C379.62 587.737 379.184 588.259 378.627 588.631C378.07 588.998 377.428 589.182 376.701 589.182C376.14 589.182 375.692 589.089 375.354 588.903C375.017 588.714 374.758 588.5 374.576 588.261C374.394 588.019 374.254 587.818 374.156 587.659H373.997V589H372.701ZM374.019 584.636C374.019 585.295 374.116 585.877 374.309 586.381C374.502 586.881 374.784 587.273 375.156 587.557C375.527 587.837 375.981 587.977 376.519 587.977C377.08 587.977 377.548 587.83 377.923 587.534C378.301 587.235 378.586 586.833 378.775 586.33C378.968 585.822 379.065 585.258 379.065 584.636C379.065 584.023 378.97 583.47 378.781 582.977C378.595 582.481 378.313 582.089 377.934 581.801C377.559 581.509 377.087 581.364 376.519 581.364C375.974 581.364 375.515 581.502 375.144 581.778C374.773 582.051 374.493 582.434 374.303 582.926C374.114 583.415 374.019 583.985 374.019 584.636ZM388.639 582.227L387.434 582.568C387.358 582.367 387.247 582.172 387.099 581.983C386.955 581.79 386.758 581.631 386.508 581.506C386.258 581.381 385.938 581.318 385.548 581.318C385.014 581.318 384.569 581.441 384.212 581.688C383.86 581.93 383.684 582.239 383.684 582.614C383.684 582.947 383.805 583.21 384.048 583.403C384.29 583.597 384.669 583.758 385.184 583.886L386.479 584.205C387.26 584.394 387.841 584.684 388.224 585.074C388.606 585.46 388.798 585.958 388.798 586.568C388.798 587.068 388.654 587.515 388.366 587.909C388.082 588.303 387.684 588.614 387.173 588.841C386.661 589.068 386.067 589.182 385.389 589.182C384.498 589.182 383.762 588.989 383.178 588.602C382.595 588.216 382.226 587.652 382.07 586.909L383.343 586.591C383.464 587.061 383.694 587.413 384.031 587.648C384.372 587.883 384.817 588 385.366 588C385.991 588 386.487 587.867 386.854 587.602C387.226 587.333 387.411 587.011 387.411 586.636C387.411 586.333 387.305 586.08 387.093 585.875C386.881 585.667 386.555 585.511 386.116 585.409L384.661 585.068C383.862 584.879 383.275 584.585 382.9 584.188C382.529 583.786 382.343 583.284 382.343 582.682C382.343 582.189 382.481 581.754 382.758 581.375C383.038 580.996 383.419 580.699 383.9 580.483C384.385 580.267 384.934 580.159 385.548 580.159C386.411 580.159 387.089 580.348 387.582 580.727C388.078 581.106 388.43 581.606 388.639 582.227ZM390.816 589V580.273H392.157V589H390.816ZM391.498 578.818C391.237 578.818 391.011 578.729 390.822 578.551C390.636 578.373 390.543 578.159 390.543 577.909C390.543 577.659 390.636 577.445 390.822 577.267C391.011 577.089 391.237 577 391.498 577C391.759 577 391.983 577.089 392.168 577.267C392.358 577.445 392.453 577.659 392.453 577.909C392.453 578.159 392.358 578.373 392.168 578.551C391.983 578.729 391.759 578.818 391.498 578.818ZM398.408 580.273V581.409H393.886V580.273H398.408ZM395.204 578.182H396.545V586.5C396.545 586.879 396.6 587.163 396.71 587.352C396.823 587.538 396.967 587.663 397.141 587.727C397.319 587.788 397.507 587.818 397.704 587.818C397.852 587.818 397.973 587.811 398.068 587.795C398.162 587.777 398.238 587.761 398.295 587.75L398.568 588.955C398.477 588.989 398.35 589.023 398.187 589.057C398.024 589.095 397.818 589.114 397.568 589.114C397.189 589.114 396.818 589.032 396.454 588.869C396.094 588.706 395.795 588.458 395.556 588.125C395.321 587.792 395.204 587.371 395.204 586.864V578.182ZM403.991 589.182C403.15 589.182 402.425 588.996 401.815 588.625C401.209 588.25 400.741 587.727 400.411 587.057C400.086 586.383 399.923 585.598 399.923 584.705C399.923 583.811 400.086 583.023 400.411 582.341C400.741 581.655 401.199 581.121 401.786 580.739C402.377 580.352 403.067 580.159 403.854 580.159C404.309 580.159 404.758 580.235 405.201 580.386C405.644 580.538 406.048 580.784 406.411 581.125C406.775 581.462 407.065 581.909 407.281 582.466C407.497 583.023 407.604 583.708 407.604 584.523V585.091H400.877V583.932H406.241C406.241 583.439 406.142 583 405.945 582.614C405.752 582.227 405.476 581.922 405.116 581.699C404.76 581.475 404.339 581.364 403.854 581.364C403.32 581.364 402.858 581.496 402.468 581.761C402.082 582.023 401.784 582.364 401.576 582.784C401.368 583.205 401.264 583.655 401.264 584.136V584.909C401.264 585.568 401.377 586.127 401.604 586.585C401.836 587.04 402.156 587.386 402.565 587.625C402.974 587.86 403.449 587.977 403.991 587.977C404.343 587.977 404.661 587.928 404.945 587.83C405.233 587.727 405.481 587.576 405.69 587.375C405.898 587.17 406.059 586.917 406.173 586.614L407.468 586.977C407.332 587.417 407.103 587.803 406.781 588.136C406.459 588.466 406.061 588.723 405.587 588.909C405.114 589.091 404.582 589.182 403.991 589.182ZM410.622 589.091C410.341 589.091 410.101 588.991 409.9 588.79C409.699 588.589 409.599 588.348 409.599 588.068C409.599 587.788 409.699 587.547 409.9 587.347C410.101 587.146 410.341 587.045 410.622 587.045C410.902 587.045 411.142 587.146 411.343 587.347C411.544 587.547 411.644 587.788 411.644 588.068C411.644 588.254 411.597 588.424 411.502 588.58C411.411 588.735 411.288 588.86 411.133 588.955C410.981 589.045 410.811 589.091 410.622 589.091Z" fill="#5A5A5A"/>
<rect x="45.5107" y="611.5" width="99" height="47" rx="13.5" fill="white"/>
<rect x="45.5107" y="611.5" width="99" height="47" rx="13.5" stroke="#D0D0D0"/>
<path d="M62.2892 640.5V628.864H66.4369C67.3384 628.864 68.0865 629.019 68.6812 629.33C69.2797 629.64 69.7267 630.07 70.0221 630.619C70.3176 631.165 70.4653 631.795 70.4653 632.511C70.4653 633.223 70.3157 633.85 70.0164 634.392C69.721 634.93 69.274 635.348 68.6755 635.648C68.0808 635.947 67.3327 636.097 66.4312 636.097H63.2892V634.585H66.2721C66.8403 634.585 67.3024 634.504 67.6585 634.341C68.0183 634.178 68.2816 633.941 68.4482 633.631C68.6149 633.32 68.6982 632.947 68.6982 632.511C68.6982 632.072 68.613 631.691 68.4426 631.369C68.2759 631.047 68.0126 630.801 67.6528 630.631C67.2967 630.456 66.8289 630.369 66.2494 630.369H64.0448V640.5H62.2892ZM68.0335 635.25L70.9085 640.5H68.9085L66.0903 635.25H68.0335ZM75.7973 640.676C74.9374 640.676 74.1969 640.492 73.5757 640.125C72.9583 639.754 72.481 639.233 72.1439 638.562C71.8105 637.888 71.6439 637.098 71.6439 636.193C71.6439 635.299 71.8105 634.511 72.1439 633.83C72.481 633.148 72.9507 632.616 73.553 632.233C74.159 631.85 74.8674 631.659 75.678 631.659C76.1704 631.659 76.6477 631.741 77.1098 631.903C77.5719 632.066 77.9867 632.322 78.3541 632.67C78.7215 633.019 79.0113 633.472 79.2234 634.028C79.4355 634.581 79.5416 635.254 79.5416 636.045V636.648H72.6041V635.375H77.8768C77.8768 634.928 77.7859 634.532 77.6041 634.188C77.4223 633.839 77.1666 633.564 76.837 633.364C76.5113 633.163 76.1287 633.062 75.6893 633.062C75.212 633.062 74.7954 633.18 74.4393 633.415C74.087 633.646 73.8143 633.949 73.6211 634.324C73.4317 634.695 73.337 635.098 73.337 635.534V636.528C73.337 637.112 73.4393 637.608 73.6439 638.017C73.8522 638.426 74.142 638.739 74.5132 638.955C74.8844 639.167 75.3181 639.273 75.8143 639.273C76.1363 639.273 76.4299 639.227 76.695 639.136C76.9602 639.042 77.1893 638.902 77.3825 638.716C77.5757 638.53 77.7234 638.301 77.8257 638.028L79.4336 638.318C79.3049 638.792 79.0738 639.206 78.7405 639.562C78.4109 639.915 77.9961 640.189 77.4961 640.386C76.9999 640.58 76.4336 640.676 75.7973 640.676ZM83.6463 640.693C83.0933 640.693 82.5933 640.591 82.1463 640.386C81.6993 640.178 81.3452 639.877 81.0838 639.483C80.8262 639.089 80.6974 638.606 80.6974 638.034C80.6974 637.542 80.7921 637.136 80.9815 636.818C81.1709 636.5 81.4266 636.248 81.7486 636.062C82.0706 635.877 82.4304 635.737 82.8281 635.642C83.2259 635.547 83.6312 635.475 84.044 635.426C84.5668 635.366 84.991 635.316 85.3168 635.278C85.6425 635.237 85.8793 635.17 86.027 635.08C86.1747 634.989 86.2486 634.841 86.2486 634.636V634.597C86.2486 634.1 86.1084 633.716 85.8281 633.443C85.5516 633.17 85.1387 633.034 84.5895 633.034C84.0175 633.034 83.5668 633.161 83.2372 633.415C82.9115 633.665 82.6861 633.943 82.5611 634.25L80.9645 633.886C81.1539 633.356 81.4304 632.928 81.794 632.602C82.1615 632.273 82.5838 632.034 83.0611 631.886C83.5384 631.735 84.0403 631.659 84.5668 631.659C84.9153 631.659 85.2846 631.701 85.6747 631.784C86.0687 631.864 86.4361 632.011 86.777 632.227C87.1217 632.443 87.4039 632.752 87.6236 633.153C87.8433 633.551 87.9531 634.068 87.9531 634.705V640.5H86.294V639.307H86.2259C86.116 639.527 85.9512 639.742 85.7315 639.955C85.5118 640.167 85.2296 640.343 84.8849 640.483C84.5403 640.623 84.1274 640.693 83.6463 640.693ZM84.0156 639.33C84.4853 639.33 84.8868 639.237 85.2202 639.051C85.5573 638.866 85.813 638.623 85.9872 638.324C86.1653 638.021 86.2543 637.697 86.2543 637.352V636.227C86.1937 636.288 86.0762 636.345 85.902 636.398C85.7315 636.447 85.5365 636.491 85.3168 636.528C85.0971 636.562 84.8831 636.595 84.6747 636.625C84.4664 636.652 84.2921 636.674 84.152 636.693C83.8224 636.735 83.5213 636.805 83.2486 636.903C82.9796 637.002 82.7637 637.144 82.6009 637.33C82.4418 637.511 82.3622 637.754 82.3622 638.057C82.3622 638.477 82.5175 638.795 82.8281 639.011C83.1387 639.223 83.5346 639.33 84.0156 639.33ZM93.163 640.67C92.4584 640.67 91.8296 640.491 91.2766 640.131C90.7274 639.767 90.2955 639.25 89.9811 638.58C89.6705 637.905 89.5152 637.097 89.5152 636.153C89.5152 635.21 89.6724 634.403 89.9868 633.733C90.305 633.062 90.7406 632.549 91.2936 632.193C91.8467 631.837 92.4736 631.659 93.1743 631.659C93.716 631.659 94.1516 631.75 94.4811 631.932C94.8145 632.11 95.0721 632.318 95.2539 632.557C95.4395 632.795 95.5834 633.006 95.6857 633.188H95.788V628.864H97.4868V640.5H95.8277V639.142H95.6857C95.5834 639.328 95.4357 639.54 95.2425 639.778C95.0531 640.017 94.7917 640.225 94.4584 640.403C94.1251 640.581 93.6933 640.67 93.163 640.67ZM93.538 639.222C94.0266 639.222 94.4395 639.093 94.7766 638.835C95.1175 638.574 95.3751 638.212 95.5493 637.75C95.7274 637.288 95.8164 636.75 95.8164 636.136C95.8164 635.53 95.7292 635 95.555 634.545C95.3808 634.091 95.1251 633.737 94.788 633.483C94.4508 633.229 94.0342 633.102 93.538 633.102C93.0266 633.102 92.6005 633.235 92.2596 633.5C91.9186 633.765 91.6611 634.127 91.4868 634.585C91.3164 635.044 91.2311 635.561 91.2311 636.136C91.2311 636.72 91.3183 637.244 91.4925 637.71C91.6667 638.176 91.9243 638.545 92.2652 638.818C92.6099 639.087 93.0342 639.222 93.538 639.222Z" fill="black"/>
<path d="M118.177 628.8C118.386 628.8 118.587 628.885 118.733 629.036L123.982 634.436H123.983C124.056 634.51 124.112 634.599 124.151 634.695C124.19 634.792 124.211 634.896 124.211 635C124.211 635.104 124.19 635.208 124.151 635.305C124.112 635.401 124.056 635.49 123.983 635.564L118.733 640.964C118.587 641.115 118.386 641.2 118.177 641.2C117.967 641.2 117.767 641.114 117.621 640.964C117.475 640.813 117.394 640.61 117.394 640.399C117.394 640.189 117.475 639.986 117.621 639.836L121.547 635.8H110.594C110.384 635.8 110.184 635.714 110.038 635.563C109.892 635.413 109.811 635.21 109.811 635C109.811 634.79 109.892 634.587 110.038 634.437C110.184 634.286 110.384 634.2 110.594 634.2H121.547L117.621 630.164C117.475 630.014 117.394 629.811 117.394 629.601C117.394 629.39 117.475 629.187 117.621 629.036C117.767 628.886 117.967 628.8 118.177 628.8Z" fill="black" stroke="black" stroke-width="0.4"/>
</g>
<defs>
<filter id="filter0_d_186_765" x="0" y="0" width="609.021" height="704" filterUnits="userSpaceOnUse" color-interpolation-filters="sRGB">
<feFlood flood-opacity="0" result="BackgroundImageFix"/>
<feColorMatrix in="SourceAlpha" type="matrix" values="0 0 0 0 0 0 0 0 0 0 0 0 0 0 0 0 0 0 127 0" result="hardAlpha"/>
<feOffset dy="4"/>
<feGaussianBlur stdDeviation="2"/>
<feComposite in2="hardAlpha" operator="out"/>
<feColorMatrix type="matrix" values="0 0 0 0 0 0 0 0 0 0 0 0 0 0 0 0 0 0 0.25 0"/>
<feBlend mode="normal" in2="BackgroundImageFix" result="effect1_dropShadow_186_765"/>
<feBlend mode="normal" in="SourceGraphic" in2="effect1_dropShadow_186_765" result="shape"/>
</filter>
</defs>
</svg>
