<?xml version='1.0' encoding='utf-8'?>
<svg xmlns:ns0="http://www.w3.org/2000/svg" width="1260" height="150" viewBox="0 0 1260 150" fill="none" xmlns="http://www.w3.org/2000/svg"><ns0:path d="M321.924 48H315.174V17.85H340.689V23.925H321.924V30.72H340.014V36.75H321.924V48ZM350.313 48H343.563V25.455H349.818V31.44H350.223C350.853 27.795 353.238 25.005 357.783 25.005C362.823 25.005 364.893 28.47 364.893 32.88V36.615H358.143V34.275C358.143 31.8 357.153 30.72 354.408 30.72C351.393 30.72 350.313 32.115 350.313 34.95V48ZM379.307 48.45C371.792 48.45 366.662 44.76 366.662 36.75C366.662 29.55 371.747 25.005 379.172 25.005C386.552 25.005 391.457 28.875 391.457 35.94C391.457 36.75 391.367 37.335 391.277 38.1H372.917C373.097 41.565 374.717 43.05 379.082 43.05C383.087 43.05 384.482 42.015 384.482 40.08V39.63H391.232V40.125C391.232 45.03 386.462 48.45 379.307 48.45ZM379.037 30.27C375.032 30.27 373.322 31.62 373.007 34.545H384.977C384.797 31.575 382.997 30.27 379.037 30.27ZM404.085 48.45C397.335 48.45 393.51 43.905 393.51 36.75C393.51 29.595 397.38 25.005 404.31 25.005C409.62 25.005 412.5 27.3 413.31 31.62H413.76V25.455H420.06V55.65H413.31V41.925H412.95C412.185 45.885 409.305 48.45 404.085 48.45ZM400.35 36.75C400.35 40.845 402.375 42.285 406.695 42.285C410.97 42.285 413.31 40.935 413.31 37.065V36.705C413.31 32.7 411.015 31.215 406.695 31.215C402.375 31.215 400.35 32.61 400.35 36.75ZM432.946 48.45C426.601 48.45 423.586 44.535 423.586 39.495V25.455H430.336V37.245C430.336 40.89 431.866 42.42 436.141 42.42C440.551 42.42 442.126 40.71 442.126 36.885V25.455H448.876V48H442.576V41.115H442.216C441.631 44.895 438.886 48.45 432.946 48.45ZM464.297 48.45C456.782 48.45 451.652 44.76 451.652 36.75C451.652 29.55 456.737 25.005 464.162 25.005C471.542 25.005 476.447 28.875 476.447 35.94C476.447 36.75 476.357 37.335 476.267 38.1H457.907C458.087 41.565 459.707 43.05 464.072 43.05C468.077 43.05 469.472 42.015 469.472 40.08V39.63H476.222V40.125C476.222 45.03 471.452 48.45 464.297 48.45ZM464.027 30.27C460.022 30.27 458.312 31.62 457.997 34.545H469.967C469.787 31.575 467.987 30.27 464.027 30.27ZM486.06 48H479.31V25.455H485.565V32.385H485.97C486.555 28.605 489.255 25.005 495.15 25.005C501.315 25.005 504.24 28.965 504.24 33.96V48H497.49V36.21C497.49 32.61 496.005 31.08 491.865 31.08C487.59 31.08 486.06 32.79 486.06 36.615V48ZM523.539 48H517.959C512.694 48 509.499 45.525 509.499 39.855V31.035H505.944V25.455H509.499V21.09H516.249V25.455H523.539V31.035H516.249V39.09C516.249 41.34 517.104 41.925 519.489 41.925H523.539V48ZM532.818 48H526.068V17.85H532.818V48ZM540.671 55.65H536.981V49.53H542.516C544.181 49.53 544.901 49.08 545.351 48.09L534.326 25.455H541.976L546.746 35.76L548.636 41.07H549.086L550.886 35.715L555.161 25.455H562.676L551.516 49.62C549.356 54.345 546.341 55.65 540.671 55.65ZM576.778 48H569.218L582.403 17.85H592.033L605.308 48H597.568L594.733 41.34H579.658L576.778 48ZM585.103 28.695L582.268 35.265H592.123L589.288 28.695L587.443 24.015H586.948L585.103 28.695ZM618.268 48.45C610.663 48.45 606.478 45.48 606.478 40.26V40.125H613.228V40.53C613.228 42.555 614.488 43.095 618.313 43.095C621.913 43.095 622.768 42.51 622.768 41.16C622.768 39.9 622.093 39.54 619.438 39.18L613.093 38.415C608.593 37.92 606.073 35.895 606.073 32.115C606.073 28.155 609.448 25.005 617.188 25.005C624.568 25.005 628.753 27.795 628.753 33.285V33.42H622.003V33.15C622.003 31.305 621.103 30.36 616.963 30.36C613.588 30.36 612.733 30.945 612.733 32.385C612.733 33.555 613.363 34.05 616.333 34.41L621.148 34.995C627.178 35.67 629.428 37.695 629.428 41.43C629.428 45.66 625.243 48.45 618.268 48.45ZM638.902 48H632.152V17.85H638.902V33.825H644.032L649.792 25.455H657.802L649.567 36.345L657.667 48H649.702L644.077 39.855H638.902V48ZM671.412 48.45C663.897 48.45 658.767 44.76 658.767 36.75C658.767 29.55 663.852 25.005 671.277 25.005C678.657 25.005 683.562 28.875 683.562 35.94C683.562 36.75 683.472 37.335 683.382 38.1H665.022C665.202 41.565 666.822 43.05 671.187 43.05C675.192 43.05 676.587 42.015 676.587 40.08V39.63H683.337V40.125C683.337 45.03 678.567 48.45 671.412 48.45ZM671.142 30.27C667.137 30.27 665.427 31.62 665.112 34.545H677.082C676.902 31.575 675.102 30.27 671.142 30.27ZM696.504 48.45C689.484 48.45 685.614 43.86 685.614 36.75C685.614 29.55 689.439 25.005 696.144 25.005C701.499 25.005 704.244 27.66 705.009 31.44H705.414V17.85H712.164V48H705.864V41.745H705.504C704.649 46.2 701.679 48.45 696.504 48.45ZM692.454 36.75C692.454 40.845 694.479 42.285 698.799 42.285C703.074 42.285 705.414 40.8 705.414 36.885V36.525C705.414 32.61 703.119 31.17 698.799 31.17C694.479 31.17 692.454 32.61 692.454 36.75ZM750.309 54.345H741.534L736.854 48.405C727.629 47.865 722.004 41.88 722.004 32.925C722.004 23.52 728.214 17.4 738.204 17.4C748.419 17.4 754.584 23.52 754.584 32.925C754.584 40.26 750.849 45.615 744.324 47.595L750.309 54.345ZM738.204 41.97C744.819 41.97 747.384 39.63 747.384 32.925C747.384 26.22 744.819 23.88 738.204 23.88C731.589 23.88 729.159 26.22 729.159 32.925C729.159 39.63 731.589 41.97 738.204 41.97ZM766.843 48.45C760.498 48.45 757.483 44.535 757.483 39.495V25.455H764.233V37.245C764.233 40.89 765.763 42.42 770.038 42.42C774.448 42.42 776.023 40.71 776.023 36.885V25.455H782.773V48H776.473V41.115H776.113C775.528 44.895 772.783 48.45 766.843 48.45ZM798.194 48.45C790.679 48.45 785.549 44.76 785.549 36.75C785.549 29.55 790.634 25.005 798.059 25.005C805.439 25.005 810.344 28.875 810.344 35.94C810.344 36.75 810.254 37.335 810.164 38.1H791.804C791.984 41.565 793.604 43.05 797.969 43.05C801.974 43.05 803.369 42.015 803.369 40.08V39.63H810.119V40.125C810.119 45.03 805.349 48.45 798.194 48.45ZM797.924 30.27C793.919 30.27 792.209 31.62 791.894 34.545H803.864C803.684 31.575 801.884 30.27 797.924 30.27ZM824.591 48.45C816.986 48.45 812.801 45.48 812.801 40.26V40.125H819.551V40.53C819.551 42.555 820.811 43.095 824.636 43.095C828.236 43.095 829.091 42.51 829.091 41.16C829.091 39.9 828.416 39.54 825.761 39.18L819.416 38.415C814.916 37.92 812.396 35.895 812.396 32.115C812.396 28.155 815.771 25.005 823.511 25.005C830.891 25.005 835.076 27.795 835.076 33.285V33.42H828.326V33.15C828.326 31.305 827.426 30.36 823.286 30.36C819.911 30.36 819.056 30.945 819.056 32.385C819.056 33.555 819.686 34.05 822.656 34.41L827.471 34.995C833.501 35.67 835.751 37.695 835.751 41.43C835.751 45.66 831.566 48.45 824.591 48.45ZM854.36 48H848.78C843.515 48 840.32 45.525 840.32 39.855V31.035H836.765V25.455H840.32V21.09H847.07V25.455H854.36V31.035H847.07V39.09C847.07 41.34 847.925 41.925 850.31 41.925H854.36V48ZM863.638 23.16H856.888V17.85H863.638V23.16ZM863.638 48H856.888V25.455H863.638V48ZM879.186 48.45C871.491 48.45 866.316 43.86 866.316 36.75C866.316 29.55 871.491 25.005 879.186 25.005C886.881 25.005 892.056 29.55 892.056 36.75C892.056 43.86 886.881 48.45 879.186 48.45ZM879.186 42.465C883.731 42.465 885.351 40.71 885.351 36.75C885.351 32.79 883.731 30.945 879.186 30.945C874.596 30.945 873.021 32.79 873.021 36.75C873.021 40.71 874.596 42.465 879.186 42.465ZM901.563 48H894.813V25.455H901.068V32.385H901.473C902.058 28.605 904.758 25.005 910.653 25.005C916.818 25.005 919.743 28.965 919.743 33.96V48H912.993V36.21C912.993 32.61 911.508 31.08 907.368 31.08C903.093 31.08 901.563 32.79 901.563 36.615V48ZM934.542 48.45C926.937 48.45 922.752 45.48 922.752 40.26V40.125H929.502V40.53C929.502 42.555 930.762 43.095 934.587 43.095C938.187 43.095 939.042 42.51 939.042 41.16C939.042 39.9 938.367 39.54 935.712 39.18L929.367 38.415C924.867 37.92 922.347 35.895 922.347 32.115C922.347 28.155 925.722 25.005 933.462 25.005C940.842 25.005 945.027 27.795 945.027 33.285V33.42H938.277V33.15C938.277 31.305 937.377 30.36 933.237 30.36C929.862 30.36 929.007 30.945 929.007 32.385C929.007 33.555 929.637 34.05 932.607 34.41L937.422 34.995C943.452 35.67 945.702 37.695 945.702 41.43C945.702 45.66 941.517 48.45 934.542 48.45Z" fill="white" />
<ns0:path d="M386.752 114V99.4545H395.473V101.017H388.513V105.932H394.82V107.494H388.513V114H386.752ZM398.263 114V103.091H399.939V114H398.263ZM399.115 101.273C398.788 101.273 398.506 101.161 398.27 100.939C398.038 100.716 397.922 100.449 397.922 100.136C397.922 99.8239 398.038 99.5563 398.27 99.3338C398.506 99.1113 398.788 99 399.115 99C399.442 99 399.721 99.1113 399.953 99.3338C400.19 99.5563 400.308 99.8239 400.308 100.136C400.308 100.449 400.19 100.716 399.953 100.939C399.721 101.161 399.442 101.273 399.115 101.273ZM404.685 107.438V114H403.009V103.091H404.628V104.795H404.77C405.026 104.241 405.414 103.796 405.935 103.46C406.456 103.119 407.128 102.949 407.952 102.949C408.691 102.949 409.337 103.1 409.891 103.403C410.445 103.702 410.876 104.156 411.183 104.767C411.491 105.373 411.645 106.14 411.645 107.068V114H409.969V107.182C409.969 106.325 409.746 105.657 409.301 105.179C408.856 104.696 408.245 104.455 407.469 104.455C406.934 104.455 406.456 104.571 406.034 104.803C405.618 105.035 405.289 105.373 405.047 105.818C404.806 106.263 404.685 106.803 404.685 107.438ZM418.827 114.227C417.918 114.227 417.116 113.998 416.42 113.538C415.724 113.074 415.179 112.421 414.786 111.578C414.393 110.731 414.197 109.729 414.197 108.574C414.197 107.428 414.393 106.434 414.786 105.591C415.179 104.748 415.726 104.097 416.427 103.638C417.127 103.179 417.937 102.949 418.856 102.949C419.566 102.949 420.127 103.067 420.539 103.304C420.956 103.536 421.273 103.801 421.491 104.099C421.713 104.393 421.886 104.634 422.009 104.824H422.151V99.4545H423.827V114H422.208V112.324H422.009C421.886 112.523 421.711 112.774 421.483 113.077C421.256 113.375 420.932 113.643 420.51 113.879C420.089 114.111 419.528 114.227 418.827 114.227ZM419.055 112.722C419.727 112.722 420.295 112.546 420.759 112.196C421.223 111.841 421.576 111.351 421.817 110.726C422.059 110.096 422.18 109.369 422.18 108.545C422.18 107.731 422.061 107.018 421.824 106.408C421.588 105.792 421.237 105.314 420.773 104.973C420.309 104.627 419.736 104.455 419.055 104.455C418.344 104.455 417.752 104.637 417.279 105.001C416.81 105.361 416.457 105.851 416.221 106.472C415.989 107.087 415.873 107.778 415.873 108.545C415.873 109.322 415.991 110.027 416.228 110.662C416.469 111.292 416.824 111.794 417.293 112.168C417.767 112.537 418.354 112.722 419.055 112.722ZM435.965 114.256C435.274 114.256 434.646 114.125 434.083 113.865C433.519 113.6 433.072 113.219 432.741 112.722C432.409 112.22 432.243 111.614 432.243 110.903C432.243 110.278 432.367 109.772 432.613 109.384C432.859 108.991 433.188 108.683 433.6 108.46C434.012 108.238 434.466 108.072 434.964 107.963C435.465 107.849 435.97 107.759 436.476 107.693C437.139 107.608 437.677 107.544 438.089 107.501C438.505 107.454 438.808 107.376 438.998 107.267C439.192 107.158 439.289 106.969 439.289 106.699V106.642C439.289 105.941 439.097 105.397 438.714 105.009C438.335 104.62 437.76 104.426 436.988 104.426C436.188 104.426 435.56 104.601 435.106 104.952C434.651 105.302 434.331 105.676 434.147 106.074L432.556 105.506C432.84 104.843 433.219 104.327 433.692 103.957C434.171 103.583 434.691 103.323 435.255 103.176C435.823 103.025 436.382 102.949 436.931 102.949C437.281 102.949 437.684 102.991 438.138 103.077C438.598 103.157 439.04 103.325 439.466 103.581C439.897 103.837 440.255 104.223 440.539 104.739C440.823 105.255 440.965 105.946 440.965 106.812V114H439.289V112.523H439.204C439.09 112.759 438.901 113.013 438.635 113.283C438.37 113.553 438.018 113.782 437.577 113.972C437.137 114.161 436.599 114.256 435.965 114.256ZM436.221 112.75C436.884 112.75 437.442 112.62 437.897 112.359C438.356 112.099 438.702 111.763 438.934 111.351C439.171 110.939 439.289 110.506 439.289 110.051V108.517C439.218 108.602 439.062 108.68 438.82 108.751C438.583 108.818 438.309 108.877 437.996 108.929C437.689 108.976 437.388 109.019 437.094 109.057C436.805 109.09 436.571 109.118 436.391 109.142C435.956 109.199 435.548 109.291 435.17 109.419C434.796 109.542 434.492 109.729 434.26 109.98C434.033 110.226 433.92 110.562 433.92 110.989C433.92 111.571 434.135 112.011 434.566 112.31C435.001 112.603 435.553 112.75 436.221 112.75ZM445.7 107.438V114H444.024V103.091H445.644V104.795H445.786C446.041 104.241 446.43 103.796 446.95 103.46C447.471 103.119 448.144 102.949 448.968 102.949C449.706 102.949 450.352 103.1 450.906 103.403C451.46 103.702 451.891 104.156 452.199 104.767C452.507 105.373 452.661 106.14 452.661 107.068V114H450.985V107.182C450.985 106.325 450.762 105.657 450.317 105.179C449.872 104.696 449.261 104.455 448.485 104.455C447.95 104.455 447.471 104.571 447.05 104.803C446.633 105.035 446.304 105.373 446.063 105.818C445.821 106.263 445.7 106.803 445.7 107.438ZM463.451 105.534L461.945 105.96C461.85 105.709 461.711 105.465 461.526 105.229C461.346 104.987 461.1 104.788 460.787 104.632C460.475 104.476 460.075 104.398 459.587 104.398C458.92 104.398 458.363 104.552 457.918 104.859C457.478 105.162 457.258 105.548 457.258 106.017C457.258 106.434 457.409 106.763 457.712 107.004C458.015 107.246 458.489 107.447 459.133 107.608L460.752 108.006C461.727 108.242 462.454 108.605 462.932 109.092C463.411 109.575 463.65 110.198 463.65 110.96C463.65 111.585 463.47 112.144 463.11 112.636C462.755 113.129 462.258 113.517 461.618 113.801C460.979 114.085 460.236 114.227 459.388 114.227C458.276 114.227 457.355 113.986 456.626 113.503C455.896 113.02 455.435 112.314 455.241 111.386L456.831 110.989C456.983 111.576 457.269 112.016 457.691 112.31C458.117 112.603 458.673 112.75 459.36 112.75C460.141 112.75 460.761 112.584 461.221 112.253C461.685 111.917 461.917 111.514 461.917 111.045C461.917 110.667 461.784 110.349 461.519 110.094C461.254 109.833 460.847 109.639 460.297 109.511L458.479 109.085C457.48 108.848 456.746 108.482 456.278 107.984C455.814 107.482 455.581 106.855 455.581 106.102C455.581 105.487 455.754 104.942 456.1 104.469C456.45 103.995 456.926 103.624 457.528 103.354C458.134 103.084 458.82 102.949 459.587 102.949C460.667 102.949 461.514 103.186 462.13 103.659C462.75 104.133 463.19 104.758 463.451 105.534ZM468.644 114L465.32 103.091H467.082L469.44 111.443H469.553L471.883 103.091H473.673L475.974 111.415H476.088L478.445 103.091H480.207L476.883 114H475.235L472.849 105.619H472.678L470.292 114H468.644ZM486.626 114.227C485.574 114.227 484.668 113.995 483.905 113.531C483.148 113.062 482.563 112.409 482.151 111.571C481.744 110.728 481.54 109.748 481.54 108.631C481.54 107.513 481.744 106.528 482.151 105.676C482.563 104.819 483.136 104.152 483.87 103.673C484.608 103.19 485.47 102.949 486.455 102.949C487.023 102.949 487.584 103.044 488.138 103.233C488.692 103.422 489.197 103.73 489.651 104.156C490.106 104.578 490.468 105.136 490.738 105.832C491.008 106.528 491.143 107.385 491.143 108.403V109.114H482.733V107.665H489.438C489.438 107.049 489.315 106.5 489.069 106.017C488.827 105.534 488.482 105.153 488.032 104.874C487.587 104.594 487.061 104.455 486.455 104.455C485.787 104.455 485.21 104.62 484.722 104.952C484.239 105.278 483.867 105.705 483.607 106.23C483.347 106.756 483.216 107.319 483.216 107.92V108.886C483.216 109.71 483.358 110.409 483.643 110.982C483.931 111.55 484.331 111.983 484.843 112.281C485.354 112.575 485.948 112.722 486.626 112.722C487.066 112.722 487.464 112.66 487.819 112.537C488.179 112.409 488.489 112.22 488.749 111.969C489.01 111.713 489.211 111.396 489.353 111.017L490.972 111.472C490.802 112.021 490.515 112.504 490.113 112.92C489.71 113.332 489.213 113.654 488.621 113.886C488.029 114.114 487.364 114.227 486.626 114.227ZM493.692 114V103.091H495.312V104.739H495.425C495.624 104.199 495.984 103.761 496.505 103.425C497.026 103.089 497.613 102.92 498.266 102.92C498.389 102.92 498.543 102.923 498.728 102.928C498.912 102.932 499.052 102.939 499.147 102.949V104.653C499.09 104.639 498.96 104.618 498.756 104.589C498.557 104.556 498.347 104.54 498.124 104.54C497.594 104.54 497.12 104.651 496.704 104.874C496.292 105.091 495.965 105.394 495.724 105.783C495.487 106.166 495.368 106.604 495.368 107.097V114H493.692ZM508.861 105.534L507.355 105.96C507.261 105.709 507.121 105.465 506.936 105.229C506.756 104.987 506.51 104.788 506.198 104.632C505.885 104.476 505.485 104.398 504.997 104.398C504.33 104.398 503.773 104.552 503.328 104.859C502.888 105.162 502.668 105.548 502.668 106.017C502.668 106.434 502.819 106.763 503.122 107.004C503.425 107.246 503.899 107.447 504.543 107.608L506.162 108.006C507.137 108.242 507.864 108.605 508.343 109.092C508.821 109.575 509.06 110.198 509.06 110.96C509.06 111.585 508.88 112.144 508.52 112.636C508.165 113.129 507.668 113.517 507.029 113.801C506.389 114.085 505.646 114.227 504.798 114.227C503.686 114.227 502.765 113.986 502.036 113.503C501.307 113.02 500.845 112.314 500.651 111.386L502.242 110.989C502.393 111.576 502.68 112.016 503.101 112.31C503.527 112.603 504.084 112.75 504.77 112.75C505.551 112.75 506.172 112.584 506.631 112.253C507.095 111.917 507.327 111.514 507.327 111.045C507.327 110.667 507.194 110.349 506.929 110.094C506.664 109.833 506.257 109.639 505.708 109.511L503.889 109.085C502.89 108.848 502.156 108.482 501.688 107.984C501.224 107.482 500.992 106.855 500.992 106.102C500.992 105.487 501.164 104.942 501.51 104.469C501.86 103.995 502.336 103.624 502.938 103.354C503.544 103.084 504.23 102.949 504.997 102.949C506.077 102.949 506.924 103.186 507.54 103.659C508.16 104.133 508.601 104.758 508.861 105.534ZM521.952 103.091V104.511H516.299V103.091H521.952ZM517.947 100.477H519.623V110.875C519.623 111.348 519.691 111.704 519.829 111.94C519.971 112.172 520.151 112.329 520.368 112.409C520.591 112.485 520.825 112.523 521.072 112.523C521.256 112.523 521.408 112.513 521.526 112.494C521.644 112.471 521.739 112.452 521.81 112.438L522.151 113.943C522.037 113.986 521.879 114.028 521.675 114.071C521.472 114.118 521.214 114.142 520.901 114.142C520.428 114.142 519.964 114.04 519.509 113.837C519.059 113.633 518.685 113.323 518.387 112.906C518.093 112.49 517.947 111.964 517.947 111.33V100.477ZM528.788 114.227C527.803 114.227 526.939 113.993 526.196 113.524C525.457 113.055 524.88 112.4 524.463 111.557C524.051 110.714 523.845 109.729 523.845 108.602C523.845 107.466 524.051 106.474 524.463 105.626C524.88 104.779 525.457 104.121 526.196 103.652C526.939 103.183 527.803 102.949 528.788 102.949C529.773 102.949 530.635 103.183 531.373 103.652C532.117 104.121 532.694 104.779 533.106 105.626C533.523 106.474 533.731 107.466 533.731 108.602C533.731 109.729 533.523 110.714 533.106 111.557C532.694 112.4 532.117 113.055 531.373 113.524C530.635 113.993 529.773 114.227 528.788 114.227ZM528.788 112.722C529.536 112.722 530.152 112.53 530.635 112.146C531.118 111.763 531.475 111.259 531.707 110.634C531.939 110.009 532.055 109.331 532.055 108.602C532.055 107.873 531.939 107.194 531.707 106.564C531.475 105.934 531.118 105.425 530.635 105.037C530.152 104.649 529.536 104.455 528.788 104.455C528.04 104.455 527.425 104.649 526.942 105.037C526.459 105.425 526.101 105.934 525.869 106.564C525.637 107.194 525.521 107.873 525.521 108.602C525.521 109.331 525.637 110.009 525.869 110.634C526.101 111.259 526.459 111.763 526.942 112.146C527.425 112.53 528.04 112.722 528.788 112.722ZM546.659 103.091V104.511H541.006V103.091H546.659ZM542.654 100.477H544.33V110.875C544.33 111.348 544.398 111.704 544.536 111.94C544.678 112.172 544.858 112.329 545.075 112.409C545.298 112.485 545.532 112.523 545.779 112.523C545.963 112.523 546.115 112.513 546.233 112.494C546.352 112.471 546.446 112.452 546.517 112.438L546.858 113.943C546.744 113.986 546.586 114.028 546.382 114.071C546.179 114.118 545.921 114.142 545.608 114.142C545.135 114.142 544.671 114.04 544.216 113.837C543.766 113.633 543.392 113.323 543.094 112.906C542.8 112.49 542.654 111.964 542.654 111.33V100.477ZM551.091 107.438V114H549.415V99.4545H551.091V104.795H551.233C551.489 104.232 551.872 103.785 552.384 103.453C552.9 103.117 553.586 102.949 554.443 102.949C555.187 102.949 555.838 103.098 556.396 103.396C556.955 103.69 557.388 104.142 557.696 104.753C558.009 105.359 558.165 106.131 558.165 107.068V114H556.489V107.182C556.489 106.315 556.264 105.645 555.814 105.172C555.369 104.694 554.751 104.455 553.96 104.455C553.411 104.455 552.919 104.571 552.483 104.803C552.052 105.035 551.711 105.373 551.46 105.818C551.214 106.263 551.091 106.803 551.091 107.438ZM565.805 114.227C564.754 114.227 563.847 113.995 563.085 113.531C562.327 113.062 561.743 112.409 561.331 111.571C560.924 110.728 560.72 109.748 560.72 108.631C560.72 107.513 560.924 106.528 561.331 105.676C561.743 104.819 562.316 104.152 563.05 103.673C563.788 103.19 564.65 102.949 565.635 102.949C566.203 102.949 566.764 103.044 567.318 103.233C567.872 103.422 568.376 103.73 568.831 104.156C569.285 104.578 569.648 105.136 569.917 105.832C570.187 106.528 570.322 107.385 570.322 108.403V109.114H561.913V107.665H568.618C568.618 107.049 568.495 106.5 568.248 106.017C568.007 105.534 567.661 105.153 567.211 104.874C566.766 104.594 566.241 104.455 565.635 104.455C564.967 104.455 564.39 104.62 563.902 104.952C563.419 105.278 563.047 105.705 562.787 106.23C562.526 106.756 562.396 107.319 562.396 107.92V108.886C562.396 109.71 562.538 110.409 562.822 110.982C563.111 111.55 563.511 111.983 564.023 112.281C564.534 112.575 565.128 112.722 565.805 112.722C566.246 112.722 566.643 112.66 566.998 112.537C567.358 112.409 567.668 112.22 567.929 111.969C568.189 111.713 568.39 111.396 568.532 111.017L570.152 111.472C569.981 112.021 569.695 112.504 569.292 112.92C568.89 113.332 568.393 113.654 567.801 113.886C567.209 114.114 566.544 114.227 565.805 114.227ZM578.497 114V103.091H580.116V104.795H580.258C580.486 104.213 580.853 103.761 581.359 103.439C581.866 103.112 582.474 102.949 583.184 102.949C583.904 102.949 584.503 103.112 584.981 103.439C585.464 103.761 585.841 104.213 586.111 104.795H586.224C586.504 104.232 586.923 103.785 587.481 103.453C588.04 103.117 588.71 102.949 589.491 102.949C590.467 102.949 591.265 103.254 591.885 103.865C592.505 104.471 592.815 105.416 592.815 106.699V114H591.139V106.699C591.139 105.894 590.919 105.319 590.479 104.973C590.038 104.627 589.52 104.455 588.923 104.455C588.156 104.455 587.562 104.687 587.14 105.151C586.719 105.61 586.508 106.192 586.508 106.898V114H584.804V106.528C584.804 105.908 584.603 105.409 584.2 105.03C583.798 104.646 583.279 104.455 582.645 104.455C582.209 104.455 581.802 104.571 581.423 104.803C581.049 105.035 580.746 105.357 580.514 105.768C580.287 106.176 580.173 106.647 580.173 107.182V114H578.497ZM600.312 114.227C599.327 114.227 598.463 113.993 597.719 113.524C596.981 113.055 596.403 112.4 595.986 111.557C595.574 110.714 595.368 109.729 595.368 108.602C595.368 107.466 595.574 106.474 595.986 105.626C596.403 104.779 596.981 104.121 597.719 103.652C598.463 103.183 599.327 102.949 600.312 102.949C601.296 102.949 602.158 103.183 602.897 103.652C603.64 104.121 604.218 104.779 604.63 105.626C605.046 106.474 605.255 107.466 605.255 108.602C605.255 109.729 605.046 110.714 604.63 111.557C604.218 112.4 603.64 113.055 602.897 113.524C602.158 113.993 601.296 114.227 600.312 114.227ZM600.312 112.722C601.06 112.722 601.675 112.53 602.158 112.146C602.641 111.763 602.999 111.259 603.231 110.634C603.463 110.009 603.579 109.331 603.579 108.602C603.579 107.873 603.463 107.194 603.231 106.564C602.999 105.934 602.641 105.425 602.158 105.037C601.675 104.649 601.06 104.455 600.312 104.455C599.564 104.455 598.948 104.649 598.465 105.037C597.982 105.425 597.625 105.934 597.393 106.564C597.161 107.194 597.045 107.873 597.045 108.602C597.045 109.331 597.161 110.009 597.393 110.634C597.625 111.259 597.982 111.763 598.465 112.146C598.948 112.53 599.564 112.722 600.312 112.722ZM615.541 105.534L614.035 105.96C613.94 105.709 613.801 105.465 613.616 105.229C613.436 104.987 613.19 104.788 612.877 104.632C612.565 104.476 612.165 104.398 611.677 104.398C611.009 104.398 610.453 104.552 610.008 104.859C609.568 105.162 609.347 105.548 609.347 106.017C609.347 106.434 609.499 106.763 609.802 107.004C610.105 107.246 610.579 107.447 611.222 107.608L612.842 108.006C613.817 108.242 614.544 108.605 615.022 109.092C615.5 109.575 615.74 110.198 615.74 110.96C615.74 111.585 615.56 112.144 615.2 112.636C614.845 113.129 614.347 113.517 613.708 113.801C613.069 114.085 612.326 114.227 611.478 114.227C610.365 114.227 609.445 113.986 608.715 113.503C607.986 113.02 607.525 112.314 607.33 111.386L608.921 110.989C609.073 111.576 609.359 112.016 609.781 112.31C610.207 112.603 610.763 112.75 611.45 112.75C612.231 112.75 612.851 112.584 613.311 112.253C613.775 111.917 614.007 111.514 614.007 111.045C614.007 110.667 613.874 110.349 613.609 110.094C613.344 109.833 612.936 109.639 612.387 109.511L610.569 109.085C609.57 108.848 608.836 108.482 608.367 107.984C607.903 107.482 607.671 106.855 607.671 106.102C607.671 105.487 607.844 104.942 608.19 104.469C608.54 103.995 609.016 103.624 609.617 103.354C610.223 103.084 610.91 102.949 611.677 102.949C612.757 102.949 613.604 103.186 614.22 103.659C614.84 104.133 615.28 104.758 615.541 105.534ZM623.007 103.091V104.511H617.354V103.091H623.007ZM619.001 100.477H620.677V110.875C620.677 111.348 620.746 111.704 620.883 111.94C621.025 112.172 621.205 112.329 621.423 112.409C621.646 112.485 621.88 112.523 622.126 112.523C622.311 112.523 622.462 112.513 622.581 112.494C622.699 112.471 622.794 112.452 622.865 112.438L623.206 113.943C623.092 113.986 622.934 114.028 622.73 114.071C622.526 114.118 622.268 114.142 621.956 114.142C621.482 114.142 621.018 114.04 620.564 113.837C620.114 113.633 619.74 113.323 619.442 112.906C619.148 112.49 619.001 111.964 619.001 111.33V100.477ZM635.585 114.227C634.562 114.227 633.682 113.986 632.943 113.503C632.204 113.02 631.636 112.355 631.238 111.507C630.841 110.66 630.642 109.691 630.642 108.602C630.642 107.494 630.845 106.517 631.253 105.669C631.665 104.817 632.238 104.152 632.971 103.673C633.71 103.19 634.572 102.949 635.557 102.949C636.324 102.949 637.015 103.091 637.631 103.375C638.246 103.659 638.75 104.057 639.143 104.568C639.536 105.08 639.78 105.676 639.875 106.358H638.199C638.071 105.861 637.787 105.42 637.346 105.037C636.911 104.649 636.324 104.455 635.585 104.455C634.932 104.455 634.359 104.625 633.866 104.966C633.379 105.302 632.997 105.778 632.723 106.393C632.453 107.004 632.318 107.722 632.318 108.545C632.318 109.388 632.451 110.122 632.716 110.747C632.986 111.372 633.364 111.857 633.852 112.203C634.345 112.549 634.922 112.722 635.585 112.722C636.021 112.722 636.416 112.646 636.771 112.494C637.126 112.343 637.427 112.125 637.673 111.841C637.919 111.557 638.095 111.216 638.199 110.818H639.875C639.78 111.462 639.546 112.042 639.172 112.558C638.802 113.07 638.312 113.477 637.702 113.78C637.095 114.078 636.39 114.227 635.585 114.227ZM646.757 114.227C645.772 114.227 644.908 113.993 644.165 113.524C643.426 113.055 642.848 112.4 642.432 111.557C642.02 110.714 641.814 109.729 641.814 108.602C641.814 107.466 642.02 106.474 642.432 105.626C642.848 104.779 643.426 104.121 644.165 103.652C644.908 103.183 645.772 102.949 646.757 102.949C647.742 102.949 648.604 103.183 649.342 103.652C650.086 104.121 650.663 104.779 651.075 105.626C651.492 106.474 651.7 107.466 651.7 108.602C651.7 109.729 651.492 110.714 651.075 111.557C650.663 112.4 650.086 113.055 649.342 113.524C648.604 113.993 647.742 114.227 646.757 114.227ZM646.757 112.722C647.505 112.722 648.121 112.53 648.604 112.146C649.086 111.763 649.444 111.259 649.676 110.634C649.908 110.009 650.024 109.331 650.024 108.602C650.024 107.873 649.908 107.194 649.676 106.564C649.444 105.934 649.086 105.425 648.604 105.037C648.121 104.649 647.505 104.455 646.757 104.455C646.009 104.455 645.393 104.649 644.91 105.037C644.427 105.425 644.07 105.934 643.838 106.564C643.606 107.194 643.49 107.873 643.49 108.602C643.49 109.331 643.606 110.009 643.838 110.634C644.07 111.259 644.427 111.763 644.91 112.146C645.393 112.53 646.009 112.722 646.757 112.722ZM654.259 114V103.091H655.878V104.795H656.02C656.247 104.213 656.614 103.761 657.121 103.439C657.628 103.112 658.236 102.949 658.946 102.949C659.666 102.949 660.265 103.112 660.743 103.439C661.226 103.761 661.602 104.213 661.872 104.795H661.986C662.265 104.232 662.684 103.785 663.243 103.453C663.802 103.117 664.472 102.949 665.253 102.949C666.228 102.949 667.026 103.254 667.646 103.865C668.267 104.471 668.577 105.416 668.577 106.699V114H666.901V106.699C666.901 105.894 666.681 105.319 666.24 104.973C665.8 104.627 665.281 104.455 664.685 104.455C663.918 104.455 663.324 104.687 662.902 105.151C662.481 105.61 662.27 106.192 662.27 106.898V114H660.566V106.528C660.566 105.908 660.364 105.409 659.962 105.03C659.559 104.646 659.041 104.455 658.406 104.455C657.971 104.455 657.564 104.571 657.185 104.803C656.811 105.035 656.508 105.357 656.276 105.768C656.048 106.176 655.935 106.647 655.935 107.182V114H654.259ZM671.642 114V103.091H673.261V104.795H673.403C673.63 104.213 673.997 103.761 674.504 103.439C675.01 103.112 675.619 102.949 676.329 102.949C677.049 102.949 677.648 103.112 678.126 103.439C678.609 103.761 678.985 104.213 679.255 104.795H679.369C679.648 104.232 680.067 103.785 680.626 103.453C681.185 103.117 681.855 102.949 682.636 102.949C683.611 102.949 684.409 103.254 685.029 103.865C685.65 104.471 685.96 105.416 685.96 106.699V114H684.284V106.699C684.284 105.894 684.063 105.319 683.623 104.973C683.183 104.627 682.664 104.455 682.068 104.455C681.301 104.455 680.706 104.687 680.285 105.151C679.864 105.61 679.653 106.192 679.653 106.898V114H677.948V106.528C677.948 105.908 677.747 105.409 677.345 105.03C676.942 104.646 676.424 104.455 675.789 104.455C675.354 104.455 674.946 104.571 674.568 104.803C674.194 105.035 673.891 105.357 673.659 105.768C673.431 106.176 673.318 106.647 673.318 107.182V114H671.642ZM693.456 114.227C692.471 114.227 691.607 113.993 690.864 113.524C690.125 113.055 689.548 112.4 689.131 111.557C688.719 110.714 688.513 109.729 688.513 108.602C688.513 107.466 688.719 106.474 689.131 105.626C689.548 104.779 690.125 104.121 690.864 103.652C691.607 103.183 692.471 102.949 693.456 102.949C694.441 102.949 695.303 103.183 696.041 103.652C696.785 104.121 697.362 104.779 697.774 105.626C698.191 106.474 698.399 107.466 698.399 108.602C698.399 109.729 698.191 110.714 697.774 111.557C697.362 112.4 696.785 113.055 696.041 113.524C695.303 113.993 694.441 114.227 693.456 114.227ZM693.456 112.722C694.204 112.722 694.82 112.53 695.303 112.146C695.786 111.763 696.143 111.259 696.375 110.634C696.607 110.009 696.723 109.331 696.723 108.602C696.723 107.873 696.607 107.194 696.375 106.564C696.143 105.934 695.786 105.425 695.303 105.037C694.82 104.649 694.204 104.455 693.456 104.455C692.708 104.455 692.093 104.649 691.61 105.037C691.127 105.425 690.769 105.934 690.537 106.564C690.305 107.194 690.189 107.873 690.189 108.602C690.189 109.331 690.305 110.009 690.537 110.634C690.769 111.259 691.127 111.763 691.61 112.146C692.093 112.53 692.708 112.722 693.456 112.722ZM702.634 107.438V114H700.958V103.091H702.577V104.795H702.719C702.975 104.241 703.363 103.796 703.884 103.46C704.405 103.119 705.077 102.949 705.901 102.949C706.64 102.949 707.286 103.1 707.84 103.403C708.394 103.702 708.825 104.156 709.133 104.767C709.44 105.373 709.594 106.14 709.594 107.068V114H707.918V107.182C707.918 106.325 707.696 105.657 707.251 105.179C706.805 104.696 706.195 104.455 705.418 104.455C704.883 104.455 704.405 104.571 703.983 104.803C703.567 105.035 703.238 105.373 702.996 105.818C702.755 106.263 702.634 106.803 702.634 107.438ZM725.725 118.091V112.324H725.583C725.46 112.523 725.285 112.774 725.058 113.077C724.83 113.375 724.506 113.643 724.085 113.879C723.663 114.111 723.102 114.227 722.401 114.227C721.492 114.227 720.69 113.998 719.994 113.538C719.298 113.074 718.753 112.421 718.36 111.578C717.967 110.731 717.771 109.729 717.771 108.574C717.771 107.428 717.967 106.434 718.36 105.591C718.753 104.748 719.3 104.097 720.001 103.638C720.702 103.179 721.511 102.949 722.43 102.949C723.14 102.949 723.701 103.067 724.113 103.304C724.53 103.536 724.847 103.801 725.065 104.099C725.287 104.393 725.46 104.634 725.583 104.824H725.782V103.091H727.401V118.091H725.725ZM722.629 112.722C723.301 112.722 723.869 112.546 724.333 112.196C724.797 111.841 725.15 111.351 725.392 110.726C725.633 110.096 725.754 109.369 725.754 108.545C725.754 107.731 725.635 107.018 725.399 106.408C725.162 105.792 724.811 105.314 724.347 104.973C723.883 104.627 723.311 104.455 722.629 104.455C721.919 104.455 721.327 104.637 720.853 105.001C720.384 105.361 720.032 105.851 719.795 106.472C719.563 107.087 719.447 107.778 719.447 108.545C719.447 109.322 719.565 110.027 719.802 110.662C720.044 111.292 720.399 111.794 720.867 112.168C721.341 112.537 721.928 112.722 722.629 112.722ZM737.345 109.54V103.091H739.021V114H737.345V112.153H737.231C736.975 112.707 736.578 113.179 736.038 113.567C735.498 113.95 734.816 114.142 733.992 114.142C733.311 114.142 732.704 113.993 732.174 113.695C731.644 113.392 731.227 112.937 730.924 112.331C730.621 111.72 730.47 110.951 730.47 110.023V103.091H732.146V109.909C732.146 110.705 732.368 111.339 732.813 111.812C733.263 112.286 733.836 112.523 734.532 112.523C734.949 112.523 735.373 112.416 735.803 112.203C736.239 111.99 736.604 111.663 736.897 111.223C737.195 110.783 737.345 110.222 737.345 109.54ZM746.665 114.227C745.613 114.227 744.707 113.995 743.944 113.531C743.187 113.062 742.602 112.409 742.19 111.571C741.783 110.728 741.579 109.748 741.579 108.631C741.579 107.513 741.783 106.528 742.19 105.676C742.602 104.819 743.175 104.152 743.909 103.673C744.648 103.19 745.509 102.949 746.494 102.949C747.062 102.949 747.623 103.044 748.177 103.233C748.731 103.422 749.236 103.73 749.69 104.156C750.145 104.578 750.507 105.136 750.777 105.832C751.047 106.528 751.182 107.385 751.182 108.403V109.114H742.773V107.665H749.477C749.477 107.049 749.354 106.5 749.108 106.017C748.866 105.534 748.521 105.153 748.071 104.874C747.626 104.594 747.1 104.455 746.494 104.455C745.827 104.455 745.249 104.62 744.761 104.952C744.278 105.278 743.907 105.705 743.646 106.23C743.386 106.756 743.256 107.319 743.256 107.92V108.886C743.256 109.71 743.398 110.409 743.682 110.982C743.97 111.55 744.371 111.983 744.882 112.281C745.393 112.575 745.988 112.722 746.665 112.722C747.105 112.722 747.503 112.66 747.858 112.537C748.218 112.409 748.528 112.22 748.788 111.969C749.049 111.713 749.25 111.396 749.392 111.017L751.011 111.472C750.841 112.021 750.554 112.504 750.152 112.92C749.749 113.332 749.252 113.654 748.66 113.886C748.068 114.114 747.403 114.227 746.665 114.227ZM761.459 105.534L759.953 105.96C759.858 105.709 759.719 105.465 759.534 105.229C759.354 104.987 759.108 104.788 758.795 104.632C758.483 104.476 758.083 104.398 757.595 104.398C756.927 104.398 756.371 104.552 755.926 104.859C755.486 105.162 755.265 105.548 755.265 106.017C755.265 106.434 755.417 106.763 755.72 107.004C756.023 107.246 756.497 107.447 757.14 107.608L758.76 108.006C759.735 108.242 760.462 108.605 760.94 109.092C761.418 109.575 761.657 110.198 761.657 110.96C761.657 111.585 761.478 112.144 761.118 112.636C760.763 113.129 760.265 113.517 759.626 113.801C758.987 114.085 758.244 114.227 757.396 114.227C756.283 114.227 755.363 113.986 754.633 113.503C753.904 113.02 753.443 112.314 753.248 111.386L754.839 110.989C754.991 111.576 755.277 112.016 755.699 112.31C756.125 112.603 756.681 112.75 757.368 112.75C758.149 112.75 758.769 112.584 759.229 112.253C759.693 111.917 759.925 111.514 759.925 111.045C759.925 110.667 759.792 110.349 759.527 110.094C759.262 109.833 758.854 109.639 758.305 109.511L756.487 109.085C755.488 108.848 754.754 108.482 754.285 107.984C753.821 107.482 753.589 106.855 753.589 106.102C753.589 105.487 753.762 104.942 754.108 104.469C754.458 103.995 754.934 103.624 755.535 103.354C756.141 103.084 756.828 102.949 757.595 102.949C758.675 102.949 759.522 103.186 760.138 103.659C760.758 104.133 761.198 104.758 761.459 105.534ZM768.925 103.091V104.511H763.271V103.091H768.925ZM764.919 100.477H766.595V110.875C766.595 111.348 766.664 111.704 766.801 111.94C766.943 112.172 767.123 112.329 767.341 112.409C767.564 112.485 767.798 112.523 768.044 112.523C768.229 112.523 768.38 112.513 768.499 112.494C768.617 112.471 768.712 112.452 768.783 112.438L769.124 113.943C769.01 113.986 768.852 114.028 768.648 114.071C768.444 114.118 768.186 114.142 767.874 114.142C767.4 114.142 766.936 114.04 766.482 113.837C766.032 113.633 765.658 113.323 765.36 112.906C765.066 112.49 764.919 111.964 764.919 111.33V100.477ZM771.446 114V103.091H773.122V114H771.446ZM772.298 101.273C771.972 101.273 771.69 101.161 771.453 100.939C771.221 100.716 771.105 100.449 771.105 100.136C771.105 99.8239 771.221 99.5563 771.453 99.3338C771.69 99.1113 771.972 99 772.298 99C772.625 99 772.905 99.1113 773.137 99.3338C773.373 99.5563 773.492 99.8239 773.492 100.136C773.492 100.449 773.373 100.716 773.137 100.939C772.905 101.161 772.625 101.273 772.298 101.273ZM780.624 114.227C779.639 114.227 778.775 113.993 778.032 113.524C777.293 113.055 776.715 112.4 776.299 111.557C775.887 110.714 775.681 109.729 775.681 108.602C775.681 107.466 775.887 106.474 776.299 105.626C776.715 104.779 777.293 104.121 778.032 103.652C778.775 103.183 779.639 102.949 780.624 102.949C781.609 102.949 782.471 103.183 783.209 103.652C783.953 104.121 784.53 104.779 784.942 105.626C785.359 106.474 785.567 107.466 785.567 108.602C785.567 109.729 785.359 110.714 784.942 111.557C784.53 112.4 783.953 113.055 783.209 113.524C782.471 113.993 781.609 114.227 780.624 114.227ZM780.624 112.722C781.372 112.722 781.988 112.53 782.471 112.146C782.954 111.763 783.311 111.259 783.543 110.634C783.775 110.009 783.891 109.331 783.891 108.602C783.891 107.873 783.775 107.194 783.543 106.564C783.311 105.934 782.954 105.425 782.471 105.037C781.988 104.649 781.372 104.455 780.624 104.455C779.876 104.455 779.26 104.649 778.778 105.037C778.295 105.425 777.937 105.934 777.705 106.564C777.473 107.194 777.357 107.873 777.357 108.602C777.357 109.331 777.473 110.009 777.705 110.634C777.937 111.259 778.295 111.763 778.778 112.146C779.26 112.53 779.876 112.722 780.624 112.722ZM789.802 107.438V114H788.126V103.091H789.745V104.795H789.887C790.143 104.241 790.531 103.796 791.052 103.46C791.573 103.119 792.245 102.949 793.069 102.949C793.808 102.949 794.454 103.1 795.008 103.403C795.562 103.702 795.993 104.156 796.301 104.767C796.608 105.373 796.762 106.14 796.762 107.068V114H795.086V107.182C795.086 106.325 794.864 105.657 794.419 105.179C793.973 104.696 793.363 104.455 792.586 104.455C792.051 104.455 791.573 104.571 791.151 104.803C790.735 105.035 790.406 105.373 790.164 105.818C789.923 106.263 789.802 106.803 789.802 107.438ZM807.552 105.534L806.047 105.96C805.952 105.709 805.812 105.465 805.628 105.229C805.448 104.987 805.202 104.788 804.889 104.632C804.577 104.476 804.176 104.398 803.689 104.398C803.021 104.398 802.465 104.552 802.02 104.859C801.579 105.162 801.359 105.548 801.359 106.017C801.359 106.434 801.511 106.763 801.814 107.004C802.117 107.246 802.59 107.447 803.234 107.608L804.854 108.006C805.829 108.242 806.556 108.605 807.034 109.092C807.512 109.575 807.751 110.198 807.751 110.96C807.751 111.585 807.571 112.144 807.211 112.636C806.856 113.129 806.359 113.517 805.72 113.801C805.081 114.085 804.337 114.227 803.49 114.227C802.377 114.227 801.456 113.986 800.727 113.503C799.998 113.02 799.536 112.314 799.342 111.386L800.933 110.989C801.085 111.576 801.371 112.016 801.792 112.31C802.219 112.603 802.775 112.75 803.461 112.75C804.243 112.75 804.863 112.584 805.322 112.253C805.786 111.917 806.018 111.514 806.018 111.045C806.018 110.667 805.886 110.349 805.621 110.094C805.355 109.833 804.948 109.639 804.399 109.511L802.581 109.085C801.582 108.848 800.848 108.482 800.379 107.984C799.915 107.482 799.683 106.855 799.683 106.102C799.683 105.487 799.856 104.942 800.202 104.469C800.552 103.995 801.028 103.624 801.629 103.354C802.235 103.084 802.922 102.949 803.689 102.949C804.768 102.949 805.616 103.186 806.231 103.659C806.852 104.133 807.292 104.758 807.552 105.534ZM816.127 114V99.4545H817.803V104.824H817.945C818.068 104.634 818.238 104.393 818.456 104.099C818.679 103.801 818.996 103.536 819.408 103.304C819.825 103.067 820.388 102.949 821.098 102.949C822.017 102.949 822.826 103.179 823.527 103.638C824.228 104.097 824.775 104.748 825.168 105.591C825.561 106.434 825.757 107.428 825.757 108.574C825.757 109.729 825.561 110.731 825.168 111.578C824.775 112.421 824.23 113.074 823.534 113.538C822.838 113.998 822.036 114.227 821.127 114.227C820.426 114.227 819.865 114.111 819.443 113.879C819.022 113.643 818.698 113.375 818.47 113.077C818.243 112.774 818.068 112.523 817.945 112.324H817.746V114H816.127ZM817.774 108.545C817.774 109.369 817.895 110.096 818.137 110.726C818.378 111.351 818.731 111.841 819.195 112.196C819.659 112.546 820.227 112.722 820.899 112.722C821.6 112.722 822.185 112.537 822.654 112.168C823.127 111.794 823.482 111.292 823.719 110.662C823.96 110.027 824.081 109.322 824.081 108.545C824.081 107.778 823.963 107.087 823.726 106.472C823.494 105.851 823.141 105.361 822.668 105.001C822.199 104.637 821.61 104.455 820.899 104.455C820.218 104.455 819.645 104.627 819.181 104.973C818.717 105.314 818.366 105.792 818.129 106.408C817.893 107.018 817.774 107.731 817.774 108.545ZM832.895 114.227C831.844 114.227 830.937 113.995 830.175 113.531C829.417 113.062 828.833 112.409 828.421 111.571C828.013 110.728 827.81 109.748 827.81 108.631C827.81 107.513 828.013 106.528 828.421 105.676C828.833 104.819 829.405 104.152 830.139 103.673C830.878 103.19 831.74 102.949 832.725 102.949C833.293 102.949 833.854 103.044 834.408 103.233C834.962 103.422 835.466 103.73 835.921 104.156C836.375 104.578 836.737 105.136 837.007 105.832C837.277 106.528 837.412 107.385 837.412 108.403V109.114H829.003V107.665H835.708C835.708 107.049 835.584 106.5 835.338 106.017C835.097 105.534 834.751 105.153 834.301 104.874C833.856 104.594 833.331 104.455 832.725 104.455C832.057 104.455 831.479 104.62 830.992 104.952C830.509 105.278 830.137 105.705 829.877 106.23C829.616 106.756 829.486 107.319 829.486 107.92V108.886C829.486 109.71 829.628 110.409 829.912 110.982C830.201 111.55 830.601 111.983 831.112 112.281C831.624 112.575 832.218 112.722 832.895 112.722C833.335 112.722 833.733 112.66 834.088 112.537C834.448 112.409 834.758 112.22 835.019 111.969C835.279 111.713 835.48 111.396 835.622 111.017L837.242 111.472C837.071 112.021 836.785 112.504 836.382 112.92C835.98 113.332 835.483 113.654 834.891 113.886C834.299 114.114 833.634 114.227 832.895 114.227ZM841.638 99.4545V114H839.962V99.4545H841.638ZM849.14 114.227C848.155 114.227 847.291 113.993 846.547 113.524C845.809 113.055 845.231 112.4 844.814 111.557C844.403 110.714 844.197 109.729 844.197 108.602C844.197 107.466 844.403 106.474 844.814 105.626C845.231 104.779 845.809 104.121 846.547 103.652C847.291 103.183 848.155 102.949 849.14 102.949C850.125 102.949 850.986 103.183 851.725 103.652C852.468 104.121 853.046 104.779 853.458 105.626C853.875 106.474 854.083 107.466 854.083 108.602C854.083 109.729 853.875 110.714 853.458 111.557C853.046 112.4 852.468 113.055 851.725 113.524C850.986 113.993 850.125 114.227 849.14 114.227ZM849.14 112.722C849.888 112.722 850.503 112.53 850.986 112.146C851.469 111.763 851.827 111.259 852.059 110.634C852.291 110.009 852.407 109.331 852.407 108.602C852.407 107.873 852.291 107.194 852.059 106.564C851.827 105.934 851.469 105.425 850.986 105.037C850.503 104.649 849.888 104.455 849.14 104.455C848.392 104.455 847.776 104.649 847.293 105.037C846.81 105.425 846.453 105.934 846.221 106.564C845.989 107.194 845.873 107.873 845.873 108.602C845.873 109.331 845.989 110.009 846.221 110.634C846.453 111.259 846.81 111.763 847.293 112.146C847.776 112.53 848.392 112.722 849.14 112.722ZM858.742 114L855.418 103.091H857.18L859.537 111.443H859.651L861.981 103.091H863.77L866.072 111.415H866.185L868.543 103.091H870.305L866.981 114H865.333L862.947 105.619H862.776L860.39 114H858.742ZM872.258 114.114C871.907 114.114 871.607 113.988 871.356 113.737C871.105 113.486 870.979 113.186 870.979 112.835C870.979 112.485 871.105 112.184 871.356 111.933C871.607 111.682 871.907 111.557 872.258 111.557C872.608 111.557 872.909 111.682 873.16 111.933C873.411 112.184 873.536 112.485 873.536 112.835C873.536 113.067 873.477 113.28 873.358 113.474C873.245 113.669 873.091 113.825 872.897 113.943C872.707 114.057 872.494 114.114 872.258 114.114Z" fill="white" />
</svg>