<svg width="1436" height="154" viewBox="0 0 1436 154" fill="none" xmlns="http://www.w3.org/2000/svg">
<mask id="path-1-inside-1_140_1090" fill="white">
<path d="M0 0H1436V154H0V0Z"/>
</mask>
<path d="M0 0V1H1436V0V-1H0V0Z" fill="#E1DBD1" mask="url(#path-1-inside-1_140_1090)"/>
<path d="M91.9723 67H89.4411L94.0497 53.9091H96.9773L101.592 67H99.0611L95.5646 56.5938H95.4624L91.9723 67ZM92.0554 61.8672H98.9588V63.772H92.0554V61.8672ZM110.816 59.777L108.707 60.0071C108.647 59.794 108.543 59.5938 108.393 59.4062C108.249 59.2188 108.053 59.0675 107.805 58.9524C107.558 58.8374 107.256 58.7798 106.898 58.7798C106.416 58.7798 106.011 58.8842 105.683 59.093C105.359 59.3018 105.2 59.5724 105.204 59.9048C105.2 60.1903 105.304 60.4226 105.517 60.6016C105.734 60.7805 106.092 60.9276 106.591 61.0426L108.266 61.4006C109.195 61.6009 109.885 61.9183 110.337 62.353C110.793 62.7876 111.023 63.3565 111.027 64.0597C111.023 64.6776 110.842 65.223 110.484 65.696C110.13 66.1648 109.638 66.5312 109.007 66.7955C108.376 67.0597 107.652 67.1918 106.834 67.1918C105.632 67.1918 104.665 66.9403 103.932 66.4375C103.199 65.9304 102.762 65.2251 102.621 64.3217L104.878 64.1044C104.98 64.5476 105.197 64.8821 105.53 65.108C105.862 65.3338 106.295 65.4467 106.827 65.4467C107.377 65.4467 107.818 65.3338 108.151 65.108C108.487 64.8821 108.656 64.603 108.656 64.2706C108.656 63.9893 108.547 63.7571 108.33 63.5739C108.116 63.3906 107.784 63.25 107.332 63.152L105.658 62.8004C104.716 62.6044 104.019 62.2741 103.567 61.8097C103.116 61.3409 102.892 60.7486 102.896 60.0327C102.892 59.4276 103.056 58.9034 103.388 58.4602C103.725 58.0128 104.192 57.6676 104.788 57.4247C105.389 57.1776 106.082 57.054 106.866 57.054C108.016 57.054 108.922 57.299 109.582 57.7891C110.247 58.2791 110.658 58.9418 110.816 59.777ZM117.838 57.1818V58.9716H112.194V57.1818H117.838ZM113.587 54.8295H115.901V64.0469C115.901 64.358 115.948 64.5966 116.042 64.7628C116.14 64.9247 116.267 65.0355 116.425 65.0952C116.583 65.1548 116.757 65.1847 116.949 65.1847C117.094 65.1847 117.226 65.174 117.346 65.1527C117.469 65.1314 117.563 65.1122 117.627 65.0952L118.017 66.9041C117.893 66.9467 117.716 66.9936 117.486 67.0447C117.26 67.0959 116.983 67.1257 116.655 67.1342C116.076 67.1513 115.554 67.0639 115.089 66.8722C114.625 66.6761 114.256 66.3736 113.983 65.9645C113.715 65.5554 113.583 65.044 113.587 64.4304V54.8295ZM122.598 67.1982C121.976 67.1982 121.416 67.0874 120.917 66.8658C120.423 66.6399 120.031 66.3075 119.741 65.8686C119.455 65.4297 119.313 64.8885 119.313 64.245C119.313 63.6911 119.415 63.233 119.619 62.8707C119.824 62.5085 120.103 62.2188 120.457 62.0014C120.811 61.7841 121.209 61.62 121.652 61.5092C122.1 61.3942 122.562 61.3111 123.039 61.2599C123.615 61.2003 124.081 61.147 124.439 61.1001C124.797 61.049 125.057 60.9723 125.219 60.87C125.385 60.7635 125.468 60.5994 125.468 60.3778V60.3395C125.468 59.858 125.325 59.4851 125.04 59.2209C124.754 58.9567 124.343 58.8246 123.806 58.8246C123.24 58.8246 122.79 58.9482 122.458 59.1953C122.129 59.4425 121.908 59.7344 121.793 60.071L119.632 59.7642C119.803 59.1676 120.084 58.669 120.476 58.2685C120.868 57.8636 121.347 57.5611 121.914 57.3608C122.481 57.1562 123.107 57.054 123.794 57.054C124.267 57.054 124.737 57.1094 125.206 57.2202C125.675 57.331 126.103 57.5142 126.491 57.7699C126.879 58.0213 127.19 58.3643 127.424 58.799C127.663 59.2337 127.782 59.777 127.782 60.429V67H125.558V65.6513H125.481C125.34 65.924 125.142 66.1797 124.887 66.4183C124.635 66.6527 124.318 66.8423 123.934 66.9872C123.555 67.1278 123.11 67.1982 122.598 67.1982ZM123.199 65.4979C123.664 65.4979 124.066 65.4062 124.407 65.223C124.748 65.0355 125.01 64.7884 125.193 64.4815C125.381 64.1747 125.475 63.8402 125.475 63.478V62.321C125.402 62.3807 125.279 62.4361 125.104 62.4872C124.933 62.5384 124.742 62.5831 124.529 62.6214C124.316 62.6598 124.105 62.6939 123.896 62.7237C123.687 62.7536 123.506 62.7791 123.352 62.8004C123.007 62.8473 122.698 62.924 122.426 63.0305C122.153 63.1371 121.938 63.2862 121.78 63.478C121.622 63.6655 121.544 63.9084 121.544 64.2067C121.544 64.6328 121.699 64.9545 122.01 65.1719C122.321 65.3892 122.718 65.4979 123.199 65.4979ZM134.455 67.1918C133.471 67.1918 132.621 66.9872 131.905 66.5781C131.193 66.1648 130.646 65.581 130.262 64.8267C129.879 64.0682 129.687 63.1754 129.687 62.1484C129.687 61.1385 129.879 60.2521 130.262 59.4893C130.65 58.7223 131.191 58.1257 131.886 57.6996C132.58 57.2692 133.396 57.054 134.334 57.054C134.939 57.054 135.51 57.152 136.047 57.348C136.588 57.5398 137.066 57.8381 137.479 58.2429C137.896 58.6477 138.225 59.1634 138.463 59.7898C138.702 60.4119 138.821 61.1534 138.821 62.0142V62.7237H130.774V61.1641H136.603C136.599 60.7209 136.503 60.3267 136.316 59.9815C136.128 59.6321 135.866 59.3572 135.529 59.157C135.197 58.9567 134.809 58.8565 134.366 58.8565C133.893 58.8565 133.477 58.9716 133.119 59.2017C132.762 59.4276 132.482 59.7259 132.282 60.0966C132.086 60.4631 131.986 60.8658 131.982 61.3047V62.6662C131.982 63.2372 132.086 63.7273 132.295 64.1364C132.504 64.5412 132.796 64.8523 133.171 65.0696C133.546 65.2827 133.985 65.3892 134.487 65.3892C134.824 65.3892 135.129 65.3423 135.401 65.2486C135.674 65.1506 135.911 65.0078 136.111 64.8203C136.311 64.6328 136.463 64.4006 136.565 64.1236L138.725 64.3665C138.589 64.9375 138.329 65.4361 137.945 65.8622C137.566 66.2841 137.08 66.6122 136.488 66.8466C135.896 67.0767 135.218 67.1918 134.455 67.1918ZM149.267 57.1818L145.771 67H143.214L139.718 57.1818H142.185L144.441 64.4751H144.544L146.806 57.1818H149.267ZM153.413 67.1982C152.79 67.1982 152.23 67.0874 151.732 66.8658C151.237 66.6399 150.845 66.3075 150.555 65.8686C150.27 65.4297 150.127 64.8885 150.127 64.245C150.127 63.6911 150.229 63.233 150.434 62.8707C150.638 62.5085 150.918 62.2188 151.271 62.0014C151.625 61.7841 152.023 61.62 152.467 61.5092C152.914 61.3942 153.376 61.3111 153.854 61.2599C154.429 61.2003 154.896 61.147 155.254 61.1001C155.612 61.049 155.871 60.9723 156.033 60.87C156.2 60.7635 156.283 60.5994 156.283 60.3778V60.3395C156.283 59.858 156.14 59.4851 155.854 59.2209C155.569 58.9567 155.158 58.8246 154.621 58.8246C154.054 58.8246 153.604 58.9482 153.272 59.1953C152.944 59.4425 152.722 59.7344 152.607 60.071L150.447 59.7642C150.617 59.1676 150.898 58.669 151.29 58.2685C151.683 57.8636 152.162 57.5611 152.729 57.3608C153.295 57.1562 153.922 57.054 154.608 57.054C155.081 57.054 155.552 57.1094 156.021 57.2202C156.489 57.331 156.918 57.5142 157.305 57.7699C157.693 58.0213 158.004 58.3643 158.239 58.799C158.477 59.2337 158.597 59.777 158.597 60.429V67H156.372V65.6513H156.295C156.155 65.924 155.957 66.1797 155.701 66.4183C155.45 66.6527 155.132 66.8423 154.749 66.9872C154.369 67.1278 153.924 67.1982 153.413 67.1982ZM154.013 65.4979C154.478 65.4979 154.881 65.4062 155.222 65.223C155.563 65.0355 155.825 64.7884 156.008 64.4815C156.195 64.1747 156.289 63.8402 156.289 63.478V62.321C156.217 62.3807 156.093 62.4361 155.918 62.4872C155.748 62.5384 155.556 62.5831 155.343 62.6214C155.13 62.6598 154.919 62.6939 154.71 62.7237C154.501 62.7536 154.32 62.7791 154.167 62.8004C153.822 62.8473 153.513 62.924 153.24 63.0305C152.967 63.1371 152.752 63.2862 152.594 63.478C152.437 63.6655 152.358 63.9084 152.358 64.2067C152.358 64.6328 152.513 64.9545 152.825 65.1719C153.136 65.3892 153.532 65.4979 154.013 65.4979ZM167.172 67H164.64L169.249 53.9091H172.176L176.792 67H174.26L170.764 56.5938H170.662L167.172 67ZM167.255 61.8672H174.158V63.772H167.255V61.8672ZM180.727 61.2472V67H178.414V57.1818H180.625V58.8501H180.74C180.966 58.3004 181.326 57.8636 181.82 57.5398C182.319 57.2159 182.935 57.054 183.668 57.054C184.345 57.054 184.936 57.1989 185.438 57.4886C185.945 57.7784 186.338 58.1982 186.615 58.7479C186.896 59.2976 187.034 59.9645 187.03 60.7486V67H184.716V61.1065C184.716 60.4503 184.546 59.9368 184.205 59.5661C183.868 59.1953 183.401 59.0099 182.805 59.0099C182.4 59.0099 182.04 59.0994 181.725 59.2784C181.414 59.4531 181.169 59.7067 180.99 60.0391C180.815 60.3714 180.727 60.7741 180.727 61.2472ZM192.208 67.1982C191.585 67.1982 191.025 67.0874 190.526 66.8658C190.032 66.6399 189.64 66.3075 189.35 65.8686C189.065 65.4297 188.922 64.8885 188.922 64.245C188.922 63.6911 189.024 63.233 189.229 62.8707C189.433 62.5085 189.713 62.2188 190.066 62.0014C190.42 61.7841 190.818 61.62 191.262 61.5092C191.709 61.3942 192.171 61.3111 192.649 61.2599C193.224 61.2003 193.691 61.147 194.048 61.1001C194.406 61.049 194.666 60.9723 194.828 60.87C194.994 60.7635 195.078 60.5994 195.078 60.3778V60.3395C195.078 59.858 194.935 59.4851 194.649 59.2209C194.364 58.9567 193.953 58.8246 193.416 58.8246C192.849 58.8246 192.399 58.9482 192.067 59.1953C191.739 59.4425 191.517 59.7344 191.402 60.071L189.242 59.7642C189.412 59.1676 189.693 58.669 190.085 58.2685C190.477 57.8636 190.957 57.5611 191.524 57.3608C192.09 57.1562 192.717 57.054 193.403 57.054C193.876 57.054 194.347 57.1094 194.816 57.2202C195.284 57.331 195.713 57.5142 196.1 57.7699C196.488 58.0213 196.799 58.3643 197.034 58.799C197.272 59.2337 197.392 59.777 197.392 60.429V67H195.167V65.6513H195.09C194.95 65.924 194.752 66.1797 194.496 66.4183C194.244 66.6527 193.927 66.8423 193.544 66.9872C193.164 67.1278 192.719 67.1982 192.208 67.1982ZM192.808 65.4979C193.273 65.4979 193.676 65.4062 194.017 65.223C194.357 65.0355 194.619 64.7884 194.803 64.4815C194.99 64.1747 195.084 63.8402 195.084 63.478V62.321C195.012 62.3807 194.888 62.4361 194.713 62.4872C194.543 62.5384 194.351 62.5831 194.138 62.6214C193.925 62.6598 193.714 62.6939 193.505 62.7237C193.296 62.7536 193.115 62.7791 192.962 62.8004C192.617 62.8473 192.308 62.924 192.035 63.0305C191.762 63.1371 191.547 63.2862 191.389 63.478C191.232 63.6655 191.153 63.9084 191.153 64.2067C191.153 64.6328 191.308 64.9545 191.619 65.1719C191.931 65.3892 192.327 65.4979 192.808 65.4979ZM207.478 59.777L205.369 60.0071C205.309 59.794 205.205 59.5938 205.056 59.4062C204.911 59.2188 204.715 59.0675 204.468 58.9524C204.22 58.8374 203.918 58.7798 203.56 58.7798C203.078 58.7798 202.673 58.8842 202.345 59.093C202.021 59.3018 201.862 59.5724 201.866 59.9048C201.862 60.1903 201.966 60.4226 202.179 60.6016C202.396 60.7805 202.754 60.9276 203.253 61.0426L204.928 61.4006C205.857 61.6009 206.547 61.9183 206.999 62.353C207.455 62.7876 207.685 63.3565 207.689 64.0597C207.685 64.6776 207.504 65.223 207.146 65.696C206.792 66.1648 206.3 66.5312 205.669 66.7955C205.039 67.0597 204.314 67.1918 203.496 67.1918C202.294 67.1918 201.327 66.9403 200.594 66.4375C199.861 65.9304 199.424 65.2251 199.284 64.3217L201.54 64.1044C201.642 64.5476 201.86 64.8821 202.192 65.108C202.524 65.3338 202.957 65.4467 203.49 65.4467C204.039 65.4467 204.48 65.3338 204.813 65.108C205.149 64.8821 205.318 64.603 205.318 64.2706C205.318 63.9893 205.209 63.7571 204.992 63.5739C204.779 63.3906 204.446 63.25 203.994 63.152L202.32 62.8004C201.378 62.6044 200.681 62.2741 200.23 61.8097C199.778 61.3409 199.554 60.7486 199.558 60.0327C199.554 59.4276 199.718 58.9034 200.051 58.4602C200.387 58.0128 200.854 57.6676 201.45 57.4247C202.051 57.1776 202.744 57.054 203.528 57.054C204.678 57.054 205.584 57.299 206.244 57.7891C206.909 58.2791 207.32 58.9418 207.478 59.777ZM214.5 57.1818V58.9716H208.856V57.1818H214.5ZM210.249 54.8295H212.563V64.0469C212.563 64.358 212.61 64.5966 212.704 64.7628C212.802 64.9247 212.93 65.0355 213.087 65.0952C213.245 65.1548 213.42 65.1847 213.611 65.1847C213.756 65.1847 213.888 65.174 214.008 65.1527C214.131 65.1314 214.225 65.1122 214.289 65.0952L214.679 66.9041C214.555 66.9467 214.378 66.9936 214.148 67.0447C213.922 67.0959 213.645 67.1257 213.317 67.1342C212.738 67.1513 212.216 67.0639 211.751 66.8722C211.287 66.6761 210.918 66.3736 210.645 65.9645C210.377 65.5554 210.245 65.044 210.249 64.4304V54.8295ZM219.26 67.1982C218.638 67.1982 218.078 67.0874 217.579 66.8658C217.085 66.6399 216.693 66.3075 216.403 65.8686C216.118 65.4297 215.975 64.8885 215.975 64.245C215.975 63.6911 216.077 63.233 216.282 62.8707C216.486 62.5085 216.765 62.2188 217.119 62.0014C217.473 61.7841 217.871 61.62 218.314 61.5092C218.762 61.3942 219.224 61.3111 219.701 61.2599C220.277 61.2003 220.743 61.147 221.101 61.1001C221.459 61.049 221.719 60.9723 221.881 60.87C222.047 60.7635 222.13 60.5994 222.13 60.3778V60.3395C222.13 59.858 221.988 59.4851 221.702 59.2209C221.417 58.9567 221.005 58.8246 220.468 58.8246C219.902 58.8246 219.452 58.9482 219.12 59.1953C218.792 59.4425 218.57 59.7344 218.455 60.071L216.294 59.7642C216.465 59.1676 216.746 58.669 217.138 58.2685C217.53 57.8636 218.01 57.5611 218.576 57.3608C219.143 57.1562 219.77 57.054 220.456 57.054C220.929 57.054 221.4 57.1094 221.868 57.2202C222.337 57.331 222.765 57.5142 223.153 57.7699C223.541 58.0213 223.852 58.3643 224.086 58.799C224.325 59.2337 224.444 59.777 224.444 60.429V67H222.22V65.6513H222.143C222.002 65.924 221.804 66.1797 221.549 66.4183C221.297 66.6527 220.98 66.8423 220.596 66.9872C220.217 67.1278 219.772 67.1982 219.26 67.1982ZM219.861 65.4979C220.326 65.4979 220.728 65.4062 221.069 65.223C221.41 65.0355 221.672 64.7884 221.855 64.4815C222.043 64.1747 222.137 63.8402 222.137 63.478V62.321C222.064 62.3807 221.941 62.4361 221.766 62.4872C221.596 62.5384 221.404 62.5831 221.191 62.6214C220.978 62.6598 220.767 62.6939 220.558 62.7237C220.349 62.7536 220.168 62.7791 220.015 62.8004C219.669 62.8473 219.36 62.924 219.088 63.0305C218.815 63.1371 218.6 63.2862 218.442 63.478C218.284 63.6655 218.206 63.9084 218.206 64.2067C218.206 64.6328 218.361 64.9545 218.672 65.1719C218.983 65.3892 219.38 65.4979 219.861 65.4979ZM234.531 59.777L232.422 60.0071C232.362 59.794 232.257 59.5938 232.108 59.4062C231.963 59.2188 231.767 59.0675 231.52 58.9524C231.273 58.8374 230.971 58.7798 230.613 58.7798C230.131 58.7798 229.726 58.8842 229.398 59.093C229.074 59.3018 228.914 59.5724 228.919 59.9048C228.914 60.1903 229.019 60.4226 229.232 60.6016C229.449 60.7805 229.807 60.9276 230.306 61.0426L231.98 61.4006C232.909 61.6009 233.6 61.9183 234.051 62.353C234.507 62.7876 234.738 63.3565 234.742 64.0597C234.738 64.6776 234.556 65.223 234.199 65.696C233.845 66.1648 233.353 66.5312 232.722 66.7955C232.091 67.0597 231.367 67.1918 230.549 67.1918C229.347 67.1918 228.38 66.9403 227.647 66.4375C226.914 65.9304 226.477 65.2251 226.336 64.3217L228.593 64.1044C228.695 64.5476 228.912 64.8821 229.245 65.108C229.577 65.3338 230.01 65.4467 230.542 65.4467C231.092 65.4467 231.533 65.3338 231.865 65.108C232.202 64.8821 232.37 64.603 232.37 64.2706C232.37 63.9893 232.262 63.7571 232.044 63.5739C231.831 63.3906 231.499 63.25 231.047 63.152L229.373 62.8004C228.431 62.6044 227.734 62.2741 227.282 61.8097C226.831 61.3409 226.607 60.7486 226.611 60.0327C226.607 59.4276 226.771 58.9034 227.103 58.4602C227.44 58.0128 227.907 57.6676 228.503 57.4247C229.104 57.1776 229.797 57.054 230.581 57.054C231.731 57.054 232.637 57.299 233.297 57.7891C233.962 58.2791 234.373 58.9418 234.531 59.777ZM236.65 67V57.1818H238.964V67H236.65ZM237.813 55.7884C237.447 55.7884 237.131 55.6669 236.867 55.424C236.603 55.1768 236.471 54.8807 236.471 54.5355C236.471 54.1861 236.603 53.8899 236.867 53.647C237.131 53.3999 237.447 53.2763 237.813 53.2763C238.184 53.2763 238.499 53.3999 238.759 53.647C239.023 53.8899 239.156 54.1861 239.156 54.5355C239.156 54.8807 239.023 55.1768 238.759 55.424C238.499 55.6669 238.184 55.7884 237.813 55.7884ZM244.169 67.1982C243.546 67.1982 242.986 67.0874 242.487 66.8658C241.993 66.6399 241.601 66.3075 241.311 65.8686C241.026 65.4297 240.883 64.8885 240.883 64.245C240.883 63.6911 240.985 63.233 241.19 62.8707C241.394 62.5085 241.673 62.2188 242.027 62.0014C242.381 61.7841 242.779 61.62 243.222 61.5092C243.67 61.3942 244.132 61.3111 244.61 61.2599C245.185 61.2003 245.651 61.147 246.009 61.1001C246.367 61.049 246.627 60.9723 246.789 60.87C246.955 60.7635 247.039 60.5994 247.039 60.3778V60.3395C247.039 59.858 246.896 59.4851 246.61 59.2209C246.325 58.9567 245.914 58.8246 245.377 58.8246C244.81 58.8246 244.36 58.9482 244.028 59.1953C243.7 59.4425 243.478 59.7344 243.363 60.071L241.203 59.7642C241.373 59.1676 241.654 58.669 242.046 58.2685C242.438 57.8636 242.918 57.5611 243.485 57.3608C244.051 57.1562 244.678 57.054 245.364 57.054C245.837 57.054 246.308 57.1094 246.776 57.2202C247.245 57.331 247.673 57.5142 248.061 57.7699C248.449 58.0213 248.76 58.3643 248.994 58.799C249.233 59.2337 249.352 59.777 249.352 60.429V67H247.128V65.6513H247.051C246.911 65.924 246.713 66.1797 246.457 66.4183C246.205 66.6527 245.888 66.8423 245.504 66.9872C245.125 67.1278 244.68 67.1982 244.169 67.1982ZM244.769 65.4979C245.234 65.4979 245.637 65.4062 245.977 65.223C246.318 65.0355 246.58 64.7884 246.764 64.4815C246.951 64.1747 247.045 63.8402 247.045 63.478V62.321C246.972 62.3807 246.849 62.4361 246.674 62.4872C246.504 62.5384 246.312 62.5831 246.099 62.6214C245.886 62.6598 245.675 62.6939 245.466 62.7237C245.257 62.7536 245.076 62.7791 244.923 62.8004C244.578 62.8473 244.269 62.924 243.996 63.0305C243.723 63.1371 243.508 63.2862 243.35 63.478C243.193 63.6655 243.114 63.9084 243.114 64.2067C243.114 64.6328 243.269 64.9545 243.58 65.1719C243.892 65.3892 244.288 65.4979 244.769 65.4979Z" fill="white"/>
<g filter="url(#filter0_i_140_1090)">
<rect x="1199" y="40" width="40" height="40" rx="6" fill="#5700FF"/>
<g clip-path="url(#clip0_140_1090)">
<path d="M1227.52 50H1210.48C1209.66 50 1209 50.6445 1209 51.4414V68.5547C1209 69.3516 1209.66 70 1210.48 70H1227.52C1228.34 70 1229 69.3516 1229 68.5586V51.4414C1229 50.6445 1228.34 50 1227.52 50ZM1214.93 67.043H1211.96V57.4961H1214.93V67.043ZM1213.45 56.1953C1212.5 56.1953 1211.73 55.4258 1211.73 54.4766C1211.73 53.5273 1212.5 52.7578 1213.45 52.7578C1214.4 52.7578 1215.17 53.5273 1215.17 54.4766C1215.17 55.4219 1214.4 56.1953 1213.45 56.1953ZM1226.04 67.043H1223.08V62.4023C1223.08 61.2969 1223.06 59.8711 1221.54 59.8711C1219.99 59.8711 1219.76 61.0781 1219.76 62.3242V67.043H1216.8V57.4961H1219.64V58.8008H1219.68C1220.07 58.0508 1221.04 57.2578 1222.48 57.2578C1225.49 57.2578 1226.04 59.2344 1226.04 61.8047V67.043Z" fill="#FDFDFC"/>
</g>
</g>
<g filter="url(#filter1_i_140_1090)">
<rect x="1253" y="40" width="40" height="40" rx="6" fill="#5700FF"/>
<g clip-path="url(#clip1_140_1090)">
<path d="M1281.07 54.6406H1276V56.0506H1281.09L1281.07 54.6406ZM1280 64.3406C1279.62 64.5955 1279.16 64.7247 1278.7 64.7106C1278.39 64.7424 1278.09 64.7109 1277.79 64.618C1277.5 64.5251 1277.23 64.3728 1277 64.1706C1276.57 63.686 1276.35 63.0553 1276.38 62.4106H1283C1283.05 61.7392 1282.99 61.0645 1282.83 60.4106C1282.67 59.7888 1282.4 59.2019 1282.03 58.6806C1281.65 58.1759 1281.17 57.7624 1280.61 57.4706C1279.99 57.1652 1279.3 57.0111 1278.61 57.0206C1277.96 57.0164 1277.31 57.1422 1276.71 57.3906C1276.16 57.6229 1275.66 57.9628 1275.24 58.3906C1274.82 58.8267 1274.5 59.3441 1274.29 59.9106C1274.07 60.5222 1273.95 61.1693 1273.96 61.8206C1273.95 62.4813 1274.06 63.1384 1274.28 63.7606C1274.47 64.3237 1274.77 64.8437 1275.16 65.2906C1275.57 65.7288 1276.06 66.0705 1276.62 66.2906C1277.24 66.5265 1277.9 66.6419 1278.56 66.6306C1279.49 66.6596 1280.41 66.4163 1281.2 65.9306C1282 65.3621 1282.58 64.5305 1282.83 63.5806H1280.62C1280.5 63.8948 1280.28 64.1616 1280 64.3406ZM1276.57 60.2206C1276.65 59.9713 1276.78 59.741 1276.95 59.5447C1277.12 59.3484 1277.33 59.1903 1277.57 59.0806C1277.88 58.94 1278.23 58.8716 1278.57 58.8806C1278.82 58.8594 1279.07 58.8922 1279.3 58.9768C1279.54 59.0613 1279.75 59.1957 1279.93 59.3706C1280.27 59.7863 1280.49 60.2883 1280.56 60.8206H1276.41C1276.43 60.6174 1276.46 60.4164 1276.52 60.2206H1276.57ZM1271.28 59.7406C1271.79 59.5287 1272.23 59.1832 1272.56 58.7406C1272.86 58.2712 1273.01 57.7191 1272.99 57.1606C1273.01 56.6515 1272.91 56.145 1272.7 55.6806C1272.52 55.2785 1272.24 54.9326 1271.88 54.6806C1271.5 54.4175 1271.07 54.2401 1270.61 54.1606C1270.07 54.0472 1269.52 53.9936 1268.97 54.0006H1263V66.5806H1269.1C1269.66 66.5805 1270.21 66.5099 1270.75 66.3706C1271.26 66.2375 1271.74 66.0177 1272.18 65.7206C1272.6 65.4293 1272.95 65.0375 1273.18 64.5806C1273.44 64.0706 1273.57 63.503 1273.55 62.9306C1273.57 62.2214 1273.37 61.5233 1272.98 60.9306C1272.56 60.3345 1271.94 59.9115 1271.23 59.7406H1271.28ZM1265.77 56.1506H1268.36C1268.6 56.1495 1268.84 56.1695 1269.07 56.2106C1269.29 56.2415 1269.49 56.3164 1269.68 56.4306C1269.86 56.5326 1270.01 56.6857 1270.1 56.8706C1270.22 57.092 1270.27 57.3406 1270.26 57.5906C1270.28 57.8059 1270.25 58.0224 1270.16 58.2224C1270.08 58.4224 1269.95 58.6 1269.79 58.7406C1269.43 58.9866 1269 59.1095 1268.57 59.0906H1265.77V56.1506ZM1270.61 63.5906C1270.51 63.7939 1270.35 63.9663 1270.16 64.0906C1269.96 64.2148 1269.74 64.3028 1269.51 64.3506C1269.25 64.4082 1268.99 64.435 1268.73 64.4306H1265.73V60.9806H1268.73C1269.24 60.9581 1269.75 61.1018 1270.18 61.3906C1270.37 61.5636 1270.52 61.7796 1270.62 62.0211C1270.71 62.2626 1270.75 62.5228 1270.72 62.7806C1270.75 63.0555 1270.71 63.3326 1270.61 63.5906Z" fill="#FDFDFC"/>
</g>
</g>
<g filter="url(#filter2_i_140_1090)">
<rect x="1307" y="40" width="40" height="40" rx="6" fill="#5700FF"/>
<path d="M1328.62 58.66L1334.95 51.25H1333.45L1327.95 57.6837L1323.56 51.25H1318.5L1325.14 60.98L1318.5 68.75H1320L1325.8 61.955L1330.44 68.75H1335.5L1328.62 58.66ZM1326.56 61.065L1325.89 60.0962L1320.54 52.3875H1322.84L1327.16 58.6088L1327.83 59.5775L1333.45 67.665H1331.14L1326.56 61.065Z" fill="white"/>
</g>
<path d="M544.278 66.5V54.8636H546.034V59.9205H551.835V54.8636H553.597V66.5H551.835V61.4261H546.034V66.5H544.278ZM559.693 66.6761C558.875 66.6761 558.161 66.4886 557.551 66.1136C556.941 65.7386 556.468 65.214 556.131 64.5398C555.794 63.8655 555.625 63.0777 555.625 62.1761C555.625 61.2708 555.794 60.4792 556.131 59.8011C556.468 59.1231 556.941 58.5966 557.551 58.2216C558.161 57.8466 558.875 57.6591 559.693 57.6591C560.511 57.6591 561.225 57.8466 561.835 58.2216C562.445 58.5966 562.919 59.1231 563.256 59.8011C563.593 60.4792 563.761 61.2708 563.761 62.1761C563.761 63.0777 563.593 63.8655 563.256 64.5398C562.919 65.214 562.445 65.7386 561.835 66.1136C561.225 66.4886 560.511 66.6761 559.693 66.6761ZM559.699 65.25C560.229 65.25 560.669 65.1098 561.017 64.8295C561.366 64.5492 561.623 64.1761 561.79 63.7102C561.96 63.2443 562.045 62.7311 562.045 62.1705C562.045 61.6136 561.96 61.1023 561.79 60.6364C561.623 60.1667 561.366 59.7898 561.017 59.5057C560.669 59.2216 560.229 59.0795 559.699 59.0795C559.165 59.0795 558.722 59.2216 558.369 59.5057C558.021 59.7898 557.761 60.1667 557.591 60.6364C557.424 61.1023 557.341 61.6136 557.341 62.1705C557.341 62.7311 557.424 63.2443 557.591 63.7102C557.761 64.1761 558.021 64.5492 558.369 64.8295C558.722 65.1098 559.165 65.25 559.699 65.25ZM565.658 66.5V57.7727H567.288V59.1932H567.396C567.578 58.7121 567.875 58.3371 568.288 58.0682C568.701 57.7955 569.196 57.6591 569.771 57.6591C570.355 57.6591 570.843 57.7955 571.237 58.0682C571.635 58.3409 571.929 58.7159 572.118 59.1932H572.209C572.417 58.7273 572.749 58.3561 573.203 58.0795C573.658 57.7992 574.199 57.6591 574.828 57.6591C575.62 57.6591 576.266 57.9072 576.766 58.4034C577.269 58.8996 577.521 59.6477 577.521 60.6477V66.5H575.822V60.8068C575.822 60.2159 575.661 59.7879 575.339 59.5227C575.018 59.2576 574.633 59.125 574.186 59.125C573.633 59.125 573.203 59.2955 572.896 59.6364C572.589 59.9735 572.436 60.4072 572.436 60.9375V66.5H570.743V60.6989C570.743 60.2254 570.595 59.8447 570.3 59.5568C570.004 59.2689 569.62 59.125 569.146 59.125C568.824 59.125 568.527 59.2102 568.254 59.3807C567.985 59.5473 567.768 59.7803 567.601 60.0795C567.438 60.3788 567.357 60.7254 567.357 61.1193V66.5H565.658ZM583.56 66.6761C582.7 66.6761 581.959 66.4924 581.338 66.125C580.721 65.7538 580.243 65.233 579.906 64.5625C579.573 63.8883 579.406 63.0985 579.406 62.1932C579.406 61.2992 579.573 60.5114 579.906 59.8295C580.243 59.1477 580.713 58.6155 581.315 58.233C581.921 57.8504 582.63 57.6591 583.44 57.6591C583.933 57.6591 584.41 57.7405 584.872 57.9034C585.334 58.0663 585.749 58.322 586.116 58.6705C586.484 59.0189 586.774 59.4716 586.986 60.0284C587.198 60.5814 587.304 61.2538 587.304 62.0455V62.6477H580.366V61.375H585.639C585.639 60.928 585.548 60.5322 585.366 60.1875C585.185 59.839 584.929 59.5644 584.599 59.3636C584.274 59.1629 583.891 59.0625 583.452 59.0625C582.974 59.0625 582.558 59.1799 582.202 59.4148C581.849 59.6458 581.577 59.9489 581.384 60.3239C581.194 60.6951 581.099 61.0985 581.099 61.5341V62.5284C581.099 63.1117 581.202 63.608 581.406 64.017C581.615 64.4261 581.904 64.7386 582.276 64.9545C582.647 65.1667 583.08 65.2727 583.577 65.2727C583.899 65.2727 584.192 65.2273 584.457 65.1364C584.723 65.0417 584.952 64.9015 585.145 64.7159C585.338 64.5303 585.486 64.3011 585.588 64.0284L587.196 64.3182C587.067 64.7917 586.836 65.2064 586.503 65.5625C586.173 65.9148 585.759 66.1894 585.259 66.3864C584.762 66.5795 584.196 66.6761 583.56 66.6761Z" fill="white"/>
<path d="M615.261 66.5H613.398L617.585 54.8636H619.614L623.801 66.5H621.938L618.648 56.9773H618.557L615.261 66.5ZM615.574 61.9432H621.619V63.4205H615.574V61.9432ZM625.482 66.5V54.8636H627.18V59.1875H627.283C627.381 59.0057 627.523 58.7955 627.709 58.5568C627.894 58.3182 628.152 58.1098 628.482 57.9318C628.811 57.75 629.247 57.6591 629.788 57.6591C630.493 57.6591 631.122 57.8371 631.675 58.1932C632.228 58.5492 632.661 59.0625 632.976 59.733C633.294 60.4034 633.453 61.2102 633.453 62.1534C633.453 63.0966 633.296 63.9053 632.982 64.5795C632.667 65.25 632.235 65.767 631.686 66.1307C631.137 66.4905 630.51 66.6705 629.805 66.6705C629.275 66.6705 628.841 66.5814 628.504 66.4034C628.171 66.2254 627.91 66.017 627.72 65.7784C627.531 65.5398 627.385 65.3277 627.283 65.142H627.141V66.5H625.482ZM627.146 62.1364C627.146 62.75 627.235 63.2879 627.413 63.75C627.591 64.2121 627.849 64.5739 628.186 64.8352C628.523 65.0928 628.936 65.2216 629.425 65.2216C629.932 65.2216 630.357 65.0871 630.697 64.8182C631.038 64.5455 631.296 64.1761 631.47 63.7102C631.648 63.2443 631.737 62.7197 631.737 62.1364C631.737 61.5606 631.65 61.0436 631.476 60.5852C631.305 60.1269 631.048 59.7652 630.703 59.5C630.362 59.2348 629.936 59.1023 629.425 59.1023C628.932 59.1023 628.516 59.2292 628.175 59.483C627.838 59.7367 627.582 60.0909 627.408 60.5455C627.233 61 627.146 61.5303 627.146 62.1364ZM639.037 66.6761C638.219 66.6761 637.505 66.4886 636.895 66.1136C636.285 65.7386 635.812 65.214 635.474 64.5398C635.137 63.8655 634.969 63.0777 634.969 62.1761C634.969 61.2708 635.137 60.4792 635.474 59.8011C635.812 59.1231 636.285 58.5966 636.895 58.2216C637.505 57.8466 638.219 57.6591 639.037 57.6591C639.855 57.6591 640.569 57.8466 641.179 58.2216C641.789 58.5966 642.262 59.1231 642.599 59.8011C642.937 60.4792 643.105 61.2708 643.105 62.1761C643.105 63.0777 642.937 63.8655 642.599 64.5398C642.262 65.214 641.789 65.7386 641.179 66.1136C640.569 66.4886 639.855 66.6761 639.037 66.6761ZM639.043 65.25C639.573 65.25 640.012 65.1098 640.361 64.8295C640.709 64.5492 640.967 64.1761 641.134 63.7102C641.304 63.2443 641.389 62.7311 641.389 62.1705C641.389 61.6136 641.304 61.1023 641.134 60.6364C640.967 60.1667 640.709 59.7898 640.361 59.5057C640.012 59.2216 639.573 59.0795 639.043 59.0795C638.509 59.0795 638.065 59.2216 637.713 59.5057C637.365 59.7898 637.105 60.1667 636.935 60.6364C636.768 61.1023 636.685 61.6136 636.685 62.1705C636.685 62.7311 636.768 63.2443 636.935 63.7102C637.105 64.1761 637.365 64.5492 637.713 64.8295C638.065 65.1098 638.509 65.25 639.043 65.25ZM650.53 62.8807V57.7727H652.234V66.5H650.564V64.9886H650.473C650.272 65.4545 649.95 65.8428 649.507 66.1534C649.068 66.4602 648.52 66.6136 647.865 66.6136C647.304 66.6136 646.808 66.4905 646.376 66.2443C645.948 65.9943 645.611 65.625 645.365 65.1364C645.123 64.6477 645.001 64.0436 645.001 63.3239V57.7727H646.7V63.1193C646.7 63.714 646.865 64.1875 647.195 64.5398C647.524 64.892 647.952 65.0682 648.479 65.0682C648.797 65.0682 649.113 64.9886 649.428 64.8295C649.746 64.6705 650.009 64.4299 650.217 64.108C650.429 63.786 650.534 63.3769 650.53 62.8807ZM658.591 57.7727V59.1364H653.824V57.7727H658.591ZM655.102 55.6818H656.801V63.9375C656.801 64.267 656.85 64.5152 656.949 64.6818C657.047 64.8447 657.174 64.9564 657.33 65.017C657.489 65.0739 657.661 65.1023 657.847 65.1023C657.983 65.1023 658.102 65.0928 658.205 65.0739C658.307 65.0549 658.386 65.0398 658.443 65.0284L658.75 66.4318C658.652 66.4697 658.511 66.5076 658.33 66.5455C658.148 66.5871 657.92 66.6098 657.648 66.6136C657.201 66.6212 656.784 66.5417 656.398 66.375C656.011 66.2083 655.699 65.9508 655.46 65.6023C655.222 65.2538 655.102 64.8163 655.102 64.2898V55.6818ZM664.841 54.8636H666.972L670.676 63.9091H670.812L674.517 54.8636H676.648V66.5H674.977V58.0795H674.869L671.438 66.483H670.051L666.619 58.0739H666.511V66.5H664.841V54.8636ZM682.825 66.6761C681.965 66.6761 681.225 66.4924 680.604 66.125C679.986 65.7538 679.509 65.233 679.172 64.5625C678.839 63.8883 678.672 63.0985 678.672 62.1932C678.672 61.2992 678.839 60.5114 679.172 59.8295C679.509 59.1477 679.979 58.6155 680.581 58.233C681.187 57.8504 681.895 57.6591 682.706 57.6591C683.198 57.6591 683.676 57.7405 684.138 57.9034C684.6 58.0663 685.015 58.322 685.382 58.6705C685.75 59.0189 686.039 59.4716 686.251 60.0284C686.464 60.5814 686.57 61.2538 686.57 62.0455V62.6477H679.632V61.375H684.905C684.905 60.928 684.814 60.5322 684.632 60.1875C684.45 59.839 684.195 59.5644 683.865 59.3636C683.539 59.1629 683.157 59.0625 682.717 59.0625C682.24 59.0625 681.823 59.1799 681.467 59.4148C681.115 59.6458 680.842 59.9489 680.649 60.3239C680.46 60.6951 680.365 61.0985 680.365 61.5341V62.5284C680.365 63.1117 680.467 63.608 680.672 64.017C680.88 64.4261 681.17 64.7386 681.541 64.9545C681.912 65.1667 682.346 65.2727 682.842 65.2727C683.164 65.2727 683.458 65.2273 683.723 65.1364C683.988 65.0417 684.217 64.9015 684.411 64.7159C684.604 64.5303 684.751 64.3011 684.854 64.0284L686.462 64.3182C686.333 64.7917 686.102 65.2064 685.768 65.5625C685.439 65.9148 685.024 66.1894 684.524 66.3864C684.028 66.5795 683.462 66.6761 682.825 66.6761Z" fill="white"/>
<path d="M713.278 66.5V54.8636H717.426C718.331 54.8636 719.081 55.0284 719.676 55.358C720.271 55.6875 720.716 56.1383 721.011 56.7102C721.307 57.2784 721.455 57.9186 721.455 58.6307C721.455 59.3466 721.305 59.9905 721.006 60.5625C720.71 61.1307 720.263 61.5814 719.665 61.9148C719.07 62.2443 718.322 62.4091 717.42 62.4091H714.568V60.9205H717.261C717.833 60.9205 718.297 60.822 718.653 60.625C719.009 60.4242 719.271 60.1515 719.438 59.8068C719.604 59.4621 719.688 59.0701 719.688 58.6307C719.688 58.1913 719.604 57.8011 719.438 57.4602C719.271 57.1193 719.008 56.8523 718.648 56.6591C718.292 56.4659 717.822 56.3693 717.239 56.3693H715.034V66.5H713.278ZM726.943 66.6761C726.125 66.6761 725.411 66.4886 724.801 66.1136C724.191 65.7386 723.718 65.214 723.381 64.5398C723.044 63.8655 722.875 63.0777 722.875 62.1761C722.875 61.2708 723.044 60.4792 723.381 59.8011C723.718 59.1231 724.191 58.5966 724.801 58.2216C725.411 57.8466 726.125 57.6591 726.943 57.6591C727.761 57.6591 728.475 57.8466 729.085 58.2216C729.695 58.5966 730.169 59.1231 730.506 59.8011C730.843 60.4792 731.011 61.2708 731.011 62.1761C731.011 63.0777 730.843 63.8655 730.506 64.5398C730.169 65.214 729.695 65.7386 729.085 66.1136C728.475 66.4886 727.761 66.6761 726.943 66.6761ZM726.949 65.25C727.479 65.25 727.919 65.1098 728.267 64.8295C728.616 64.5492 728.873 64.1761 729.04 63.7102C729.21 63.2443 729.295 62.7311 729.295 62.1705C729.295 61.6136 729.21 61.1023 729.04 60.6364C728.873 60.1667 728.616 59.7898 728.267 59.5057C727.919 59.2216 727.479 59.0795 726.949 59.0795C726.415 59.0795 725.972 59.2216 725.619 59.5057C725.271 59.7898 725.011 60.1667 724.841 60.6364C724.674 61.1023 724.591 61.6136 724.591 62.1705C724.591 62.7311 724.674 63.2443 724.841 63.7102C725.011 64.1761 725.271 64.5492 725.619 64.8295C725.972 65.1098 726.415 65.25 726.949 65.25ZM732.908 66.5V57.7727H734.55V59.1591H734.641C734.8 58.6894 735.08 58.3201 735.482 58.0511C735.887 57.7784 736.345 57.642 736.857 57.642C736.963 57.642 737.088 57.6458 737.232 57.6534C737.379 57.661 737.495 57.6705 737.578 57.6818V59.3068C737.51 59.2879 737.389 59.267 737.214 59.2443C737.04 59.2178 736.866 59.2045 736.692 59.2045C736.29 59.2045 735.932 59.2898 735.618 59.4602C735.307 59.6269 735.061 59.8598 734.879 60.1591C734.697 60.4545 734.607 60.7917 734.607 61.1705V66.5H732.908ZM743.638 57.7727V59.1364H738.871V57.7727H743.638ZM740.149 55.6818H741.848V63.9375C741.848 64.267 741.897 64.5152 741.996 64.6818C742.094 64.8447 742.221 64.9564 742.376 65.017C742.536 65.0739 742.708 65.1023 742.893 65.1023C743.03 65.1023 743.149 65.0928 743.251 65.0739C743.354 65.0549 743.433 65.0398 743.49 65.0284L743.797 66.4318C743.698 66.4697 743.558 66.5076 743.376 66.5455C743.195 66.5871 742.967 66.6098 742.695 66.6136C742.248 66.6212 741.831 66.5417 741.445 66.375C741.058 66.2083 740.746 65.9508 740.507 65.6023C740.268 65.2538 740.149 64.8163 740.149 64.2898V55.6818ZM749.67 57.7727V59.1364H744.739V57.7727H749.67ZM746.091 66.5V56.7614C746.091 56.2159 746.21 55.7633 746.449 55.4034C746.688 55.0398 747.004 54.7689 747.398 54.5909C747.792 54.4091 748.22 54.3182 748.682 54.3182C749.023 54.3182 749.314 54.3466 749.557 54.4034C749.799 54.4564 749.979 54.5057 750.097 54.5511L749.699 55.9261C749.619 55.9034 749.517 55.8769 749.392 55.8466C749.267 55.8125 749.116 55.7955 748.938 55.7955C748.525 55.7955 748.229 55.8977 748.051 56.1023C747.877 56.3068 747.79 56.6023 747.79 56.9886V66.5H746.091ZM754.756 66.6761C753.938 66.6761 753.223 66.4886 752.614 66.1136C752.004 65.7386 751.53 65.214 751.193 64.5398C750.856 63.8655 750.688 63.0777 750.688 62.1761C750.688 61.2708 750.856 60.4792 751.193 59.8011C751.53 59.1231 752.004 58.5966 752.614 58.2216C753.223 57.8466 753.938 57.6591 754.756 57.6591C755.574 57.6591 756.288 57.8466 756.898 58.2216C757.508 58.5966 757.981 59.1231 758.318 59.8011C758.655 60.4792 758.824 61.2708 758.824 62.1761C758.824 63.0777 758.655 63.8655 758.318 64.5398C757.981 65.214 757.508 65.7386 756.898 66.1136C756.288 66.4886 755.574 66.6761 754.756 66.6761ZM754.761 65.25C755.292 65.25 755.731 65.1098 756.08 64.8295C756.428 64.5492 756.686 64.1761 756.852 63.7102C757.023 63.2443 757.108 62.7311 757.108 62.1705C757.108 61.6136 757.023 61.1023 756.852 60.6364C756.686 60.1667 756.428 59.7898 756.08 59.5057C755.731 59.2216 755.292 59.0795 754.761 59.0795C754.227 59.0795 753.784 59.2216 753.432 59.5057C753.083 59.7898 752.824 60.1667 752.653 60.6364C752.487 61.1023 752.403 61.6136 752.403 62.1705C752.403 62.7311 752.487 63.2443 752.653 63.7102C752.824 64.1761 753.083 64.5492 753.432 64.8295C753.784 65.1098 754.227 65.25 754.761 65.25ZM762.419 54.8636V66.5H760.72V54.8636H762.419ZM764.705 66.5V57.7727H766.403V66.5H764.705ZM765.562 56.4261C765.267 56.4261 765.013 56.3277 764.801 56.1307C764.593 55.9299 764.489 55.6913 764.489 55.4148C764.489 55.1345 764.593 54.8958 764.801 54.6989C765.013 54.4981 765.267 54.3977 765.562 54.3977C765.858 54.3977 766.11 54.4981 766.318 54.6989C766.53 54.8958 766.636 55.1345 766.636 55.4148C766.636 55.6913 766.53 55.9299 766.318 56.1307C766.11 56.3277 765.858 56.4261 765.562 56.4261ZM772.365 66.6761C771.547 66.6761 770.833 66.4886 770.223 66.1136C769.613 65.7386 769.14 65.214 768.803 64.5398C768.465 63.8655 768.297 63.0777 768.297 62.1761C768.297 61.2708 768.465 60.4792 768.803 59.8011C769.14 59.1231 769.613 58.5966 770.223 58.2216C770.833 57.8466 771.547 57.6591 772.365 57.6591C773.183 57.6591 773.897 57.8466 774.507 58.2216C775.117 58.5966 775.59 59.1231 775.928 59.8011C776.265 60.4792 776.433 61.2708 776.433 62.1761C776.433 63.0777 776.265 63.8655 775.928 64.5398C775.59 65.214 775.117 65.7386 774.507 66.1136C773.897 66.4886 773.183 66.6761 772.365 66.6761ZM772.371 65.25C772.901 65.25 773.34 65.1098 773.689 64.8295C774.037 64.5492 774.295 64.1761 774.462 63.7102C774.632 63.2443 774.717 62.7311 774.717 62.1705C774.717 61.6136 774.632 61.1023 774.462 60.6364C774.295 60.1667 774.037 59.7898 773.689 59.5057C773.34 59.2216 772.901 59.0795 772.371 59.0795C771.837 59.0795 771.393 59.2216 771.041 59.5057C770.693 59.7898 770.433 60.1667 770.263 60.6364C770.096 61.1023 770.013 61.6136 770.013 62.1705C770.013 62.7311 770.096 63.2443 770.263 63.7102C770.433 64.1761 770.693 64.5492 771.041 64.8295C771.393 65.1098 771.837 65.25 772.371 65.25Z" fill="white"/>
<path d="M812.943 58.6477H811.17C811.102 58.2689 810.975 57.9356 810.79 57.6477C810.604 57.3598 810.377 57.1155 810.108 56.9148C809.839 56.714 809.538 56.5625 809.205 56.4602C808.875 56.358 808.525 56.3068 808.153 56.3068C807.483 56.3068 806.883 56.4754 806.352 56.8125C805.826 57.1496 805.409 57.6439 805.102 58.2955C804.799 58.947 804.648 59.7424 804.648 60.6818C804.648 61.6288 804.799 62.428 805.102 63.0795C805.409 63.7311 805.828 64.2235 806.358 64.5568C806.888 64.8902 807.485 65.0568 808.148 65.0568C808.515 65.0568 808.864 65.0076 809.193 64.9091C809.527 64.8068 809.828 64.6572 810.097 64.4602C810.366 64.2633 810.593 64.0227 810.778 63.7386C810.968 63.4508 811.098 63.1212 811.17 62.75L812.943 62.7557C812.848 63.3277 812.665 63.8542 812.392 64.3352C812.123 64.8125 811.777 65.2254 811.352 65.5739C810.932 65.9186 810.451 66.1856 809.909 66.375C809.367 66.5644 808.777 66.6591 808.136 66.6591C807.129 66.6591 806.231 66.4205 805.443 65.9432C804.655 65.4621 804.034 64.7746 803.58 63.8807C803.129 62.9867 802.903 61.9205 802.903 60.6818C802.903 59.4394 803.131 58.3731 803.585 57.483C804.04 56.589 804.661 55.9034 805.449 55.4261C806.237 54.9451 807.133 54.7045 808.136 54.7045C808.754 54.7045 809.33 54.7936 809.864 54.9716C810.402 55.1458 810.884 55.4034 811.312 55.7443C811.741 56.0814 812.095 56.4943 812.375 56.983C812.655 57.4678 812.845 58.0227 812.943 58.6477ZM818.584 66.6761C817.766 66.6761 817.052 66.4886 816.442 66.1136C815.832 65.7386 815.358 65.214 815.021 64.5398C814.684 63.8655 814.516 63.0777 814.516 62.1761C814.516 61.2708 814.684 60.4792 815.021 59.8011C815.358 59.1231 815.832 58.5966 816.442 58.2216C817.052 57.8466 817.766 57.6591 818.584 57.6591C819.402 57.6591 820.116 57.8466 820.726 58.2216C821.336 58.5966 821.809 59.1231 822.146 59.8011C822.483 60.4792 822.652 61.2708 822.652 62.1761C822.652 63.0777 822.483 63.8655 822.146 64.5398C821.809 65.214 821.336 65.7386 820.726 66.1136C820.116 66.4886 819.402 66.6761 818.584 66.6761ZM818.589 65.25C819.12 65.25 819.559 65.1098 819.908 64.8295C820.256 64.5492 820.514 64.1761 820.68 63.7102C820.851 63.2443 820.936 62.7311 820.936 62.1705C820.936 61.6136 820.851 61.1023 820.68 60.6364C820.514 60.1667 820.256 59.7898 819.908 59.5057C819.559 59.2216 819.12 59.0795 818.589 59.0795C818.055 59.0795 817.612 59.2216 817.26 59.5057C816.911 59.7898 816.652 60.1667 816.482 60.6364C816.315 61.1023 816.232 61.6136 816.232 62.1705C816.232 62.7311 816.315 63.2443 816.482 63.7102C816.652 64.1761 816.911 64.5492 817.26 64.8295C817.612 65.1098 818.055 65.25 818.589 65.25ZM826.247 61.3182V66.5H824.548V57.7727H826.179V59.1932H826.287C826.488 58.7311 826.802 58.3598 827.23 58.0795C827.662 57.7992 828.205 57.6591 828.861 57.6591C829.455 57.6591 829.976 57.7841 830.423 58.0341C830.87 58.2803 831.217 58.6477 831.463 59.1364C831.709 59.625 831.832 60.2292 831.832 60.9489V66.5H830.134V61.1534C830.134 60.5208 829.969 60.0265 829.639 59.6705C829.31 59.3106 828.857 59.1307 828.281 59.1307C827.887 59.1307 827.537 59.2159 827.23 59.3864C826.927 59.5568 826.687 59.8068 826.509 60.1364C826.334 60.4621 826.247 60.8561 826.247 61.3182ZM838.185 57.7727V59.1364H833.418V57.7727H838.185ZM834.696 55.6818H836.395V63.9375C836.395 64.267 836.444 64.5152 836.543 64.6818C836.641 64.8447 836.768 64.9564 836.923 65.017C837.082 65.0739 837.255 65.1023 837.44 65.1023C837.577 65.1023 837.696 65.0928 837.798 65.0739C837.901 65.0549 837.98 65.0398 838.037 65.0284L838.344 66.4318C838.245 66.4697 838.105 66.5076 837.923 66.5455C837.741 66.5871 837.514 66.6098 837.241 66.6136C836.795 66.6212 836.378 66.5417 835.991 66.375C835.605 66.2083 835.293 65.9508 835.054 65.6023C834.815 65.2538 834.696 64.8163 834.696 64.2898V55.6818ZM842.604 66.6932C842.051 66.6932 841.551 66.5909 841.104 66.3864C840.657 66.178 840.303 65.8769 840.041 65.483C839.784 65.089 839.655 64.6061 839.655 64.0341C839.655 63.5417 839.75 63.1364 839.939 62.8182C840.128 62.5 840.384 62.2481 840.706 62.0625C841.028 61.8769 841.388 61.7367 841.786 61.642C842.183 61.5473 842.589 61.4754 843.001 61.4261C843.524 61.3655 843.948 61.3163 844.274 61.2784C844.6 61.2367 844.837 61.1705 844.984 61.0795C845.132 60.9886 845.206 60.8409 845.206 60.6364V60.5966C845.206 60.1004 845.066 59.7159 844.786 59.4432C844.509 59.1705 844.096 59.0341 843.547 59.0341C842.975 59.0341 842.524 59.161 842.195 59.4148C841.869 59.6648 841.643 59.9432 841.518 60.25L839.922 59.8864C840.111 59.3561 840.388 58.928 840.751 58.6023C841.119 58.2727 841.541 58.0341 842.018 57.8864C842.496 57.7348 842.998 57.6591 843.524 57.6591C843.873 57.6591 844.242 57.7008 844.632 57.7841C845.026 57.8636 845.393 58.0114 845.734 58.2273C846.079 58.4432 846.361 58.7519 846.581 59.1534C846.801 59.5511 846.911 60.0682 846.911 60.7045V66.5H845.251V65.3068H845.183C845.073 65.5265 844.909 65.7424 844.689 65.9545C844.469 66.1667 844.187 66.3428 843.842 66.483C843.498 66.6231 843.085 66.6932 842.604 66.6932ZM842.973 65.3295C843.443 65.3295 843.844 65.2367 844.178 65.0511C844.515 64.8655 844.77 64.6231 844.945 64.3239C845.123 64.0208 845.212 63.697 845.212 63.3523V62.2273C845.151 62.2879 845.034 62.3447 844.859 62.3977C844.689 62.447 844.494 62.4905 844.274 62.5284C844.054 62.5625 843.84 62.5947 843.632 62.625C843.424 62.6515 843.25 62.6742 843.109 62.6932C842.78 62.7348 842.479 62.8049 842.206 62.9034C841.937 63.0019 841.721 63.1439 841.558 63.3295C841.399 63.5114 841.32 63.7538 841.32 64.0568C841.32 64.4773 841.475 64.7955 841.786 65.0114C842.096 65.2235 842.492 65.3295 842.973 65.3295ZM852.849 66.6761C852.005 66.6761 851.277 66.4848 850.668 66.1023C850.062 65.7159 849.596 65.1837 849.27 64.5057C848.944 63.8277 848.781 63.0511 848.781 62.1761C848.781 61.2898 848.948 60.5076 849.281 59.8295C849.615 59.1477 850.084 58.6155 850.69 58.233C851.296 57.8504 852.01 57.6591 852.832 57.6591C853.495 57.6591 854.086 57.7822 854.605 58.0284C855.124 58.2708 855.543 58.6117 855.861 59.0511C856.183 59.4905 856.374 60.0038 856.435 60.5909H854.781C854.69 60.1818 854.482 59.8295 854.156 59.5341C853.834 59.2386 853.402 59.0909 852.861 59.0909C852.387 59.0909 851.973 59.2159 851.616 59.4659C851.264 59.7121 850.99 60.0644 850.793 60.5227C850.596 60.9773 850.497 61.5152 850.497 62.1364C850.497 62.7727 850.594 63.322 850.787 63.7841C850.98 64.2462 851.253 64.6042 851.605 64.858C851.961 65.1117 852.38 65.2386 852.861 65.2386C853.183 65.2386 853.474 65.1799 853.736 65.0625C854.001 64.9413 854.223 64.7689 854.401 64.5455C854.582 64.322 854.709 64.053 854.781 63.7386H856.435C856.374 64.303 856.19 64.8068 855.884 65.25C855.577 65.6932 855.166 66.0417 854.651 66.2955C854.139 66.5492 853.539 66.6761 852.849 66.6761ZM862.325 57.7727V59.1364H857.558V57.7727H862.325ZM858.837 55.6818H860.536V63.9375C860.536 64.267 860.585 64.5152 860.683 64.6818C860.782 64.8447 860.909 64.9564 861.064 65.017C861.223 65.0739 861.395 65.1023 861.581 65.1023C861.717 65.1023 861.837 65.0928 861.939 65.0739C862.041 65.0549 862.121 65.0398 862.178 65.0284L862.484 66.4318C862.386 66.4697 862.246 66.5076 862.064 66.5455C861.882 66.5871 861.655 66.6098 861.382 66.6136C860.935 66.6212 860.518 66.5417 860.132 66.375C859.746 66.2083 859.433 65.9508 859.195 65.6023C858.956 65.2538 858.837 64.8163 858.837 64.2898V55.6818ZM868.575 54.8636H870.706L874.411 63.9091H874.547L878.251 54.8636H880.382V66.5H878.712V58.0795H878.604L875.172 66.483H873.786L870.354 58.0739H870.246V66.5H868.575V54.8636ZM886.56 66.6761C885.7 66.6761 884.959 66.4924 884.338 66.125C883.721 65.7538 883.243 65.233 882.906 64.5625C882.573 63.8883 882.406 63.0985 882.406 62.1932C882.406 61.2992 882.573 60.5114 882.906 59.8295C883.243 59.1477 883.713 58.6155 884.315 58.233C884.921 57.8504 885.63 57.6591 886.44 57.6591C886.933 57.6591 887.41 57.7405 887.872 57.9034C888.334 58.0663 888.749 58.322 889.116 58.6705C889.484 59.0189 889.774 59.4716 889.986 60.0284C890.198 60.5814 890.304 61.2538 890.304 62.0455V62.6477H883.366V61.375H888.639C888.639 60.928 888.548 60.5322 888.366 60.1875C888.185 59.839 887.929 59.5644 887.599 59.3636C887.274 59.1629 886.891 59.0625 886.452 59.0625C885.974 59.0625 885.558 59.1799 885.202 59.4148C884.849 59.6458 884.577 59.9489 884.384 60.3239C884.194 60.6951 884.099 61.0985 884.099 61.5341V62.5284C884.099 63.1117 884.202 63.608 884.406 64.017C884.615 64.4261 884.904 64.7386 885.276 64.9545C885.647 65.1667 886.08 65.2727 886.577 65.2727C886.899 65.2727 887.192 65.2273 887.457 65.1364C887.723 65.0417 887.952 64.9015 888.145 64.7159C888.338 64.5303 888.486 64.3011 888.588 64.0284L890.196 64.3182C890.067 64.7917 889.836 65.2064 889.503 65.5625C889.173 65.9148 888.759 66.1894 888.259 66.3864C887.762 66.5795 887.196 66.6761 886.56 66.6761Z" fill="white"/>
<defs>
<filter id="filter0_i_140_1090" x="1199" y="40" width="40" height="40" filterUnits="userSpaceOnUse" color-interpolation-filters="sRGB">
<feFlood flood-opacity="0" result="BackgroundImageFix"/>
<feBlend mode="normal" in="SourceGraphic" in2="BackgroundImageFix" result="shape"/>
<feColorMatrix in="SourceAlpha" type="matrix" values="0 0 0 0 0 0 0 0 0 0 0 0 0 0 0 0 0 0 127 0" result="hardAlpha"/>
<feMorphology radius="4" operator="erode" in="SourceAlpha" result="effect1_innerShadow_140_1090"/>
<feOffset/>
<feGaussianBlur stdDeviation="7"/>
<feComposite in2="hardAlpha" operator="arithmetic" k2="-1" k3="1"/>
<feColorMatrix type="matrix" values="0 0 0 0 1 0 0 0 0 1 0 0 0 0 1 0 0 0 0.5 0"/>
<feBlend mode="normal" in2="shape" result="effect1_innerShadow_140_1090"/>
</filter>
<filter id="filter1_i_140_1090" x="1253" y="40" width="40" height="40" filterUnits="userSpaceOnUse" color-interpolation-filters="sRGB">
<feFlood flood-opacity="0" result="BackgroundImageFix"/>
<feBlend mode="normal" in="SourceGraphic" in2="BackgroundImageFix" result="shape"/>
<feColorMatrix in="SourceAlpha" type="matrix" values="0 0 0 0 0 0 0 0 0 0 0 0 0 0 0 0 0 0 127 0" result="hardAlpha"/>
<feMorphology radius="4" operator="erode" in="SourceAlpha" result="effect1_innerShadow_140_1090"/>
<feOffset/>
<feGaussianBlur stdDeviation="7"/>
<feComposite in2="hardAlpha" operator="arithmetic" k2="-1" k3="1"/>
<feColorMatrix type="matrix" values="0 0 0 0 1 0 0 0 0 1 0 0 0 0 1 0 0 0 0.5 0"/>
<feBlend mode="normal" in2="shape" result="effect1_innerShadow_140_1090"/>
</filter>
<filter id="filter2_i_140_1090" x="1307" y="40" width="40" height="40" filterUnits="userSpaceOnUse" color-interpolation-filters="sRGB">
<feFlood flood-opacity="0" result="BackgroundImageFix"/>
<feBlend mode="normal" in="SourceGraphic" in2="BackgroundImageFix" result="shape"/>
<feColorMatrix in="SourceAlpha" type="matrix" values="0 0 0 0 0 0 0 0 0 0 0 0 0 0 0 0 0 0 127 0" result="hardAlpha"/>
<feMorphology radius="4" operator="erode" in="SourceAlpha" result="effect1_innerShadow_140_1090"/>
<feOffset/>
<feGaussianBlur stdDeviation="7"/>
<feComposite in2="hardAlpha" operator="arithmetic" k2="-1" k3="1"/>
<feColorMatrix type="matrix" values="0 0 0 0 1 0 0 0 0 1 0 0 0 0 1 0 0 0 0.5 0"/>
<feBlend mode="normal" in2="shape" result="effect1_innerShadow_140_1090"/>
</filter>
<clipPath id="clip0_140_1090">
<rect width="20" height="20" fill="white" transform="translate(1209 50)"/>
</clipPath>
<clipPath id="clip1_140_1090">
<rect width="20" height="20" fill="white" transform="translate(1263 50)"/>
</clipPath>
</defs>
</svg>
