<svg width="536" height="48" viewBox="0 0 536 48" fill="none" xmlns="http://www.w3.org/2000/svg">
<path d="M25.2784 30V18.3636H27.0341V23.4205H32.8352V18.3636H34.5966V30H32.8352V24.9261H27.0341V30H25.2784ZM40.6932 30.1761C39.875 30.1761 39.161 29.9886 38.5511 29.6136C37.9413 29.2386 37.4678 28.714 37.1307 28.0398C36.7936 27.3655 36.625 26.5777 36.625 25.6761C36.625 24.7708 36.7936 23.9792 37.1307 23.3011C37.4678 22.6231 37.9413 22.0966 38.5511 21.7216C39.161 21.3466 39.875 21.1591 40.6932 21.1591C41.5114 21.1591 42.2254 21.3466 42.8352 21.7216C43.4451 22.0966 43.9186 22.6231 44.2557 23.3011C44.5928 23.9792 44.7614 24.7708 44.7614 25.6761C44.7614 26.5777 44.5928 27.3655 44.2557 28.0398C43.9186 28.714 43.4451 29.2386 42.8352 29.6136C42.2254 29.9886 41.5114 30.1761 40.6932 30.1761ZM40.6989 28.75C41.2292 28.75 41.6686 28.6098 42.017 28.3295C42.3655 28.0492 42.6231 27.6761 42.7898 27.2102C42.9602 26.7443 43.0455 26.2311 43.0455 25.6705C43.0455 25.1136 42.9602 24.6023 42.7898 24.1364C42.6231 23.6667 42.3655 23.2898 42.017 23.0057C41.6686 22.7216 41.2292 22.5795 40.6989 22.5795C40.1648 22.5795 39.7216 22.7216 39.3693 23.0057C39.0208 23.2898 38.7614 23.6667 38.5909 24.1364C38.4242 24.6023 38.3409 25.1136 38.3409 25.6705C38.3409 26.2311 38.4242 26.7443 38.5909 27.2102C38.7614 27.6761 39.0208 28.0492 39.3693 28.3295C39.7216 28.6098 40.1648 28.75 40.6989 28.75ZM46.6577 30V21.2727H48.2884V22.6932H48.3963C48.5781 22.2121 48.8755 21.8371 49.2884 21.5682C49.7012 21.2955 50.1955 21.1591 50.7713 21.1591C51.3546 21.1591 51.8433 21.2955 52.2372 21.5682C52.6349 21.8409 52.9285 22.2159 53.1179 22.6932H53.2088C53.4171 22.2273 53.7486 21.8561 54.2031 21.5795C54.6577 21.2992 55.1993 21.1591 55.8281 21.1591C56.6198 21.1591 57.2656 21.4072 57.7656 21.9034C58.2694 22.3996 58.5213 23.1477 58.5213 24.1477V30H56.8224V24.3068C56.8224 23.7159 56.6615 23.2879 56.3395 23.0227C56.0175 22.7576 55.633 22.625 55.1861 22.625C54.633 22.625 54.2031 22.7955 53.8963 23.1364C53.5895 23.4735 53.4361 23.9072 53.4361 24.4375V30H51.7429V24.1989C51.7429 23.7254 51.5952 23.3447 51.2997 23.0568C51.0043 22.7689 50.6198 22.625 50.1463 22.625C49.8243 22.625 49.527 22.7102 49.2543 22.8807C48.9853 23.0473 48.7675 23.2803 48.6009 23.5795C48.438 23.8788 48.3565 24.2254 48.3565 24.6193V30H46.6577ZM64.5597 30.1761C63.6998 30.1761 62.9593 29.9924 62.3381 29.625C61.7206 29.2538 61.2434 28.733 60.9062 28.0625C60.5729 27.3883 60.4062 26.5985 60.4062 25.6932C60.4062 24.7992 60.5729 24.0114 60.9062 23.3295C61.2434 22.6477 61.7131 22.1155 62.3153 21.733C62.9214 21.3504 63.6297 21.1591 64.4403 21.1591C64.9328 21.1591 65.41 21.2405 65.8722 21.4034C66.3343 21.5663 66.7491 21.822 67.1165 22.1705C67.4839 22.5189 67.7737 22.9716 67.9858 23.5284C68.1979 24.0814 68.304 24.7538 68.304 25.5455V26.1477H61.3665V24.875H66.6392C66.6392 24.428 66.5483 24.0322 66.3665 23.6875C66.1847 23.339 65.929 23.0644 65.5994 22.8636C65.2737 22.6629 64.8911 22.5625 64.4517 22.5625C63.9744 22.5625 63.5578 22.6799 63.2017 22.9148C62.8494 23.1458 62.5767 23.4489 62.3835 23.8239C62.1941 24.1951 62.0994 24.5985 62.0994 25.0341V26.0284C62.0994 26.6117 62.2017 27.108 62.4062 27.517C62.6146 27.9261 62.9044 28.2386 63.2756 28.4545C63.6468 28.6667 64.0805 28.7727 64.5767 28.7727C64.8987 28.7727 65.1922 28.7273 65.4574 28.6364C65.7225 28.5417 65.9517 28.4015 66.1449 28.2159C66.3381 28.0303 66.4858 27.8011 66.5881 27.5284L68.196 27.8182C68.0672 28.2917 67.8362 28.7064 67.5028 29.0625C67.1733 29.4148 66.7585 29.6894 66.2585 29.8864C65.7623 30.0795 65.196 30.1761 64.5597 30.1761Z" fill="white"/>
<path d="M120.261 30H118.398L122.585 18.3636H124.614L128.801 30H126.938L123.648 20.4773H123.557L120.261 30ZM120.574 25.4432H126.619V26.9205H120.574V25.4432ZM130.482 30V18.3636H132.18V22.6875H132.283C132.381 22.5057 132.523 22.2955 132.709 22.0568C132.894 21.8182 133.152 21.6098 133.482 21.4318C133.811 21.25 134.247 21.1591 134.788 21.1591C135.493 21.1591 136.122 21.3371 136.675 21.6932C137.228 22.0492 137.661 22.5625 137.976 23.233C138.294 23.9034 138.453 24.7102 138.453 25.6534C138.453 26.5966 138.296 27.4053 137.982 28.0795C137.667 28.75 137.235 29.267 136.686 29.6307C136.137 29.9905 135.51 30.1705 134.805 30.1705C134.275 30.1705 133.841 30.0814 133.504 29.9034C133.171 29.7254 132.91 29.517 132.72 29.2784C132.531 29.0398 132.385 28.8277 132.283 28.642H132.141V30H130.482ZM132.146 25.6364C132.146 26.25 132.235 26.7879 132.413 27.25C132.591 27.7121 132.849 28.0739 133.186 28.3352C133.523 28.5928 133.936 28.7216 134.425 28.7216C134.932 28.7216 135.357 28.5871 135.697 28.3182C136.038 28.0455 136.296 27.6761 136.47 27.2102C136.648 26.7443 136.737 26.2197 136.737 25.6364C136.737 25.0606 136.65 24.5436 136.476 24.0852C136.305 23.6269 136.048 23.2652 135.703 23C135.362 22.7348 134.936 22.6023 134.425 22.6023C133.932 22.6023 133.516 22.7292 133.175 22.983C132.838 23.2367 132.582 23.5909 132.408 24.0455C132.233 24.5 132.146 25.0303 132.146 25.6364ZM144.037 30.1761C143.219 30.1761 142.505 29.9886 141.895 29.6136C141.285 29.2386 140.812 28.714 140.474 28.0398C140.137 27.3655 139.969 26.5777 139.969 25.6761C139.969 24.7708 140.137 23.9792 140.474 23.3011C140.812 22.6231 141.285 22.0966 141.895 21.7216C142.505 21.3466 143.219 21.1591 144.037 21.1591C144.855 21.1591 145.569 21.3466 146.179 21.7216C146.789 22.0966 147.262 22.6231 147.599 23.3011C147.937 23.9792 148.105 24.7708 148.105 25.6761C148.105 26.5777 147.937 27.3655 147.599 28.0398C147.262 28.714 146.789 29.2386 146.179 29.6136C145.569 29.9886 144.855 30.1761 144.037 30.1761ZM144.043 28.75C144.573 28.75 145.012 28.6098 145.361 28.3295C145.709 28.0492 145.967 27.6761 146.134 27.2102C146.304 26.7443 146.389 26.2311 146.389 25.6705C146.389 25.1136 146.304 24.6023 146.134 24.1364C145.967 23.6667 145.709 23.2898 145.361 23.0057C145.012 22.7216 144.573 22.5795 144.043 22.5795C143.509 22.5795 143.065 22.7216 142.713 23.0057C142.365 23.2898 142.105 23.6667 141.935 24.1364C141.768 24.6023 141.685 25.1136 141.685 25.6705C141.685 26.2311 141.768 26.7443 141.935 27.2102C142.105 27.6761 142.365 28.0492 142.713 28.3295C143.065 28.6098 143.509 28.75 144.043 28.75ZM155.53 26.3807V21.2727H157.234V30H155.564V28.4886H155.473C155.272 28.9545 154.95 29.3428 154.507 29.6534C154.068 29.9602 153.52 30.1136 152.865 30.1136C152.304 30.1136 151.808 29.9905 151.376 29.7443C150.948 29.4943 150.611 29.125 150.365 28.6364C150.123 28.1477 150.001 27.5436 150.001 26.8239V21.2727H151.7V26.6193C151.7 27.214 151.865 27.6875 152.195 28.0398C152.524 28.392 152.952 28.5682 153.479 28.5682C153.797 28.5682 154.113 28.4886 154.428 28.3295C154.746 28.1705 155.009 27.9299 155.217 27.608C155.429 27.286 155.534 26.8769 155.53 26.3807ZM163.591 21.2727V22.6364H158.824V21.2727H163.591ZM160.102 19.1818H161.801V27.4375C161.801 27.767 161.85 28.0152 161.949 28.1818C162.047 28.3447 162.174 28.4564 162.33 28.517C162.489 28.5739 162.661 28.6023 162.847 28.6023C162.983 28.6023 163.102 28.5928 163.205 28.5739C163.307 28.5549 163.386 28.5398 163.443 28.5284L163.75 29.9318C163.652 29.9697 163.511 30.0076 163.33 30.0455C163.148 30.0871 162.92 30.1098 162.648 30.1136C162.201 30.1212 161.784 30.0417 161.398 29.875C161.011 29.7083 160.699 29.4508 160.46 29.1023C160.222 28.7538 160.102 28.3163 160.102 27.7898V19.1818Z" fill="white"/>
<path d="M214.278 30V18.3636H218.426C219.331 18.3636 220.081 18.5284 220.676 18.858C221.271 19.1875 221.716 19.6383 222.011 20.2102C222.307 20.7784 222.455 21.4186 222.455 22.1307C222.455 22.8466 222.305 23.4905 222.006 24.0625C221.71 24.6307 221.263 25.0814 220.665 25.4148C220.07 25.7443 219.322 25.9091 218.42 25.9091H215.568V24.4205H218.261C218.833 24.4205 219.297 24.322 219.653 24.125C220.009 23.9242 220.271 23.6515 220.438 23.3068C220.604 22.9621 220.688 22.5701 220.688 22.1307C220.688 21.6913 220.604 21.3011 220.438 20.9602C220.271 20.6193 220.008 20.3523 219.648 20.1591C219.292 19.9659 218.822 19.8693 218.239 19.8693H216.034V30H214.278ZM227.943 30.1761C227.125 30.1761 226.411 29.9886 225.801 29.6136C225.191 29.2386 224.718 28.714 224.381 28.0398C224.044 27.3655 223.875 26.5777 223.875 25.6761C223.875 24.7708 224.044 23.9792 224.381 23.3011C224.718 22.6231 225.191 22.0966 225.801 21.7216C226.411 21.3466 227.125 21.1591 227.943 21.1591C228.761 21.1591 229.475 21.3466 230.085 21.7216C230.695 22.0966 231.169 22.6231 231.506 23.3011C231.843 23.9792 232.011 24.7708 232.011 25.6761C232.011 26.5777 231.843 27.3655 231.506 28.0398C231.169 28.714 230.695 29.2386 230.085 29.6136C229.475 29.9886 228.761 30.1761 227.943 30.1761ZM227.949 28.75C228.479 28.75 228.919 28.6098 229.267 28.3295C229.616 28.0492 229.873 27.6761 230.04 27.2102C230.21 26.7443 230.295 26.2311 230.295 25.6705C230.295 25.1136 230.21 24.6023 230.04 24.1364C229.873 23.6667 229.616 23.2898 229.267 23.0057C228.919 22.7216 228.479 22.5795 227.949 22.5795C227.415 22.5795 226.972 22.7216 226.619 23.0057C226.271 23.2898 226.011 23.6667 225.841 24.1364C225.674 24.6023 225.591 25.1136 225.591 25.6705C225.591 26.2311 225.674 26.7443 225.841 27.2102C226.011 27.6761 226.271 28.0492 226.619 28.3295C226.972 28.6098 227.415 28.75 227.949 28.75ZM233.908 30V21.2727H235.55V22.6591H235.641C235.8 22.1894 236.08 21.8201 236.482 21.5511C236.887 21.2784 237.345 21.142 237.857 21.142C237.963 21.142 238.088 21.1458 238.232 21.1534C238.379 21.161 238.495 21.1705 238.578 21.1818V22.8068C238.51 22.7879 238.389 22.767 238.214 22.7443C238.04 22.7178 237.866 22.7045 237.692 22.7045C237.29 22.7045 236.932 22.7898 236.618 22.9602C236.307 23.1269 236.061 23.3598 235.879 23.6591C235.697 23.9545 235.607 24.2917 235.607 24.6705V30H233.908ZM244.638 21.2727V22.6364H239.871V21.2727H244.638ZM241.149 19.1818H242.848V27.4375C242.848 27.767 242.897 28.0152 242.996 28.1818C243.094 28.3447 243.221 28.4564 243.376 28.517C243.536 28.5739 243.708 28.6023 243.893 28.6023C244.03 28.6023 244.149 28.5928 244.251 28.5739C244.354 28.5549 244.433 28.5398 244.49 28.5284L244.797 29.9318C244.698 29.9697 244.558 30.0076 244.376 30.0455C244.195 30.0871 243.967 30.1098 243.695 30.1136C243.248 30.1212 242.831 30.0417 242.445 29.875C242.058 29.7083 241.746 29.4508 241.507 29.1023C241.268 28.7538 241.149 28.3163 241.149 27.7898V19.1818ZM250.67 21.2727V22.6364H245.739V21.2727H250.67ZM247.091 30V20.2614C247.091 19.7159 247.21 19.2633 247.449 18.9034C247.688 18.5398 248.004 18.2689 248.398 18.0909C248.792 17.9091 249.22 17.8182 249.682 17.8182C250.023 17.8182 250.314 17.8466 250.557 17.9034C250.799 17.9564 250.979 18.0057 251.097 18.0511L250.699 19.4261C250.619 19.4034 250.517 19.3769 250.392 19.3466C250.267 19.3125 250.116 19.2955 249.938 19.2955C249.525 19.2955 249.229 19.3977 249.051 19.6023C248.877 19.8068 248.79 20.1023 248.79 20.4886V30H247.091ZM255.756 30.1761C254.938 30.1761 254.223 29.9886 253.614 29.6136C253.004 29.2386 252.53 28.714 252.193 28.0398C251.856 27.3655 251.688 26.5777 251.688 25.6761C251.688 24.7708 251.856 23.9792 252.193 23.3011C252.53 22.6231 253.004 22.0966 253.614 21.7216C254.223 21.3466 254.938 21.1591 255.756 21.1591C256.574 21.1591 257.288 21.3466 257.898 21.7216C258.508 22.0966 258.981 22.6231 259.318 23.3011C259.655 23.9792 259.824 24.7708 259.824 25.6761C259.824 26.5777 259.655 27.3655 259.318 28.0398C258.981 28.714 258.508 29.2386 257.898 29.6136C257.288 29.9886 256.574 30.1761 255.756 30.1761ZM255.761 28.75C256.292 28.75 256.731 28.6098 257.08 28.3295C257.428 28.0492 257.686 27.6761 257.852 27.2102C258.023 26.7443 258.108 26.2311 258.108 25.6705C258.108 25.1136 258.023 24.6023 257.852 24.1364C257.686 23.6667 257.428 23.2898 257.08 23.0057C256.731 22.7216 256.292 22.5795 255.761 22.5795C255.227 22.5795 254.784 22.7216 254.432 23.0057C254.083 23.2898 253.824 23.6667 253.653 24.1364C253.487 24.6023 253.403 25.1136 253.403 25.6705C253.403 26.2311 253.487 26.7443 253.653 27.2102C253.824 27.6761 254.083 28.0492 254.432 28.3295C254.784 28.6098 255.227 28.75 255.761 28.75ZM263.419 18.3636V30H261.72V18.3636H263.419ZM265.705 30V21.2727H267.403V30H265.705ZM266.562 19.9261C266.267 19.9261 266.013 19.8277 265.801 19.6307C265.593 19.4299 265.489 19.1913 265.489 18.9148C265.489 18.6345 265.593 18.3958 265.801 18.1989C266.013 17.9981 266.267 17.8977 266.562 17.8977C266.858 17.8977 267.11 17.9981 267.318 18.1989C267.53 18.3958 267.636 18.6345 267.636 18.9148C267.636 19.1913 267.53 19.4299 267.318 19.6307C267.11 19.8277 266.858 19.9261 266.562 19.9261ZM273.365 30.1761C272.547 30.1761 271.833 29.9886 271.223 29.6136C270.613 29.2386 270.14 28.714 269.803 28.0398C269.465 27.3655 269.297 26.5777 269.297 25.6761C269.297 24.7708 269.465 23.9792 269.803 23.3011C270.14 22.6231 270.613 22.0966 271.223 21.7216C271.833 21.3466 272.547 21.1591 273.365 21.1591C274.183 21.1591 274.897 21.3466 275.507 21.7216C276.117 22.0966 276.59 22.6231 276.928 23.3011C277.265 23.9792 277.433 24.7708 277.433 25.6761C277.433 26.5777 277.265 27.3655 276.928 28.0398C276.59 28.714 276.117 29.2386 275.507 29.6136C274.897 29.9886 274.183 30.1761 273.365 30.1761ZM273.371 28.75C273.901 28.75 274.34 28.6098 274.689 28.3295C275.037 28.0492 275.295 27.6761 275.462 27.2102C275.632 26.7443 275.717 26.2311 275.717 25.6705C275.717 25.1136 275.632 24.6023 275.462 24.1364C275.295 23.6667 275.037 23.2898 274.689 23.0057C274.34 22.7216 273.901 22.5795 273.371 22.5795C272.837 22.5795 272.393 22.7216 272.041 23.0057C271.693 23.2898 271.433 23.6667 271.263 24.1364C271.096 24.6023 271.013 25.1136 271.013 25.6705C271.013 26.2311 271.096 26.7443 271.263 27.2102C271.433 27.6761 271.693 28.0492 272.041 28.3295C272.393 28.6098 272.837 28.75 273.371 28.75Z" fill="white"/>
<path d="M334.625 21.4205C334.564 20.8826 334.314 20.4659 333.875 20.1705C333.436 19.8712 332.883 19.7216 332.216 19.7216C331.739 19.7216 331.326 19.7973 330.977 19.9489C330.629 20.0966 330.358 20.3011 330.165 20.5625C329.975 20.8201 329.881 21.1136 329.881 21.4432C329.881 21.7197 329.945 21.9583 330.074 22.1591C330.206 22.3598 330.379 22.5284 330.591 22.6648C330.807 22.7973 331.038 22.9091 331.284 23C331.53 23.0871 331.767 23.1591 331.994 23.2159L333.131 23.5114C333.502 23.6023 333.883 23.7254 334.273 23.8807C334.663 24.036 335.025 24.2405 335.358 24.4943C335.691 24.7481 335.96 25.0625 336.165 25.4375C336.373 25.8125 336.477 26.2614 336.477 26.7841C336.477 27.4432 336.307 28.0284 335.966 28.5398C335.629 29.0511 335.138 29.4545 334.494 29.75C333.854 30.0455 333.08 30.1932 332.17 30.1932C331.299 30.1932 330.545 30.0549 329.909 29.7784C329.273 29.5019 328.775 29.1098 328.415 28.6023C328.055 28.0909 327.856 27.4848 327.818 26.7841H329.58C329.614 27.2045 329.75 27.5549 329.989 27.8352C330.231 28.1117 330.54 28.3182 330.915 28.4545C331.294 28.5871 331.708 28.6534 332.159 28.6534C332.655 28.6534 333.097 28.5758 333.483 28.4205C333.873 28.2614 334.18 28.0417 334.403 27.7614C334.627 27.4773 334.739 27.1458 334.739 26.767C334.739 26.4223 334.64 26.1402 334.443 25.9205C334.25 25.7008 333.987 25.5189 333.653 25.375C333.324 25.2311 332.951 25.1042 332.534 24.9943L331.159 24.6193C330.227 24.3655 329.489 23.9924 328.943 23.5C328.402 23.0076 328.131 22.3561 328.131 21.5455C328.131 20.875 328.313 20.2898 328.676 19.7898C329.04 19.2898 329.532 18.9015 330.153 18.625C330.775 18.3447 331.475 18.2045 332.256 18.2045C333.044 18.2045 333.739 18.3428 334.341 18.6193C334.947 18.8958 335.424 19.2765 335.773 19.7614C336.121 20.2424 336.303 20.7955 336.318 21.4205H334.625ZM342.2 30.1761C341.34 30.1761 340.6 29.9924 339.979 29.625C339.361 29.2538 338.884 28.733 338.547 28.0625C338.214 27.3883 338.047 26.5985 338.047 25.6932C338.047 24.7992 338.214 24.0114 338.547 23.3295C338.884 22.6477 339.354 22.1155 339.956 21.733C340.562 21.3504 341.27 21.1591 342.081 21.1591C342.573 21.1591 343.051 21.2405 343.513 21.4034C343.975 21.5663 344.39 21.822 344.757 22.1705C345.125 22.5189 345.414 22.9716 345.626 23.5284C345.839 24.0814 345.945 24.7538 345.945 25.5455V26.1477H339.007V24.875H344.28C344.28 24.428 344.189 24.0322 344.007 23.6875C343.825 23.339 343.57 23.0644 343.24 22.8636C342.914 22.6629 342.532 22.5625 342.092 22.5625C341.615 22.5625 341.198 22.6799 340.842 22.9148C340.49 23.1458 340.217 23.4489 340.024 23.8239C339.835 24.1951 339.74 24.5985 339.74 25.0341V26.0284C339.74 26.6117 339.842 27.108 340.047 27.517C340.255 27.9261 340.545 28.2386 340.916 28.4545C341.287 28.6667 341.721 28.7727 342.217 28.7727C342.539 28.7727 342.833 28.7273 343.098 28.6364C343.363 28.5417 343.592 28.4015 343.786 28.2159C343.979 28.0303 344.126 27.8011 344.229 27.5284L345.837 27.8182C345.708 28.2917 345.477 28.7064 345.143 29.0625C344.814 29.4148 344.399 29.6894 343.899 29.8864C343.403 30.0795 342.837 30.1761 342.2 30.1761ZM347.83 30V21.2727H349.472V22.6591H349.562C349.722 22.1894 350.002 21.8201 350.403 21.5511C350.809 21.2784 351.267 21.142 351.778 21.142C351.884 21.142 352.009 21.1458 352.153 21.1534C352.301 21.161 352.417 21.1705 352.5 21.1818V22.8068C352.432 22.7879 352.311 22.767 352.136 22.7443C351.962 22.7178 351.788 22.7045 351.614 22.7045C351.212 22.7045 350.854 22.7898 350.54 22.9602C350.229 23.1269 349.983 23.3598 349.801 23.6591C349.619 23.9545 349.528 24.2917 349.528 24.6705V30H347.83ZM361.702 21.2727L358.537 30H356.719L353.548 21.2727H355.372L357.582 27.9886H357.673L359.878 21.2727H361.702ZM363.298 30V21.2727H364.997V30H363.298ZM364.156 19.9261C363.861 19.9261 363.607 19.8277 363.395 19.6307C363.187 19.4299 363.082 19.1913 363.082 18.9148C363.082 18.6345 363.187 18.3958 363.395 18.1989C363.607 17.9981 363.861 17.8977 364.156 17.8977C364.452 17.8977 364.704 17.9981 364.912 18.1989C365.124 18.3958 365.23 18.6345 365.23 18.9148C365.23 19.1913 365.124 19.4299 364.912 19.6307C364.704 19.8277 364.452 19.9261 364.156 19.9261ZM370.959 30.1761C370.114 30.1761 369.387 29.9848 368.777 29.6023C368.171 29.2159 367.705 28.6837 367.379 28.0057C367.054 27.3277 366.891 26.5511 366.891 25.6761C366.891 24.7898 367.057 24.0076 367.391 23.3295C367.724 22.6477 368.194 22.1155 368.8 21.733C369.406 21.3504 370.12 21.1591 370.942 21.1591C371.605 21.1591 372.196 21.2822 372.714 21.5284C373.233 21.7708 373.652 22.1117 373.97 22.5511C374.292 22.9905 374.483 23.5038 374.544 24.0909H372.891C372.8 23.6818 372.591 23.3295 372.266 23.0341C371.944 22.7386 371.512 22.5909 370.97 22.5909C370.497 22.5909 370.082 22.7159 369.726 22.9659C369.374 23.2121 369.099 23.5644 368.902 24.0227C368.705 24.4773 368.607 25.0152 368.607 25.6364C368.607 26.2727 368.703 26.822 368.896 27.2841C369.089 27.7462 369.362 28.1042 369.714 28.358C370.071 28.6117 370.489 28.7386 370.97 28.7386C371.292 28.7386 371.584 28.6799 371.845 28.5625C372.11 28.4413 372.332 28.2689 372.51 28.0455C372.692 27.822 372.819 27.553 372.891 27.2386H374.544C374.483 27.803 374.3 28.3068 373.993 28.75C373.686 29.1932 373.275 29.5417 372.76 29.7955C372.249 30.0492 371.648 30.1761 370.959 30.1761ZM380.122 30.1761C379.262 30.1761 378.522 29.9924 377.901 29.625C377.283 29.2538 376.806 28.733 376.469 28.0625C376.135 27.3883 375.969 26.5985 375.969 25.6932C375.969 24.7992 376.135 24.0114 376.469 23.3295C376.806 22.6477 377.276 22.1155 377.878 21.733C378.484 21.3504 379.192 21.1591 380.003 21.1591C380.495 21.1591 380.973 21.2405 381.435 21.4034C381.897 21.5663 382.312 21.822 382.679 22.1705C383.046 22.5189 383.336 22.9716 383.548 23.5284C383.76 24.0814 383.866 24.7538 383.866 25.5455V26.1477H376.929V24.875H382.202C382.202 24.428 382.111 24.0322 381.929 23.6875C381.747 23.339 381.491 23.0644 381.162 22.8636C380.836 22.6629 380.454 22.5625 380.014 22.5625C379.537 22.5625 379.12 22.6799 378.764 22.9148C378.412 23.1458 378.139 23.4489 377.946 23.8239C377.757 24.1951 377.662 24.5985 377.662 25.0341V26.0284C377.662 26.6117 377.764 27.108 377.969 27.517C378.177 27.9261 378.467 28.2386 378.838 28.4545C379.209 28.6667 379.643 28.7727 380.139 28.7727C380.461 28.7727 380.755 28.7273 381.02 28.6364C381.285 28.5417 381.514 28.4015 381.707 28.2159C381.901 28.0303 382.048 27.8011 382.151 27.5284L383.759 27.8182C383.63 28.2917 383.399 28.7064 383.065 29.0625C382.736 29.4148 382.321 29.6894 381.821 29.8864C381.325 30.0795 380.759 30.1761 380.122 30.1761ZM392.291 23.4034L390.751 23.6761C390.687 23.4792 390.585 23.2917 390.445 23.1136C390.308 22.9356 390.123 22.7898 389.888 22.6761C389.653 22.5625 389.359 22.5057 389.007 22.5057C388.526 22.5057 388.125 22.6136 387.803 22.8295C387.481 23.0417 387.32 23.3163 387.32 23.6534C387.32 23.9451 387.428 24.1799 387.643 24.358C387.859 24.536 388.208 24.6818 388.689 24.7955L390.075 25.1136C390.878 25.2992 391.477 25.5852 391.871 25.9716C392.265 26.358 392.462 26.8598 392.462 27.4773C392.462 28 392.31 28.4659 392.007 28.875C391.708 29.2803 391.289 29.5985 390.751 29.8295C390.217 30.0606 389.598 30.1761 388.893 30.1761C387.916 30.1761 387.119 29.9678 386.501 29.5511C385.884 29.1307 385.505 28.5341 385.365 27.7614L387.007 27.5114C387.109 27.9394 387.32 28.2633 387.638 28.483C387.956 28.6989 388.371 28.8068 388.882 28.8068C389.439 28.8068 389.884 28.6913 390.217 28.4602C390.551 28.2254 390.717 27.9394 390.717 27.6023C390.717 27.3295 390.615 27.1004 390.411 26.9148C390.21 26.7292 389.901 26.589 389.484 26.4943L388.007 26.1705C387.193 25.9848 386.59 25.6894 386.2 25.2841C385.814 24.8788 385.621 24.3655 385.621 23.7443C385.621 23.2292 385.765 22.7784 386.053 22.392C386.34 22.0057 386.738 21.7045 387.246 21.4886C387.753 21.2689 388.335 21.1591 388.99 21.1591C389.933 21.1591 390.676 21.3636 391.217 21.7727C391.759 22.178 392.117 22.7216 392.291 23.4034Z" fill="white"/>
<path d="M452.943 22.1477H451.17C451.102 21.7689 450.975 21.4356 450.79 21.1477C450.604 20.8598 450.377 20.6155 450.108 20.4148C449.839 20.214 449.538 20.0625 449.205 19.9602C448.875 19.858 448.525 19.8068 448.153 19.8068C447.483 19.8068 446.883 19.9754 446.352 20.3125C445.826 20.6496 445.409 21.1439 445.102 21.7955C444.799 22.447 444.648 23.2424 444.648 24.1818C444.648 25.1288 444.799 25.928 445.102 26.5795C445.409 27.2311 445.828 27.7235 446.358 28.0568C446.888 28.3902 447.485 28.5568 448.148 28.5568C448.515 28.5568 448.864 28.5076 449.193 28.4091C449.527 28.3068 449.828 28.1572 450.097 27.9602C450.366 27.7633 450.593 27.5227 450.778 27.2386C450.968 26.9508 451.098 26.6212 451.17 26.25L452.943 26.2557C452.848 26.8277 452.665 27.3542 452.392 27.8352C452.123 28.3125 451.777 28.7254 451.352 29.0739C450.932 29.4186 450.451 29.6856 449.909 29.875C449.367 30.0644 448.777 30.1591 448.136 30.1591C447.129 30.1591 446.231 29.9205 445.443 29.4432C444.655 28.9621 444.034 28.2746 443.58 27.3807C443.129 26.4867 442.903 25.4205 442.903 24.1818C442.903 22.9394 443.131 21.8731 443.585 20.983C444.04 20.089 444.661 19.4034 445.449 18.9261C446.237 18.4451 447.133 18.2045 448.136 18.2045C448.754 18.2045 449.33 18.2936 449.864 18.4716C450.402 18.6458 450.884 18.9034 451.312 19.2443C451.741 19.5814 452.095 19.9943 452.375 20.483C452.655 20.9678 452.845 21.5227 452.943 22.1477ZM458.584 30.1761C457.766 30.1761 457.052 29.9886 456.442 29.6136C455.832 29.2386 455.358 28.714 455.021 28.0398C454.684 27.3655 454.516 26.5777 454.516 25.6761C454.516 24.7708 454.684 23.9792 455.021 23.3011C455.358 22.6231 455.832 22.0966 456.442 21.7216C457.052 21.3466 457.766 21.1591 458.584 21.1591C459.402 21.1591 460.116 21.3466 460.726 21.7216C461.336 22.0966 461.809 22.6231 462.146 23.3011C462.483 23.9792 462.652 24.7708 462.652 25.6761C462.652 26.5777 462.483 27.3655 462.146 28.0398C461.809 28.714 461.336 29.2386 460.726 29.6136C460.116 29.9886 459.402 30.1761 458.584 30.1761ZM458.589 28.75C459.12 28.75 459.559 28.6098 459.908 28.3295C460.256 28.0492 460.514 27.6761 460.68 27.2102C460.851 26.7443 460.936 26.2311 460.936 25.6705C460.936 25.1136 460.851 24.6023 460.68 24.1364C460.514 23.6667 460.256 23.2898 459.908 23.0057C459.559 22.7216 459.12 22.5795 458.589 22.5795C458.055 22.5795 457.612 22.7216 457.26 23.0057C456.911 23.2898 456.652 23.6667 456.482 24.1364C456.315 24.6023 456.232 25.1136 456.232 25.6705C456.232 26.2311 456.315 26.7443 456.482 27.2102C456.652 27.6761 456.911 28.0492 457.26 28.3295C457.612 28.6098 458.055 28.75 458.589 28.75ZM466.247 24.8182V30H464.548V21.2727H466.179V22.6932H466.287C466.488 22.2311 466.802 21.8598 467.23 21.5795C467.662 21.2992 468.205 21.1591 468.861 21.1591C469.455 21.1591 469.976 21.2841 470.423 21.5341C470.87 21.7803 471.217 22.1477 471.463 22.6364C471.709 23.125 471.832 23.7292 471.832 24.4489V30H470.134V24.6534C470.134 24.0208 469.969 23.5265 469.639 23.1705C469.31 22.8106 468.857 22.6307 468.281 22.6307C467.887 22.6307 467.537 22.7159 467.23 22.8864C466.927 23.0568 466.687 23.3068 466.509 23.6364C466.334 23.9621 466.247 24.3561 466.247 24.8182ZM478.185 21.2727V22.6364H473.418V21.2727H478.185ZM474.696 19.1818H476.395V27.4375C476.395 27.767 476.444 28.0152 476.543 28.1818C476.641 28.3447 476.768 28.4564 476.923 28.517C477.082 28.5739 477.255 28.6023 477.44 28.6023C477.577 28.6023 477.696 28.5928 477.798 28.5739C477.901 28.5549 477.98 28.5398 478.037 28.5284L478.344 29.9318C478.245 29.9697 478.105 30.0076 477.923 30.0455C477.741 30.0871 477.514 30.1098 477.241 30.1136C476.795 30.1212 476.378 30.0417 475.991 29.875C475.605 29.7083 475.293 29.4508 475.054 29.1023C474.815 28.7538 474.696 28.3163 474.696 27.7898V19.1818ZM482.604 30.1932C482.051 30.1932 481.551 30.0909 481.104 29.8864C480.657 29.678 480.303 29.3769 480.041 28.983C479.784 28.589 479.655 28.1061 479.655 27.5341C479.655 27.0417 479.75 26.6364 479.939 26.3182C480.128 26 480.384 25.7481 480.706 25.5625C481.028 25.3769 481.388 25.2367 481.786 25.142C482.183 25.0473 482.589 24.9754 483.001 24.9261C483.524 24.8655 483.948 24.8163 484.274 24.7784C484.6 24.7367 484.837 24.6705 484.984 24.5795C485.132 24.4886 485.206 24.3409 485.206 24.1364V24.0966C485.206 23.6004 485.066 23.2159 484.786 22.9432C484.509 22.6705 484.096 22.5341 483.547 22.5341C482.975 22.5341 482.524 22.661 482.195 22.9148C481.869 23.1648 481.643 23.4432 481.518 23.75L479.922 23.3864C480.111 22.8561 480.388 22.428 480.751 22.1023C481.119 21.7727 481.541 21.5341 482.018 21.3864C482.496 21.2348 482.998 21.1591 483.524 21.1591C483.873 21.1591 484.242 21.2008 484.632 21.2841C485.026 21.3636 485.393 21.5114 485.734 21.7273C486.079 21.9432 486.361 22.2519 486.581 22.6534C486.801 23.0511 486.911 23.5682 486.911 24.2045V30H485.251V28.8068H485.183C485.073 29.0265 484.909 29.2424 484.689 29.4545C484.469 29.6667 484.187 29.8428 483.842 29.983C483.498 30.1231 483.085 30.1932 482.604 30.1932ZM482.973 28.8295C483.443 28.8295 483.844 28.7367 484.178 28.5511C484.515 28.3655 484.77 28.1231 484.945 27.8239C485.123 27.5208 485.212 27.197 485.212 26.8523V25.7273C485.151 25.7879 485.034 25.8447 484.859 25.8977C484.689 25.947 484.494 25.9905 484.274 26.0284C484.054 26.0625 483.84 26.0947 483.632 26.125C483.424 26.1515 483.25 26.1742 483.109 26.1932C482.78 26.2348 482.479 26.3049 482.206 26.4034C481.937 26.5019 481.721 26.6439 481.558 26.8295C481.399 27.0114 481.32 27.2538 481.32 27.5568C481.32 27.9773 481.475 28.2955 481.786 28.5114C482.096 28.7235 482.492 28.8295 482.973 28.8295ZM492.849 30.1761C492.005 30.1761 491.277 29.9848 490.668 29.6023C490.062 29.2159 489.596 28.6837 489.27 28.0057C488.944 27.3277 488.781 26.5511 488.781 25.6761C488.781 24.7898 488.948 24.0076 489.281 23.3295C489.615 22.6477 490.084 22.1155 490.69 21.733C491.296 21.3504 492.01 21.1591 492.832 21.1591C493.495 21.1591 494.086 21.2822 494.605 21.5284C495.124 21.7708 495.543 22.1117 495.861 22.5511C496.183 22.9905 496.374 23.5038 496.435 24.0909H494.781C494.69 23.6818 494.482 23.3295 494.156 23.0341C493.834 22.7386 493.402 22.5909 492.861 22.5909C492.387 22.5909 491.973 22.7159 491.616 22.9659C491.264 23.2121 490.99 23.5644 490.793 24.0227C490.596 24.4773 490.497 25.0152 490.497 25.6364C490.497 26.2727 490.594 26.822 490.787 27.2841C490.98 27.7462 491.253 28.1042 491.605 28.358C491.961 28.6117 492.38 28.7386 492.861 28.7386C493.183 28.7386 493.474 28.6799 493.736 28.5625C494.001 28.4413 494.223 28.2689 494.401 28.0455C494.582 27.822 494.709 27.553 494.781 27.2386H496.435C496.374 27.803 496.19 28.3068 495.884 28.75C495.577 29.1932 495.166 29.5417 494.651 29.7955C494.139 30.0492 493.539 30.1761 492.849 30.1761ZM502.325 21.2727V22.6364H497.558V21.2727H502.325ZM498.837 19.1818H500.536V27.4375C500.536 27.767 500.585 28.0152 500.683 28.1818C500.782 28.3447 500.909 28.4564 501.064 28.517C501.223 28.5739 501.395 28.6023 501.581 28.6023C501.717 28.6023 501.837 28.5928 501.939 28.5739C502.041 28.5549 502.121 28.5398 502.178 28.5284L502.484 29.9318C502.386 29.9697 502.246 30.0076 502.064 30.0455C501.882 30.0871 501.655 30.1098 501.382 30.1136C500.935 30.1212 500.518 30.0417 500.132 29.875C499.746 29.7083 499.433 29.4508 499.195 29.1023C498.956 28.7538 498.837 28.3163 498.837 27.7898V19.1818ZM510.604 23.4034L509.064 23.6761C509 23.4792 508.897 23.2917 508.757 23.1136C508.621 22.9356 508.435 22.7898 508.2 22.6761C507.965 22.5625 507.672 22.5057 507.32 22.5057C506.839 22.5057 506.437 22.6136 506.115 22.8295C505.793 23.0417 505.632 23.3163 505.632 23.6534C505.632 23.9451 505.74 24.1799 505.956 24.358C506.172 24.536 506.52 24.6818 507.001 24.7955L508.388 25.1136C509.191 25.2992 509.789 25.5852 510.183 25.9716C510.577 26.358 510.774 26.8598 510.774 27.4773C510.774 28 510.623 28.4659 510.32 28.875C510.02 29.2803 509.602 29.5985 509.064 29.8295C508.53 30.0606 507.911 30.1761 507.206 30.1761C506.229 30.1761 505.431 29.9678 504.814 29.5511C504.196 29.1307 503.818 28.5341 503.678 27.7614L505.32 27.5114C505.422 27.9394 505.632 28.2633 505.95 28.483C506.268 28.6989 506.683 28.8068 507.195 28.8068C507.751 28.8068 508.196 28.6913 508.53 28.4602C508.863 28.2254 509.03 27.9394 509.03 27.6023C509.03 27.3295 508.928 27.1004 508.723 26.9148C508.522 26.7292 508.214 26.589 507.797 26.4943L506.32 26.1705C505.505 25.9848 504.903 25.6894 504.513 25.2841C504.126 24.8788 503.933 24.3655 503.933 23.7443C503.933 23.2292 504.077 22.7784 504.365 22.392C504.653 22.0057 505.051 21.7045 505.558 21.4886C506.066 21.2689 506.647 21.1591 507.303 21.1591C508.246 21.1591 508.988 21.3636 509.53 21.7727C510.071 22.178 510.429 22.7216 510.604 23.4034Z" fill="white"/>
</svg>
