<svg width="1170" height="397" viewBox="0 0 1170 397" fill="none" xmlns="http://www.w3.org/2000/svg">
<path opacity="0.85" d="M230.957 3.24999H272.707L321.207 103.5H322.457L372.957 3.24999H412.957V141.5H382.207V44.75H380.707L333.957 141.5H307.707L262.707 44.75H261.207V141.5H230.957V3.24999ZM467.238 72.5C467.238 101 487.488 118.25 513.488 118.25C539.488 118.25 559.738 101 559.738 72.5C559.738 44 539.488 26.75 513.488 26.75C487.488 26.75 467.238 44 467.238 72.5ZM590.988 72.5C590.988 116 555.488 145 513.488 145C471.488 145 435.988 116 435.988 72.5C435.988 29 471.488 -1.10865e-05 513.488 -1.10865e-05C555.488 -1.10865e-05 590.988 29 590.988 72.5ZM643.264 72.5C643.264 101 663.514 118.25 689.514 118.25C715.514 118.25 735.764 101 735.764 72.5C735.764 44 715.514 26.75 689.514 26.75C663.514 26.75 643.264 44 643.264 72.5ZM767.014 72.5C767.014 116 731.514 145 689.514 145C647.514 145 612.014 116 612.014 72.5C612.014 29 647.514 -1.10865e-05 689.514 -1.10865e-05C731.514 -1.10865e-05 767.014 29 767.014 72.5ZM790.039 3.24999H819.539L902.289 96.25V3.24999H933.289V141.5H903.539L820.789 48.25V141.5H790.039V3.24999ZM1.86265e-07 255.25H71.25C109.25 255.25 145.75 282.75 145.75 324.25C145.75 365.75 109.25 393.5 71.25 393.5H1.86265e-07V255.25ZM31.25 283.5V365H71.25C96.25 365 114.5 348 114.5 324.25C114.5 300.5 96.25 283.5 71.25 283.5H31.25ZM168.213 255.25H293.713V283.5H199.463V309H284.213V337.25H199.463V364.75H297.213V393.5H168.213V255.25ZM454.365 272.5L439.365 295.5C423.115 284.25 406.615 279.75 384.615 279.75C357.615 279.75 351.115 286.75 351.115 294.5C351.115 302.5 358.365 304.5 369.115 305.75L410.615 310.5C440.115 314 458.365 326.5 458.365 352C458.365 383 428.115 397 386.615 397C358.365 397 337.115 391 315.115 374.75L329.865 350.5C348.865 363.75 367.365 369.75 390.115 369.75C412.115 369.75 428.115 364.25 428.115 352.5C428.115 345 424.115 341.25 412.365 340L365.865 334.75C337.615 331.5 320.365 320.5 320.365 294.75C320.365 265.5 349.365 252 384.615 252C410.365 252 432.865 256.5 454.365 272.5ZM480.713 255.25H511.963V393.5H480.713V255.25ZM618.365 313.25H683.615V393.5H664.115L659.865 382.75C646.615 392 632.365 397 611.615 397C568.115 397 534.365 369.25 534.365 324.5C534.365 279.75 568.115 252 611.615 252C643.615 252 665.365 263.5 681.115 287L656.365 301C645.365 286.75 633.865 280.5 611.115 280.5C583.365 280.5 565.365 297.25 565.365 324.5C565.365 351.75 583.365 368.5 611.115 368.5C630.865 368.5 642.365 364.75 653.615 356V340.25L618.365 339V313.25ZM709.961 255.25H739.461L822.211 348.25V255.25H853.211V393.5H823.461L740.711 300.25V393.5H709.961V255.25ZM878.174 255.25H1003.67V283.5H909.424V309H994.174V337.25H909.424V364.75H1007.17V393.5H878.174V255.25ZM1030.52 255.25H1112.02C1144.52 255.25 1169.02 277 1169.02 309.5C1169.02 330.75 1158.52 346.75 1142.27 355.5L1163.52 393.5H1129.52L1113.27 362.75H1061.77V393.5H1030.52V255.25ZM1061.77 283.75V334.25H1110.77C1126.77 334.25 1137.77 325.5 1137.77 309.5C1137.77 293.5 1126.77 283.75 1110.77 283.75H1061.77Z" fill="white"/>
</svg>
